<svg width="1840" height="1380" viewBox="0 0 1840 1380" fill="none" xmlns="http://www.w3.org/2000/svg">
<path d="M920.3 1379.9C615.2 1379.9 310 1379.9 4.90002 1380C1.00002 1380 0 1379.4 0 1375.2C0.1 918.4 0.1 461.7 0 4.89999C0 0.999994 0.600049 0 4.80005 0C614.9 0.1 1225 0.1 1835.1 0C1839 0 1840 0.599988 1840 4.79999C1839.9 461.6 1839.9 918.3 1840 1375.1C1840 1379 1839.4 1380 1835.2 1380C1530.2 1379.9 1225.2 1379.9 920.3 1379.9Z" fill="#FCFCFC"/>
<path d="M660.5 635.7C663.7 614.7 666.8 593.7 670 572.8C672.4 557.1 675.2 541.4 677.4 525.6C680.3 505 690 490.3 710.9 484.4C711 483.9 711.3 483.4 711.7 483.9C720.4 496 730.1 507.4 735.9 521.5C747 548.4 744.9 575.1 735.3 601.8C733.7 606.2 732.1 610.5 730.3 614.9C729.7 616.4 728.7 617.9 729.7 619.9C731.8 619.9 733.2 618.4 734.6 617C760.2 591.5 772.3 561.2 768.5 524.9C767.4 514.1 765.2 503.5 763.4 492.9C763 490.8 761.8 488.2 764.7 486.7C771.8 485.8 778.8 485.8 785.9 486.9C792.3 487.9 798.8 487.1 805.2 487.2C808.3 487.3 811.5 487 814.6 487.4C834.4 489.9 849.1 506.5 848.5 526.4C847.5 559.9 846 593.4 844.8 627C844.7 629.8 844.7 632.6 844.7 635.5C845.2 636.2 845.6 637 845.8 637.8C846.8 647.1 848.6 656.3 850 665.5C851.5 678 853.7 690.4 855.5 702.9C857.2 714.5 858.6 726.2 860.9 737.7C861.4 740.3 861.1 743 861.8 745.6C861.9 747.7 861.9 749.9 862.6 752C864.8 764.8 866.5 777.7 868.6 790.5C870 800.3 871.6 810.1 872.9 819.8C872.9 821.2 873.3 822.6 873.6 823.9C875.8 839.3 878.3 854.6 880.5 869.9C880.7 871 880.9 872.1 880.9 873.2C881.7 878.2 882.6 883.3 883 888.3C883 889.3 883.2 890.4 882.5 891.4C882.5 891.6 882.5 891.7 882.5 891.9C881.9 894.9 885.1 898.7 882.5 900.6C880.4 902.1 876.5 901.2 873.4 901.4C870.4 901.6 867.5 901.9 864.6 902.2C863.9 902.8 863.2 903.3 862.3 903.4C859.6 903.8 857 903.6 854.3 903.6C840.8 904.9 827.2 905 813.7 905.8C805.6 906.3 797.5 906.3 789.4 907C786 907.3 783.1 905.1 779.8 906C776.1 906.1 772.4 906.3 768.8 906.4C764.6 908.7 760 908.6 755.4 908.8C737.5 909.8 719.7 910.1 701.8 911.5C699.5 911.7 697.2 911.7 694.8 911.6C680.2 912.3 665.6 913.3 651 913.7C648.5 913.8 646 914 643.7 912.5C642.1 910.7 642.3 908.5 642.2 906.4C642 894.2 640.8 882 640.9 869.8C641.6 864.9 640.8 859.9 641.7 855C642.2 853.4 643.2 852 644.2 850.7C651.7 845.9 660.3 843.9 668.5 840.7C681.1 835.7 694 831.3 706.5 826.1C715.5 823.1 724.7 820.9 733.9 818.8C744.7 816.3 751.4 809.8 747.6 797.6C747.4 797 747.4 796.3 747.4 795.6C749.1 788.2 746.6 781.1 746 773.9C745.8 771.9 745.2 770 745.6 768C747.5 764.5 745.3 761.1 745.2 757.7C746.8 748.7 745.8 739.9 742.4 731.4C742 730.3 742.1 729.1 742.4 728C744.1 719.7 743.1 711.4 742.1 703.2C740.3 688.9 736.7 675.1 728.2 663.1C725.6 659.5 722.5 656.3 718.9 653.7C735.5 670.1 740.7 690.9 741.8 713.2C742 717.8 742.5 722.5 741.2 727.1C739.2 729.9 735.9 730.4 733 731.5C720.9 736.1 708.7 740.6 696.5 745.2C691.1 747.2 690.8 747.8 692.5 753.3C695.3 762.3 697.6 771.6 700.8 780.5C701.5 782.3 702.4 784.2 701.6 786.3C698.2 787.7 695.2 790.1 691.2 789.5C688.9 788 686.5 788.3 684.1 789.2C675.2 792.4 666.3 795.5 657.4 798.6C651.6 800.7 650.6 799.9 650.1 793.7C649.6 786 648.6 778.3 648.6 770.5C651.6 762.7 654.1 754.8 656.6 746.9C659 739.8 661.2 732.7 663.7 725.7C664.8 722.5 664.6 719.7 663.2 716.6C658.2 705.5 654.9 693.9 655 681.5C654.5 672.8 655.3 664.3 657.1 655.8C658.1 650.9 657.7 645.9 658.5 641C659 639.3 659 637.3 660.5 635.7Z" fill="#E98F27"/>
<path d="M1450.4 1167.6C1449.9 1161.5 1446.3 1156.5 1444.1 1151C1441.3 1143.9 1438.2 1136.9 1435 1130C1434.3 1128.5 1434 1125.4 1431.3 1126.6C1428.9 1127.7 1430.8 1129.8 1431.4 1131.4C1436.2 1143 1442 1154.3 1446.2 1166.2C1444.6 1167.7 1442.6 1167.8 1440.6 1167.8C1411.9 1167.8 1383.2 1168.1 1354.5 1167.7C1351.4 1167.5 1349.9 1165.5 1349.2 1162.7C1347.7 1157.1 1345.6 1151.7 1344 1146.2C1343.5 1144.4 1342.9 1142.6 1342.2 1140.9C1327.4 1096.9 1313.2 1052.6 1298.5 1008.6C1294.3 996 1290.2 983.3 1286.1 970.6C1281.1 955 1280.4 939.3 1284.6 923.4C1287.3 912.9 1289.4 902.3 1292.2 891.9C1292.5 890.9 1292.9 889.8 1293 888.8C1300.5 856.1 1308.8 823.6 1316.5 790.9C1320.4 774.4 1324.5 758 1328.4 741.5C1328.9 739.4 1329.3 737.2 1330.8 735.6C1337.7 733.8 1344.6 732.7 1351.4 730.3C1386.9 717.7 1422.1 704.6 1457.5 691.9C1459.8 691.1 1462.6 688.6 1465.1 692C1466.1 697.6 1466.5 703.3 1466.5 708.9C1466.4 723.2 1467.4 737.5 1467.9 751.8C1468.8 775.5 1469 799.3 1470.6 823C1471.2 832.8 1471.2 842.6 1471.5 852.4C1471.8 867.5 1472.4 882.6 1473 897.7C1473.9 920.6 1474.1 943.5 1475.6 966.4C1476.3 976.7 1476.2 987 1476.5 997.3C1476.9 1012.1 1477.6 1026.9 1478 1041.7C1478.5 1060.3 1477.7 1056.8 1494.1 1056.8C1499.4 1056.8 1504.7 1055.7 1510 1056C1512.1 1056.1 1514.4 1055.8 1516 1057.7C1516.5 1093.9 1517 1130.1 1517.5 1166.4C1516.5 1167.7 1515 1168 1513.5 1168C1492.3 1167.8 1471.4 1167.8 1450.4 1167.6Z" fill="#8F3600"/>
<path d="M660.5 635.7C659.7 646.2 658.9 656.7 657 667.1C656.1 672.1 656.5 677.3 656.4 682.4C655.8 684.5 654 685.5 652.4 686.7C645.2 691.7 638.2 697 631.1 702.1C628.8 703.3 627.1 705.5 624.5 706.1C623.2 706.3 622.1 705.8 621.1 704.9C617 699.7 614.2 693.6 610.9 687.9C610.2 686.7 609.8 685.5 610.6 684.2C611.6 683.2 612.8 682.7 614.1 682.3C631.8 677 635.5 662.2 634.1 648.2C633.9 646.5 633.4 644.9 633.5 643.3C633.6 641.6 633 640.9 631.3 640.2C627.5 638.6 627.2 636.4 630.4 633.5C633.5 630.7 633.4 626.6 635.2 623.3C635.8 622.3 635.1 621.3 633.9 621.1C627.3 620.3 621.9 616.3 615.8 614.1C613.2 613.2 611 613.6 608.7 614.9C602.5 618.4 596.4 622.2 590 625.4C585.7 627.5 583.8 630.2 584.1 635.1C584.8 648.8 580.2 660.9 572.7 672.2C571.4 674.1 570.3 676.3 567.5 676.3C564.5 675.6 562.7 673.4 560.9 671.2C558.6 668.3 555.8 667.3 552.2 667.3C531.9 667.4 511.6 666.6 491.3 667.6C473.7 668.5 456 668 438.4 668.3C436 668.3 433.4 668.7 431.3 666.8C431.1 661.2 430.8 655.5 430.9 649.9C431 646.8 430.2 645.7 426.9 645.7C414.9 645.7 403 645.4 391 645C357.2 643.7 333.7 612.9 340.6 579.8C345.1 558.3 354.8 539.3 366.6 521.1C380.3 499.9 391.4 477.3 402.4 454.6C414.7 429.3 435.5 416.9 463.6 417.2C473.7 417.3 483.8 418.3 494 418.9C495.4 417.8 497 417.5 498.7 417.7C506.9 419 515.2 418.3 523.4 418.5C528.2 418.6 532.8 420.3 537.5 420.8C547.3 421.2 557.1 421.5 566.9 421.9C578.4 422.3 586.9 430.3 589 441.7C595.5 476.5 602.3 511.1 609 545.9C609.2 547 609.8 548.1 610.3 549.1C626.5 577.5 642.7 605.8 659 634.2C659.3 634.5 660 635.1 660.5 635.7Z" fill="black"/>
<path d="M431.2 666.6C444.5 666.5 457.8 666.7 471.1 666.4C498.7 665.7 526.2 665.7 553.8 665.5C557.1 665.5 559.3 666.2 561.2 669.2C562.9 672 565.2 674.5 568.5 675.6C569.6 676.3 570 677.4 570 678.6C570.2 687.3 571 696.1 569.5 704.8C568 707.2 565.5 706.9 563.2 706.9C556.9 707 550.6 706.8 544.2 707C528.7 707.3 520.1 714.7 517.3 729.8C516.8 732.4 516.9 735.2 514.5 737.1C509 739.1 508.4 739.7 509.3 745.3C510.8 753.7 509 762.2 510.5 770.6C510.2 777.9 509.1 785.1 507.5 792.2C504.8 804.2 507.3 815.9 508.4 827.7C508.9 833.5 510.2 839.2 510.4 845C509.7 847.8 510.1 850.8 509.5 853.6C508.3 864.1 509.4 874.6 509 885C509 886.5 509 888 509 889.5C509 890.8 509 892 509.2 893.2C509.3 918.8 509.9 944.5 509.1 970.1C507.3 1032.1 508.8 1094.2 508.2 1156.2C508.2 1159.2 508.7 1162.2 507 1165C504 1167.4 500.4 1166.2 497.1 1166.4C494.3 1166.6 491.6 1166.4 488.8 1166.4C481.6 1166.7 474.4 1165.6 467.2 1167.2C452.2 1168.1 437.3 1167.5 422.3 1167.5C420.6 1167.5 418.9 1167.3 417.8 1165.9C419.2 1115.2 420.5 1064.5 421.9 1013.7C423.6 949.3 425.2 885 426.9 820.6C428.4 769.4 429.8 718 431.2 666.6Z" fill="#8F3600"/>
<path d="M1515.9 1057.3C1504.8 1057.6 1493.6 1057.8 1482.5 1058.4C1478.4 1058.6 1476.8 1057.9 1476.7 1053.3C1475.6 1015.6 1474.2 977.8 1472.9 940.1C1470.9 882.1 1468.9 824.1 1466.9 766.1C1466 741 1465 715.9 1464.1 690.8C1465.4 688.3 1467.9 687.7 1470.2 687C1473.1 686.1 1474.3 684.6 1473.7 681.6C1471.5 669.2 1469.7 656.8 1467.7 644.4C1467.2 641.3 1465.8 640.7 1462.9 641.6C1459 642.8 1455.4 645.2 1451 644.4C1448.9 643.5 1448.5 641.4 1448 639.5C1442.2 619.2 1436.1 599 1430.5 578.7C1430 576.8 1429 575 1429.9 572.9C1435.1 572.4 1440.2 573.4 1445.4 571.4C1453.2 568.5 1456 564.4 1454.4 556.2C1453.7 552.8 1452.9 549.3 1450.9 546.4C1448.7 543.2 1445.3 541.9 1441.8 542.3C1437.3 542.8 1435.5 540.6 1434.4 536.8C1430 521.5 1425.4 506.2 1420.9 490.9C1419.5 486.1 1417.6 481.5 1416.9 476.5C1417.4 475 1418.7 474.6 1420 474.3C1427.7 472 1435.2 468.7 1443.3 467.7C1453.4 466.9 1463 468.7 1472.1 473.4C1473.1 474 1473.6 474.9 1474.2 475.8C1484 481.8 1489.8 490.6 1492.1 501.7C1492.5 503.8 1493.5 505.7 1494.2 507.7C1494.9 508.5 1495.8 509.1 1496.1 510.2C1500.7 525.1 1505 540.1 1509.7 555C1511.3 557.3 1511.1 559.9 1511.2 562.5C1510.3 546.2 1510.9 529.9 1510.8 513.6C1510.8 511.8 1510.6 509.9 1512.3 508.6C1513.4 510.3 1512.9 512.2 1512.9 513.9C1512.9 530.9 1513.2 547.9 1512.8 564.8C1512.7 571.4 1514.8 577.2 1516.6 583.2C1522.1 602 1527.9 620.7 1533.6 639.5C1537.7 653 1532.1 665.8 1519.1 671.6C1516.4 672.8 1515.3 673.6 1515.8 677.2C1519.9 706.1 1523.4 735.1 1527.2 764.1C1531 792.9 1535 821.7 1538.8 850.5C1542.3 876.8 1545.6 903.2 1549.1 929.5C1552.6 956 1556.2 982.5 1559.7 1009C1561.6 1023 1563.2 1037 1565.2 1051C1565.7 1054.4 1564.9 1055.4 1561.3 1055.5C1546.1 1055.8 1531 1056.6 1515.9 1057.3Z" fill="#6DB5DE"/>
<path d="M982.5 886.7C995.1 887.3 1007.7 888 1020.9 888.6C1017.9 898 1014.9 907.2 1012 916.3C1011 919.5 1009.8 922.6 1008.8 925.7C1007.7 929.5 1006.8 932.8 1001.7 933.9C996.8 935 995 941.3 997.2 945.9C999.5 950.7 1005.2 952.5 1009.9 949.8C1014.4 947.2 1016.5 941.2 1013 937.4C1009.7 933.8 1011 931 1012.2 927.6C1016.1 915.9 1019.9 904.2 1023.6 892.6C1024.3 890.3 1024.9 887.9 1028.2 888.9C1031.3 889.8 1035.6 887.2 1037.1 892.6C1040.6 905.2 1044.5 917.8 1048.3 930.3C1048.9 932.3 1048.8 933.5 1047.1 934.9C1043.4 938 1042.9 942 1045.1 946.1C1047.1 949.9 1050.6 951.3 1054.8 950.5C1059.1 949.7 1061.5 946.8 1062 942.6C1062.5 937.9 1060 934.7 1055.6 933.1C1054 932.5 1052.7 932.1 1052.1 930.1C1048.2 916.7 1044.1 903.4 1040.4 890.8C1051.2 890.8 1061.9 890.8 1072.6 890.8C1075.3 890.8 1074.9 893.1 1075.4 894.7C1088 937.5 1100.6 980.4 1113.2 1023.2C1119.7 1045.3 1126.1 1067.5 1132.9 1089.6C1134.3 1094.1 1133.2 1094.8 1128.9 1094.7C1109.4 1094.4 1090 1094.4 1070.5 1094.3C1069.1 1095.3 1067.5 1095.7 1065.8 1095.7C1054.9 1095.5 1043.9 1096.5 1033.1 1095C1030 1094.6 1026.8 1094.5 1023.7 1094.6C1021.8 1094.8 1019.8 1094.8 1017.9 1094.6C1005.5 1094.9 993.2 1094.7 980.8 1094.7C978.8 1094.7 976.8 1094.6 975.2 1093.2L975 1093C969.1 1092.6 963.1 1091.5 957.4 1094.3C954.5 1094.6 951.6 1094.7 948.6 1094.3C947.7 1094.1 947 1093.6 946.3 1093C940.6 1091.7 934.7 1092.4 928.9 1092.3C925.3 1092.2 924.8 1091.4 925.8 1088C932.3 1065.7 938.6 1043.3 944.9 1020.9C945.5 1018.7 945.9 1016.4 946.4 1014.1C947 1011.2 947.3 1008.2 948 1005.3C950.6 995.8 953.1 986.3 956.1 977C957.1 973.6 957.9 970.1 958.9 966.6C961.1 959.1 963.3 951.6 965.3 944.1C970.3 927.1 974.9 909.9 979.9 892.9C980.8 890.9 981.2 888.6 982.5 886.7Z" fill="#202B6D"/>
<path d="M864.4 1173.1C880 1184.4 895.6 1195.7 911.4 1206.9C921.8 1214.2 925.8 1224.7 927.2 1236.7C927.4 1238.5 926.9 1239.6 924.9 1239.6C924.1 1239.6 923.2 1239.6 922.4 1239.6C873.6 1239.6 824.8 1239.6 776 1239.7C771.9 1239.7 770.9 1239 771.2 1234.5C773.6 1203.8 776.8 1173.2 777.7 1142.4C778.3 1122.6 780.4 1102.9 780.6 1083.1C780.6 1082.2 780.7 1081.4 781.6 1081.1C784.9 1078.4 789.1 1078.6 793 1078.2C811.3 1076.2 829.5 1073.3 847.7 1071.3C850.2 1071 852.7 1070.5 854.9 1072.3C856.2 1074.2 856.1 1076.4 856.1 1078.6C856.1 1100.2 856.1 1121.8 856.1 1143.5C856.1 1148 855.3 1152.4 855 1156.9C854.7 1162.4 856 1166.7 861.1 1169.4C862.4 1170.3 863.6 1171.5 864.4 1173.1Z" fill="#8F3600"/>
<path d="M418 1166C434.6 1166 451.2 1166 467.8 1165.9C474.7 1165.3 481.7 1165.8 488.7 1165.6C494.7 1165.7 500.6 1165.4 506.6 1165.8C509 1167.9 509.1 1170.8 509.2 1173.6C509.8 1187.7 512.3 1201.6 511.8 1215.7C511.7 1217.2 511.9 1218.6 512.8 1220.2C512.9 1220.5 513.3 1219.5 512.7 1219.9C512.6 1220 512.4 1219.9 512.4 1219.5C511.6 1210.1 511.4 1200.7 514.7 1191.6C516.9 1190.1 519.5 1190.4 521.9 1190.4C535.8 1190.4 549.7 1190.4 563.6 1190.4C566.2 1190.4 568.9 1190.6 571.3 1189.3C573.1 1188.2 574.4 1189.1 575.7 1190.3C580.4 1194.6 586.2 1197.1 591.5 1200.5C594.1 1202.2 595.4 1201.7 595.5 1198.4C595.6 1195.4 595.6 1192.3 599.1 1190.9C608.5 1189.9 617.9 1190.6 627.3 1190.5C635.9 1190.4 644.5 1190.3 653.1 1190.6C656.2 1190.8 658.9 1192.1 661.5 1193.6C675.1 1201.6 688.8 1209.4 702.3 1217.5C708.6 1221.2 712.5 1226.9 714.2 1234C714.6 1235.8 715.1 1237.6 713.7 1239.2L713.8 1239.1C712.5 1239.7 711.2 1239.5 709.9 1239.5C609.3 1239.5 508.7 1239.5 408.1 1239.5C407.3 1239.5 406.4 1239.5 405.6 1239.4C404.4 1235.2 406.3 1231.3 407 1227.4C410.3 1207.7 413.8 1188 417.2 1168.3C417.2 1167.5 417.7 1166.7 418 1166Z" fill="black"/>
<path d="M1170.2 783.5C1172.7 784 1173.8 784.7 1172.6 787.8C1164.3 809.7 1156.4 831.7 1148 853.5C1143.9 864 1135.5 869.2 1124.2 869.3C1108.7 869.4 1093.2 869.5 1077.7 869.2C1073.8 869.1 1072.8 870.3 1073.3 873.9C1073.7 877 1073.3 880.2 1073.7 883.4C1074.1 886.7 1073 887.1 1069.9 887C1040.8 885.6 1011.7 884.4 982.6 883.1C982.6 882.9 982.5 882.8 982.5 882.6C985.2 869.5 985.9 871.5 973 867.1C970.2 866.1 967.3 865.2 964.5 864.3C952.1 860 939.6 855.9 927.1 851.8C920.8 849.8 915.9 846.1 912.4 840.5C908.6 834.4 904.6 828.5 901 822.4C900.5 821.6 900 820.8 899.4 820C893.3 810.2 887.1 800.4 880.9 790.7C879 787.7 878.4 784.9 882.5 783.1C890.5 780.8 898.2 777.3 906 774.4C907.7 773.1 909.8 774.4 911.6 773.6C918.8 770.8 918.8 770.8 923 777.3C929.9 788 936.8 798.7 943.8 809.4C944.5 810.5 944.9 812 946.3 812.4C957.1 815.4 967.4 820.2 978.4 822.4C984.2 822.4 989.3 825.1 994.5 827C1000.5 829.1 1006.5 829.1 1012.6 829.2C1015.1 829.2 1016.7 827.1 1019.2 827.3C1026.3 828.7 1033.5 827.7 1040.6 828C1043.1 828.1 1045.6 827.8 1047.8 829.5C1066.4 830.9 1085 830.3 1103.5 831C1117.2 831.5 1117.2 831.4 1122.2 818.8C1126.6 807.7 1131.3 796.8 1135.4 785.6C1136.9 781.6 1138.8 779.9 1142.9 781C1152.1 779.8 1161.3 780.5 1170.2 783.5Z" fill="#202B6D"/>
<path d="M694.6 910.4C719.3 909.1 743.9 907.9 768.5 906.6C766 907.9 766.6 910.3 766.6 912.3C766.6 930.9 766.5 949.6 766.7 968.2C766.9 992.6 760.7 1015.1 748.6 1036.2C738.2 1054.4 727.9 1072.6 717.5 1090.8C716.6 1092.4 716 1094.1 714.4 1095.2C712.8 1096.4 711.2 1095.8 709.7 1095.1C690.3 1086.2 670.9 1077.5 651.5 1068.9C650.4 1068.4 649.4 1067.8 648.8 1066.7C647.8 1063.7 648 1060.7 648.6 1057.7C654.2 1046 661.8 1035.4 668.4 1024.2C676 1011.5 683.3 998.5 691.8 986.4C697.5 978.3 697.7 969.8 697 960.8C695.6 944.8 694.7 928.7 693.8 912.6C693.8 911.8 694.1 911 694.6 910.4Z" fill="#FD9993"/>
<path d="M854.3 1072.3C842 1072.6 829.9 1075 817.7 1076.4C805.7 1077.7 793.7 1079.4 781.6 1080.9C783 1079.4 782.7 1077.5 782.7 1075.7C782.7 1020.8 782.7 965.9 782.7 911C782.7 908.7 783.3 906.1 779.6 906.2C782.9 904.7 786.4 905.8 789.7 905.6C808 904.5 826.4 904 844.7 903.3C848 903.2 851.2 901.9 854.6 902.6C856.3 904.5 856.1 906.9 856.1 909.2C856.1 961.3 856.1 1013.3 856.1 1065.4C856.1 1067.8 856.5 1070.4 854.3 1072.3Z" fill="#FD9993"/>
<path d="M763.9 487.6C766.7 505.6 771.5 523.5 770.6 541.9C769.1 572 757 597.3 735.5 618.3C733.4 620.3 730.6 623.6 728.1 622C725.8 620.5 728.3 616.8 729.3 614.3C735.2 599.4 740.4 584.5 741.8 568.3C744.3 540.1 735.3 515.7 717.7 494C715.2 490.9 712.2 488.2 710.9 484.3C709.3 478.4 709.2 472.5 710.5 466.6C709.7 465.3 710.1 464.1 710.6 462.8C713.7 456 718.1 450.3 724.8 446.7C726.5 445.8 726.6 445.1 725.7 443.4C715.5 423.8 718.3 405.1 729.5 386.9C730.7 385.1 732.5 383.7 733.7 381.9C735.8 379.2 738.1 376.7 740.9 374.6C748.5 370.3 757 368.6 765.5 367.3C767.4 367.3 769.2 367.2 771 366.6C784.1 365.5 797.1 366.5 810 369.1C815.8 370.3 821 372.6 825.3 376.9C831.1 382.8 830.5 386.7 823.3 390.9C810 396.3 796.4 396.2 782.7 393.2C779 392.4 778.8 393.5 778.9 396.3C779 401.9 779 407.6 778.9 413.2C778.8 426.2 772.9 435.7 761.3 441.6C755.2 444.7 755 444.7 757 451.5C759.8 461.2 761.7 471.2 763.9 481.1C764.5 483.4 765.3 485.6 763.9 487.6Z" fill="black"/>
<path d="M1430.3 572.7C1437.2 596.5 1444.1 620.3 1451.1 644.1C1450.4 646.4 1448.3 646.8 1446.5 647.4C1432.5 651.9 1418.8 657.3 1404.7 661.7C1400.7 663 1396.7 663.6 1392.5 662.3C1388.8 658.4 1386.9 653.3 1384.4 648.6C1375 630.8 1365.7 612.9 1356.1 595.2C1354.5 592.4 1354.8 589.4 1354.7 586.5C1354.5 581.3 1354.7 576 1355.7 570.9C1356 569.3 1355.5 567.1 1358.1 566.7C1361.8 578.9 1365.4 591.2 1369.2 603.4C1371.9 612.1 1378.3 616.6 1386.7 615.7C1388.3 615.5 1390.5 615.7 1390.5 613.4C1390.4 610.7 1388.2 611.8 1386.7 611.8C1379.2 612.2 1375.3 609.6 1373 602.3C1368.2 586.4 1363.5 570.5 1358.9 554.6C1356.9 547.8 1360.2 541.8 1366.8 539.6C1371.5 538 1376.3 536.6 1381.1 535.3C1387.5 533.6 1393.9 536.7 1395.9 543C1401 559.6 1405.9 576.4 1410.7 593.1C1412.3 598.7 1409.6 603.7 1404.1 606.7C1402.7 607.4 1400.3 607.6 1401.4 610C1402.4 612.1 1404.3 610.8 1405.7 610.2C1412 607.4 1416.3 600.2 1414.5 593.5C1409.7 575.7 1404.6 558 1399 540.5C1396.6 532.9 1387.5 529.2 1379.1 532C1374.8 533.4 1373.5 532.4 1372.4 528.3C1369.6 517.9 1366.5 507.5 1363.2 497.3C1362.1 493.9 1362.9 492.6 1366.2 492C1368 491.7 1369.7 491 1371.4 490.4C1372 489.8 1372.4 489 1373.3 488.8C1383.4 485.9 1393.3 481.8 1403.8 480.2C1404.3 480.4 1404.8 480.7 1405.1 481.1C1409.4 493 1412.2 505.3 1415.8 517.3C1418.3 525.7 1420.5 534.2 1423.2 542.6C1424.1 545.4 1424.8 548.4 1424.7 551.4C1424.4 558.2 1425.6 564.7 1429.8 570.3C1430.1 571.1 1430.5 571.8 1430.3 572.7Z" fill="black"/>
<path d="M1353 1166.3C1384 1166.2 1415.1 1166.2 1446.1 1166.1C1445.2 1176.7 1441.9 1186.7 1439.8 1197.1C1437.2 1209.9 1434 1222.7 1431.2 1235.5C1430.6 1238.3 1429.8 1239.7 1426.4 1239.7C1382 1239.6 1337.6 1239.6 1293.1 1239.7C1289.6 1239.7 1288.9 1238.6 1289.4 1235.4C1291.1 1225 1295.6 1216.2 1303.7 1209.4C1308.9 1205 1314 1200.5 1319.2 1196C1319.7 1194.4 1320.9 1193.4 1321.9 1192.2C1332.4 1183.6 1341.7 1173.7 1353 1166.3Z" fill="black"/>
<path d="M1069.2 573.7C1070.4 570.3 1071.6 566.8 1074.5 564.4C1076.6 563 1078.7 564 1080.7 564.6C1089.2 566.9 1097.5 569.5 1106.1 571.2C1098.3 568.1 1090.2 566.1 1082.2 563.7C1080.3 563.1 1077.7 563.5 1077.2 560.6C1083.1 553.9 1090.4 551.2 1099.1 553.4C1112.9 556.9 1126.6 560.8 1141.5 564.9C1137.6 559.3 1134.3 554.5 1130.9 549.7C1127.4 544.8 1127.4 539.5 1131.1 536.8C1134.9 534.1 1139.7 535.3 1143.5 540.1C1150.7 549.4 1158.1 558.7 1165 568.2C1168.4 572.9 1172.4 576.6 1177.4 579.5C1178.7 579 1179.7 579.6 1180.7 580.3C1186.4 585.2 1192.8 589.2 1198.9 593.6C1199.7 594.1 1200.4 594.7 1201.2 595.2C1208.2 600.6 1215.5 605.5 1222.6 610.7C1224.2 611.9 1226.1 612.7 1226.8 614.8C1225.1 620.7 1220.7 624.9 1217.7 630C1213 637.8 1207.9 645.4 1203 653C1201.9 654.6 1201.1 656.6 1198.8 657C1192 654.3 1186.6 649.4 1180.4 645.6C1179.3 644.8 1178.1 644.1 1177.7 642.6C1161 631 1145.4 617.9 1124.7 613.1C1108.6 609.4 1093.2 602.6 1077.1 598.3C1075.5 597.9 1073.9 597.6 1072.2 597.3C1063.1 595.4 1059.9 587.8 1064.9 580C1065.4 579.2 1066 578.4 1066.6 577.5C1068.5 576 1070.4 577.2 1072.3 577.6C1080.8 579.7 1089.2 582.5 1097.9 584.2C1096.4 582.9 1094.5 582.4 1092.6 581.9C1086.3 580.3 1080.1 578.4 1073.9 576.6C1072 576.3 1069.6 576.3 1069.2 573.7Z" fill="#FD9993"/>
<path d="M649.9 1067C669.9 1075.9 689.9 1084.8 709.9 1093.7C711.4 1094.4 712.8 1095.4 714.6 1095.3C708.9 1107.6 701.7 1119.1 695.2 1131.1C690.6 1139.6 686 1148 681.2 1156.3C679.8 1158.8 679.9 1160 682.5 1161.8C708.5 1179.8 723.3 1204.7 728.2 1235.8C728.7 1238.6 728.2 1239.8 725.2 1239.6C721.4 1239.3 717.6 1239.3 713.8 1239.2C713 1229.8 709 1222.6 700.5 1217.8C687.3 1210.4 674.4 1202.6 661.3 1195C659.2 1193.8 656.8 1192.8 654.6 1191.7C652.3 1187.3 652.3 1182.4 652.3 1177.6C652.2 1155 650.7 1132.4 649.9 1109.8C649.5 1098.5 650 1087.2 648.4 1075.9C647.8 1073 647.2 1069.6 649.9 1067Z" fill="#8F3600"/>
<path d="M1450.4 1167.6C1451.8 1165.7 1453.9 1166.2 1455.9 1166.2C1476.4 1166.1 1496.9 1166.1 1517.4 1166C1519.6 1166.3 1519.5 1168.4 1520.1 1169.8C1529 1191.5 1537.8 1213.4 1546.8 1235.1C1548.4 1238.9 1547.8 1239.7 1543.7 1239.7C1508.8 1239.6 1473.9 1239.6 1438.9 1239.7C1435.1 1239.7 1434.2 1239 1435.1 1235.1C1440.3 1212.6 1445.3 1190.1 1450.4 1167.6Z" fill="black"/>
<path d="M537.3 420.5C522.8 419.7 508.3 420 493.8 418.6C495.3 411.2 494.4 403.7 494.7 396.2C494.9 391.1 494.5 385.9 495.4 380.8C496.1 377 495.1 374.2 490.9 372.8C485.9 371.2 482.2 367.7 480.9 362.5C479.6 357.3 481.7 353 485.8 349.8C487.5 348.5 488.8 347.3 488.9 345.1C498.5 343.8 507.6 340.6 516.9 338.1C520.2 337.2 521.6 334.9 522.6 331.9C524.5 326.1 525.4 325.5 531.6 325.5C545.7 325.4 559.8 325.3 573.9 326.5C575.5 326.6 577.3 326.5 578.4 328.1C578.4 333.5 578.4 338.8 578.4 344.2C577.8 344.4 577.1 344.4 576.5 344.4C575.5 344.5 574.4 344.6 574.5 345.9C574.6 347.1 575.7 347.3 576.6 347.4C577.2 347.5 577.9 347.5 578.5 347.8C578.5 355.2 578.9 362.6 577.8 370.1C575.7 383.8 567.8 392 554.8 395.8C549.2 397.5 543.4 398 537.7 398.4C534.2 398.7 533.6 400.2 533.7 403.1C533.8 407.2 533.9 411.4 533.5 415.5C533.4 418.5 534.4 420.1 537.3 420.5Z" fill="#FD9993"/>
<path d="M1443 468.7C1434.1 470.5 1425.6 473.4 1417.2 476.5C1416.5 477.7 1415.3 478 1414.2 478.6C1410.9 479.7 1407.8 481.8 1404.1 480.6L1404.2 480.7C1402.4 479.4 1400.9 478.1 1400.1 475.9C1397.8 469 1394.4 462.5 1391.6 455.7C1390.8 453.9 1390.1 451.9 1388.7 450.5C1381 442.4 1376 432.7 1371.6 422.6C1370.8 420.7 1370 418.7 1368.6 416.9C1359.2 436.9 1352.5 438.6 1332.2 426C1331.2 426.8 1331.3 428.1 1331 429.2C1327.6 441.6 1322.8 445 1309.5 443.9C1300.9 441.4 1295 434.9 1288 429.9C1285.6 428.2 1287.1 426.8 1289.3 426.1C1292.8 425.1 1296.2 424.1 1299.7 423.2C1292.9 410 1294.9 400.5 1306.9 390.6C1315.5 383.5 1325.2 379 1336.5 377.4C1343.5 376.4 1350.4 374.3 1357.2 372.3C1368.8 368.9 1379.5 370.1 1389 378C1394.6 381.2 1397.2 386.7 1400.1 392C1401 393.7 1402.2 395.2 1402.9 397C1404 400.1 1405.7 403 1406.9 406C1409.9 413.4 1410 413.4 1418 413.3C1419.2 413.3 1420.5 413.3 1421.7 413.4C1424.2 413.7 1426.5 414.6 1428.7 415.6C1429.8 416.1 1430.9 416.5 1431.9 417C1433.7 418.1 1435.5 419.1 1437.3 420.1C1438.3 420.8 1439.2 421.6 1440.1 422.5C1449.5 432.5 1453.4 444 1449.7 457.5C1448.7 462 1447.3 466.3 1443 468.7Z" fill="black"/>
<path d="M1075.2 1202C1087.6 1209.1 1100 1216.1 1112.2 1223.4C1117 1226.3 1119.1 1231.3 1120.1 1236.7C1120.4 1238.4 1120 1239.2 1118.1 1239.1C1117.1 1239 1116.1 1239.1 1115.1 1239.1C1066.7 1239.1 1018.3 1239 969.8 1239.2C965.2 1239.2 964.5 1238.1 965.1 1233.8C966.5 1223.3 966.7 1212.6 968.5 1202.1C970.1 1200.6 972.1 1200.5 974.1 1200.5C986.4 1200.5 998.7 1200.3 1010.9 1200.6C1017.8 1201.8 1022.6 1207 1029 1209.8C1029.9 1206.8 1029 1203 1032.5 1201.1C1045.5 1199.9 1058.5 1200.7 1071.5 1200.7C1072.9 1200.7 1074.1 1201.3 1075.2 1202Z" fill="black"/>
<path d="M1017.9 827.6C1017.1 828.6 1017.3 830.6 1015 830.4C1008.6 829.9 1002.1 831.4 995.8 828.8C990 826.4 983.7 825.4 978.2 822.3C987 796.2 995.7 770.1 1004.7 744.1C1009.5 730.2 1020.8 724.6 1034.4 722.5C1044.4 720.9 1054.3 721.3 1064.1 723.7C1073.9 726.1 1080.7 734.2 1081.2 744.4C1079 746.1 1076.7 744.9 1074.5 744.5C1069.9 743.8 1065.3 743.1 1060.8 742C1057 741.1 1055.4 742.8 1054 746C1047.7 760.5 1041.8 775.1 1035.5 789.6C1030.6 800.9 1026 812.3 1021.1 823.5C1020.5 825.1 1020.1 827 1017.9 827.6Z" fill="black"/>
<path d="M1012.3 1202C997.7 1202 983.1 1202.1 968.5 1202.1C969.7 1183.2 971 1164.3 972.1 1145.4C972.9 1133.3 973.5 1121.2 974.3 1109.1C974.6 1103.8 975 1098.5 975.3 1093.2C989.6 1093.3 1003.9 1093.4 1018.1 1093.5C1019.7 1098.6 1019.2 1103.8 1018.6 1108.8C1017.5 1117.9 1017.6 1127.1 1017.1 1136.2C1016 1156.4 1014.9 1176.7 1013.9 1196.9C1013.8 1198.7 1013.8 1200.6 1012.3 1202Z" fill="#FD9993"/>
<path d="M1075.2 1202C1060.6 1202.1 1046 1202.1 1031.4 1202.2C1029.5 1200.3 1029.8 1197.9 1029.8 1195.6C1030 1167.5 1028 1139.4 1028.8 1111.3C1028.8 1110.3 1028.8 1109.3 1028.8 1108.3C1028.5 1102.9 1028.4 1097.4 1023.9 1093.4C1039.5 1093.7 1055.1 1094 1070.6 1094.2C1071.1 1105.3 1071.8 1116.3 1072.2 1127.4C1073 1150.8 1073.7 1174.1 1074.5 1197.5C1074.6 1199.1 1075 1200.5 1075.2 1202Z" fill="#FD9993"/>
<path d="M763.9 487.6C761 473.8 758.2 460 754.2 446.4C753.5 444.1 754 443.5 755.9 442.8C773.1 437.1 778.8 424.2 777.8 408C777.4 402.2 777.7 396.4 777.7 390.5C792.7 395.8 807.6 395.1 822.5 390.2C825.2 395.4 825.2 401.1 825.5 406.8C825.3 407.3 825.1 407.7 824.7 408C823.7 409 821.3 409 821.6 410.8C822 413.1 824.5 411.7 825.8 412.6C826.1 413 826.4 413.4 826.5 413.9C826.7 414.7 826.8 415.4 826.9 416.2C827.4 422.1 828.5 428 827.8 434C825.8 450.1 816.8 459.7 798.9 464.5C795 466 790.7 465 786.7 466.4C784.9 472.4 786.2 478.5 785.9 484.5C785.8 487 788 486.6 789.5 486.6C796.1 486.6 802.7 486.6 809.3 486.6C811.1 486.6 812.9 486.2 814.6 487.4C797.7 487.5 780.8 487.6 763.9 487.6Z" fill="#FD9993"/>
<path d="M1309.6 444C1324.8 445.4 1329.2 435.3 1331.3 422.4C1338 429 1344.2 435 1353.9 432.5C1363.4 430 1365.6 421.6 1368.5 413.1C1371.4 419.3 1373.9 424.8 1376.7 430.3C1380.2 437.1 1384.4 443.3 1389.3 449.3C1394.3 455.4 1396.5 463.4 1399.5 470.8C1400.9 474.2 1401.9 477.8 1404.2 480.8C1393.2 484 1382.3 487.2 1371.3 490.4C1369.5 484.9 1367.7 479.4 1366.1 473.8C1365.3 470.9 1363.4 471.5 1361.5 471.8C1353.9 473.2 1346.2 473.7 1338.7 472.3C1326.1 470 1318.9 461.4 1315.3 449.7C1314.3 446.5 1312.9 444.5 1309.6 444Z" fill="#FD9993"/>
<path d="M1108 146.1C1164.4 146.1 1220.9 146.2 1277.3 146C1282.2 146 1283.3 147.4 1283.3 152.1C1283.2 254.8 1283.2 357.5 1283.3 460.2C1283.3 465.2 1282.2 466.6 1277 466.6C1164.3 466.4 1051.6 466.5 938.8 466.5C932.4 466.5 932.4 466.5 932.4 459.9C932.4 357.4 932.4 254.8 932.3 152.3C932.3 147.2 933.5 146 938.6 146C995.2 146.2 1051.6 146.1 1108 146.1Z" fill="#5E86B1"/>
<path d="M1017.9 827.6C1029.7 799.8 1041.6 772.1 1053.2 744.2C1054.7 740.6 1056.3 739.6 1060.1 740.4C1067.1 742 1074.1 743.1 1081.2 744.3C1081.8 749.1 1082.5 753.8 1083.1 758.6C1082.4 759.8 1079.9 759.6 1080.5 761.6C1081 763.1 1082.9 762.1 1084 762.7C1084.2 768.7 1084.5 774.6 1084.5 780.6C1084.4 794 1078.2 802.7 1065.6 807.3C1061.1 809 1056.5 810.3 1051.7 810.7C1048.8 810.9 1047.4 812.3 1047.6 815.5C1047.9 820.1 1047.7 824.8 1047.7 829.4C1038.8 829.4 1029.9 829.3 1021 829.3C1019.6 829.3 1018.3 829.3 1017.9 827.6Z" fill="#FD9993"/>
<path d="M578.5 328.1C562.6 327.2 546.6 326.5 530.6 326.5C527 326.5 524.5 327.2 524.3 331.4C524 336.6 521.1 338.9 516 340C508.4 341.6 500.9 344.1 493.4 346.2C491.6 346.7 489.9 347.6 489 345.1C489.1 334.2 491.3 323.8 495.7 313.7C500.2 303.5 508.1 298.2 518.7 297C543.1 294.3 565.8 300 587.1 311.9C588.1 312.5 589 313.2 589.9 314C592.7 316.4 596.4 318.9 595.2 322.8C594 326.5 589.6 327.1 586 327.6C583.5 328 581 328 578.5 328.1Z" fill="black"/>
<path d="M1358.1 566.7C1356.1 573.5 1356.4 580.6 1355.9 587.6C1354.7 591.7 1353.2 589.2 1352.4 587.6C1349.6 582.1 1346.4 576.9 1343.6 571.4C1341.2 566.7 1339 561.8 1336.2 557.3C1332.3 551.1 1328.6 550 1322 553.2C1314.5 556.8 1307.5 561.2 1299.9 564.7C1298.1 565.5 1296.5 566.9 1294.3 566C1293.2 562.3 1296.3 559.7 1297 556.5C1297.4 555.6 1297.9 554.8 1298.3 553.9C1304 542.1 1308.4 529.7 1315 518.3C1316.7 515.4 1318.7 512.8 1320.4 510C1321.3 508.8 1323 508.8 1324.1 508C1333 501.1 1343.7 498.7 1354.2 495.6C1357.3 494.7 1358.8 495 1359.5 498.3C1360 500.9 1361.1 503.3 1361.9 505.8C1361.6 516.9 1362.1 528.1 1360 539.1C1355 543.8 1353.2 549.3 1355.1 556C1356.2 559.4 1357.1 563.1 1358.1 566.7Z" fill="#6DB5DE"/>
<path d="M786.6 466.5C790.1 463.8 794.3 464.7 798.2 463.8C803.4 462.8 808.6 462.1 814 462.1C837 462.2 860 462.2 883 462.1C889.6 462.1 889.9 461.8 889.9 455.5C889.9 356.1 889.9 256.7 889.9 157.3C889.9 150.1 889.5 149.7 882.2 149.7C797.9 149.7 713.6 149.7 629.4 149.7C621.6 149.7 621.4 149.9 621.4 157.9C621.4 256.6 621.4 355.4 621.4 454.1C621.4 462 621.5 462.1 629.5 462.1C654.2 462.1 678.8 462.1 703.5 462.1C706.3 462.1 709.2 461.5 711.6 463.7C711.3 464.7 710.9 465.7 710.6 466.7C686 466.6 661.3 466.5 636.7 466.5C632 466.5 627.4 466.3 622.7 466.6C618.6 466.9 617.7 465.2 617.7 461.4C617.8 358 617.8 254.6 617.7 151.2C617.7 147.6 618.2 145.9 622.5 146C711.3 146.1 800 146.1 888.8 146C892.5 146 893.6 146.9 893.6 150.7C893.5 254.3 893.5 357.8 893.6 461.4C893.6 465.2 892.7 466.6 888.6 466.6C854.5 466.4 820.6 466.5 786.6 466.5Z" fill="#5C85B0"/>
<path d="M1322.2 1193.1C1321.2 1194.1 1320.3 1195 1319.3 1196C1318.1 1194.6 1316.5 1195.2 1315.1 1195.2C1289.1 1195.2 1263.2 1195.3 1237.2 1195.1C1233.4 1195.1 1232.4 1196.1 1232.5 1199.8C1232.8 1209.9 1232.5 1220.1 1232.7 1230.3C1232.8 1233.8 1231.5 1235 1228.1 1234.9C1220.1 1234.7 1212.1 1234.7 1204.1 1234.9C1200 1235 1198.5 1233.7 1198.6 1229.5C1198.8 1219.5 1198.5 1209.5 1198.8 1199.5C1198.9 1195.9 1197.7 1194.9 1194.3 1195.1C1190 1195.4 1185.6 1195 1181.3 1195.2C1178.4 1195.3 1177.3 1194.1 1177.5 1191.4C1177.6 1190.1 1177.5 1188.7 1177.5 1187.4C1177.5 1048.4 1177.5 909.4 1177.5 770.4C1177.5 768.4 1177.4 766.4 1177.3 764.4C1175.8 762.1 1176.7 760.1 1178.1 758.3C1178.9 757.2 1180.2 756.6 1181.2 758.3C1182.4 761.5 1182 764.9 1182 768.2C1182 888.9 1182 1009.6 1182 1130.3C1182 1140.5 1182 1140.5 1192 1140.5C1239.8 1140.5 1287.6 1140.5 1335.4 1140.5C1338.2 1140.5 1341.1 1140.3 1343.8 1141.3C1344.2 1142.6 1344.6 1143.8 1345 1145.1C1342.5 1147.5 1339.4 1146.7 1336.4 1146.7C1288.2 1146.8 1239.9 1146.7 1191.7 1146.7C1182.1 1146.7 1182.1 1146.7 1182.1 1156.2C1182.1 1165.7 1182.1 1175.2 1182.1 1184.6C1182.1 1191 1182.5 1191.3 1188.9 1191.3C1230.3 1191.3 1271.8 1191.3 1313.2 1191.4C1316.1 1191.5 1319.4 1190.8 1322.2 1193.1Z" fill="#648BB4"/>
<path d="M964.4 863.3C970.9 864.5 977 867.3 983.3 869.2C984.3 869.5 985.4 869.8 985.4 871C985.4 875.2 985.7 879.5 982.6 883C980.9 884.2 980.8 885.3 982.5 886.6C982.3 893.8 979.2 900.3 977.4 907.1C974 919.5 970.3 931.8 966.7 944.2C963.5 943.1 962.6 939.1 959.2 938.3C957.6 937.6 956 937.4 954.3 938.2C952.8 938.8 951.3 939.4 949.6 939C948.4 938.7 947.4 938.1 946.5 937.3C942.1 934 941.6 929.9 943.5 924.9C944.8 921.5 945.6 918 946.7 914.5C947.4 912.2 947.5 909.8 948.2 907.5C950 902.2 951.8 896.8 953.5 891.5C953.9 890.6 954.2 889.7 954.5 888.8C956.2 884 957.6 879.1 959.5 874.4C960.1 873.1 960.3 871.7 960.7 870.3C961.8 867.9 961.6 864.8 964.4 863.3Z" fill="black"/>
<path d="M1179.8 757.3C1178.1 759.4 1177.5 761.8 1177.2 764.4C1174.3 770.5 1172.2 777 1170.2 783.5C1161 782.6 1151.9 781.7 1142.7 780.8C1145.7 777.5 1146 773 1147.6 769.1C1151.2 760.4 1153 751.5 1152.4 742C1152 736.1 1154.4 731 1159.2 727.3C1161.2 731.1 1157.5 734.1 1157.7 737.5C1161.1 733.3 1163.8 724.2 1162.6 720.3C1165.2 719.3 1166.5 717.2 1167.7 714.9C1169.6 711.6 1171.6 708.3 1176.1 708.3C1177.7 709.8 1176.5 711.4 1176 712.8C1174.8 716.4 1173.4 719.8 1172.8 723.6C1176.2 719.2 1175.9 712.8 1180.3 708.8C1181.3 708.4 1182.2 708.4 1183.1 709C1184.6 711.6 1182.8 713.8 1182.1 716C1181 719.2 1179.5 722.3 1179.2 725.9C1181.4 721.9 1183 717.7 1184.4 713.4C1184.9 711.9 1184.8 710 1186.6 709.2C1191.6 713.2 1193.6 718.3 1191.9 724.6C1188.9 735.1 1184.6 745.2 1181.3 755.6C1181.2 756.5 1180.8 757.2 1179.8 757.3Z" fill="#FD9993"/>
<path d="M1399.5 392.9C1396.7 387.6 1393 382.8 1389.1 378.2C1387.4 375.3 1385.9 372.4 1384.1 369.6C1375.7 357.2 1375 344 1379.9 330.1C1383.5 319.8 1388.4 310.3 1394.1 301.1C1394.5 300.4 1395.1 299.8 1395.7 299.2C1395.9 299 1396.3 299.2 1397.2 299.2C1393.9 309 1397.5 316.7 1404.9 324.8C1402.6 305.4 1405 287.8 1410.2 270.5C1410.7 268.7 1410.6 265.8 1412.7 265.5C1414.7 265.2 1415.6 267.9 1416.8 269.4C1425.2 280.6 1432.3 292.6 1438.2 305.6C1440.3 299.4 1440.8 288.7 1439.5 279.4C1439.3 277.9 1438.2 275.8 1439.9 274.9C1441.7 274 1442.8 276.1 1444 277.1C1454.1 285.6 1463.3 294.9 1470.8 305.8C1479.1 317.7 1481.7 330.1 1477.6 344.5C1470.8 368.5 1462.4 391.9 1453.3 415.1C1451.2 420.4 1451.2 420.4 1457 420.4C1461.3 420.4 1465.7 420.6 1470 420.3C1473.4 420.1 1474.2 421.5 1474.1 424.6C1473.9 441.6 1474 458.5 1474 475.5C1473.2 475.1 1472.5 474.7 1471.7 474.4C1470.4 471.9 1470.4 469.3 1470.4 466.6C1470.4 454.8 1470.4 443.1 1470.4 431.3C1470.4 424.3 1470.3 424.2 1463.1 424.2C1457.5 424.2 1451.8 424.2 1446.2 424.2C1443.7 424.2 1441.2 424 1439 422.6C1437.9 422.4 1437.2 421.7 1436.8 420.7C1438.4 418.5 1441.2 420.1 1443.1 418.8C1442.9 416.9 1441.2 416.2 1440.2 415C1438.2 412.6 1436.5 412.7 1434.9 415.4C1434.2 416.5 1433.3 417.5 1431.9 417.7C1430.9 417.6 1429.9 417.5 1429.2 416.7C1429.2 416.5 1429.2 416.3 1429.2 416.2C1434.7 410.1 1431.8 405.4 1427.6 399.8C1420 389.6 1413.3 378.8 1411.4 365.9C1409.9 356.2 1409.8 346.5 1417 338.5C1418.5 336.9 1418.4 335.6 1416.3 334.7C1415.7 334.4 1415.1 334.1 1414.5 333.9C1403.5 330.2 1396.2 322.8 1392.6 310.6C1388 318.1 1385.2 325.4 1382.7 332.9C1378 346.4 1380.9 358.7 1388.7 370.3C1398.1 384.3 1408.7 397.3 1419.8 410C1421 411.3 1422.7 412.4 1422.2 414.6C1420.9 414.5 1419.5 414.5 1418.2 414.4C1412.3 409.1 1407.4 403 1402.8 396.6C1402 395.2 1400.9 393.9 1399.5 392.9Z" fill="#5982AF"/>
<path d="M957.5 1093.1C963.4 1091.8 969.3 1091.7 975.2 1093C971.7 1093 968.2 1093.4 964.7 1093C960.8 1092.6 960 1094.2 960 1097.8C960.2 1110.6 960.1 1123.4 960.1 1136.2C960.1 1167.5 960 1198.8 960.2 1230.1C960.2 1234.8 958.8 1236.5 954.3 1235.9C952.7 1235.7 951 1235.8 949.3 1235.9C947.1 1236 946.3 1235 946.4 1232.9C946.4 1232.6 946.4 1232.2 946.4 1231.9C946.4 1185.6 946.5 1139.4 946.5 1093.1C947.2 1093.1 947.8 1093.1 948.5 1093.2C950.6 1095.8 950 1098.9 950.1 1101.8C950.1 1142.1 950.1 1182.3 950.1 1222.6C950.1 1224.6 950 1226.6 950.4 1228.6C950.7 1230.1 951.5 1231 953.1 1231C954.7 1231 955.4 1230 955.7 1228.5C956 1226.5 956 1224.5 956 1222.5C956 1182.2 956 1142 956 1101.7C955.9 1098.8 955.3 1095.7 957.5 1093.1Z" fill="#6189B3"/>
<path d="M1324.1 507.8C1323.6 509.2 1322.3 509.6 1321 509.9C1318.3 511.9 1315.2 511.3 1312.3 511.3C1272.5 511.3 1232.8 511.3 1193 511.3C1191.8 511.3 1190.7 511.3 1189.5 511.3C1182 511.3 1181.9 511.5 1181.8 518.8C1181.8 527.8 1181.8 536.8 1181.8 545.7C1181.8 552.8 1182 553 1189 553C1222.9 553 1256.9 553 1290.8 553C1293.6 553 1296.5 552.5 1299 554.3C1298.7 555.1 1298.3 555.9 1298 556.6C1295.3 558.3 1292.3 558.1 1289.3 558.1C1257.2 558.1 1225.2 558.1 1193.1 558.1C1191.6 558.1 1190.1 558.1 1188.6 558.1C1182.1 558.2 1181.8 558.5 1181.7 564.8C1181.7 568.3 1181.8 571.8 1181.6 575.3C1181.5 577.2 1181.8 579.4 1179.6 580.6C1178.8 580.2 1177.9 579.7 1177.1 579.3C1177.2 557.4 1177.3 535.4 1177.1 513.5C1177.1 508.6 1178.5 507.5 1183.3 507.5C1230.4 507.8 1277.3 507.8 1324.1 507.8Z" fill="#5B84B0"/>
<path d="M864.4 1173.1C863.5 1172.5 862.6 1171.9 861.7 1171.2C860.9 1169 860.8 1166.7 860.8 1164.3C860.8 1079.6 860.8 994.9 860.8 910.2C860.8 907.6 860.4 904.8 862.1 902.5C862.9 902.5 863.6 902.4 864.4 902.4C864.4 991.6 864.4 1080.9 864.4 1170.1C864.5 1171.1 864.4 1172.1 864.4 1173.1Z" fill="#5881AE"/>
<path d="M911.5 773.5C910.2 775 908.1 774.4 906.6 775.3C905.8 774.7 905.4 773.8 905.3 772.8C904.6 734.4 905.2 696 905 657.6C905 655.3 905.1 652.9 904.9 650.6C904.5 643.2 901.3 639.8 893.8 639.2C888.8 638.8 883.8 639.1 878.8 639.1C869.7 639.1 860.5 639.1 851.4 639.1C849.1 639.1 846.7 639.4 844.8 637.7C844.8 637 844.8 636.2 844.8 635.5C860.8 635.5 876.7 635.5 892.7 635.5C904 635.5 909.5 640.9 909.5 652.3C909.5 691 909.5 729.7 909.6 768.5C909.5 770.2 907.9 773 911.5 773.5Z" fill="#678DB5"/>
<path d="M405.5 1239.4C406.8 1239.3 408.1 1239 409.4 1239C509.8 1239 610.3 1239 710.7 1239C711.7 1239 712.7 1239.1 713.7 1239.1C712.4 1240.2 710.8 1239.7 709.4 1239.7C609.2 1239.7 509.1 1239.7 408.9 1239.7C407.8 1239.7 406.6 1239.5 405.5 1239.4Z" fill="#8F3600"/>
<path d="M949.2 908.2C948.5 910.4 948.1 912.6 946.7 914.5C946.6 908.2 946.4 901.9 946.6 895.6C946.7 892.4 945.8 891.3 942.5 891.4C922.5 891.6 902.6 891.5 882.6 891.5C882.5 890.8 882.3 890.1 882.2 889.4C884.1 887.6 886.5 887.8 888.8 887.8C908.8 887.7 928.9 887.8 948.9 887.8C951.2 887.8 953.6 887.5 955.5 889.3C955.5 890.1 955.5 890.9 954.6 891.4C950.8 892.8 949.4 895.5 950 899.4C950.3 902.4 948.5 905.2 949.2 908.2Z" fill="#5D85B0"/>
<path d="M1360 539C1358.7 538 1359.3 536.5 1359.3 535.3C1359.7 527 1360.2 518.7 1360.8 510.4C1360.9 508.8 1360.6 507 1361.9 505.7C1364.2 513.7 1366.4 521.8 1369 529.8C1370.1 533.1 1370.2 535.2 1366 535.8C1363.8 536.1 1361.7 537.4 1360 539Z" fill="#020303"/>
<path d="M1177.6 642.6C1178.5 643.1 1179.3 643.7 1180.2 644.2C1181.5 646 1181.9 648.1 1181.9 650.3C1181.9 667.7 1182 685 1181.9 702.4C1181.9 703.7 1181.8 705 1181.3 706.3C1180.1 708.5 1178.8 707.9 1177.5 706.5C1177.5 685.3 1177.5 664 1177.6 642.6Z" fill="#5881AE"/>
<path d="M946.5 937.4C947.5 937.7 948.4 937.9 949.4 938.2C950.1 940.3 950.1 942.4 950.1 944.6C950.1 960.9 950 977.1 950.2 993.4C950.2 997.7 948.9 1001.9 949.5 1006.2C948.6 1008.9 947.7 1011.6 946.8 1014.3C946.6 988.7 946.5 963 946.5 937.4Z" fill="#5881AE"/>
<path d="M1512.2 508.6C1512.2 527.9 1512.2 547.2 1512.2 566.5C1509.9 562.7 1510 558.2 1508.1 554.4C1509 541.4 1508.3 528.3 1508.5 515.3C1508.5 512.3 1506.8 511.4 1504.1 511.3C1501.2 511.2 1498.1 512 1495.4 510.1C1494.5 509.6 1494.1 508.8 1494.1 507.8C1500.1 508.2 1506.3 506.5 1512.2 508.6Z" fill="#6F93B9"/>
<path d="M1077.2 560.6C1086.2 563.3 1095.3 566 1104.3 568.6C1105.3 568.9 1106.2 569.2 1107.2 569.5C1108.6 569.8 1109.9 570.4 1109.4 572.1C1108.9 573.8 1107.6 573.5 1106.1 573.1C1097.8 570.7 1089.5 568.4 1081.2 566.1C1079 565.5 1076.7 565 1074.5 564.4C1071.6 560.4 1075.3 561.1 1077.2 560.6Z" fill="#070404"/>
<path d="M1069.2 573.7C1077.8 577.1 1086.9 578.9 1095.7 581.6C1096.8 581.9 1097.9 582.3 1099 582.6C1100.4 583 1101.7 583.5 1101.3 585.2C1100.9 586.9 1099.4 586.8 1098 586.4C1094.5 585.4 1091 584.4 1087.5 583.4C1080.5 581.5 1073.5 579.5 1066.5 577.6C1064.4 574.2 1066.6 573.8 1069.2 573.7Z" fill="#060404"/>
<path d="M1058.4 942C1057.9 945.2 1055.9 947.2 1052.8 946.9C1049.7 946.7 1047.6 944.4 1047.9 941.2C1048.2 938.3 1050 936.2 1053.2 936.4C1056.5 936.7 1058.3 938.6 1058.4 942Z" fill="#263070"/>
<path d="M1000.3 942.2C1000.4 938.7 1002.4 936.7 1005.5 936.7C1008.7 936.7 1010.7 938.7 1010.7 942.1C1010.7 945.3 1008.7 947.1 1005.8 947.2C1002.5 947.3 1000.5 945.4 1000.3 942.2Z" fill="#252F70"/>
<path d="M1177.5 706.6C1178.4 706.9 1179.3 707.2 1180.2 707.5C1180.9 708.1 1180.9 708.7 1180.5 709.4C1178.6 714.4 1176.8 719.3 1174.9 724.3C1174.4 725.7 1174 727.5 1171.9 726.8C1169.7 726 1170.9 724.3 1171.3 723.1C1172.9 718.2 1174.5 713.4 1176.2 708.6C1176.6 707.8 1177 707.2 1177.5 706.6Z" fill="#080505"/>
<path d="M1162.6 720.3C1165.2 720.2 1165.8 721.4 1165 723.7C1163.2 728.5 1161.5 733.3 1159.7 738.2C1159.2 739.5 1158.8 741 1157 740.4C1154.9 739.7 1155.7 738.1 1156.2 736.7C1157.2 733.6 1158.2 730.4 1159.2 727.3C1160.4 725 1161.5 722.6 1162.6 720.3Z" fill="#080505"/>
<path d="M578.6 347.8C576.9 349 575.2 349.9 573.4 348.1C572.2 346.9 572.3 345.4 573.3 344.1C575 342.1 576.7 343 578.4 344.1C578.5 345.4 578.6 346.6 578.6 347.8Z" fill="#0F0909"/>
<path d="M1084.1 762.6C1082.7 763.9 1081.3 764.8 1079.5 763.2C1078.6 762.4 1078.2 761.3 1078.7 760.1C1079.6 758 1081.4 758.2 1083.3 758.5C1083.9 759.9 1084.7 761.1 1084.1 762.6Z" fill="#191111"/>
<path d="M649.9 1067C650.7 1088.1 651.4 1109.2 652.2 1130.4C653 1150.9 653.8 1171.3 654.6 1191.8C635.7 1191.9 616.7 1192 597.7 1192.1C595.9 1190.2 596.2 1187.8 596.2 1185.5C596.5 1153.9 595.3 1122.3 594.9 1090.7C594.5 1056.1 593.8 1021.5 592.8 986.9C592.2 964.4 592.6 942 592 919.5C591.9 917.2 593 913.3 590.1 913.3C587.2 913.3 588.4 917.3 588.3 919.6C587.1 935.7 586.5 951.8 585.6 967.9C584.8 982.8 584 997.8 583.3 1012.7C582.5 1029.6 581.7 1046.6 580.6 1063.5C580.1 1071 579.8 1078.5 579.5 1085.9C578.6 1108.3 576.8 1130.7 576.2 1153.2C576.1 1157.7 575.2 1162.1 575.2 1166.6C575.8 1171.2 574.4 1175.7 574.3 1180.3C574.1 1183.3 575 1186.6 572.9 1189.3C572.8 1192.7 570.2 1191.9 568.2 1192C550.5 1192.1 532.8 1192.1 515.2 1192.1C514 1190.3 514.2 1188.3 514.3 1186.3C515.2 1172.2 515.9 1158.1 516.9 1144C517.8 1130.9 518.4 1117.8 519.3 1104.7C520.2 1090.3 521 1075.9 522 1061.4C522.9 1048.6 523.5 1035.9 524.3 1023.1C525.2 1008.5 526 993.9 527 979.3C527.5 971.9 527.2 964.3 529 957C530.9 954.2 533.4 955.6 535.7 956C537.4 956.6 539.1 958.1 541 956.5C542.5 955.9 544 955.6 545.5 955.6C547.5 956.4 548.8 955.6 549.8 953.9C553.5 950.5 554.7 946.3 554.5 941.3C554.4 938.7 554.2 936 555 933.4C556.7 930.7 556.4 927.8 556.3 924.8C560.3 914.7 558.1 905.5 552.8 896.6C551.7 894.7 549.4 892.6 551.5 889.9C553.9 888.1 554.5 885.6 554.2 882.8C554.1 881.3 553.8 879.8 553.7 878.3C552.9 871.2 554.3 869.5 561.3 869.5C583.2 869.5 605.1 867.8 627 868.5C629.8 868.6 632.6 868.3 635.4 867.9C637.7 867.6 640.1 867.1 641.9 869.3C643.3 880.6 642.8 892 643.7 903.4C643.9 906.4 643.9 909.3 644.1 912.3C646.3 916.4 646.4 920.9 646.4 925.4C646.5 948.2 647.9 970.9 648.7 993.6C649.4 1012.7 649.8 1031.8 651 1050.8C651.1 1052.8 650.7 1054.8 649.9 1056.6C649.8 1060.3 649.8 1063.7 649.9 1067Z" fill="#6DB5DE"/>
<path d="M641.8 869.6C614 870.2 586.2 870.8 558.5 871.3C555.3 871.4 554.4 872.3 554.8 875.3C555.2 878.4 555.2 881.6 555.8 884.7C556.6 888.8 555.3 891 551 891.4C550.8 891.6 550.6 892 550.3 892C539.6 895.3 528.5 897.2 517.4 898.3C516.9 898.3 516.5 898 516 897.8C514.2 896.1 514.5 893.6 513.9 891.5C513.7 890.7 513.6 889.8 513.5 889C513.5 884.5 512.2 880.2 512.3 875.7C512.5 873.7 511.6 871.9 511.4 870C510 861.8 508.9 853.6 509.6 845.3C508 832 505.6 818.7 505 805.4C504.5 793.7 508.1 782.2 509.6 770.6C509.9 759 510.6 747.5 514.7 736.4C515.6 732 516.1 727.5 517.5 723.3C521.3 712.2 530.5 705.8 542.6 705.6C551.2 705.5 559.9 705.5 568.5 705.5C570.2 704.2 572.1 704 574.2 704C581.8 704 589.5 703.8 597.1 704.1C598 704.1 599 704.1 599.9 704.1C607.3 704.2 614.6 703.4 622 704.6C622.9 704.9 623.7 705.2 624.6 705.5C629.5 705 633.5 707.3 637.3 710C644 715.2 647 722.4 647.9 730.6C649.6 741.4 649.7 752.4 650.8 763.2C651.1 765.7 650.5 768.1 649.9 770.6C650.6 780 651.3 789.4 652 799.4C660.1 796.6 667.8 793.9 675.5 791.2C679.1 789.9 682.8 788.9 686.2 787.3C689.3 785.8 690.7 786.9 691.7 789.7C693 790.6 693.8 791.8 694.3 793.2C698.2 803.2 702.4 813.1 706.4 823.1C706.9 824.5 707.7 825.9 706.7 827.3C696.5 832.4 685.5 835.6 674.9 839.8C664.9 843.7 654.8 847.4 644.7 851.1C641.9 847.7 642.9 843.7 643.2 840.1C644.5 825.8 643.7 811.5 643.9 797.2C643.4 816.2 642 835.2 642.5 854.2C642.3 859.4 642.9 864.6 641.8 869.6Z" fill="#202B6D"/>
<path d="M649.7 1057C649 1042.9 648.3 1028.8 647.7 1014.7C646.5 983.8 645.5 952.9 644.4 922.1C644.3 919 643.4 915.8 643.9 912.7C660.8 912 677.7 911.2 694.6 910.5C695.6 923.2 696.6 935.9 697.5 948.7C698.1 956.8 698.2 964.9 698.8 973C699 975.7 698.5 977.8 697.1 980C681.6 1005.3 666.1 1030.7 650.6 1056C650.4 1056.3 650 1056.6 649.7 1057Z" fill="#FEFEFE"/>
<path d="M844.7 637.7C860.7 637.7 876.6 637.7 892.6 637.7C902.4 637.7 906.7 642 906.7 651.6C906.7 692.3 906.6 733.1 906.6 773.8C903.3 773 903.1 770.1 902.6 767.6C901.3 759.8 900.4 751.9 894.3 746C893 744.7 893.3 742.6 892.8 740.9C892.3 738.8 892.4 736.6 892.3 734.5C891.3 722 887 711.4 876.6 703.6C863.5 693.8 855.1 680.4 848.8 665.5C846.9 656.3 845 647.1 844.7 637.7Z" fill="#FEFEFE"/>
<path d="M743.5 728.5C742.7 732.2 745.2 735 746.2 738.3C748.2 745.2 747.2 752 746.5 758.9C743.3 757.5 743.2 754.2 742.2 751.5C740.2 746.2 738.7 740.6 735.7 735.6C738.7 746.5 742.9 757 746.6 767.7C747.4 773.4 747.8 779.1 749 784.7C749.9 788.9 749.7 792.8 748.5 796.8C747.9 797.8 748 799 747.2 800C744.4 803.6 742 803.5 740.3 799.3C737.8 793.1 735.5 786.9 733.4 780.5C732.5 777.7 731.5 774.9 729.7 772.4C730.9 778.7 733.5 784.5 735.6 790.5C736.8 794 737.9 797.4 739.2 800.9C740.6 804.7 738.4 806 735.4 807C732.5 808 730 808.4 728.6 804.6C725.7 795.9 722.3 787.4 719.3 778.8C719 778 718.8 777.2 717.6 776.8C718.9 780.7 719.9 784.7 721.5 788.6C723.6 793.8 725.2 799.3 727.2 804.6C728.6 808.4 727.8 809.4 723.8 809.8C718.7 810.3 714.1 808.7 710.4 805.5C704.7 800.6 701.1 794.5 701.2 786.6C697.6 774.7 694.1 762.8 690.3 751C689.3 747.8 690.1 746.7 693 745.6C708.9 739.8 724.6 733.7 740.5 727.7C741.9 726.9 742.8 727.5 743.5 728.5Z" fill="#FD9993"/>
<path d="M964.4 863.3C963.5 865.7 962.5 868.1 961.6 870.5C959.8 872 957.6 871.8 955.4 871.8C932.1 871.8 908.9 871.8 885.6 871.8C883.4 871.8 881.3 872 879.4 870.5C876.5 854.8 874.2 839 872.2 823.1C873 822.4 873.9 822 874.9 822C883.8 821.6 892.6 822.2 901.5 821.4C905.4 827.3 909.4 833.2 913.1 839.3C916.5 845 921.3 848.6 927.6 850.6C939.8 854.7 952.1 859.1 964.4 863.3Z" fill="#FEFEFE"/>
<path d="M862.2 902.4C862.2 990.7 862.2 1079 862.2 1167.3C862.2 1168.6 862.5 1170 861.7 1171.2C855.4 1168.5 853.1 1164.1 853.5 1156.9C854.8 1128.7 854.2 1100.5 854.3 1072.3C854.4 1045.2 854.4 1018 854.5 990.9C854.6 961.4 854.6 932 854.6 902.5C857.2 902.5 859.7 902.5 862.2 902.4Z" fill="#FDFDFD"/>
<path d="M848.6 665.5C851.9 668.4 853.5 672.5 855.3 676.3C860 686.4 867.2 694.1 875.7 700.9C887.6 710.3 893.6 722.3 893.5 737.5C893.5 738.7 893.7 739.8 893.8 741C893.7 743.7 894 746.2 896.1 748.3C897 749.2 897.5 750.6 898.1 751.7C899 753.5 900.4 755.5 898 756.9C895.6 758.3 893.8 756.7 892.7 754.7C890 749.8 886.6 745.1 884.8 739.7C883.3 735.3 880.6 731.9 875.6 729.4C877.2 733.9 879.5 737.1 881.2 740.6C882.1 742.4 883.5 744.4 881.1 745.9C878.7 747.4 877.1 745.6 875.8 743.7C873.4 740.3 871.9 736.4 869.4 733C871.6 736.7 873.4 740.5 875.4 744.2C876.4 746.1 877 748.1 874.9 749.5C872.5 751 871.3 749 870.2 747.3C867.8 743.7 866 739.8 863.9 736.2C861.7 736 861.9 738.6 860.3 738.7C858.1 736.4 858.7 733.4 858.3 730.7C855 709.8 851.9 688.9 848.8 668C848.5 667.2 848.6 666.3 848.6 665.5Z" fill="black"/>
<path d="M860.2 738.7C860.3 736.6 861.4 735 863.3 732.9C866 737.7 868.5 742.2 871.1 746.7C871.8 747.9 872.3 749.9 874.3 748.9C876.7 747.7 875.1 746.1 874.4 744.7C872.3 740.8 870 736.9 867.9 733C867.4 732.1 866.3 731 867.9 730.1C869.6 729.1 869.9 730.6 870.4 731.5C872.6 735.4 874.7 739.3 876.9 743.2C877.7 744.6 878.4 746.7 880.5 745.4C882.4 744.3 880.9 742.7 880.3 741.5C878.4 738 876.4 734.6 874.5 731.1C874 730.2 872.8 729.1 873.9 728C874.9 727.1 876.2 727.9 877.1 728.5C881.1 731.3 884.3 734.5 886.2 739.4C888.4 745.1 891.8 750.3 894.7 755.6C895.2 756.6 896.1 757 897.2 756.5C898.6 755.9 898.5 754.8 897.9 753.6C896.9 751.9 896.1 750 895 748.4C893.3 746 892.7 743.5 893.9 740.8C894.6 743.7 895.9 746.1 898 748.3C902.4 752.9 902.5 759.2 903.5 765C904.1 768.1 904.3 771.3 906.6 773.7C906.6 774.2 906.6 774.8 906.6 775.3C900.1 777.8 893.6 780.4 887.1 782.9C885.8 783.4 884.5 784.5 883 783.4C879.2 781.3 878.1 777.3 876.1 773.9C871.3 765.7 866.1 757.8 861.8 749.3C861.3 748 861.4 746.6 860.6 745.4C860.1 743.3 859.1 741.1 860.2 738.7Z" fill="#FD9993"/>
<path d="M701.3 786.4C702.4 789.5 703.3 792.7 704.6 795.8C708.8 805.4 716.5 809.6 727.3 808.2C723.7 798 720.1 787.9 716.5 777.7C716 776.2 714.5 774.4 716.9 773.5C719.3 772.6 719.5 775 720 776.4C723.4 785.8 727 795.1 730 804.5C731.4 809.1 733.6 806 735.4 805.5C737.4 805 740 805.2 738.4 801.3C734.9 792.9 731.9 784.2 729.1 775.6C728.4 773.6 725.6 770.4 729 769.3C732 768.2 731.8 772.3 732.5 774.2C736 783.5 739.3 792.9 742.7 802.2C745.7 801.1 746.7 798.4 748.5 796.6C752.5 809.7 749 816.1 735.6 819.7C726 822.3 716.4 824.7 706.8 827.2C701.8 814.6 696.8 802.1 691.7 789.5C694.9 788.6 697.6 786.1 701.3 786.4Z" fill="black"/>
<path d="M955.3 889.3C930.9 889.3 906.4 889.3 882 889.3C881.2 883.9 880.4 878.5 879.6 873.1C880.8 872.1 882.3 871.9 883.8 871.9C907.7 871.9 931.6 871.9 955.6 871.9C957.5 871.9 959.7 871.6 960.6 874.2C958.8 879.2 957.1 884.3 955.3 889.3Z" fill="#FDFDFE"/>
<path d="M646.5 729.4C645.2 722.1 642.2 715.7 636.5 710.7C633.8 708 631.1 705.3 630.5 701.2C639.1 694.9 647.7 688.6 656.3 682.4C656.8 695.1 660 707.2 665.6 718.6C666.3 720 666.9 721.3 666.3 722.9C663.2 731 661.4 739.7 657.5 747.5C655.3 747.7 654.9 745.7 654.1 744.4C651 739.8 648.9 734.5 646.5 729.4Z" fill="#FD9993"/>
<path d="M881.6 790.4C888.7 799.5 894.1 809.6 900.3 819.3C899.7 821.3 897.9 821.7 896.3 821.7C888.8 822 881.4 822.1 873.9 821.7C873.1 821.7 872.3 821.3 871.7 820.7C870.1 810.7 868.1 800.7 867.4 790.6C872.2 789.6 876.9 789.8 881.6 790.4Z" fill="#FDFDFE"/>
<path d="M881.6 790.4C876.9 792.5 872.2 791.8 867.4 790.5C864.7 777.6 863.1 764.6 861.4 751.5C861.2 750.4 860 748.9 862.3 748.5C869.1 760.1 876 771.8 882.8 783.4C879.8 785.3 880.2 787.8 881.6 790.4Z" fill="#010100"/>
<path d="M743.5 728.5C742.5 728.2 741.6 727.8 740.6 727.5C741.1 708.4 739.5 689.7 730.7 672.2C727.4 665.8 723.4 659.9 717.6 655.4C716.5 654.5 714.7 653.6 716.2 651.9C717.6 650.4 719 651.7 720.1 652.6C727.3 658.3 732.2 665.8 735.8 674.1C743 690.6 744.9 708 744.5 725.7C744.5 726.9 744.3 727.9 743.5 728.5Z" fill="#FEFDFC"/>
<path d="M960.6 874.2C959 872.3 956.9 873.2 955 873.2C929.9 873.1 904.8 873.1 879.7 873.1C879.6 872.3 879.5 871.4 879.4 870.6C906.8 870.6 934.2 870.6 961.6 870.6C961.4 871.8 961.6 873.2 960.6 874.2Z" fill="#5881AE"/>
<path d="M642.6 854.3C640 853 640.7 850.7 640.8 848.6C641.3 831.5 641.8 814.3 642.5 797.2C642.6 795.6 641.3 792.4 644.4 792.5C647.2 792.6 646.2 795.5 646.2 797.3C645.8 815.3 645.3 833.2 644.9 851.2C644.6 852.7 643.9 853.7 642.6 854.3Z" fill="#FBFBFC"/>
<path d="M646.5 729.4C650.8 733.6 652 739.6 655.4 744.3C656.2 745.3 656.8 746.4 657.6 747.5C655.7 755.4 653.1 763.1 649.9 770.6C648.7 756.9 647.6 743.1 646.5 729.4Z" fill="#FDFDFC"/>
<path d="M746.6 767.7C744.5 767.3 744.4 765.3 743.8 763.9C740.5 755 737.4 746.1 734.2 737.2C733.7 735.7 732.5 733.8 734.6 732.9C737 731.9 737.1 734.3 737.6 735.7C740.5 743.4 743.4 751.2 746.4 758.9C746.9 760.6 747.2 762.3 747.9 763.9C748.7 765.7 748.4 766.9 746.6 767.7Z" fill="#070404"/>
<path d="M871.7 820.7C879 820.7 886.3 820.7 893.6 820.7C895.9 820.7 898.3 820.8 900.3 819.3C900.7 820 901.1 820.7 901.4 821.4C896.3 824.1 890.8 823 885.4 823.1C881 823.2 876.5 823.1 872.1 823.1C872 822.4 871.9 821.5 871.7 820.7Z" fill="#5A83AF"/>
<path d="M862.3 748.6C861.1 749.3 861.8 750.6 861.4 751.6C860.1 749.7 860.4 747.6 860.5 745.6C861.7 746.3 862 747.4 862.3 748.6Z" fill="#4B2E1D"/>
<path d="M1180.4 709.3C1180.3 708.7 1180.2 708 1180.1 707.4C1180.1 686.4 1180.1 665.3 1180.1 644.3C1186.3 648.2 1192.5 652.1 1198.3 656.7C1199.5 658.5 1199.2 660.6 1199.6 662.5C1199.8 735.2 1199.6 808 1199.7 880.7C1199.7 890.6 1198.9 890 1208.8 890C1234.6 890 1260.4 890 1286.2 890C1288.6 890 1291.3 889.4 1293.3 891.5C1291.3 900.6 1289.6 909.7 1287.1 918.6C1281.3 938.7 1283.1 958.1 1289.7 977.8C1308.1 1032.2 1325.7 1086.8 1343.7 1141.3C1342 1143.3 1339.6 1142.4 1337.6 1142.4C1287.2 1142.5 1236.7 1142.4 1186.3 1142.6C1181.3 1142.6 1179.9 1141.5 1179.9 1136.3C1180.1 1012.3 1180 888.3 1180 764.4C1180 762.1 1179.9 759.7 1179.8 757.4C1181.8 748.8 1185.1 740.6 1188.3 732.4C1191.3 724.4 1193.2 716.9 1186.6 709.9C1185.4 710 1184.3 709.9 1183.1 709.7C1182.2 709.5 1181.3 709.4 1180.4 709.3Z" fill="#FEFEFE"/>
<path d="M1331.2 735.5C1319.1 785.8 1307 836.2 1294.9 886.5C1294.7 887.5 1294.3 888.4 1294 889.4C1292.5 890.8 1290.5 890.4 1288.8 890.4C1261 890.4 1233.2 890.4 1205.4 890.4C1199.7 890.4 1199.3 890.1 1199.3 884.6C1199.3 810.9 1199.2 737.2 1199.3 663.5C1200 660 1202.2 661 1204.2 662C1207.3 663.6 1210.1 665.8 1213 667.6C1227.2 676.5 1242 684.5 1256 693.9C1264.8 699.8 1274.2 700.8 1284.1 697.2C1287.5 698.3 1288.4 701.6 1289.8 704.3C1293.6 711.7 1297.5 719 1301.4 726.3C1305.8 734.7 1309.7 736.1 1318.2 732.2C1319.3 731.7 1320.3 731.2 1321.4 730.9C1321.9 730.8 1322.4 730.9 1322.9 730.9C1323.6 731.1 1324.3 731.4 1324.9 731.7C1327 733.1 1330.4 732.1 1331.2 735.5Z" fill="#FEFEFE"/>
<path d="M1390 1017.3C1382.7 998.6 1375.8 979.7 1368 961.2C1364.3 952.5 1364.2 944.7 1366.9 935.5C1381.6 887 1395.7 838.3 1409.8 789.7C1410.8 786.2 1412.2 784.9 1415.9 785.2C1421.5 785.7 1427.2 785.8 1432.9 785.9C1435.5 785.9 1436.2 786.9 1436.2 789.5C1435.6 826.1 1435.1 862.7 1434.6 899.3C1434.3 921.6 1434.2 943.9 1433.8 966.2C1433.6 983.2 1433.2 1000.1 1432.9 1017.1C1431.4 1018.7 1429.3 1018.7 1427.4 1018.7C1416.8 1018.8 1406.2 1018.8 1395.6 1018.7C1393.6 1018.8 1391.6 1018.6 1390 1017.3Z" fill="#6DB5DE"/>
<path d="M1331.2 735.5C1329.3 733.5 1326.6 734 1324.3 733C1324.5 731.2 1326.1 731.4 1327.2 730.9C1335.6 727.2 1344 723.3 1352.1 718.9C1342 722.1 1332.6 727.2 1322.8 731.3H1322.4C1317.4 727.6 1314.5 722.7 1314.9 716.3C1318.1 713.6 1322.1 713.2 1325.9 712C1331.8 710.2 1337.5 708.1 1343.3 706.1C1340.6 705.7 1338.2 706.9 1335.6 707.6C1328.4 709.5 1321.7 712.9 1314.1 713.4C1310.3 710 1310 705 1313.4 699.6C1314.8 697.3 1316.7 695.4 1318.9 693.9C1325.5 689.7 1331.9 685.3 1338.8 681.6C1349.5 678.8 1360.1 675.4 1370.6 671.9C1364 672.4 1358.1 675.2 1351.8 676.6C1349.8 677.1 1347.7 678.5 1345.8 676.3C1346 673.7 1347.9 672.2 1349.7 670.8C1356.9 664.8 1364.9 660.9 1374.6 661.2C1378.4 661.3 1382.1 660 1386 660.2C1388.1 660.3 1390.3 660 1392.2 661.5C1396.7 662.1 1401.1 661.6 1405.4 660C1420.6 654.6 1435.8 649.3 1450.9 644C1455.2 642.6 1459.5 641.4 1463.6 639.7C1466.8 638.4 1468.3 639.1 1468.8 642.6C1470.4 653.4 1472.3 664.2 1473.9 675C1475.5 686.2 1475.5 686.2 1464.8 690.3C1464.5 690.4 1464.2 690.5 1463.9 690.6C1425.5 704.4 1387 718.2 1348.6 732.1C1343 734.4 1337.3 735.9 1331.2 735.5Z" fill="#FD9993"/>
<path d="M1322.2 1193.1C1290.1 1193 1257.9 1193 1225.8 1192.9C1212.3 1192.9 1198.8 1192.8 1185.3 1193C1181.3 1193.1 1179.8 1192.2 1179.9 1187.9C1180.2 1175.3 1180.2 1162.6 1179.9 1150C1179.8 1145.9 1181.2 1145.1 1185 1145.1C1238.3 1145.2 1291.5 1145.2 1344.8 1145.1C1346.7 1150.9 1348.6 1156.6 1350.6 1162.4C1351.1 1163.8 1350.8 1165.9 1353 1166.4C1343 1175.6 1332.7 1184.5 1322.2 1193.1Z" fill="#FEFEFE"/>
<path d="M1390 1017.3C1404.3 1017.3 1418.6 1017.3 1432.9 1017.2C1432.6 1044.5 1432.3 1071.7 1432 1099C1431.9 1107.2 1432 1115.5 1432 1123.7C1431.5 1123.8 1431 1123.8 1430.5 1123.9C1426.9 1114.5 1423.3 1105.2 1419.7 1095.8C1410 1070.6 1400.4 1045.3 1390.7 1020.1C1390.4 1019.2 1390.2 1018.3 1390 1017.3Z" fill="#FEFEFE"/>
<path d="M1200.6 661.8C1200.6 736.1 1200.6 810.3 1200.5 884.6C1200.5 888.8 1202 889.4 1205.7 889.4C1235.2 889.3 1264.7 889.3 1294.1 889.4C1294.2 890.2 1294.1 891 1293.4 891.5C1263.3 891.5 1233.2 891.4 1203 891.5C1199.7 891.5 1198.4 890.9 1198.4 887.2C1198.5 812 1198.5 736.8 1198.5 661.6C1198.5 661.3 1198.6 660.9 1198.6 660.6C1199.8 660 1200.6 660.2 1200.6 661.8Z" fill="#5881AE"/>
<path d="M597.7 705.5C588 705.5 578.2 705.5 568.5 705.5C568.5 695.5 568.5 685.6 568.6 675.6C578.7 662.3 584 647.4 583.1 630.6C583 628.3 583.8 627.4 585.6 626.4C593.8 621.9 601.9 617.4 609.9 612.7C612 611.5 613.6 611.6 615.9 612.4C622.6 615 628.4 620 636.3 619.6C638.7 619.5 637.5 621.3 637.2 622.5C636.4 626.1 632.4 628.6 633.6 633C633.8 633.7 633 633.9 632.3 633.9C630.3 633.9 629 635.1 629.2 637C629.4 638.9 630.8 639.9 632.8 639.4C634.7 638.9 634.6 640 634.7 641.3C634.9 643.8 635.2 646.3 635.4 648.8C637.1 668.4 629.7 679.1 610.8 684.7C609.5 686.9 607.3 687.1 605.2 687.3C601.2 687.7 599.8 689.7 600.2 693.6C600.4 695.2 600.2 696.9 599.8 698.5C598.7 700.7 599.6 703.5 597.7 705.5Z" fill="#FD9993"/>
<path d="M599 583.7C590.6 583.7 582.7 583.7 574.8 583.7C573.2 583.7 570.9 583 570.7 585.3C570.5 588.2 573.1 587.5 574.7 587.5C584 587.8 593.4 589.1 602.6 588.1C611.2 587.2 618.8 590 626.8 591.5C631.5 592.4 634.8 595.3 636.9 599.6C638 601.9 638.2 603.5 634.9 603.2C629.2 602.6 623.7 602.6 617.9 600.5C601.8 594.7 585.3 595.6 569.8 602.6C558.3 607.7 554.6 618.8 552.9 630.3C552.4 634 551.3 635.1 547.7 634.7C544.2 634.3 540.7 634.4 537.2 634.5C534.9 634.5 534.4 633.7 534.8 631.5C537.4 616.6 540 601.7 542.5 586.8C542.7 585.6 542.8 584.5 544.2 584.1C555.5 581 566.1 575.2 578.4 576.3C586.1 577.2 592.4 580.4 599 583.7Z" fill="#FD9993"/>
<path d="M598.6 698.6C599.2 694.7 596.7 689.7 599.7 687.2C602.2 685 606.9 685.4 610.7 684.7C614.5 691.3 618.2 698 622 704.6C618.9 706.8 615.4 705.4 612.1 705.6C608 705.8 603.9 705.5 599.8 705.4C598.2 703.3 597.8 701.1 598.6 698.6Z" fill="#FEFEFE"/>
<path d="M568 666.9C564.3 666.2 561.4 665.1 558.7 663.6C549.6 658.4 549.4 648 558.2 642.4C559 641.9 559.9 641.4 560.8 641C567.9 638 568 638.1 568 645.6C568 652.6 568 659.7 568 666.9Z" fill="#FC9993"/>
<path d="M435 561.8C434.8 564.4 434.8 567.1 434.4 569.7C433.4 577.6 433.4 577.6 424.7 576.4C427.8 570.7 430.8 565.2 433.9 559.7C435.8 559.6 435.2 560.8 435 561.8Z" fill="#F7F7F7"/>
<path d="M627.3 606.9C629.8 606.9 631.8 607.1 633.8 606.9C637.6 606.5 639.4 607.9 638.6 611.9C638.3 613.3 639.4 615.7 636.8 615.7C634.7 615.6 631.8 617.3 630.6 613.7C629.8 611.4 628.5 609.4 627.3 606.9Z" fill="#F2938D"/>
<path d="M630.5 701.3C633.1 704.1 634.7 707.5 636.5 710.8C632.7 708.5 628.6 707 624.5 705.6C626.5 704.1 628.5 702.7 630.5 701.3Z" fill="#F4F2F4"/>
<path d="M435 561.8C434.6 561.1 434.9 560 433.9 559.7C433.8 558.4 434.8 557.9 435.6 556.8C435.9 558.9 435.9 560.4 435 561.8Z" fill="#ABABAB"/>
<path d="M514.8 891.3C516.2 893.2 515.2 895.7 516.2 897.7C518.6 899.5 518.7 902.3 519 904.8C520.4 917.1 522.2 929.4 524.1 941.6C524.7 945.8 525.7 949.7 528.7 952.9C529.5 953.7 530.1 954.8 530 956C528.6 979.5 527.1 1003.1 525.7 1026.6C523.7 1059.9 521.7 1093.2 519.6 1126.5C518.3 1147 517 1167.6 515.7 1188.1C515.6 1189.4 515.3 1190.7 515.1 1192C514.2 1201.2 513.2 1210.5 512.3 1219.7C512 1219.7 511.8 1219.8 511.5 1219.8C509.9 1201.9 508.2 1184 506.6 1166.1C506.3 1165.9 506.2 1165.6 506.3 1165.4C506.4 1165.1 506.5 1165 506.6 1165C506.5 1150 506.5 1135.1 506.4 1120.1C506.2 1044 507.3 967.8 508.1 891.7C510.2 889.6 512.5 889.8 514.8 891.3Z" fill="#FEFEFE"/>
<path d="M514.7 736.5C513 747.9 511.3 759.3 509.6 770.7C508.1 770.1 508.6 768.8 508.6 767.7C508.4 759.4 508.3 751.2 508.2 742.9C508.2 736.4 508.2 736.4 514.7 736.5Z" fill="#FAF9F9"/>
<path d="M513.6 875.5C514 880.1 514.4 884.7 514.8 889.3C512.6 890.7 510.5 890.9 508.3 889.3C508.3 887.7 508.3 886.1 508.3 884.5C508.4 881.8 508.3 879.2 508.3 876.5C508.3 874.9 508 873 510.3 872.6C512.5 872.2 513.2 873.7 513.6 875.5Z" fill="#F5F2F2"/>
<path d="M509.6 845.3C510.6 853.6 511.7 862 512.7 870.3C509.4 872.2 508.2 870.8 508.3 867.5C508.4 863.1 508.2 858.7 508.4 854.3C509.3 851.4 507.4 848.1 509.6 845.3Z" fill="#F4F5F7"/>
<path d="M508.4 854.3C508.5 858.5 508.7 862.8 508.6 867C508.5 870.3 509.9 871 512.7 870.3C512.8 872.1 514.3 873.6 513.6 875.5C512.8 873.9 511.9 872.6 509.8 873.3C508 873.9 508.6 875.4 508.5 876.6C508.4 879.2 508.3 881.9 508.2 884.5C507.8 874.4 508 864.4 508.4 854.3Z" fill="#5881AE"/>
<path d="M488.8 1165.9C481.8 1165.9 474.8 1165.9 467.8 1165.9C474.8 1164.2 481.8 1165.4 488.8 1165.2C488.8 1165.5 488.8 1165.7 488.8 1165.9Z" fill="#875A3F"/>
<path d="M488.8 1165.9C488.8 1165.7 488.8 1165.5 488.8 1165.2C494.7 1165.1 500.6 1165.1 506.6 1165C506.6 1165.4 506.6 1165.7 506.6 1166.1C500.7 1166.1 494.8 1166 488.8 1165.9Z" fill="#95735F"/>
<path d="M508.2 889.3C510.4 889.3 512.5 889.3 514.7 889.3C514.7 890 514.8 890.6 514.8 891.3C512.6 891.5 510.3 891.6 508.1 891.8C508.2 890.9 508.2 890.1 508.2 889.3Z" fill="#5A7EA6"/>
<path d="M1439.1 422.8C1448.7 422.8 1458.3 422.8 1467.9 422.7C1470.7 422.7 1472.1 423.1 1472 426.4C1471.8 442.5 1471.8 458.5 1471.8 474.6C1462.8 469.9 1453.1 468.5 1443 468.8C1453.5 451.1 1452.4 438.9 1439.1 422.8Z" fill="#FEFEFE"/>
<path d="M1414.2 477.7C1415 476.7 1416 476.4 1417.2 476.6C1421 484 1422.4 492.2 1424.9 500.1C1428.8 512.6 1432.4 525.2 1436 537.8C1436.7 540.4 1437.3 541.6 1440.6 541C1446.5 539.9 1451.3 543 1453.5 548.7C1454.6 551.5 1455.5 554.4 1456 557.3C1457.4 564.7 1454.2 570 1447 572.2C1441.5 573.9 1436 576.3 1430.3 572.8C1424.4 566.8 1422.4 559.6 1423.4 551.4C1423.8 548.2 1424.8 545.2 1428.1 543.7C1431.5 542.2 1431.3 539.7 1430.4 536.7C1425.3 519.6 1420.3 502.6 1415.3 485.5C1414.4 482.9 1413 480.5 1414.2 477.7Z" fill="#FDFDFE"/>
<path d="M1495.4 510C1499.2 510 1503 510.1 1506.8 510C1509.4 509.9 1510.2 510.9 1510.2 513.5C1510.1 526.1 1510.2 538.6 1510.2 551.2C1510.2 552.6 1510.5 554.4 1508.2 554.4C1503.9 540.4 1499.6 526.5 1495.3 512.5C1495 511.7 1495.3 510.8 1495.4 510Z" fill="#FDFEFE"/>
<path d="M1023.9 1093.5C1028.2 1093.6 1029.6 1095.4 1029.8 1100.1C1030.8 1118.5 1029.8 1137 1030.7 1155.4C1031.4 1171 1030.9 1186.6 1031.4 1202.2C1031 1205.3 1030.6 1208.4 1030.2 1211.9C1024.2 1208.6 1018.2 1205.3 1012.3 1202C1013.7 1172.4 1014.9 1142.9 1016.7 1113.4C1017.1 1106.8 1016.4 1100.1 1018.1 1093.6C1020.1 1093.5 1022 1093.5 1023.9 1093.5Z" fill="#FEFEFE"/>
<path d="M957.5 1093.1C957.5 1138.2 957.5 1183.3 957.6 1228.4C957.6 1231.8 957.2 1233.5 953.1 1233.5C949.1 1233.5 948.5 1232 948.5 1228.5C948.6 1185.4 948.6 1142.3 948.6 1099.2C948.6 1097.2 948.5 1095.2 948.5 1093.2C951.5 1092.3 954.5 1092.7 957.5 1093.1Z" fill="#FDFDFE"/>
<path d="M949.4 1006.2C948.2 1005.4 948.6 1004.1 948.6 1003C948.6 982.6 948.6 962.3 948.6 941.9C948.6 940.6 948.2 939.2 949.4 938.2C951.1 937.9 952.9 937.5 954.6 937.2C958.5 936.2 958.8 939 958.8 941.6C958.7 953.5 959.7 965.5 957.6 977.4C954.8 986.9 952.1 996.5 949.4 1006.2Z" fill="#FBFBFC"/>
<path d="M959.6 937.5C963.7 937.9 964.5 941.9 966.7 944.3C965.1 952.1 962.7 959.6 960.3 967.1C958.6 967.2 958.5 965.8 958.5 964.7C958.4 956.3 958.3 947.9 958.5 939.6C958.6 938.7 959 938 959.6 937.5Z" fill="#EEF1F5"/>
<path d="M959.601 937.5C960.101 947.4 958.901 957.3 960.301 967.1C959.401 970.5 958.501 973.9 957.601 977.3C957.601 965.3 957.601 953.4 957.601 941.4C957.601 939.3 958.101 936.8 954.601 937.2C956.401 935.5 958.001 936.5 959.601 937.5Z" fill="#5881AE"/>
<path d="M572.8 1189.3C572.6 1186.2 572.6 1183.1 573.2 1180C573.6 1177.7 574.6 1175.7 575.9 1173.7C578.7 1169.2 578.7 1169.2 573.9 1167.1C575 1145.5 576 1123.9 577.1 1102.3C578.3 1079.9 579.5 1057.5 580.7 1035.1C582.8 994.7 584.9 954.4 586.9 914C587 911.2 587.8 910.3 590.7 910.4C594.1 910.5 593.9 912.4 593.9 914.7C593.9 935.2 593.8 955.6 594.1 976.1C594.9 1032.1 596.8 1088.2 597.1 1144.2C597.2 1158.2 597.3 1172.1 597.4 1186.1C597.4 1188.1 597.6 1190.1 597.8 1192.1C597.5 1195.2 597.1 1198.3 596.8 1201.5C596.6 1203.5 596.1 1205 593.8 1203.5C586.7 1198.7 578.5 1195.8 572.8 1189.3Z" fill="#8F3600"/>
<path d="M711.5 463.8C682.2 463.9 652.9 463.9 623.6 464C620.7 464 619.7 462.9 620 460.2C620.1 459.4 620 458.5 620 457.7C620 356.6 620 255.6 619.9 154.5C619.9 149.4 621.2 148.2 626.3 148.2C712.6 148.4 798.8 148.4 885.1 148.2C890.1 148.2 891.5 149.4 891.5 154.5C891.3 255.7 891.4 357 891.5 458.2C891.5 462.6 890.6 464.2 885.8 464.1C856.7 463.8 827.5 463.9 798.4 463.8C804 461.4 810 460 814.9 456.1C825.9 447.3 827.4 435.3 826.3 422.4C826.1 420.3 826 418.1 825.8 416C826.3 415.3 827 414.8 827.8 414.6C836 412.5 839.7 406.7 840.8 398.8C844.3 374.9 845.5 351.1 838.3 327.7C832.5 308.8 823.4 291.4 813.1 274.6C810.7 270.6 808.1 266.7 805.6 262.8C800.9 255.1 792.9 255.7 789.1 262.9C787.2 266.4 785.1 269.8 782.8 273.1C780 277 779.1 276.8 775.3 274.1C766.2 267.8 765.2 258.8 766.1 249C766.9 240.3 766.2 231.6 766.4 222.8C766.5 216.2 766.3 209.6 766.5 203C766.6 199.6 765.6 197.8 762.3 197.6C757.8 197.3 753.3 197.3 748.8 197.6C746.6 197.8 744.9 199 745 201.4C745.5 212.2 745 223.1 745.1 233.9C745.2 242.8 745.4 251.6 744.8 260.5C744.6 263.6 743.3 265.8 740.8 267.6C738.4 269.3 736.4 271.7 734.2 273.7C732 275.8 730.1 275.5 728.5 272.9C726.4 269.5 724.2 266.2 722.1 262.8C717.6 255.6 711.2 255.2 706.2 262.1C701.6 268.4 697.8 275.3 693.9 282C684.3 298.3 676.1 315.1 671.4 333.5C667.1 350.2 667.4 367.1 668.8 384C669.3 389.6 669.9 395.2 671 400.8C673.2 411.5 682.7 417.3 693.2 413.6C701.5 410.7 709.4 406.7 715.1 399.5C718.6 395.1 723 391.4 727 387.4C728 386.4 729.2 385.3 730.9 385.7C731.2 386.2 731.3 386.6 731 387.1C722.3 401.2 718.4 416.1 722.7 432.6C723.9 437.3 728.3 441.9 727.7 445.6C727.1 449.2 720.4 450.7 717.3 454.5C714.9 457.4 713 460.5 711.5 463.8Z" fill="#FEFEFE"/>
<path d="M824.4 408C823.8 402.1 823.1 396.2 822.5 390.2C829.8 387.2 830.1 382.8 823.8 377.1C817.5 371.4 809.3 370 801.2 369.1C791 368 780.8 366.9 770.5 367.9C767.7 368.9 766.5 367.3 765.8 365C765.2 363.1 765.4 361 765.4 359C765.4 343.7 765.7 328.4 765.3 313.1C765 304.6 767 297.3 771.8 290.2C778 281 784.1 271.6 789.6 262C793 256 800.6 254.3 805.5 262C811.2 271 816.9 280 821.9 289.4C830.9 306.3 839 323.6 842.1 342.7C845.3 362.5 843.9 382.1 840.4 401.7C839.4 407.4 836 411.7 830.3 413.8C828.7 414.4 827.2 415.3 825.7 413.7C825.6 413.4 825.5 413.1 825.4 412.8C824.2 411.3 823.9 409.7 824.4 408Z" fill="#FEFEFE"/>
<path d="M825.5 413.7C832.7 412.7 837.7 408.8 839 401.7C843.2 377.6 844.7 353.4 837.7 329.5C830.3 304.7 817.5 282.6 803.2 261.2C799.9 256.2 794.2 256.6 790.9 261.7C783.4 273.7 776 285.7 768.5 297.7C767 300.2 766.4 302.9 766.5 305.8C766.6 324.4 766.5 343.1 766.6 361.7C766.6 364.4 766.2 367.6 770.3 367.9C768.8 369.1 767 368.4 765.4 368.5C763.3 366.9 763.1 364.6 763.1 362.2C763 342.9 763.1 323.6 763.1 304.3C763.1 299.9 764.9 296.2 767.2 292.7C769 289.9 769 287.6 766.5 285.2C763.7 282.6 761.1 279.8 758.4 277.1C756.5 275.2 754.7 275.2 752.8 277.1C749.8 280 747 283 743.8 285.7C741.7 287.5 741.9 289.6 743.3 291.5C747.9 297.7 748.2 304.6 748.1 311.9C747.9 328.4 748 344.8 748 361.3C748 367.4 746.1 372.4 740.7 375.6C739.1 378.5 736.5 380.5 734.2 382.8C732.9 383.6 732.2 385 730.6 385.4C725.7 390.3 720.4 395 715.9 400.3C709.6 407.8 701.3 412 692.6 415.1C682.2 418.8 671.8 411.8 669.6 400.7C661.3 358.7 668.9 319.8 691.3 283.5C696 275.9 700.5 268.1 705.5 260.6C710.4 253.1 717.9 253.5 722.7 261C725 264.7 727.3 268.3 729.5 272C730.5 273.6 731.2 274.7 733.1 272.8C735.9 269.9 738.8 267.1 741.9 264.6C744.4 262.6 744.2 259.1 743.9 257.4C742.9 251.2 743.7 245.1 743.6 239C743.5 232.9 743 226.7 743.8 220.6C744.2 217.7 744.2 214.3 743.7 211.8C743 208.2 744.7 204.8 743.4 201.2C742.4 198.4 744.9 196.1 748 196C753 195.8 758 195.7 763 196C766.8 196.2 768.3 198.5 767.8 202.5C767.4 206.3 767.7 210.3 767.8 214.2C767.8 217.5 767.7 220.9 767.8 224.2C767.9 231.1 767.7 237.9 767.9 244.8C768.1 249.8 767.6 254.9 767.7 260C767.8 263.4 769.3 265.1 771.2 267.1C779.5 275.5 779.5 275.5 785.6 265.6C786.6 264 787.5 262.5 788.5 261C793.6 253.2 800.9 252.9 806 260.6C814 272.6 821.2 285.2 827.9 298.1C840.7 322.7 846.6 348.8 844.5 376.6C843.9 384.9 843 393.2 841.5 401.3C840 409.3 834.4 414.3 825.7 415.5C825.6 415.2 825.6 414.5 825.5 413.7Z" fill="#5882AF"/>
<path d="M740.7 375.8C745.7 370.5 747 364.2 746.8 357.1C746.4 342 746.5 326.8 746.9 311.7C747.1 304.1 746.1 297.1 741.2 291.1C739.3 288.8 739.7 287.2 742 285.3C745.8 282.1 749.4 278.6 752.9 275.1C754.8 273.2 756.1 272.8 758.1 275C761.7 278.9 765.5 282.6 769.4 286.3C771.1 287.9 771.7 289.3 770.1 291.3C765 297.3 764.4 304.3 764.5 311.9C764.8 327.9 764.6 343.8 764.6 359.8C764.6 362.8 764.6 365.8 765.7 368.6C756.9 370.1 748.6 372.2 740.7 375.8Z" fill="#FEFEFE"/>
<path d="M749.4 413.3C749.4 423.7 749.4 433.6 749.4 443.6C738.1 441.3 731.5 435.4 731.7 428.1C731.9 420.7 738.1 415.5 749.4 413.3Z" fill="#FC9993"/>
<path d="M730.6 385.6C731.4 384.1 732.4 383 734.2 383C733.1 384.4 732 385.8 730.9 387.2C730.8 386.6 730.7 386.1 730.6 385.6Z" fill="#C4C9CE"/>
<path d="M1339.1 682.5C1332.7 686.5 1326.2 690.5 1319.9 694.6C1313 699.1 1310.9 706 1313.9 712.9C1313.5 714.4 1313.2 715.9 1315.1 716.6C1315.9 722.3 1319.3 726.7 1322.4 731.2C1306.6 739.7 1304.1 734.6 1298.2 723C1293.8 714.3 1289.7 705.5 1284.3 697.3C1280 693.2 1278.1 687.5 1275.5 682.5C1264.2 660.8 1252.6 639.3 1241.3 617.6C1240 614.9 1238.6 612.3 1237.2 609.7C1233.3 602.5 1235 596.3 1242.2 592.1C1245.8 590 1249.5 588.4 1253.2 586.5C1255.6 585 1258.3 583.7 1260.8 582.5C1270.6 577.5 1280.2 571.8 1290.2 567.1C1291.5 566.5 1292.7 565.5 1294.3 565.7C1303.1 561.2 1312 556.7 1320.8 552.2C1328.8 548.1 1333.4 549.4 1337.6 557.1C1342.9 566.9 1348 576.7 1353.2 586.5C1353.7 587.4 1354 590 1355.9 587.4C1355.4 590.8 1356.9 593.6 1358.5 596.6C1369.9 618.1 1381 639.7 1392.2 661.3C1386.4 661.5 1380.7 661.8 1374.9 662C1363 662.4 1353.3 667.2 1345.9 676.6C1345.9 678.7 1344 678.4 1342.8 678.9C1341.1 679.7 1339.9 680.9 1339.1 682.5Z" fill="#202B6D"/>
<path d="M1414.2 477.7C1420.3 498.2 1426.3 518.7 1432.5 539.2C1433.1 541.1 1433.7 542.8 1431.1 543.6C1427.1 544.8 1424.9 547.7 1423.4 551.3C1421.7 540.2 1417.5 529.7 1414.7 518.8C1411.4 506 1406.9 493.6 1404.1 480.7C1407.5 479.7 1410.8 478.7 1414.2 477.7Z" fill="#6DB5DE"/>
<path d="M1242.3 617.6C1248.9 627.9 1253.9 639.1 1259.8 649.8C1267.9 664.7 1275.6 679.7 1283.4 694.7C1283.9 695.6 1284.1 696.5 1284.4 697.5C1275 702.9 1265.9 701.1 1257.2 696C1248.3 690.8 1239.7 685.1 1231 679.7C1222.2 674.3 1213.5 668.9 1204.7 663.6C1203.5 662.8 1202.3 661.7 1200.7 661.9C1200.3 661.1 1199.5 660.7 1198.6 660.7C1197.6 659.4 1198.4 658.1 1198.5 656.8C1204.8 649.3 1209.4 640.5 1214.9 632.4C1218.8 626.6 1222.4 620.6 1226.1 614.7C1226 613.1 1227.1 611.9 1227.3 610.4C1228 609.7 1228.8 609.3 1229.7 609.2C1234.6 610.9 1239.1 613.3 1242.3 617.6Z" fill="#6DB5DE"/>
<path d="M1294.4 565.9C1283.3 571.8 1272.3 577.8 1261.2 583.7C1256.4 585.3 1251.4 585.2 1246.5 585.2C1233.6 585.2 1220.6 585.2 1207.7 585.2C1200.8 585.2 1200.8 585.2 1199.5 591.9C1199.3 592.9 1198.9 593.8 1198.1 594.5C1191.9 590.1 1185.3 586.2 1179.8 580.8C1179.8 574 1180 567.2 1179.9 560.4C1179.9 557.6 1180.7 556.7 1183.6 556.7C1221.8 556.8 1260 556.9 1298.2 556.9C1296.9 559.8 1295.7 562.8 1294.4 565.9Z" fill="#FEFEFE"/>
<path d="M1198.1 594.4C1198.6 583.8 1198.6 583.8 1209.5 583.8C1226.7 583.8 1243.9 583.7 1261.1 583.7C1258.7 585 1256.4 586.3 1254.1 587.5C1238.6 588.6 1223.2 587.6 1207.1 588.1C1211.5 592.6 1216.3 595.9 1220.5 599.9C1223.6 602.9 1228 604.8 1229.3 609.6C1228.9 610.4 1228.2 610.6 1227.4 610.7C1225.2 611.4 1224.2 609.5 1222.9 608.5C1215.9 603.1 1209.7 596.8 1202.7 591.4C1200.8 592.7 1201.9 594.9 1200.5 595.9C1199.6 595.4 1198.9 594.9 1198.1 594.4Z" fill="#688EB6"/>
<path d="M1200.4 595.9C1200.5 593.6 1200.7 591.4 1200.9 588.2C1210.2 596.1 1218.8 603.4 1227.4 610.7C1228.3 612.5 1226.8 613.5 1226 614.7C1217.4 608.4 1208.9 602.1 1200.4 595.9Z" fill="#FCFCFD"/>
<path d="M1148.1 574.8C1148 574.9 1147.8 575.6 1147.4 576.1C1144.1 581.3 1140.8 586.4 1137.5 591.6C1136.8 592.7 1136 594.1 1134.4 593.2C1132.4 592.1 1133.6 590.7 1134.4 589.4C1137.6 584.4 1140.8 579.3 1144 574.3C1144.7 573.3 1145.3 572.3 1146.7 572.5C1147.6 572.7 1148.3 573.2 1148.1 574.8Z" fill="#090505"/>
<path d="M542.9 348.6C541.1 348.2 539.9 347.1 539.9 345.2C540 343.3 541.3 342.2 543.2 342.3C545.1 342.4 546.2 343.8 546.1 345.6C546.1 347.6 544.8 348.5 542.9 348.6Z" fill="#1A100F"/>
<path d="M1422.2 414.7C1410 400.6 1398.1 386.4 1387.5 371C1377.7 356.7 1377 342.1 1383.6 326.6C1386.3 320.2 1388.8 313.8 1393.4 307.1C1395.9 323.6 1407.1 330.8 1421.3 335.3C1408 349.1 1410.5 363.9 1416.7 378.8C1420.3 387.4 1425.5 395.2 1431 402.7C1436.1 409.7 1436 410.5 1429.2 416.8C1426.9 416.2 1424.5 415.5 1422.2 414.7Z" fill="#FEFEFE"/>
<path d="M1306.4 409.3C1306.3 401.6 1308.2 396.2 1312.3 392.1C1325.8 378.6 1338.2 376.5 1353.8 385.6C1360.2 389.3 1361.5 396.1 1364.1 402.1C1364.9 404 1363 404.3 1361.9 404.6C1345 410.5 1327.9 415.8 1310.6 420.4C1308.3 421 1308.1 419.9 1307.8 418.3C1307.3 414.7 1306.7 411.1 1306.4 409.3Z" fill="#FD9993"/>
<path d="M1392.6 438.8C1389.5 429.8 1386.5 421.1 1383.4 412.4C1382.6 410.2 1383.4 409.5 1385.5 409.3C1388.9 408.9 1392.2 409.1 1395.3 410.1C1404.4 413 1407.5 421.9 1402.3 429.9C1399.9 433.6 1396.3 436 1392.6 438.8Z" fill="#FC9993"/>
<path d="M1332.5 418.4C1344 414.6 1354.8 411 1367 406.9C1362.6 415.1 1363.6 425.2 1353.5 428.5C1343.8 431.7 1339 424 1332.5 418.4Z" fill="#FC9993"/>
<path d="M1309.1 424.9C1315.1 423.1 1321.1 421.3 1328.2 419.2C1326.3 425.2 1326.6 430.9 1322.9 435.4C1319.7 439.3 1315.5 441.3 1310.3 440C1310.9 437.9 1309.9 435.7 1310.9 433.7C1311.9 432.6 1314.5 432.9 1313.9 430.5C1313.4 428.4 1311 429.6 1309.7 428.7C1308.5 427.7 1308 426.4 1309.1 424.9Z" fill="#FB9892"/>
<path d="M1311.2 434C1310.4 436 1314.2 438.6 1310.3 440.1C1303.4 438.7 1299.4 432.9 1292.4 429.2C1298.8 427.5 1304 426.2 1309.1 424.9C1309.5 426.2 1309.8 427.5 1310.2 428.8C1311.2 430.4 1311 432.2 1311.2 434Z" fill="#FAFAFA"/>
<path d="M1403 395.9C1407.8 402.3 1414 407.6 1418.1 414.6C1409.3 414.8 1409.3 414.9 1405.9 406.8C1404.5 403.6 1403.2 400.4 1401.9 397.2C1401.6 396.1 1402 395.7 1403 395.9Z" fill="#F8F9F9"/>
<path d="M1431.9 418C1437.3 410.7 1437.3 410.6 1443.7 417.3C1444.5 418.1 1445.1 419 1446.2 420.3C1442.7 420.5 1439.8 420.7 1436.9 420.9C1435.1 420.2 1433.3 419.4 1431.9 418Z" fill="#F3F5F8"/>
<path d="M1403 395.9C1402.6 396.3 1402.3 396.7 1401.9 397.2C1401.1 395.8 1400.3 394.4 1399.5 392.9C1401.6 392.8 1402.3 394.4 1403 395.9Z" fill="#C7CED5"/>
<path d="M1017.3 763.7C1017.3 772.8 1017.3 781.9 1017.3 791C1007.5 789.6 1001.2 784.1 1001.3 777.1C1001.3 770.2 1007.3 765.2 1017.3 763.7Z" fill="#FC9993"/>
<path d="M824.4 408C825.6 409.4 826 411 825.2 412.7C823.7 413.8 822.1 414.6 820.4 413C819.3 412 819.2 410.7 819.8 409.4C820.7 407.4 822.6 407.7 824.4 408Z" fill="#0C0808"/>
<path d="M792.4 411.9C792.1 413.7 791.2 414.9 789.2 415C787.4 415.1 786.3 414.1 786.2 412.4C786 410.5 787 409.2 789 408.9C791 408.6 791.8 410 792.4 411.9Z" fill="#0F0909"/>
<path d="M1108 464C1052.4 464 996.8 463.9 941.1 464.1C936.3 464.1 935 462.9 935 458.1C935.1 356.9 935.1 255.6 935 154.4C935 149.7 936 148.2 941 148.2C1052.4 148.3 1163.8 148.3 1275.2 148.2C1279.8 148.2 1281 149.5 1281 154C1280.9 255.4 1280.9 356.8 1281 458.2C1281 462.7 1279.9 464 1275.3 464C1219.5 463.9 1163.7 464 1108 464Z" fill="#FEFEFE"/>
<path d="M1058.3 761.9C1058.1 763.8 1057.1 764.8 1055.4 764.9C1053.7 765 1052.6 764 1052.5 762.2C1052.4 760.5 1053.5 759.5 1055.2 759.4C1057.1 759.3 1057.8 760.6 1058.3 761.9Z" fill="#170E0D"/>
<path d="M1299.2 554.4C1261.3 554.4 1223.3 554.3 1185.4 554.5C1181 554.5 1179.7 553.3 1179.9 548.9C1180.2 537.9 1180.3 526.9 1179.9 516C1179.7 510.6 1181.6 509.8 1186.4 509.8C1231.3 510 1276.2 509.9 1321.2 509.9C1321.1 513.5 1318 515.5 1316.4 518.4C1309.7 530 1305.3 542.6 1299.2 554.4Z" fill="#FEFEFE"/>
<path d="M1230.3 1213.8C1230.3 1218.8 1230.2 1223.8 1230.3 1228.8C1230.4 1231.4 1229.6 1232.3 1226.9 1232.3C1219.4 1232.2 1211.9 1232.2 1204.4 1232.3C1201.7 1232.4 1201 1231.3 1201 1228.8C1201.1 1218.7 1201.1 1208.5 1201 1198.4C1201 1196 1201.7 1195.2 1204.1 1195.2C1211.8 1195.3 1219.4 1195.3 1227.1 1195.2C1229.6 1195.2 1230.2 1196.1 1230.2 1198.4C1230.2 1203.5 1230.3 1208.6 1230.3 1213.8Z" fill="#FEFEFE"/>
<path d="M949.2 908.2C948 903.4 948.6 898.5 948.7 893.6C948.9 889.5 952.5 892.2 954.5 891.4C953.4 897.2 950.8 902.6 949.2 908.2Z" fill="#F7F7F7"/>
<path d="M1183.1 709.6C1184.3 708.4 1185.5 708.2 1186.6 709.8C1185.7 715.9 1182.8 721.3 1181 727.1C1180.6 728.4 1179.8 729.8 1178.1 728.9C1176.6 728.1 1177.1 726.6 1177.5 725.4C1179.3 720.2 1181.2 714.9 1183.1 709.6Z" fill="#090606"/>
<path d="M1442.1 278.5C1456.5 290.9 1469 303.3 1475.8 320.3C1478.7 327.6 1477.6 335.1 1475.7 342.4C1469.4 367.7 1460 392 1450.5 416.3C1449.4 419.2 1448.3 419.1 1446.5 417.1C1432.2 402 1419.4 385.9 1414.8 365C1412.3 353.3 1414.9 343 1425.4 335.6C1437.7 326.9 1440.8 313.6 1442 299.8C1442.6 293.1 1442.1 286.5 1442.1 278.5Z" fill="#FEFEFE"/>
<path d="M1413.3 268.6C1423.5 281.5 1431 294.9 1437.2 309.1C1437.7 310.2 1438 311.2 1437.7 312.4C1435.6 319.7 1432.6 326.4 1426.8 331.6C1424.7 333.5 1422.8 333.8 1420.2 332.6C1405.7 325.8 1407.3 330.2 1406.4 311.9C1405.6 297.5 1408.6 283.4 1413.3 268.6Z" fill="#FEFEFE"/>
<path d="M529.9 956.1C523 951.1 522.9 943.4 521.7 936.1C519.6 923.4 518.8 910.4 516.2 897.8C527.8 895.7 539.4 893.6 551 891.5C552.8 894.7 554.5 897.9 556.3 901.1C560.8 909.1 560.4 917.3 557.3 925.6C554.6 924.2 555.3 921.3 554.8 919.1C554.1 916.1 553.8 913 552.8 910C553.1 917.9 555.1 925.5 556 933.3C555.9 937.1 555.8 940.9 555.7 944.7C555.6 949.3 554 953.1 549.7 955.3C547.6 954.4 547.7 952.5 547.3 950.7C546.2 945.5 545.9 940.2 544.1 935.2C544.1 940.5 545.7 945.6 546 950.9C546.1 952.8 547.3 954.8 545.4 956.5C543.9 956.8 542.3 957.1 540.8 957.4C538.8 956 538.7 953.8 538.3 951.7C537.3 946.7 537 941.6 535.5 936.7C535.1 941.9 536.7 946.9 537.2 951.9C537.4 953.8 538.3 955.8 536.5 957.5C534.4 957 532.2 956.5 529.9 956.1Z" fill="#FD9993"/>
<path d="M545.5 956.5C544.4 949.4 543.3 942.4 542.2 935.3C542 933.8 541.4 932 543.3 931.5C545.8 930.9 545.7 933.2 545.9 934.7C547.2 941.6 548.4 948.4 549.6 955.3C548.9 958 547.8 959.4 545.5 956.5Z" fill="#070505"/>
<path d="M536.6 957.5C535.6 950.7 534.6 943.8 533.6 937C533.4 935.5 532.5 933.3 534.8 932.9C537.1 932.5 537 934.9 537.3 936.4C538.5 943.4 539.6 950.4 540.8 957.4C539.6 960.5 538.1 959.8 536.6 957.5Z" fill="#080505"/>
<path d="M555.9 933.3C554.4 932.3 554 930.8 553.7 929.1C552.7 922.6 551.6 916.1 550.7 909.6C550.5 908.3 550.3 906.7 552.1 906.5C553.9 906.3 554.2 907.8 554.4 909.1C555.4 914.6 556.3 920.1 557.2 925.7C556.9 928.2 559.7 931.3 555.9 933.3Z" fill="#080506"/>
<path d="M573.9 1167.1C576 1167.5 579.1 1165.9 580.1 1168C581 1169.7 578.5 1171.6 577.4 1173.4C576.1 1175.6 574.6 1177.8 573.2 1179.9C573.4 1175.7 573.7 1171.4 573.9 1167.1Z" fill="#060504"/>
<path d="M598.6 698.6C599 700.9 599.3 703.2 599.7 705.4C599 705.4 598.4 705.4 597.7 705.4C598.1 703.2 596.8 700.7 598.6 698.6Z" fill="#DC8F7C"/>
<path d="M1322.9 731.3C1323.5 729.7 1324.9 729.2 1326.3 728.6C1334.3 724.9 1342.2 721.2 1350.2 717.6C1351.6 717 1353.4 715.4 1354.5 717.6C1355.7 719.9 1353.5 720.3 1352 720.9C1342.8 725 1334 730 1324.3 733.1C1323.9 732.4 1323.4 731.8 1322.9 731.3Z" fill="#080505"/>
<path d="M1339.1 682.5C1337.9 680.5 1338.2 679.2 1340.6 678.5C1342.4 678 1344.2 677.3 1346 676.7C1353.8 674.5 1361.6 672.2 1369.4 670C1370.9 669.6 1372.9 668.5 1373.7 670.7C1374.5 673 1372.2 673.2 1370.7 673.6C1360.1 676.6 1349.9 680.4 1339.1 682.5Z" fill="#060404"/>
<path d="M1315.2 716.7C1313.7 717.1 1312 717.9 1311.4 715.6C1310.8 713.4 1313.2 713.9 1314 712.9C1323.5 710 1333.1 707.1 1342.6 704.1C1344 703.7 1345.7 702.7 1346.3 704.8C1346.9 706.8 1345.2 707.2 1343.7 707.7C1334.2 710.7 1324.7 713.7 1315.2 716.7Z" fill="#060404"/>
<path d="M605.9 634.8C607.4 635.1 608.6 636 608.7 637.7C608.8 639.4 607.9 640.5 606.1 640.6C604.1 640.7 603 639.5 603 637.6C603.1 636 604.2 635.1 605.9 634.8Z" fill="#1A100F"/>
<path d="M1452.8 560C1452.9 565.6 1446.3 570.2 1437.5 570.7C1431.5 571 1426.7 564.4 1426.5 555.4C1426.4 549.6 1432.8 545.1 1441.6 544.7C1447.7 544.4 1452.6 551.2 1452.8 560Z" fill="#6DB5DE"/>
<path d="M744.5 333.8C744.5 342.5 744.3 351.1 744.6 359.8C744.8 365.4 742.9 369.9 739.1 373.7C729.7 383.5 719.6 392.7 710.3 402.7C705.2 408.1 698.1 410.9 691.2 413.2C682.8 416 673.5 410.4 671.9 401.4C666.3 370.1 666.7 339.3 680.4 309.6C687.9 293.4 696.6 277.9 706.3 263.1C711.2 255.6 716.4 255.7 721.1 263.4C727.9 274.4 734.7 285.5 741.5 296.5C743.4 299.6 744.3 302.7 744.3 306.4C744.4 315.5 744.5 324.7 744.5 333.8Z" fill="#FEFEFE"/>
<path d="M738.2 285.7C732.3 277.2 732.3 277.2 739.1 270.5C743.7 266 748.5 261.6 753 256.9C754.7 255.1 755.7 255.3 757.3 257C763.4 263.3 769.7 269.4 775.9 275.7C780 279.9 775.3 282.4 773.5 284.8C771.5 287.6 770.3 283.9 769.2 282.9C765.6 279.7 762.2 276.3 759 272.7C756.6 270.1 755 269.6 752.3 272.5C748 277.1 743.1 281.2 738.2 285.7Z" fill="#FEFEFE"/>
<path d="M755.2 233.7C752.9 233.7 750.5 233.8 748.2 233.7C746.5 233.6 745.4 232.7 745.5 230.8C745.6 229.2 746.7 228.4 748.2 228.4C753.2 228.3 758.2 228.3 763.1 228.4C764.5 228.4 765.6 229.3 765.6 230.9C765.6 232.8 764.3 233.5 762.7 233.6C760.2 233.8 757.7 233.7 755.2 233.7Z" fill="#F0F4F7"/>
<path d="M755.5 248.6C753.2 248.6 750.8 248.7 748.5 248.6C746.9 248.5 745.5 247.9 745.5 246C745.5 244.1 746.8 243.3 748.4 243.3C753.2 243.2 758 243.2 762.9 243.3C764.4 243.3 765.5 244.1 765.7 245.6C765.9 247.4 764.7 248.4 763 248.5C760.5 248.6 758 248.5 755.5 248.6C755.5 248.5 755.5 248.5 755.5 248.6Z" fill="#F0F4F7"/>
<path d="M755.9 198.7C757.9 198.7 759.9 198.7 761.9 198.7C763.6 198.7 765.5 198.8 765.5 201.1C765.5 203.7 763.6 203.8 761.6 203.8C757.4 203.8 753.3 203.8 749.1 203.8C747.3 203.8 745.6 203.5 745.5 201.3C745.4 199 747.1 198.7 748.9 198.7C751.3 198.7 753.6 198.7 755.9 198.7Z" fill="#F9FAFC"/>
<path d="M755.6 211.1C753.1 211.1 750.6 211.1 748.1 211.1C746.6 211.1 745.5 210.4 745.5 208.7C745.5 207.1 746.4 206.2 748 206.1C753 206 758 206 763 206.1C764.6 206.1 765.5 207 765.6 208.6C765.7 210.6 764.3 211.1 762.6 211.1C760.3 211.1 758 211.1 755.6 211.1Z" fill="#F9FAFB"/>
<path d="M756 213.8C758.3 213.8 760.7 213.8 763 213.8C764.5 213.8 765.6 214.6 765.6 216.2C765.6 217.8 764.6 218.7 763.1 218.8C758.1 218.9 753.1 218.9 748.1 218.8C746.6 218.8 745.5 217.9 745.5 216.3C745.4 214.3 746.8 213.8 748.4 213.7C751 213.7 753.5 213.7 756 213.8C756 213.7 756 213.7 756 213.8Z" fill="#F9FAFB"/>
<path d="M755.2 240.9C753 240.9 750.9 240.9 748.7 240.9C747 240.9 745.7 240.4 745.6 238.5C745.5 236.6 746.8 236 748.5 236C753.1 236 757.8 236 762.4 236C764.1 236 765.5 236.5 765.5 238.4C765.5 240.6 763.9 241 762.1 241C759.8 240.9 757.5 240.9 755.2 240.9Z" fill="#FEFEFE"/>
<path d="M755.5 226C753.2 226 750.9 226 748.5 226C746.8 226 745.5 225.4 745.5 223.5C745.5 222 746.6 221.1 748.1 221.1C753.1 221.1 758.1 221 763 221.1C764.5 221.1 765.5 222 765.5 223.6C765.5 225.2 764.5 226 762.9 226C760.5 226 758 226 755.5 226Z" fill="#FCFCFD"/>
<path d="M761 255.9C757.6 251.5 753.3 253.7 748.8 255.8C747.3 256.5 745.5 255.3 745.6 253.2C745.6 251.2 747.2 251 748.8 251C753.3 251 757.7 251 762.2 251C764 251 765.7 251.3 765.5 253.6C765.4 255.7 763.6 255.9 761 255.9Z" fill="#FAFBFC"/>
<path d="M765.5 261.5C763.9 260.6 762.8 259.9 762.9 258.1C764.8 258.3 765.7 259 765.5 261.5Z" fill="#D5E0EA"/>
<path d="M747.6 259.4C747.4 259.6 746.9 260.1 746.3 260.3C745.7 260.5 745.5 259.7 745.7 259.4C746 258.9 746.6 258.4 747.2 258.2C747.6 258.1 748.1 258.4 747.6 259.4Z" fill="#BECEDF"/>
<path d="M1229.3 609.6C1220.9 602.2 1212.4 594.8 1203 586.5C1208.3 586.5 1212.5 586.5 1216.7 586.5C1227.7 586.5 1238.6 586.5 1249.6 586.5C1251.1 586.5 1253 585.7 1254.1 587.5C1250.3 589.5 1246.4 591.4 1242.6 593.4C1236.4 596.8 1234.8 602.2 1238 608.6C1239.4 611.6 1241.6 614.2 1242.2 617.5C1238 614.9 1233.6 612.2 1229.3 609.6Z" fill="#FEFEFE"/>
<path d="M1344.8 424.5C1343 424.2 1341.5 423.3 1341.6 421.4C1341.7 419.6 1342.8 418.2 1344.7 418.2C1346.5 418.2 1348 419.4 1347.9 421.3C1347.8 423 1346.7 424.4 1344.8 424.5Z" fill="#211413"/>
<path d="M1311.2 434C1309.5 432.5 1309.6 430.8 1310.2 428.9C1311.9 428.1 1313.6 427.4 1315 429.2C1315.7 430.1 1316.2 431 1315.6 432.3C1314.7 434.3 1313.1 434.3 1311.2 434Z" fill="#130C0C"/>
<path d="M1169.4 252.8C1169.7 257 1169 262.6 1167.9 268.2C1167.6 270 1167.8 271 1169.6 271.6C1182.6 276.2 1188.4 286.4 1188.8 299.2C1189.5 322 1189.7 345 1182 366.8C1171.9 395.2 1150.9 411.8 1121.1 415.2C1099.9 417.6 1082.8 407.5 1069.3 391.5C1062 382.9 1057 373 1053.7 362.2C1052.9 359.7 1052.4 357.2 1049 357.5C1045.6 357.8 1044.8 360.2 1044.4 363.1C1043.3 372.5 1041.9 381.9 1041.3 391.3C1041 397.4 1037.3 396.6 1033.3 396.9C1028.6 397.3 1027.8 394.9 1027.4 391.2C1026.3 379.4 1025.9 367.7 1028 355.9C1033 328.2 1047.9 322.3 1071.4 323.4C1080.2 323.8 1089 324.7 1097.8 323C1108 320.9 1113.8 315.4 1115 305C1117.1 286.7 1127.8 275.7 1144 268.9C1146.8 267.7 1148.1 266.2 1148.7 263.2C1152.8 241.4 1149.3 220.9 1138.2 201.7C1135.5 197 1135.6 197.7 1140.7 196.8C1150.6 195.2 1155.7 199.6 1159.5 208.4C1165.6 222.2 1169.4 236.2 1169.4 252.8Z" fill="#5982AF"/>
<path d="M959.8 215.4C1004.4 215.4 1049.1 215.4 1093.7 215.4C1093.7 215.8 1093.7 216.1 1093.7 216.5C1049 216.5 1004.4 216.5 959.7 216.5C959.8 216.1 959.8 215.8 959.8 215.4Z" fill="#5882AE"/>
<path d="M959.8 191.3C981.9 191.3 1004.1 191.3 1026.2 191.3C1026.2 191.7 1026.2 192 1026.2 192.4C1004.1 192.4 981.9 192.4 959.8 192.4C959.8 192.1 959.8 191.7 959.8 191.3Z" fill="#5882AE"/>
<path d="M1077.5 325.9C1085 325.9 1092.5 326.8 1099.9 324.9C1109.6 322.4 1116 316.4 1117.1 306.5C1119.2 288 1129.9 276.8 1146.5 270.3C1149 269.3 1150.1 268.1 1150.7 265.5C1155.1 244.2 1152.6 223.9 1142.5 204.5C1139.7 199.1 1139.7 199.3 1145.5 199C1150.1 198.7 1152.7 200.5 1154.8 204.5C1165.5 224.5 1169.6 245.6 1165.6 268.1C1165.3 269.8 1163.9 272.1 1167 273C1181.6 277.5 1186.8 288.6 1186.8 302.5C1186.7 322.6 1186.4 342.7 1181.3 362.4C1173.4 392.5 1140.3 416.3 1111.7 412.9C1090.9 410.4 1076.3 398.8 1065.2 382C1060.9 375.4 1057.7 368.2 1055.7 360.7C1054.7 357.1 1052.8 355 1049.2 355.1C1045.2 355.3 1042.9 357.8 1042.4 361.8C1041.2 371.4 1040 380.9 1039 390.5C1038.7 393.7 1037.6 395 1034.1 394.9C1031 394.8 1030 393.6 1029.8 390.9C1028.9 376.4 1028.1 362 1032.4 347.9C1036.6 334.2 1046.1 326.6 1060.5 326C1066.2 325.7 1071.8 325.9 1077.5 325.9Z" fill="#FEFEFE"/>
</svg>
