<svg width="1840" height="1380" viewBox="0 0 1840 1380" fill="none" xmlns="http://www.w3.org/2000/svg">
<path d="M920 1379.9C614.9 1379.9 309.7 1379.9 4.60004 1380C0.900037 1380 0 1379.2 0 1375.4C0.1 918.5 0.1 461.5 0 4.59999C0 0.899991 0.800037 0 4.60004 0C614.9 0.1 1225.1 0.1 1835.4 0C1839.1 0 1840 0.799991 1840 4.59999C1839.9 461.5 1839.9 918.5 1840 1375.4C1840 1379.1 1839.2 1380 1835.4 1380C1530.3 1379.9 1225.2 1379.9 920 1379.9Z" fill="#FCFCFC"/>
<path d="M1366.2 753.4C1370.1 768.7 1375.2 783.6 1379.8 798.7C1397.9 857.3 1416 915.9 1434.2 974.4C1435.3 977.9 1434.1 978.6 1431.1 979.3C1416.3 982.5 1401.6 985.9 1386.8 989.2C1385.3 989.5 1383.9 989.9 1382.6 990.7C1377.8 993.7 1372.1 993.9 1366.8 995.1C1346.5 999.6 1326.2 1004.3 1305.9 1008.7C1303.6 1009.2 1301.5 1010.3 1299.2 1010.8C1295 1011.1 1291 1012.4 1286.9 1013C1282.2 1013.6 1280.9 1012.5 1280.6 1007.8C1279.9 997 1279.5 986.3 1278.6 975.5C1278.1 968.9 1278.2 968.9 1271.7 968.8C1245.4 968.1 1219.2 970.3 1193 969.9C1191.8 969.9 1190.7 969.9 1189.5 969.9C1184 965.8 1183.6 959.9 1183.9 953.9C1184.1 949.1 1185.2 944.3 1186 939.6C1195 882.6 1203.8 825.5 1212.7 768.5C1213 766.9 1213.4 765.2 1213.5 763.6C1213.9 759.7 1216 758 1219.8 758.1C1222.8 758.2 1225.7 757.3 1228.7 757.2C1234.5 757 1235.7 757.7 1237.3 763.2C1240.3 773.9 1243 784.8 1245.7 795.6C1255.5 834.1 1265.8 872.6 1275.3 911.2C1275.6 912.3 1275.9 913.5 1276 914.6C1276 915.7 1276.2 916.8 1276.4 917.9C1275.9 914.6 1275.9 911.3 1274.9 908.1C1273.7 888.9 1272.7 869.6 1271.4 850.4C1270.1 831.4 1269.1 812.3 1267.8 793.3C1266.9 779.6 1266.2 765.8 1265.4 752C1264.6 738.3 1263.9 724.5 1262.8 710.8C1262.5 706.8 1262.4 702.8 1262.6 698.9C1261.9 693.5 1261.7 688 1261.6 682.5C1261.6 678.1 1260.8 677.6 1256.5 678.8C1245.3 681.9 1234.4 686 1223.3 689.5C1216.8 691.6 1215.9 691.2 1212.8 685C1211.7 682.8 1210.6 680.6 1209.4 678.3C1203.4 665.1 1195.8 652.7 1189.6 639.5C1188.7 637.6 1187.5 635.8 1187.2 633.6C1187.7 629.8 1191 629.4 1193.7 628.3C1204.5 624.1 1215.5 620.2 1226.4 616.2C1230.3 614.8 1230.6 613.3 1228.8 609.8C1224 600.7 1220.2 591.1 1215.3 582C1214.4 580.4 1213.7 578.7 1214 576.8C1217.2 571.2 1217.1 565.6 1215 559.6C1209.9 545.1 1205 530.4 1200 515.8C1196.4 505.2 1188.9 501.4 1178.2 504.5C1174.4 499.2 1172 493.3 1169.5 487.3C1168.7 485.4 1167.7 483.5 1167 481.5C1166.7 480.8 1166.6 479.9 1166.1 479.3C1163.9 476.8 1164.1 473.4 1162.9 470.6C1160.7 465.8 1167.7 468 1167.4 464.7C1168.2 464 1168.9 463.2 1170.1 463.1C1179.1 461.5 1187.4 457.7 1195.8 454.3C1196.8 454.1 1198 455 1198.8 453.7C1210.6 449.4 1222.1 444 1235.1 444.3C1236.1 444.2 1237.1 444.6 1238.1 444.6C1241.9 446.4 1246.2 446.1 1250.2 447C1267.5 450.7 1280.1 461.4 1291.1 474.4C1302.4 487.7 1302.4 487.6 1319.9 487.6C1319.4 490.4 1317 489.4 1315.3 489.8C1313.1 490.3 1310.6 488.8 1308.5 490.7C1311.4 494.2 1314.8 497.2 1318 500.4C1318.6 501 1319.3 502 1320.4 500.9C1320.5 494.5 1321 488.2 1321 481.9C1321 416 1321 350.2 1321.1 284.3C1321.1 282 1319.9 279.2 1322.7 277.5C1325.3 279.6 1324.6 282.7 1324.6 285.4C1324.7 312 1324.6 338.7 1324.6 365.3C1324.6 409.4 1324.7 453.5 1324.5 497.7C1324.5 503.3 1325.9 507.5 1330.2 511.2C1336.5 516.6 1343 521.9 1349 527.6C1353 531.4 1358 530.6 1362.6 531.5C1365.3 533 1364.1 533.8 1362 534.4C1360 535 1357.7 533.5 1356 535.5C1365.1 545.4 1373.3 555.9 1379.8 567.7C1384.3 576 1387.3 584.6 1387.1 594.1C1387.5 594.8 1388 595.4 1388.1 596.2C1388.4 612.5 1381.6 625.7 1369.7 636.4C1361.9 643.4 1352.2 647 1342.3 649.9C1335.5 651.9 1335.5 652.1 1337.8 658.9C1339.7 664.2 1340.8 669.8 1342.9 675C1343.2 675.7 1343.4 676.5 1343.6 677.2C1350.6 700.1 1357.7 723 1364.8 745.8C1365.4 748.5 1365.2 751.1 1366.2 753.4Z" fill="#6DB5DE"/>
<path d="M877.5 250.9C906.4 276 935.3 301.2 964.2 326.3C967.9 329.6 971.8 332.8 975.5 336C977.3 336 977.9 337.2 978.4 338.7C1007.2 362.7 1006.5 401.9 977.1 424.9C961.4 437.2 943.8 445.2 924.9 451C908.8 455.9 892.9 461.7 877.5 468.7C876.8 469.4 876.2 470.2 875.2 470.7C868.6 473.7 862 476.7 855.3 479.6C851.9 480.6 848.4 480.3 844.9 480.3C737.4 480.3 629.9 480.3 522.4 480.3C513.2 480.3 504.1 480.3 495.4 483.6C493 483.8 491.3 482.5 490 480.7C483.9 472.6 480 463.6 479.5 453.4C479.4 449.8 479.5 446.3 479.5 442.7C479.8 434.7 482.2 427.3 486.3 420.5C509 382.3 531.5 344 554.1 305.8C554.7 304.8 555.4 303.9 555.9 302.8C557.7 299.2 560.3 298.1 564.1 299.9C566.6 301.1 569.3 302 572 303C587.2 309.4 602.7 315.1 617.8 321.7C620.9 323.3 620.3 325.6 618.8 327.9C618 329.1 617.3 330.3 616.7 331.6C614.6 336.3 611.8 340.6 609.5 345.2C608.4 347.2 607.5 349.3 606.5 351.4C593.6 374.5 581.2 397.8 568.4 420.9C567.8 422.1 567.2 423.3 566.6 424.5C565.7 426.4 566.4 427.3 568.4 427.3C571.4 427.4 574.4 427.5 577.4 427.3C598.8 425.4 620.2 426.7 641.7 426.4C655.8 426.2 670 426.2 684.1 426.4C695.7 426.6 707.3 424.7 718.9 425.4C731.7 425.7 744.3 423 757 421.9C762.9 421.7 768.4 420 774 418.2C798.1 410.3 821.8 401.6 845.9 393.9C847.1 393.6 848.3 393.1 849.5 392.7C857.8 389.4 866.4 386.8 874.9 383.9C875.8 383.6 876.7 383.3 877.6 383C887.1 380.1 896.3 376.4 905.8 373.3C909.3 372.2 908.9 371.1 906.6 368.8C897.4 359.6 887.4 351.1 878.1 341.9C877.3 340.8 876.2 340 875.1 339.3C866.6 331.6 858.3 323.7 849.9 315.9C848.7 314.5 847.1 313.6 845.8 312.3C840.4 306.5 833.9 301.9 828.5 296.1C824 291.2 823.9 291.2 828.6 286.8C830 285.4 831.4 284 833.1 283C835.2 281.6 837.6 282.5 839.9 282.2C843.2 281.8 843.9 280.4 842 277.6C839 273.2 835.8 269 832.7 264.7C831.5 263 829.7 260.9 832.2 259.1C834.6 257.4 836.2 259.5 837.6 261.1C841 265.2 843.9 269.7 847 274C848.7 276.3 850.1 276.9 852.6 275C855 273.2 855.9 271.6 853.8 269C850.5 264.8 847.4 260.5 844.4 256.2C843.2 254.4 841.7 252.3 844 250.5C846.4 248.7 848 250.9 849.3 252.5C852.6 256.6 855.4 261.2 858.8 265.3C861.5 268.5 862.9 268.2 864.9 264.5C866.6 261.4 865.5 257.9 866.8 254.9C869.2 252.4 871.2 249.2 875.1 248.7C876.6 248.7 876.8 250 877.5 250.9Z" fill="black"/>
<path d="M493.7 482.9C501.5 479 509.9 478.7 518.5 478.7C628.7 478.8 738.9 478.8 849.2 478.8C851.7 478.8 854.2 479.1 856.5 477.9C862.8 477.3 869 477 875.3 477.6C876.2 477.7 877 478.2 877.8 478.8C891.9 478.8 906.1 478.9 920.2 478.9C941.9 478.9 953.6 490.5 953.6 512.1C953.6 619.8 953.6 727.5 953.6 835.2C953.6 856.4 941.8 868.1 920.5 868.2C884 868.2 847.6 868.2 811.1 868.2C809.3 868.2 807.5 868.4 805.6 868.5C804.1 870.1 802.1 870.2 800.1 870.2C775.7 870.2 751.4 870.4 727 870.1C716.7 870.2 706.4 870.3 696.1 870.1C695.5 870.1 694.8 870.1 694.2 870.1C667.4 870.4 640.6 871.2 613.9 870C579.2 868.4 544.5 869.8 509.8 869C495.5 870.8 478.8 857.7 478.5 836.9C478.3 824.5 478.4 812 478.5 799.6C478.5 798.7 478.5 797.7 478.4 796.8C478.2 711.8 478.1 626.7 478.4 541.7C478.4 540.7 478.4 539.8 478.4 538.8C478.3 530.8 478.2 522.7 478.5 514.7C479.2 511.4 479.6 508.1 479.5 504.7C481 495.1 484.5 487.1 493.7 482.9Z" fill="#202B6D"/>
<path d="M1275.4 915.2C1262.4 864.7 1249.3 814.3 1236.4 763.8C1235.3 759.3 1233.5 758.2 1229.1 758.5C1215.9 759.4 1215.7 759.2 1213.7 772.3C1206.2 820.5 1198.8 868.8 1191.3 917.1C1189.5 928.8 1187.8 940.4 1185.6 952C1184.4 958.4 1186.6 963.7 1189.2 969.1C1191 970.1 1191.4 972 1192 973.6C1205.2 1008.2 1218.2 1042.9 1231.3 1077.5C1231.6 1078.7 1232.1 1079.9 1232.6 1081C1236.4 1091.3 1240.4 1101.5 1244.1 1111.9C1244.5 1113.1 1244.9 1114.3 1245.4 1115.4C1250.9 1128.9 1255.9 1142.6 1260.9 1156.3C1261.6 1158.3 1263.2 1160.7 1260 1162.2C1258.1 1162.8 1256.1 1162.8 1254.1 1162.8C1229.7 1162.8 1205.3 1162.8 1180.9 1162.8C1178.3 1162.8 1175.5 1163.3 1173.4 1161.1C1170.5 1152.3 1167.4 1143.7 1163.7 1135.3C1162.6 1134.6 1162 1133.5 1161.5 1132.4C1159.2 1126.5 1157.1 1120.5 1154.7 1114.6C1154.4 1113.9 1154.2 1113.2 1154 1112.5C1150.2 1102.2 1146.2 1091.9 1142.5 1081.6C1142.2 1080.3 1141.8 1079.1 1141.2 1077.9C1132.9 1057.4 1125.6 1036.5 1117.7 1015.8C1113.1 1003.7 1108.6 991.5 1104 979.4C1099.7 968.1 1098.4 956.8 1100.4 944.7C1111.4 880.1 1121.8 815.4 1132.7 750.7C1133 748.9 1133 747 1133.5 745.3C1134.1 743.7 1135.3 742.5 1136.8 741.7C1151.1 734.5 1164.8 726.2 1179.4 719.5C1180.4 719 1181.6 718.7 1182.7 718.4C1207.5 712.1 1231.9 704.8 1256.6 698.3C1258.9 697.7 1261.2 696.3 1263.8 697.6C1264.6 709.5 1265.5 721.5 1266.2 733.4C1269.5 788.4 1272.8 843.3 1276.1 898.3C1276.3 902 1276.4 905.6 1276.5 909.3C1276.4 911.2 1278.2 913.6 1275.4 915.2Z" fill="#8F3600"/>
<path d="M726.5 868.2C752.9 868.2 779.2 868.2 805.6 868.2C805.5 897.8 805.5 927.4 805.2 957.1C804.7 1004.2 804.1 1051.3 803.3 1098.3C802.9 1119.1 801.8 1139.9 800.9 1160.6C800.9 1161.8 800.9 1162.9 801.9 1163.7C800.4 1165.8 798.1 1165.6 796 1165.6C770.4 1165.7 744.801 1165.7 719.201 1165.6C717.401 1165.6 715.5 1165.6 713.9 1164.6C711.2 1161.7 712 1158 712.3 1154.7C713.1 1145.2 713.6 1135.6 714.4 1126.1C714.8 1124.7 715.2 1123.3 715 1121.8C715.5 1097.1 717.8 1072.5 718.4 1047.8C718.6 1040 718.901 1032.2 719.201 1024.5C719.201 1023.6 719.2 1022.6 719.3 1021.7C721 1010 720.301 998.1 720.701 986.4C721.301 970.8 721.901 955.2 722.201 939.6C722.701 918.7 723.801 897.8 724.201 876.8C724.301 873.8 724.6 870.7 726.5 868.2Z" fill="#E98F27"/>
<path d="M1173.4 1161C1202.6 1161.1 1231.9 1161.1 1261.1 1161.2C1262.9 1162.3 1263 1164.2 1263.5 1165.9C1266.3 1175.1 1268.4 1184.4 1270.7 1193.8C1271.5 1197.2 1272.7 1197.8 1275.7 1195.9C1285.3 1190 1294.9 1184.2 1304.6 1178.5C1306.1 1177.8 1307.7 1177.1 1309 1176C1316.6 1171.4 1324.3 1166.8 1332 1162.2C1334.5 1160.7 1337 1159.6 1339.9 1159.6C1366.5 1159.3 1393.1 1159.5 1419.7 1159.5C1421.9 1159.5 1424 1159.7 1425.9 1161.1C1429.7 1170.1 1431.2 1179.8 1433.8 1189.2C1437.6 1203 1440.8 1216.9 1444.6 1230.6C1445.7 1234.7 1444.6 1235.2 1440.9 1235.1C1420.8 1234.9 1400.6 1235 1380.5 1235C1283.3 1235 1186.1 1235 1088.9 1235C1083 1235 1083 1235 1084 1229C1086.2 1216.9 1092 1207.6 1103 1201.4C1124.9 1188.9 1146.6 1176 1168.4 1163.3C1170.1 1162.4 1171.8 1161.8 1173.4 1161Z" fill="black"/>
<path d="M713.701 1163.9C741.501 1163.9 769.201 1163.9 797.001 1163.9C798.701 1163.9 800.301 1163.8 801.901 1163.7C819.001 1173.6 836.101 1183.4 853.201 1193.3C860.101 1197.3 867.001 1201.3 873.801 1205.4C885.001 1212.2 889.701 1222.7 891.001 1235.2C891.201 1236.9 890.701 1237.7 888.901 1237.7C887.701 1237.7 886.601 1237.7 885.401 1237.7C841.601 1237.7 797.801 1237.6 754.001 1237.7C723.201 1237.7 692.401 1238 661.601 1238.1C660.601 1239 659.301 1239.3 658.001 1239.4C641.001 1239.5 624.101 1239.7 607.1 1239.3C606.1 1239.2 605.301 1238.7 604.401 1238.2C581.4 1238.1 558.3 1238.1 535.3 1238C533.5 1238 531.7 1238 529.4 1238C532.5 1225.5 535.4 1213.3 538.4 1201.2C538 1200.4 537.8 1199.6 537.9 1198.8C540.1 1189.2 542.6 1179.6 545 1170C545.6 1167.8 546 1165.4 548.4 1164.2C551 1163.3 553.7 1163.5 556.3 1163.5C579.8 1164.1 603.301 1162.5 626.901 1162.5C629.601 1162.5 632.201 1162.4 634.801 1163.2C646.501 1168.8 657.601 1175.6 668.801 1182C681.601 1189.4 694.201 1197.3 707.001 1204.6C716.501 1210 722.001 1218 724.101 1228.5C724.301 1229.6 724.201 1230.8 725.601 1231.9C725.101 1221.3 720.501 1213.1 712.601 1206.9C709.201 1204.2 708.501 1201.7 708.901 1197.6C709.701 1188.7 711.001 1179.8 711.401 1170.8C711.501 1168.3 711.701 1165.8 713.701 1163.9Z" fill="black"/>
<path d="M279.2 1237C279 1219.9 277.5 1202.8 279.8 1185.8C283.1 1161.1 299.6 1144.4 324.1 1138.8C324.7 1138.7 325.3 1138.3 326 1138.1C326.7 1137.5 327.4 1137.1 328.3 1136.9C335.1 1135.8 341.9 1135.3 348.7 1135.9C350.7 1136.4 352.6 1137.7 354.8 1136.2C358.8 1135.4 362.9 1136 366.9 1135.6C369 1135.5 370.9 1137.7 373.2 1136.1C384.7 1135.3 396.2 1135.4 407.5 1137.4C434 1142 457 1167 454.1 1199C454 1199.9 453.5 1200.6 453.1 1201.3C453 1213.2 452.8 1225.1 452.7 1237C444.8 1238.2 436.8 1237.1 428.9 1237.6C409.7 1238.8 390.4 1239.1 371.2 1238.4C341.5 1237.2 311.8 1237.9 282.1 1237.6C281.1 1237.5 280.1 1237.7 279.2 1237Z" fill="#202B6D"/>
<path d="M1426 1161.1C1396.9 1161.1 1367.7 1161.1 1338.6 1161.1C1335.3 1157 1335.5 1151.7 1334 1147C1333.8 1146 1333.4 1145 1333.1 1143.9C1327.7 1123.2 1322.3 1102.6 1317.1 1081.8C1316.9 1080.5 1316.4 1079.2 1316.1 1077.9C1310.6 1057.3 1305.3 1036.6 1300.1 1015.9C1299.6 1013.9 1298.7 1011.8 1299.7 1009.6C1305.3 1006.5 1311.7 1006.2 1317.8 1004.8C1338.5 1000 1359.2 995.5 1379.9 990.8C1380.9 990.6 1381.8 990.2 1382.8 990.7C1397.2 1047.5 1411.6 1104.3 1426 1161.1Z" fill="#8F3600"/>
<path d="M354 1137.2C352.7 1139.9 351.4 1138 350.1 1137.2C346.2 1133.2 345.7 1127.7 343.8 1122.9C340.8 1114.9 337.9 1106.8 335.2 1098.7C334.8 1097.5 334.5 1096.3 334 1095.1C331.8 1089.3 329.8 1083.5 327.9 1077.6C327.1 1075 325.9 1072.6 325 1070C319.8 1055 314.1 1040.2 309.1 1025.1C308.8 1024.1 308.8 1023.1 308.9 1022.1C306.1 1011 301.7 1000.4 297.9 989.7C269.8 910.5 241.499 831.3 213.399 752C212.399 749.3 211.099 747.5 208.699 746C195.199 737.6 192.199 724.1 200.799 710.5C261.2 614.5 321.6 518.5 382 422.5C389.4 410.8 399.9 405.8 410.9 410C424.6 415.3 433.8 423.4 433 437.8C432.7 442.6 430.8 446.8 428.2 450.7C427.2 452.2 426 453.5 428.1 455.4C435.1 461.5 442 467.7 449 473.9C450.7 474.1 451.7 475.5 452.9 476.5C461.2 484.1 469.8 491.4 477.9 499.2C479.9 501 480.6 502.8 478.4 504.9C476.6 505.8 475.2 504.8 474 503.7C466.5 497 459 490.3 451.6 483.5C450.4 482.3 449.3 481.1 448 480.1C441.5 474.6 435.2 469 429.1 463.1C425.2 459.4 424.4 459.5 421.6 463.9C391 512.7 360.3 561.4 329.6 610.1C302.8 652.8 275.9 695.5 248.999 738.1C246.499 742.1 243.799 745.9 239.999 748.7C237.499 750.5 237.4 752.6 238.3 755.2C249.6 786.1 260.399 817.3 271.5 848.3C281.3 875.7 291 903.2 300.8 930.6C309.1 954 317.4 977.3 325.7 1000.7C326 1001.6 326.3 1002.6 326.5 1003.6C327.2 1006 328.3 1008.2 329.1 1010.5C339.1 1038.5 349.1 1066.6 359.1 1094.6C359.4 1095.8 359.7 1097.1 360.2 1098.2C364.3 1109 368.2 1119.9 371.9 1130.8C372.6 1132.8 373.8 1134.8 372.4 1136.9C370.3 1140.6 369.6 1137.2 368.5 1136.1C366.7 1135.4 366.3 1133.7 365.7 1132.2C361.7 1121.1 357.5 1110.1 353.9 1098.9C353.4 1097.2 352.9 1095.5 352.1 1093.9C343.9 1071.3 335.8 1048.6 327.9 1025.9C327.2 1023.5 326.3 1021.1 325.2 1018.9C305.5 963.3 285.8 907.8 265.999 852.3C255.099 821.6 244.199 790.8 233.199 760.1C231.199 754.6 231.999 752.5 224.399 753.6C223.099 753.8 221.799 753.2 219.599 753.5C222.099 759.5 223.799 765.5 225.899 771.4C236.099 799.6 246 827.9 256.1 856.1C271.5 899.2 286.8 942.4 302.1 985.5C306.4 997.6 310.8 1009.6 315 1021.7C315.4 1022.9 315.7 1024.1 316.2 1025.3C319.7 1035 323 1044.7 326.5 1054.4C327.3 1057 328.1 1059.6 329.2 1062.1C333 1072.8 337.1 1083.4 340.5 1094.2C340.8 1095.7 341.5 1097 342.1 1098.4C346.4 1109.6 350.1 1121.1 354.3 1132.4C354.6 1134 355.2 1135.6 354 1137.2Z" fill="black"/>
<path d="M1035.6 605.8C1037.4 601 1035.1 596.4 1034.4 591.9C1030.9 569.6 1027 547.4 1023.2 525.2C1022 518.3 1021.9 518.4 1028.3 516.3C1029.1 516.1 1029.9 515.7 1030.6 515.5C1031.5 514.5 1032.6 513.7 1033.9 513.3C1044.9 510.2 1055.9 507 1067 504.2C1067.8 504 1068.6 504 1069.5 504.2C1071.7 505.4 1071.9 507.7 1072.5 509.7C1075.8 521.9 1079.2 534.1 1082.4 546.3C1082.9 548.1 1083.2 549.9 1084.4 551.4C1083.8 547 1082.8 542.7 1081.5 538.4C1078.6 528.3 1076.2 518.2 1073.3 508.1C1072.8 506.3 1072.3 504.6 1072.6 502.7C1074.4 498.8 1076.7 495.6 1081.7 496.3C1085 500.5 1085.9 505.6 1087.5 510.4C1094.4 530.3 1101.6 550 1108.5 569.9C1109.2 571.9 1110.1 573.9 1110.2 576.1C1109.9 578.9 1107.6 579.8 1105.6 580.9C1092.1 588.4 1078.3 595.5 1064.6 602.7C1061.5 604.3 1058.4 605.9 1055.4 607.8C1049.8 611.4 1048.5 615.6 1051.6 621.4C1057.2 632 1062.8 642.6 1068.4 653.2C1079.1 673.2 1089.7 693.1 1100.2 713.2C1101.9 716.4 1104 719.5 1105.5 722.8C1106.2 724.4 1108 726.3 1105.6 728.1C1096.5 729.6 1087.5 728.9 1078.9 725.4C1077 724.3 1074.7 724 1073.3 722.1C1073.2 721.2 1072.7 720.6 1072 720.2C1058.5 711.5 1052.1 698.6 1049.7 683.1C1045.8 658.6 1041.5 634.2 1037.4 609.7C1036.8 608.5 1035.2 607.6 1035.6 605.8Z" fill="#6DB5DE"/>
<path d="M1214.3 576.7C1220.1 588.4 1225.8 600.2 1231.8 611.8C1233.3 614.7 1232.2 615.4 1229.8 616.3C1217 621 1204.3 625.7 1191.6 630.5C1190.1 631.1 1187.6 631 1188.4 633.8C1187.4 635.4 1186 635.7 1184.3 635.3C1182.7 634.8 1182 633.4 1181.3 632.1C1170.2 611 1159 589.9 1147.7 568.9C1146.8 567.1 1146.1 565.3 1145.4 563.4C1144.5 560.9 1143.7 558.3 1142.4 556C1140 551.5 1136.3 548.7 1131.1 549.7C1126.8 550.5 1125.2 548.7 1123.9 545C1117.9 528.1 1112.5 510.9 1106.4 494.1C1104.4 488.7 1105.2 487 1110.6 485.1C1112.3 484.5 1114 483.9 1115.8 483.4C1126.6 479.3 1137.7 475.8 1148.6 472.1C1150.8 471.4 1153 470.6 1155.4 471.2C1157.8 470.1 1159.2 470.6 1160.1 473.4C1163.4 483.6 1166.9 493.8 1170.5 504C1171.3 506.3 1170.9 507 1168.6 507.9C1155.4 512.9 1152.4 519.6 1157 533.1C1162.1 548 1167.1 562.9 1172.4 577.7C1175.1 585.4 1183.2 589.6 1190.8 587.8C1192.3 587.4 1194 587.1 1193.4 585C1192.9 583.2 1191.4 583.8 1190.1 584C1182.4 584.9 1178 582.3 1175.5 575.2C1170.2 559.9 1164.9 544.5 1159.7 529.2C1157 521.2 1160 515.1 1167.9 512.2C1172.1 510.7 1176.4 509.4 1180.6 508C1182.8 509 1183.5 511.1 1184.5 513C1193.5 530.6 1202 548.4 1210.6 566.2C1211.5 568 1211.8 570 1212.4 571.8C1211.4 575.2 1208.9 577.3 1205.9 578.7C1204.6 579.3 1203.4 579.9 1204.2 581.5C1205 583.2 1206.2 582.6 1207.5 582.1C1210.2 581 1212.1 578.7 1214.3 576.7Z" fill="black"/>
<path d="M1155.4 471.1C1142.4 475.5 1129.5 479.9 1116.5 484.2C1113.7 482.5 1113 479.4 1111.6 476.9C1108 470.1 1109.5 470.5 1102.2 473.1C1093.9 476.1 1085.4 478.5 1076.4 476.8C1072.3 476.1 1068.6 474.4 1064.1 472.1C1067 482.7 1070.5 492.2 1071 502.3C1071 503.4 1070.5 504.3 1069.5 504.7C1056.6 508.3 1043.6 511.8 1030.7 515.4C1022 495.5 1019 474 1014.2 453.1C1011.8 442.5 1014.7 436.3 1024.1 430.7C1028.3 428.2 1033.2 426.6 1036.7 422.9C1040.6 425.9 1041.9 429.5 1039.6 432.7C1034.8 439.3 1034.9 446.1 1037.8 453.3C1039.2 459.8 1041.3 466.1 1043.1 472.5C1043.3 473.3 1043.6 474.1 1043.9 474.8C1044.4 475.9 1045.2 476.9 1046.5 476.7C1048.3 476.4 1048.3 474.9 1048.1 473.6C1047.7 470.1 1047 466.7 1046.7 463.2C1046.6 462.2 1046.6 461.2 1047.2 460.3C1048.3 459.4 1049.6 459.3 1051 459.3C1058.7 459.2 1063.2 454.9 1065.8 448.1C1067.9 442.5 1068.1 442.4 1073.7 444.1C1081.9 446.7 1090.6 442.5 1093.2 434.9C1096 426.7 1091.9 417.5 1084.1 414.7C1076 411.8 1067.2 415.8 1064.2 424C1062.1 429.6 1061.8 431.7 1054.6 428.7C1052.1 427.6 1049.4 427.9 1046.7 428.7C1043.1 429.7 1041.5 427.8 1040.5 424.7C1039.4 421.6 1040.9 419.9 1043.5 418.8C1056.6 413.1 1069.1 406 1082.3 400.5C1096.9 394.4 1111.5 396.2 1125.5 403.6C1131.8 403 1137.3 404.8 1140.2 410.7C1143.3 417 1140.9 422.8 1136.2 427.4C1133.7 429.9 1133.8 431.8 1135.4 434.7C1141.4 445.7 1147.2 456.9 1153.1 468C1153.7 469.1 1154.6 470.1 1155.4 471.1Z" fill="#FD9993"/>
<path d="M1125.5 403.7C1117.5 401.5 1109.7 398.6 1101.3 398.5C1093.3 398.3 1085.8 399.6 1078.7 403.4C1067.3 409.6 1055.5 414.9 1043.7 420.3C1042.1 421 1039.8 421.4 1041.4 424C1042.5 425.7 1042 429.4 1046.1 427.8C1051.3 425.7 1056.2 427.4 1061.4 430.2C1062.2 422.9 1065 416.9 1072 414C1076.3 412.2 1080.7 412.1 1085.1 413.8C1094.1 417.4 1098.2 427.8 1094.2 436.6C1089.9 446.1 1079.9 448.9 1068.4 443.4C1067.5 448.5 1066.2 453.4 1062 457C1057.7 460.6 1052.8 461.2 1047.5 460.9C1041.8 461.6 1038.9 457.9 1036.6 453.6C1033 445.9 1033.2 438.8 1038.9 431.9C1041.5 428.8 1037.5 426.1 1036.8 423.1C1036.6 421.4 1035 421.4 1033.9 420.8C1024.2 415.7 1018.5 405.2 1019.6 394.4C1020.6 384.6 1030.2 376.9 1042.5 376C1049.1 375.5 1055.5 376.5 1061.3 379.6C1064.1 381 1065.8 380.7 1068.2 378.7C1078.6 370.2 1090.1 367.1 1102.9 372.9C1107.9 375.2 1111.9 378.7 1114.6 383.4C1118.5 389.9 1123 396.3 1125.5 403.7Z" fill="black"/>
<path d="M1073.3 722.3C1075.2 722.5 1077 722.9 1078.4 724.3C1076 726.9 1072.8 726.1 1069.9 726.1C1038.6 726.2 1007.3 726.1 976 726.1C974.3 726.1 972.7 726.2 971 726.1C967.7 726 966 727.4 966.1 730.8C966.1 732.3 966.1 733.8 966.1 735.3C966.1 846 966.1 956.7 966.1 1067.3C966.1 1076.5 966.1 1076.5 975.5 1076.5C1028.1 1076.5 1080.7 1076.5 1133.3 1076.5C1136.4 1076.5 1139.7 1075.8 1142.4 1078.3C1143.3 1079 1143.4 1080 1143.3 1081C1141.3 1083.1 1138.7 1082.7 1136.3 1082.7C1123.3 1082.8 1110.3 1082.7 1097.3 1082.7C1091.4 1082.7 1091 1083.2 1091 1088.9C1090.9 1093.9 1091 1098.9 1091 1103.9C1091.1 1110 1091.4 1110.5 1097.5 1110.5C1114.1 1110.6 1130.8 1110.5 1147.4 1110.5C1150.1 1110.5 1152.8 1110.3 1155.1 1112C1155.3 1112.7 1155.6 1113.4 1155.8 1114C1153.9 1115.9 1151.5 1115.5 1149.2 1115.5C1143.4 1115.6 1137.5 1115.6 1131.7 1115.5C1128.4 1115.5 1127.1 1116.9 1126.9 1120.3C1126.3 1131.3 1126.3 1131.2 1137.4 1131.4C1145.9 1131.6 1154.4 1130.5 1162.8 1132.1C1163.1 1133.1 1163.4 1134 1163.6 1135C1151.3 1135.1 1139 1135.1 1126.7 1135.2C1123.7 1135.2 1122.4 1134.4 1122.6 1131.2C1122.8 1127 1122.4 1122.9 1122.7 1118.7C1123 1114.8 1121.4 1113.9 1117.8 1114C1109.1 1114.2 1100.5 1113.9 1091.8 1114.2C1087.9 1114.3 1086.5 1113.2 1086.6 1109.2C1086.9 1101.1 1086.6 1092.9 1086.7 1084.7C1086.8 1081.7 1085.9 1080.7 1082.8 1080.7C1067 1080.8 1051.2 1080.8 1035.4 1080.7C1032.5 1080.7 1031.3 1081.3 1031.4 1084.5C1031.5 1102.5 1031.6 1120.5 1031.4 1138.4C1031.3 1142.2 1033.6 1142.6 1036 1143.7C1054.2 1152.1 1064.8 1166.1 1065.5 1186.3C1066.2 1207 1056.7 1222.2 1038.4 1231.5C1014.5 1243.5 985.4 1232.8 973.9 1208.4C962.7 1184.7 973.2 1155.6 997.2 1144.8C1002.2 1142.6 1003.9 1140.1 1003.8 1134.6C1003.3 1118.1 1003.5 1101.6 1003.7 1085.2C1003.7 1081.7 1002.8 1080.6 999.3 1080.7C988.6 1080.9 978 1080.6 967.3 1080.9C962.9 1081 961.6 1079.7 961.7 1075.3C961.9 1041.8 961.8 1008.4 961.8 974.9C961.8 892.7 961.8 810.4 961.7 728.2C961.7 723.2 962.8 721.8 968 721.8C1003 722.4 1038.2 722.2 1073.3 722.3Z" fill="#5B84B0"/>
<path d="M451.6 476.7C450.7 475.7 449.7 474.8 448.8 473.8C448.8 471.5 448.9 469.1 448.9 466.8C448.9 359.6 448.9 252.4 448.9 145.1C448.9 138.6 448.9 138.6 455.3 138.6C593.9 138.6 732.4 138.6 871 138.6C877.5 138.6 877.5 138.6 877.5 144.9C877.5 180.2 877.4 215.5 877.4 250.8C876.7 250.1 876.1 249.4 875.4 248.7C873.3 246.3 873.9 243.3 873.9 240.6C873.9 211 873.9 181.3 873.9 151.7C873.9 150 873.9 148.4 873.8 146.7C873.7 144.1 872.6 142.7 869.9 142.6C868.2 142.5 866.6 142.5 864.9 142.5C730.7 142.5 596.4 142.5 462.2 142.5C453.5 142.5 453.5 142.5 453.5 151.4C453.5 256.5 453.5 361.6 453.4 466.6C453.4 470.1 454.5 473.8 451.6 476.7Z" fill="#6088B2"/>
<path d="M1323.2 277.9C1321.5 279.6 1322.3 281.7 1322.3 283.6C1322.3 355.6 1322.3 427.7 1322.3 499.7C1322.3 501.2 1322.7 502.9 1322.1 504.1C1321.3 505.8 1320.8 504 1320.2 503.5C1318.8 501.5 1318.7 499.2 1318.8 496.9C1319 493.3 1317.3 491.9 1313.8 492.1C1311.5 492.2 1309.2 492 1307.2 490.7C1305.8 489.8 1304.8 488.9 1307.6 488.6C1311.8 488.2 1316.1 489.6 1320.2 487.7C1320.3 485.7 1320.4 483.7 1320.4 481.7C1320.4 414.9 1320.5 348.2 1320.3 281.4C1320.3 276.5 1321.6 275.2 1326.4 275.4C1337.9 275.7 1349.4 275.7 1360.9 275.4C1365.2 275.3 1366.5 276.3 1366.5 280.8C1366.3 311.3 1366.4 341.7 1366.4 372.2C1366.4 424 1366.4 475.7 1366.4 527.5C1366.4 536.5 1367.4 535.2 1358.8 535.4C1358 535.4 1357.1 535.5 1356.3 535.5C1354.9 534.5 1353.9 533.8 1356.7 533.5C1359.2 533.2 1361.9 534.6 1364.2 532.5C1362.1 529.7 1362.7 526.4 1362.7 523.3C1362.7 445.6 1362.7 367.9 1362.7 290.2C1362.7 278.4 1363.3 279.4 1351.9 279.3C1344.6 279.3 1337.3 279.3 1329.9 279.3C1327.5 279.5 1325.2 279.6 1323.2 277.9Z" fill="#5E86B1"/>
<path d="M1342.4 677.7C1342.4 677 1342.3 676.2 1342.3 675.5C1344.9 673.3 1348 674 1350.9 674C1388.9 674 1426.8 674 1464.8 674C1474.7 674 1474.7 674 1474.7 664.1C1474.7 645.1 1474.7 626.2 1474.7 607.2C1474.7 598.3 1474.7 598.3 1466 598.3C1442.4 598.3 1418.7 598.3 1395.1 598.3C1392.5 598.3 1389.7 598.7 1387.4 596.9C1387.4 596.1 1387.4 595.3 1387.4 594.4C1415.7 594.5 1444 594.6 1472.3 594.4C1477.1 594.4 1478.4 595.7 1478.3 600.5C1478.1 624.5 1478.1 648.4 1478.3 672.4C1478.3 676.5 1477.3 677.7 1473.1 677.7C1439.5 677.5 1405.9 677.7 1372.3 677.5C1367.9 677.5 1366.4 678.4 1366.5 683.1C1366.7 706.6 1366.5 730 1366.4 753.5C1364.7 751.4 1364.5 748.9 1364.4 746.4C1363.3 741.9 1362.9 737.3 1362.9 732.6C1363 717 1363 701.3 1362.9 685.7C1362.9 679.6 1362.4 679.4 1356.3 679.1C1351.5 678.9 1346.7 680 1342.4 677.7Z" fill="#5882AF"/>
<path d="M1198.6 454.4C1198 455.6 1197.2 455 1196.4 454.7C1193.6 454.7 1192.6 452.2 1191.3 450.5C1180.3 436.3 1169 422.4 1157.7 407.8C1162 424.2 1165.4 440.4 1169.4 456.5C1170 458.8 1171.4 461.2 1169.6 463.6C1169.5 464.8 1169.1 465.5 1167.7 464.7C1162.4 442.4 1157.1 420.2 1151.9 397.9C1148.3 382.5 1158.1 369.9 1172.8 370.7C1178.8 371 1183.7 373.7 1187.3 378.4C1204.4 400.5 1221.4 422.6 1238.4 444.7C1237.8 445.6 1236.9 445.6 1236 445.6C1231.1 442.4 1228.5 437.2 1225 432.8C1211.4 415.6 1198.2 398 1184.5 380.8C1180.1 375.3 1174.3 372.6 1167.3 374.6C1160.2 376.6 1156 381.5 1154.9 388.8C1154.1 394.3 1156.5 398.8 1159.8 403C1172 418.6 1184.5 434 1196.5 449.7C1197.7 451.1 1199.4 452.2 1198.6 454.4Z" fill="#5A83AF"/>
<path d="M308.9 1022.1C309.7 1022.6 309.9 1023.3 309.9 1024.2C308 1026.1 305.6 1025.7 303.3 1025.7C295.6 1025.8 288 1025.8 280.3 1025.7C276.4 1025.6 274.5 1026.8 274.5 1031.1C274.6 1059.2 274.5 1087.4 274.6 1115.5C274.6 1120.8 275.3 1121.4 280.8 1121.5C293.5 1121.6 306.1 1121.4 318.8 1121.6C322.9 1121.6 324.4 1120.1 324.4 1116C324.3 1103.2 324.3 1090.4 324.4 1077.6C324.4 1075 323.9 1072.2 326.1 1070.1C327 1072.5 327.9 1074.8 328.8 1077.2C328.5 1080 329.7 1082.8 329.3 1085.6C328.7 1090.3 329.7 1094.1 335 1095.3C335.9 1096 335.9 1097 335.9 1098.1C329.2 1099.9 329 1104.9 329.3 1110.7C329.7 1117.8 329.4 1124.9 329.4 1132C329.4 1134.1 329.6 1136.3 328.1 1138.1C327.4 1138.2 326.6 1138.2 325.9 1138.3C325.8 1134.2 327.2 1128.7 325.1 1126.3C322.6 1123.4 317 1125.4 312.7 1125.3C300.2 1125.2 287.7 1125.2 275.2 1125.3C272 1125.3 270.9 1124.5 270.9 1121.1C271 1089.5 271 1057.8 270.9 1026.2C270.9 1023.2 271.7 1022.1 274.8 1022.2C286.2 1022.2 297.6 1022.1 308.9 1022.1Z" fill="#5B84B0"/>
<path d="M1212.2 571.6C1202.6 552.1 1192.9 532.5 1183.3 513C1182.4 511.2 1181.4 509.5 1180.5 507.8C1187.6 505.9 1193.7 508.7 1196.1 515.4C1201.7 531.5 1207.1 547.7 1212.6 563.9C1213.5 566.6 1213.3 569.1 1212.2 571.6Z" fill="#6DB5DE"/>
<path d="M279.201 1237C337.001 1237 394.801 1237 452.6 1237C451.2 1238.4 449.501 1237.7 447.901 1237.7C439.401 1237.8 430.901 1237.7 422.401 1237.7C419.901 1237.7 417.201 1237.2 417.501 1241.2C417.601 1243.3 415.701 1243.2 414.201 1243.2C397.401 1243.2 380.601 1243.2 363.701 1243.2C362.401 1243.2 360.501 1243.4 360.501 1241.6C360.501 1236.7 357.101 1237.7 354.301 1237.7C331.001 1237.7 307.701 1237.7 284.301 1237.7C282.701 1237.7 280.801 1238.5 279.201 1237Z" fill="#5982AF"/>
<path d="M453 1201.2C453 1200.4 453 1199.6 453.1 1198.8C454.9 1197.3 457.201 1197.4 459.301 1197.4C483.601 1197.4 507.901 1197.4 532.201 1197.4C534.501 1197.4 536.901 1197.1 538.801 1199C538.701 1199.7 538.601 1200.4 538.501 1201.2C510.001 1201.2 481.501 1201.2 453 1201.2Z" fill="#5881AE"/>
<path d="M658.8 1238.1C659.8 1238.1 660.8 1238.1 661.7 1238.1C662.1 1242 660.6 1243.4 656.4 1243.3C640.7 1243 625 1243 609.201 1243.3C605.001 1243.4 603.9 1241.8 604.5 1238.2C605.2 1238.2 606.001 1238.2 606.701 1238.1C608.101 1239.7 610.001 1239.5 611.801 1239.5C625.7 1239.5 639.7 1239.5 653.6 1239.5C655.5 1239.5 657.4 1239.7 658.8 1238.1Z" fill="#5982AF"/>
<path d="M1214.7 249.6C1220.8 254.8 1226.9 259.9 1232.9 265.1C1232.5 265.6 1232 266.1 1231.6 266.7C1225.2 261.9 1219.2 256.7 1213.3 251.2C1213.8 250.6 1214.2 250.1 1214.7 249.6Z" fill="#678DB6"/>
<path d="M1170.3 486.7C1173.2 492.5 1176.8 498.1 1178.5 504.4C1176.3 505.2 1174.7 505.7 1173.9 502.4C1172.7 497.5 1170.9 492.7 1169.3 487.8C1168.7 486.7 1169.4 486.6 1170.3 486.7Z" fill="#08090A"/>
<path d="M1035.6 605.8C1036.9 606.9 1037.9 608 1037.4 609.9C1031.4 605.6 1026 600.7 1021.1 595C1026.7 597.5 1030.9 601.9 1035.6 605.8Z" fill="#668DB6"/>
<path d="M978.4 338.6C977.4 337.7 976.5 336.8 975.5 335.9C979.9 332.9 981.9 327.4 987.7 324C985.7 330.6 979.6 333.1 978.4 338.6Z" fill="#678CB4"/>
<path d="M877.7 478.6C876.9 478.6 876.2 478.6 875.399 478.5C873.599 475.6 873.599 472.7 875.499 469.8C876.199 469.4 876.9 469.1 877.5 468.7C877.6 472 877.6 475.3 877.7 478.6Z" fill="#567FAB"/>
<path d="M1170.3 486.7C1170 487.1 1169.6 487.5 1169.3 487.9C1168.4 485.9 1166.6 484.1 1167.4 481.6C1169.1 482.8 1169.6 484.8 1170.3 486.7Z" fill="#20272A"/>
<path d="M1323.2 277.9C1335.3 277.9 1347.5 278 1359.6 277.7C1363.5 277.6 1364.2 279 1364.2 282.5C1364.1 315.1 1364.1 347.7 1364.1 380.3C1364.1 431 1364.1 481.8 1364 532.5C1356.3 534.1 1350.4 531.5 1344.9 526C1339 520 1332.4 514.6 1325.9 509.2C1323.9 507.6 1323 505.9 1323 503.3C1323.2 428.2 1323.2 353.1 1323.2 277.9Z" fill="#FEFEFE"/>
<path d="M1299.7 1009.6C1305.6 1032.5 1311.4 1055.4 1317.3 1078.3C1315.6 1079.8 1313.6 1079.6 1311.6 1079.6C1286.5 1079.6 1261.3 1079.6 1236.2 1079.6C1234.2 1079.6 1232.2 1079.7 1230.4 1078.4C1218.4 1046.7 1206.4 1015.1 1194.4 983.4C1192.6 978.6 1190.9 973.7 1189.2 968.9C1194.1 967.5 1199.1 968.3 1204 968.2C1227.7 967.7 1251.5 967.4 1275.2 966.9C1279 966.8 1280.3 967.8 1280.4 971.8C1280.8 984.1 1281.8 996.3 1282.3 1008.6C1282.4 1011.8 1283.4 1012.4 1286.5 1011.8C1290.9 1011 1295.1 1008.7 1299.7 1009.6Z" fill="#FEFEFE"/>
<path d="M1387.3 596.8C1415.6 596.8 1443.8 596.8 1472.1 596.6C1475.3 596.6 1476 597.7 1476 600.6C1475.9 624 1475.9 647.5 1476 670.9C1476 675 1474.2 675.4 1470.9 675.4C1430 675.3 1389.1 675.3 1348.2 675.4C1346.2 675.4 1344.2 675.5 1342.2 675.5C1338.9 668.6 1337.6 661 1334.9 653.9C1334 651.5 1335.4 651 1337.1 650.5C1341.2 649.2 1345.3 647.8 1349.4 646.5C1371.6 639.7 1386.9 619.7 1387.3 596.8Z" fill="#FEFEFE"/>
<path d="M1184.4 634.8C1185.7 634.5 1187.1 634.2 1188.4 633.9C1195.8 648.5 1203.2 663.1 1210.6 677.8C1210.5 679.1 1209.5 679.6 1208.5 680C1181 689.7 1153.4 699.2 1125.5 707.8C1117.5 710.3 1110.1 709.1 1103.6 703.5C1101.6 701.8 1099.6 699.9 1100 696.8C1101.4 694.6 1103.8 694.3 1105.9 693.5C1113.7 690.8 1121.7 688.5 1130 684.8C1127.9 684.2 1126.6 685 1125.4 685.3C1118.1 687.5 1111.1 690.5 1103.8 692.8C1102 693.4 1100.1 694.4 1098.1 693.4C1096.1 690.8 1094.9 687.9 1095.9 684.6C1097.3 682.7 1099.5 682.3 1101.5 681.6C1107.9 679.4 1114.4 677.4 1120.8 675.1C1122.4 674.5 1124.4 674.4 1125.7 672.5C1115.6 674.9 1106.5 679.5 1096.5 681.4C1093.7 681.1 1093.6 679.2 1094 677C1094.8 672.8 1096.7 669 1100.2 666.6C1106.2 662.5 1112.4 658.7 1119.1 655.9C1121.8 656.1 1124.4 655.5 1126.8 654.5C1134.9 651.2 1143.4 649 1151.3 645.3C1144.6 646.7 1138.3 649.2 1131.8 651.1C1130 651.7 1127.9 653.4 1126.1 650.8C1132.3 641.4 1141.2 635.6 1152.1 634.4C1162.8 633.4 1173.7 633.6 1184.4 634.8Z" fill="#FD9993"/>
<path d="M1198.6 454.4C1185 437 1171.2 419.6 1157.7 402.1C1149.1 391 1154.4 376.1 1167.8 373.2C1174.6 371.7 1180.6 373.9 1184.8 379.2C1202 401.2 1219 423.4 1236 445.6C1225.7 445.5 1216.1 448.6 1206.6 452.3C1204.1 453.3 1201.6 454.8 1198.6 454.4Z" fill="#FEFEFE"/>
<path d="M1208.2 678.8C1209 678.4 1209.8 678.1 1210.5 677.7C1211.8 680.2 1213.5 682.5 1214.4 685.1C1216 689.7 1218.5 689.9 1222.7 688.4C1234.7 684.1 1246.9 680.4 1258.9 676.2C1261.8 675.2 1262.7 675.7 1262.8 678.7C1263 685 1263.4 691.3 1263.6 697.5C1237.2 704.8 1210.8 712 1184.3 719.3C1183.5 719.5 1182.7 719.5 1181.8 719.6C1181.8 716.8 1184.1 716.1 1186 715.3C1192.9 712.1 1199.4 708 1206.2 704.6C1213.6 700.9 1214.9 696.2 1211.4 688.6C1210.2 685.5 1206.4 683 1208.2 678.8Z" fill="black"/>
<path d="M1169.5 463.7C1165.4 445.9 1161.2 428.1 1157.1 410.4C1156.7 408.8 1156.4 407.2 1156.9 405.2C1170 421.8 1183.2 438.3 1196.3 454.9C1195.7 456.9 1193.8 457 1192.3 457.5C1186.2 459.7 1180.1 461.8 1174 464C1172.5 464.4 1171 465.3 1169.5 463.7Z" fill="#FEFEFE"/>
<path d="M1342.4 677.7C1348.5 677.6 1354.7 677.7 1360.8 677.5C1363.8 677.4 1364.4 678.5 1364.4 681.2C1364.3 702.9 1364.3 724.6 1364.3 746.4C1359.3 734.8 1356.6 722.5 1352.6 710.5C1348.9 699.6 1345.7 688.6 1342.4 677.7Z" fill="#FEFEFE"/>
<path d="M1307.3 490.7C1307.5 490.7 1307.6 490.7 1307.8 490.6C1321 490.1 1321 490.1 1320.2 503.5C1315.5 499.7 1311.2 495.4 1307.3 490.7Z" fill="#FDFDFE"/>
<path d="M1275.4 915.2C1277.1 913.4 1275.6 911.1 1276.4 909.2C1277.7 912.5 1277.1 916 1277.3 920.7C1276 918.3 1275.3 916.9 1275.4 915.2Z" fill="#83614C"/>
<path d="M833.801 283.5C833.601 283.7 833.401 284 833.101 284.2C825.001 291.2 825.001 291.2 833.201 298.7C837.901 303 842.401 307.4 846.901 311.7C847.901 314 848.101 316.5 848.101 319C848.101 342 848.101 365 848.101 387.9C848.101 390.2 848.401 392.6 846.701 394.6C820.501 403.6 794.201 412.6 768.001 421.5C764.701 422.6 761.201 422.9 757.701 422.7C754.701 415.9 755.101 408.8 755.601 401.7C755.801 399.3 757.801 398.6 759.901 398.3C763.901 397.8 767.701 396.7 771.601 395.7C789.201 390.8 797.201 379.3 795.901 359.7C795.601 355.6 795.201 351.4 795.201 347.3C795.101 345.7 794.801 344.1 794.401 342.5C793.501 336.3 791.801 330.2 792.101 323.9C798.801 316.2 798.901 315.4 792.301 307.1C790.501 304.9 791.001 302.8 791.801 300.6C792.901 297.4 792.001 296.4 788.601 296.8C769.101 299.3 749.701 301.7 730.201 304.7C719.101 306.4 712.101 313.2 708.801 323.9C708.201 325.8 707.901 327.8 705.701 328.8C695.801 329.9 685.801 329.3 675.901 329.2C671.901 329.2 671.301 326.1 671.301 322.9C671.301 312.3 671.301 301.7 671.301 291.1C671.301 284.5 671.201 284.5 664.601 284.4C660.501 284.3 656.301 285 652.201 283.8C649.701 282 650.601 279.4 650.901 277C651.301 273.9 651.401 270.8 652.301 267.8C653.001 265.1 654.601 262.7 654.001 259.7C654.501 255.5 655.9 251.6 657.6 247.8C661.301 239.7 660.801 232.1 656.1 224.7C655.4 223.6 654.301 223.5 653.201 223.6C650.501 223 648.101 221.7 646.301 219.6C645.301 217.9 643.701 217.7 641.901 217.9C631.101 215.6 623.2 219.5 617.5 228.9C604.8 250 592.601 271.4 580.201 292.6C578.701 295.2 577.201 297.8 575.701 300.4C574.701 302 574.1 304.2 571.6 304.3C570.8 304.1 570.001 303.9 569.201 303.6C559.001 299.6 559 299.6 553.5 308.9C531.7 345.9 509.8 382.9 488 419.9C484 426.7 481.2 433.9 480.6 441.9C478.4 441.4 478.6 439.5 478.4 437.9C478.2 436.1 478.3 434.2 478.3 432.4C478.3 347.3 478.3 262.3 478.3 177.2C478.3 166.5 478.3 166.5 489.2 166.5C605.101 166.5 720.901 166.5 836.801 166.5C838.501 166.5 840.101 166.4 841.801 166.5C846.401 166.7 847.901 168 847.901 172.6C847.901 191.7 848.301 210.9 847.701 230C847.301 232.3 845.401 233 843.501 233.8C833.601 237.6 825.201 243.9 817.601 251.1C811.301 257.1 811.101 264.2 816.901 271C820.301 275.1 824.201 278.7 829.501 280.5C831.301 281 833.301 281.3 833.801 283.5Z" fill="#FEFEFE"/>
<path d="M451.6 476.7C451.6 472.7 451.5 468.7 451.5 464.7C451.5 358.7 451.5 252.7 451.4 146.6C451.4 142.2 452.4 140.8 457.1 140.8C594.6 140.9 732.1 140.9 869.6 140.8C874 140.8 875.5 141.7 875.5 146.4C875.3 180.5 875.4 214.6 875.5 248.8C872.2 250.1 870.2 253.1 867.3 254.9C865.1 254.5 864.8 252.5 864.1 250.8C861.2 244.2 857.8 238 851.2 234.4C849.5 233.5 848.5 232 848.3 230C848 210.8 848.2 191.7 848.2 172.6C848.2 166.4 848.2 166.4 842.1 166.4C723.1 166.4 604 166.4 485 166.4C479.1 166.4 478.9 166.5 478.9 172.6C478.9 261 478.7 349.4 479 437.8C479.1 456.3 479 474.7 479.2 493.2C479.2 495.4 480.2 498.3 477 499.6C468.5 491.9 460.1 484.3 451.6 476.7Z" fill="#FEFEFE"/>
<path d="M718.6 426.7C697 427.8 675.4 427.4 653.8 427.7C624.5 428.1 595.3 428.3 566 428.5C565.2 428.5 564.4 428.5 562.5 428.5C577.2 401.8 591.5 375.7 605.8 349.6C619.3 348.9 632.7 349.4 646.2 349.4C650.2 349.4 651.1 352.1 651.2 355.5C651.3 364.5 651.2 373.5 651.2 382.5C651.2 395.3 651.2 395.3 664.2 395.2C665 395.2 665.9 395.1 666.7 395.2C670.2 395.6 671.3 394 671.3 390.6C671.2 379.4 671.2 368.3 671.3 357.1C671.3 350.1 672.1 349.3 679 349.3C686.2 349.3 693.3 349.3 700.5 349.3C702.6 349.3 704.9 349 706.7 350.5C708.3 353.1 706.5 354.8 705.1 356.7C697.8 366.1 699.6 373 710.9 377.3C715.3 379 716.9 381.6 717.1 386.2C717.6 398 718.7 409.7 719.3 421.4C719.5 423.4 720.1 425.2 718.6 426.7Z" fill="#FEFEFE"/>
<path d="M718.601 426.7C717.601 412.5 716.601 398.2 715.701 384C715.501 381.5 714.801 380 712.201 379.5C710.601 379.2 709.001 378.5 707.501 377.8C698.101 373.2 696.501 363.7 703.801 356.2C705.001 354.9 706.901 354.1 707.001 352C707.401 351.7 707.801 351.7 708.201 351.8C709.801 352.1 711.101 351.3 712.301 350.4C727.101 339.9 741.601 329.2 753.301 315.1C755.401 312.6 757.801 311.2 761.101 312.3C771.101 315.4 780.801 319.3 790.701 322.6C791.501 322.9 792.201 323.3 792.501 324.2C794.001 330.4 794.701 336.7 795.301 343C794.501 344.2 792.001 344.2 792.401 346C792.801 348.1 795.101 346.3 796.201 347.2C796.001 355.1 798.001 362.9 796.801 371C794.801 384.4 786.801 392.3 774.601 396.5C769.801 398.2 764.801 399.6 759.601 399.9C757.001 400 756.101 401.1 756.301 403.6C756.801 410 757.101 416.5 757.501 423C744.701 424.6 731.801 427.1 718.601 426.7Z" fill="#FD9993"/>
<path d="M646.6 218.9C649 220.3 651.4 221.6 653.8 223C654.4 226.1 652.4 228.3 651 230.7C646.9 237.7 642.8 244.7 639.4 252C646 242.8 651.1 232.8 657 223.2C658 225.2 658.8 227.3 659.9 229.2C662.1 233 662.4 237 661.1 241.1C659.1 247.4 656.9 253.6 654.8 259.8C648.7 269.5 643.1 279.4 638 289.7C640 288.6 640.9 286.5 641.9 284.7C644.6 279.6 648 274.8 650.6 269.6C651.2 268.5 651.5 266.6 653.6 267.1C653 272.3 652.4 277.4 651.7 282.6C652.1 284.9 651.5 286.9 650.5 288.9C647.5 295.3 643.4 300.6 637.8 305C630.8 310.5 624.4 316.6 617.9 322.6C602.5 316.4 587.1 310.3 571.7 304.1C579.6 292.2 586.2 279.5 593.5 267.3C601.7 253.6 609.6 239.8 617.9 226.2C623.8 216.7 632 213.9 642.8 217C643.4 220.1 641.4 222.3 640 224.7C636 231.4 632.1 238.1 628.3 244.9C628.1 245.2 628.1 245.5 628.2 246.1C629.7 245.8 630.1 244.5 630.7 243.5C634.6 237.2 638.2 230.6 642 224.2C643.1 222.2 643.6 219.4 646.6 218.9Z" fill="#FD9993"/>
<path d="M608.601 344.8C611.001 340.1 613.501 335.4 615.901 330.8C617.901 329.3 620.201 329.4 622.601 329.4C630.201 329.4 637.901 329.4 645.501 329.4C651.001 329.4 651.201 329.2 651.201 323.9C651.201 313.1 651.201 302.3 651.201 291.5C651.201 284.5 651.801 284 658.901 283.9C661.201 283.9 663.601 283.9 665.901 283.9C671.301 284 671.6 284.2 671.6 289.5C671.7 300.8 671.6 312.1 671.6 323.4C671.6 329.2 671.701 329.3 677.401 329.3C685.001 329.3 692.701 329.3 700.301 329.3C702.401 329.3 704.6 329.1 706.6 330.4C708.7 333 708.1 336 708.1 338.9C707.8 350.9 708.501 349.7 696.701 349.7C689.901 349.7 683.101 349.8 676.301 349.7C672.901 349.6 671.6 350.8 671.6 354.3C671.7 365.8 671.7 377.2 671.6 388.7C671.6 394.3 670.901 395 665.301 395.2C662.801 395.3 660.301 395.3 657.801 395.2C652.401 395.1 651.201 393.9 651.101 388.3C651.001 377.8 651.101 367.4 651.101 356.9C651.101 349.8 651.101 349.8 644.001 349.8C633.501 349.8 623.101 349.8 612.601 349.8C609.101 349.8 607.101 348.8 608.601 344.8Z" fill="#FEFEFE"/>
<path d="M477 499.6C478.1 497.7 477.5 495.7 477.5 493.7C477.5 386.3 477.5 279 477.5 171.6C477.5 165.1 477.5 165.1 483.9 165.1C603.6 165.1 723.3 165.1 843 165C848 165 849.5 166.2 849.4 171.3C849.1 191.6 849.2 211.9 849.2 232.2C848.2 233.5 847.4 233.3 846.7 232C846.7 212.4 846.6 192.7 846.8 173.1C846.8 169.2 846.1 167.7 841.7 167.7C722.6 167.8 603.6 167.8 484.5 167.7C480.9 167.7 479.7 168.5 479.7 172.4C479.8 260.6 479.8 348.9 479.8 437.1C479.8 438.7 479.5 440.5 480.6 441.9C480.6 445.9 480.6 449.8 480.6 453.8C479.6 458 481.4 462 481.3 466.1C481 478 482.4 489.9 480.3 501.8C480.2 502.5 480.4 503.1 480.7 503.7C481.1 507.2 480.9 510.6 479.8 513.9C476.3 514.6 476.8 511.9 476.5 510C476.3 508.2 476.4 506.4 477.8 505C479.9 502.7 478.4 501.2 477 499.6Z" fill="#648AB4"/>
<path d="M846.801 231.9C847.601 232.4 848.401 232.5 849.301 232.1C857.801 235.5 862 242.6 865.3 250.4C865.9 251.9 866.6 253.4 867.3 254.9C867.2 259.3 867.9 263.8 864.4 267.6C862.4 269.8 860.9 270.7 858.9 267.5C855.5 262.4 851.8 257.5 848.1 252.6C847.2 251.3 846.101 249.4 844.201 251C842.601 252.4 844.2 253.7 845 254.8C848.4 259.5 851.601 264.4 855.301 268.8C857.901 271.9 857.4 273.7 853.9 275.3C853 275.7 852.2 276.3 851.4 277C849.6 278.5 848.601 278.3 847.201 276.2C843.901 271.2 840.301 266.5 836.701 261.7C835.701 260.4 835.001 257.7 832.701 259.2C830.301 260.8 832.7 262.4 833.6 263.7C836.8 268.3 840.2 272.8 843.5 277.4C846.1 281 845.6 282.3 841 283C838.6 283.3 836.1 283.3 833.6 283.4C827.4 280.9 821.6 278.1 817 272.9C809.501 264.4 809.301 255.9 817.901 248.7C826.701 241.7 834.901 233.7 846.801 231.9Z" fill="#FD9993"/>
<path d="M875.5 384.6C866.9 387.6 858.3 390.6 849.6 393.5C847.8 391.8 848.1 389.5 848.1 387.4C848.1 365.3 848.1 343.1 848.1 321C848.1 318.7 847.3 315.9 850.4 314.6C858.8 322.6 867.2 330.5 875.7 338.5C876.9 340.2 877 342.2 877 344.2C877 355.8 877 367.4 877 379C877 381 877 383.1 875.5 384.6Z" fill="#FDFEFE"/>
<path d="M878.4 340.7C889.5 351.1 900.6 361.4 912.4 372.3C900.2 376.2 889.2 380.7 877.6 383.8C876.4 382.6 876.6 381 876.6 379.6C876.6 368.2 876.5 356.7 876.6 345.3C876.6 343.6 875.9 341.4 878.4 340.7Z" fill="#FEFEFE"/>
<path d="M617.8 322.7C621.9 315.2 629.3 311 635.4 305.6C641.099 300.7 646.099 295.4 649.599 288.8C651.099 290.2 651.099 292 651.099 293.9C651.099 303.5 651.199 313.1 651.099 322.7C650.999 328 649.899 329.2 644.7 329.3C637.4 329.4 630.1 329.3 622.8 329.3C621 329.3 619.1 329.3 617.7 327.8C617.5 326.1 621 324.4 617.8 322.7Z" fill="#FEFEFE"/>
<path d="M617.8 327.8C627.3 327.8 636.8 327.8 646.3 328C649.2 328.1 650 327 649.9 324.2C649.7 312.4 649.7 300.6 649.7 288.7C650.4 286.7 650.4 284.4 651.8 282.6C657.5 282.6 663.1 282.8 668.8 282.6C672.1 282.5 673.1 283.6 673 286.9C672.8 298.9 673.1 310.9 672.9 322.8C672.8 326.5 673.6 328.1 677.8 327.9C687.4 327.5 697.1 327.7 706.8 327.7C707.7 328.7 707.7 329.7 706.8 330.6C696.5 330.5 686.2 330.3 675.9 330.4C672 330.5 670.7 329.4 670.8 325.3C671.1 313.2 670.8 301 671 288.9C671 285.7 670.1 284.3 666.8 284.7C662.2 285.2 656.2 282.7 653.4 285.8C651.2 288.2 652.6 294 652.6 298.3C652.5 307.5 652.4 316.6 652.7 325.8C652.8 329.3 651.5 330.4 648.1 330.3C637.5 330.2 626.8 330.4 616.2 330.5C616.5 329.8 617.2 328.8 617.8 327.8Z" fill="#6088B2"/>
<path d="M608.6 344.8C608.2 348 609.7 348.9 612.8 348.9C623.9 348.7 635.1 349.1 646.2 348.7C650.9 348.6 652.6 349.7 652.4 354.7C652 366.3 652.4 378 652.2 389.6C652.1 393.1 653.2 394.4 656.7 394.1C661.1 393.7 666.8 395.9 669.7 393.2C672.4 390.6 670.5 385 670.5 380.7C670.6 371.4 670.7 362.1 670.5 352.8C670.4 349.7 671.3 348.8 674.4 348.8C683.4 349 692.4 348.6 701.3 349C705.8 349.2 707.3 347.8 706.5 343.5C706.2 342.1 706.6 340.5 706.7 339.1C709.7 342.2 709.9 347.3 707.4 352.2C707.2 352.2 707 352.1 706.8 352.1C703.9 350.1 700.7 351.3 697.6 351.2C690.8 351 684 351.4 677.2 351C673.3 350.8 672.5 352.2 672.6 355.8C672.8 367.9 672.6 380.1 672.8 392.2C672.9 395.7 671.8 396.9 668.3 396.7C663.8 396.4 659.3 396.4 654.8 396.7C650.4 397 649.5 395.1 649.6 391.2C649.8 379.9 649.7 368.6 649.7 357.3C649.7 350.3 650.5 351.1 643.2 351C632.6 351 621.9 351 611.3 351C609.3 351 607.3 351.3 605.7 349.7C606.2 347.8 607.4 346.3 608.6 344.8Z" fill="#5C85B0"/>
<path d="M480.7 503.6C479.7 502.7 479.8 501.5 479.8 500.4C479.8 485.9 479.8 471.5 479.8 457C479.8 455.9 479.7 454.6 480.7 453.7C482 464.8 486.1 474.6 493.7 482.9C487.2 488.4 481.7 494.6 480.7 503.6Z" fill="#FDFDFD"/>
<path d="M850.5 314.7C849.6 315.1 849.4 315.9 849.4 316.8C849.5 342.4 849.6 368 849.6 393.6C848.6 394 847.601 394.3 846.601 394.7C846.701 369.9 846.701 345.1 846.801 320.3C846.801 317.5 846.801 314.6 846.901 311.8C848.101 312.7 849.3 313.7 850.5 314.7Z" fill="#5781AE"/>
<path d="M875.501 469.8C875.501 472.7 875.401 475.6 875.401 478.5C869.101 478.3 862.7 479.8 856.4 477.7C862.9 475.3 868.801 471.6 875.501 469.8Z" fill="#F9F9FA"/>
<path d="M878.399 340.7C876.8 342 877.6 343.8 877.6 345.4C877.5 358.2 877.6 371 877.6 383.8C877.1 384.5 876.3 384.7 875.5 384.6C875.6 369.2 875.7 353.9 875.7 338.5C876.8 339 877.9 339.5 878.399 340.7Z" fill="#5781AD"/>
<path d="M357.9 1095.3C347.6 1067.1 337.3 1038.9 327.9 1010.3C326.9 1006.3 326.5 1002.2 326.5 998C326.5 939.3 326.5 880.6 326.5 821.9C326.5 817.9 326.6 813.9 328.5 810.2C332.3 802.7 338 798 346.9 798C389.3 798 431.7 798 474.2 798C476.2 798 478.2 797.9 479.9 799.3C480 811.1 480.4 822.9 480.1 834.7C479.4 855.4 494.1 868.1 510.7 867.9C541.2 867.8 571.7 867.9 602.1 867.9C607.9 867.9 608.7 868.7 607.6 874.7C604 894.3 600 913.9 596.1 933.5C585.8 984.9 575.5 1036.4 565.2 1087.8C564.6 1090.8 564.7 1094.3 561.3 1096.1C559.2 1096.9 557 1096.7 554.9 1096.7C491.7 1096.7 428.4 1096.7 365.2 1096.7C362.6 1096.6 360 1097.1 357.9 1095.3Z" fill="#FEFEFE"/>
<path d="M325.2 1004.2C295.6 920.9 266.1 837.6 236.4 754.4C235.3 751.4 235.2 749.9 238.3 748.2C242.5 746 244.9 741.7 247.4 737.8C305.4 645.6 363.5 553.4 421.4 461.2C423.4 458 424.5 457.1 427.6 460.1C434.5 466.8 441.8 473.2 448.9 479.7C450.3 481.9 450.3 484.4 450.3 486.9C450.3 502.6 450.4 518.4 450.2 534.1C450.2 538 451.3 539.4 455.3 539.3C461.4 539.1 467.6 539.2 473.7 539.3C475.8 539.3 478.1 539.1 479.8 540.7C479.9 542.4 480.1 544 480.1 545.7C480.1 627.8 480.1 709.9 480.1 791.9C480.1 793.7 479.9 795.5 479.7 797.4C477.7 799.2 475.3 798.5 473 798.5C431.2 798.5 389.5 798.8 347.7 798.3C336.1 798.2 326.7 808.2 326.8 819.4C327 878.8 326.9 938.2 326.8 997.6C326.9 999.8 328.1 1002.6 325.2 1004.2Z" fill="#FEFEFE"/>
<path d="M561.8 1095.5C565.1 1079.4 568.5 1063.3 571.8 1047.2C582.4 994.4 592.9 941.6 603.4 888.8C604.5 883.4 605.4 878 606.7 872.7C607.6 868.8 606.3 867.9 602.5 867.9C571.9 868 541.2 867.9 510.6 867.9C543.4 867.9 576.2 867.9 609 867.9C635.6 867.9 662.3 867.9 688.901 867.9C690.901 867.9 692.901 868.1 694.901 868.2C696.601 871.8 694.401 875.2 694.201 878.8C691.201 895.8 687.801 912.8 684.6 929.8C675.9 975.4 667.4 1021 658.1 1066.5C656.2 1076 654.2 1085.4 652.1 1094.8C651.8 1096.1 651.2 1097.4 651.1 1098.8C647.1 1119.4 642.2 1139.8 637.6 1160.2C637.3 1161.8 637.1 1163.6 635.4 1164.4C606.3 1164.6 577.3 1164.7 548.2 1164.9C547.2 1163.6 547.4 1162.1 547.7 1160.6C551.6 1139.8 555.6 1119 560.1 1098.3C560.5 1097.3 560.8 1096.2 561.8 1095.5Z" fill="#E98F27"/>
<path d="M716.701 500.7C784.001 500.7 851.2 500.7 918.5 500.6C923.1 500.6 924.701 501.6 924.701 506.6C924.601 614.3 924.601 722 924.701 829.7C924.701 834.2 923.6 835.6 918.9 835.6C783.701 835.5 648.501 835.5 513.301 835.6C508.401 835.6 507.701 833.9 507.701 829.6C507.801 722.1 507.801 614.5 507.701 507C507.701 502.1 508.601 500.5 513.901 500.5C581.501 500.8 649.101 500.7 716.701 500.7Z" fill="#FEFEFE"/>
<path d="M726.5 868.2C724.8 917.3 723.2 966.5 721.5 1015.6C721.4 1017.7 721 1019.9 720.8 1022C719.2 1023.6 717.2 1023.5 715.2 1023.5C710.7 1023.5 706.2 1023.6 701.7 1023.5C695.2 1023.4 694.4 1022.6 694.3 1015.9C694.3 1014.9 694.3 1013.9 694.3 1012.9C694.3 969.1 694.3 925.4 694.3 881.6C694.3 877.1 694.5 872.6 695.7 868.3C706 867.5 716.2 867.8 726.5 868.2Z" fill="#FEFEFE"/>
<path d="M477.7 504.8C478.5 507.8 475.2 511.6 479.7 513.7C480.2 521.9 480.4 530.2 479.6 538.4C478.6 539.5 477.3 539.5 475.9 539.5C469.1 539.5 462.3 539.4 455.4 539.5C451.7 539.6 450.3 537.8 450.3 534.4C450.2 518.4 450.2 502.5 450.3 486.5C450.3 485 450.6 483.5 451.8 482.4C458.9 488.7 465.9 494.9 473 501.2C474.5 502.6 475.7 504.2 477.7 504.8Z" fill="#FEFEFE"/>
<path d="M695.7 868.4C695.8 893.7 695.8 919 695.9 944.3C695.9 968.6 696 992.9 695.8 1017.2C695.8 1021.2 697 1022.3 700.9 1022.1C707.5 1021.8 714.2 1022 720.9 1022C720.9 1022.7 720.9 1023.4 720.8 1024.1C716.5 1026.9 711.7 1025.5 707.2 1025.6C697 1025.8 697.4 1024.9 697.4 1035.3C697.4 1061.4 697.4 1087.4 697.4 1113.5C697.4 1121.1 697.7 1121.2 705.2 1121.4C708.8 1121.5 712.5 1120.5 715.9 1122.7C716.5 1123.5 716.1 1124.2 715.8 1124.9C712.1 1127.7 707.8 1126.3 703.7 1126.5C697.9 1126.8 697.4 1127 697.4 1132.8C697.3 1148.3 697.4 1163.8 697.4 1179.2C697.4 1182.7 697.2 1186.2 695.5 1189.4C694.5 1191.2 693.2 1193.2 690.9 1192.3C688.4 1191.3 689.9 1189.1 690.5 1187.6C691.9 1183.6 692.3 1179.5 692.3 1175.3C692.3 1152.3 692.3 1129.4 692.3 1106.4C692.3 1099.9 692 1099.6 685.6 1099.5C676.1 1099.5 666.6 1099.5 657.1 1099.5C654.7 1099.5 652 1100 650.2 1097.6C650.5 1096.8 650.7 1096 651 1095.2C652.9 1093.1 655.5 1093.4 658 1093.4C667.1 1093.3 676.3 1093.4 685.4 1093.4C691.8 1093.4 692.2 1093 692.2 1086.6C692.3 1065.7 692.2 1044.7 692.2 1023.8C692.2 981.6 692.3 939.4 692.1 897.1C692.1 890.8 693.5 884.6 693 878.3C693.6 874.9 694.3 871.5 694.9 868.1C695.1 868.2 695.4 868.2 695.7 868.4Z" fill="#5882AF"/>
<path d="M325.2 1004.2C326.3 1002.4 325.9 1000.3 325.9 998.3C325.9 938.9 325.9 879.5 325.9 820.2C325.9 805.1 333.9 797.1 349 797.2C392.6 797.2 436.2 797.3 479.8 797.3C479.8 798 479.9 798.7 479.9 799.4C436.6 799.4 393.4 799.4 350.1 799.4C335 799.4 328.1 806.3 328.1 821.3C328.1 882.7 328.1 944.1 328.1 1005.4C328.1 1007.1 328 1008.7 327.9 1010.4C327 1008.3 326.1 1006.2 325.2 1004.2Z" fill="#5983AF"/>
<path d="M451.8 482.5C451.7 499.9 451.7 517.3 451.5 534.7C451.5 537.6 452.5 538.4 455.3 538.4C463.4 538.3 471.5 538.5 479.6 538.5C479.7 539.2 479.7 539.9 479.8 540.7C471.2 540.7 462.6 540.5 454 540.8C449.7 541 448.8 539.4 448.8 535.4C449 516.9 448.9 498.3 448.9 479.8C450.1 480.4 451.2 481.2 451.8 482.5Z" fill="#7194BA"/>
<path d="M1142.4 1078.3C1140.6 1078.4 1138.7 1078.5 1136.9 1078.5C1081.5 1078.5 1026 1078.5 970.6 1078.6C965.8 1078.6 964.2 1077.8 964.2 1072.5C964.4 958.3 964.4 844.2 964.2 730C964.2 725.4 965.5 724.3 970 724.3C1004.1 724.5 1038.2 724.4 1072.4 724.4C1074.4 724.4 1076.4 724.3 1078.4 724.2C1087.4 727.5 1096.8 728.2 1106.3 727.3C1110.1 729.6 1110.9 734 1113.2 737.3C1114.3 738.9 1115 740.9 1116.2 742.5C1119.6 747.1 1123.4 748.1 1128.8 745.8C1130.7 745 1132.4 743.3 1134.8 744.2C1129.8 774.7 1124.8 805.2 1119.8 835.7C1113.6 873.7 1107.3 911.7 1101.1 949.8C1099.5 959.5 1101.4 968.6 1104.8 977.6C1117.1 1010.4 1129.4 1043.1 1141.7 1075.9C1142 1076.7 1142.2 1077.5 1142.4 1078.3Z" fill="#FEFEFE"/>
<path d="M1134.8 744.3C1120.9 752.2 1116.7 748.3 1111.3 736.5C1109.9 733.4 1108 730.4 1106.3 727.4C1089.7 696.1 1073.1 664.9 1056.5 633.6C1054.4 629.6 1052.2 625.7 1050.2 621.7C1047 615.2 1048.6 610.1 1055 606.6C1071.8 597.5 1088.7 588.6 1105.6 579.6C1107 578.8 1108.8 578.5 1109.5 576.7C1111.3 575 1113.9 574.3 1115 571.8C1116.5 571 1118.4 572.1 1119.7 570.7C1126.8 567.2 1133.7 563.3 1141.1 560.5C1143.7 560.4 1144.3 563.7 1146.7 563.8C1153.9 577.6 1161.1 591.4 1168.3 605.1C1173.6 615.1 1179 624.9 1184.3 634.9C1176.4 636.4 1168.5 635.6 1160.6 635.3C1146.1 634.8 1135.2 641.2 1126.2 651.8C1124.9 654.9 1121 654.6 1119.1 656.9C1113.5 660.1 1108 663.4 1102.4 666.7C1098 669.3 1095.6 673.2 1094.8 678.3C1094.6 679.6 1094.6 680.6 1096 681.2C1096 682.5 1094.9 683.8 1096.2 685C1096.1 688.1 1097.8 690.6 1098.5 693.5C1098.5 695 1099.8 695.7 1100.3 697C1104.5 706 1114.2 710.2 1124.6 706.8C1152.5 697.7 1180.3 688.3 1208.1 679C1208.6 683.1 1211.6 686.1 1213.2 689.7C1216.3 696.6 1214.6 701.8 1207.8 705.4C1199.1 710.1 1190 714.1 1181.8 719.8C1165.8 726.9 1150.4 735.8 1134.8 744.3Z" fill="#202B6D"/>
<path d="M1318.1 1081C1323.5 1102 1328.8 1123 1334.2 1144C1333.4 1145.4 1332 1146 1330.7 1146.7C1319.7 1153.1 1311.6 1161.9 1307.9 1174.4C1307.4 1176.2 1306.6 1177.8 1305.4 1179.2C1294.8 1185.6 1284.2 1192 1273.7 1198.5C1271.1 1200.1 1270.8 1198.9 1270.2 1196.7C1267.2 1184.8 1264.1 1173 1261.1 1161.2C1255.7 1146.6 1250.3 1131.9 1244.9 1117.3C1244.6 1116.5 1244.4 1115.7 1244.2 1114.9C1245.6 1111.9 1248.4 1112.8 1250.7 1112.8C1263.1 1112.5 1261.8 1114.5 1261.9 1101.6C1261.9 1096.5 1261.8 1091.3 1261.9 1086.2C1262 1081 1263.2 1079.8 1268.5 1079.8C1283.3 1079.7 1298.1 1079.8 1312.8 1079.8C1314.8 1079.7 1316.6 1079.7 1318.1 1081Z" fill="#FEFEFE"/>
<path d="M1155.1 1112.1C1134.5 1112.1 1113.9 1112.1 1093.3 1112.3C1089.9 1112.3 1089.1 1111.2 1089.2 1108C1089.4 1100.4 1089.4 1092.7 1089.2 1085.1C1089.1 1081.7 1090.4 1081 1093.5 1081C1110.1 1081.1 1126.7 1081 1143.3 1081C1147.3 1091.3 1151.2 1101.7 1155.1 1112.1Z" fill="#FEFEFE"/>
<path d="M1243.3 1112.2C1238.9 1102 1235.1 1091.6 1231.5 1081.1C1232.7 1079.7 1234.4 1079.6 1236.1 1079.6C1242.9 1079.6 1249.7 1079.5 1256.5 1079.6C1261.4 1079.7 1262.3 1080.6 1262.3 1085.5C1262.4 1093 1262.2 1100.4 1262.4 1107.9C1262.5 1111.8 1260.9 1113.4 1257.1 1113C1252.5 1112.7 1247.8 1114.1 1243.3 1112.2Z" fill="#FEFEFE"/>
<path d="M1162.8 1132.3C1160.4 1133.9 1157.6 1133 1155.1 1133C1146.6 1133.1 1138.2 1132.9 1129.7 1133.1C1126.4 1133.2 1124.7 1132.5 1125.1 1128.8C1125.6 1124.2 1123.2 1118.3 1126 1115.3C1128.8 1112.3 1134.8 1114.5 1139.4 1114.3C1144.9 1114.1 1150.3 1114.1 1155.8 1114C1158.2 1120.2 1160.5 1126.3 1162.8 1132.3Z" fill="#FEFEFE"/>
<path d="M1243.3 1112.2C1248.1 1112.2 1252.9 1112 1257.7 1112.2C1260.2 1112.3 1261.2 1111.5 1261.2 1108.8C1261.1 1100.7 1261 1092.6 1261.2 1084.5C1261.3 1081.4 1259.9 1081 1257.3 1081C1248.7 1081.1 1240.1 1081.1 1231.5 1081.1C1231.2 1080.2 1230.8 1079.3 1230.5 1078.4C1259.4 1078.4 1288.4 1078.3 1317.3 1078.3C1317.6 1079.2 1317.8 1080.1 1318.1 1081C1301.5 1081 1284.9 1081.2 1268.3 1080.9C1264.3 1080.8 1263.3 1082.1 1263.4 1085.9C1263.7 1093.9 1263.3 1101.8 1263.6 1109.8C1263.7 1113.2 1262.8 1114.5 1259.2 1114.4C1254.3 1114.3 1249.3 1113.7 1244.3 1114.8C1243.3 1114.2 1243.4 1113.2 1243.3 1112.2Z" fill="#678DB5"/>
<path d="M650 1097.8C663 1097.8 676 1098 689 1097.8C692.8 1097.7 693.7 1098.8 693.7 1102.6C693.5 1128.2 693.6 1153.9 693.7 1179.5C693.7 1183.9 692.1 1187.8 690.3 1191.7C693.2 1192.6 693.3 1190.4 694 1189.1C695.7 1185.8 695.9 1182.1 695.9 1178.4C695.9 1162.1 696 1145.8 695.8 1129.5C695.8 1126 696.7 1124.8 700.2 1125C705.3 1125.3 710.5 1125.1 715.7 1125.1C715.9 1136.3 714.2 1147.4 713.7 1158.5C713.6 1160.3 713.7 1162.1 713.7 1163.9C712.5 1176.1 711.4 1188.4 710 1200.6C709.8 1202.8 710.6 1203.8 712.3 1205C721.8 1211.4 726 1220.9 727.3 1231.9C727.5 1233.3 727.6 1234.6 725.6 1234.7C723.5 1234.9 723.7 1233.3 723.6 1232.1C722.2 1219.1 715.3 1210.5 704 1204.1C681.1 1191 658.6 1177.3 635.5 1164.5C640.3 1142.2 645.2 1120 650 1097.8Z" fill="#FEFEFE"/>
<path d="M715.8 1122.9C710.3 1122.9 704.8 1122.8 699.3 1122.9C696.8 1123 695.8 1122 695.8 1119.4C695.9 1088.8 695.9 1058.2 695.8 1027.6C695.8 1025 696.7 1024.1 699.2 1024.2C706.4 1024.3 713.5 1024.2 720.7 1024.2C720.7 1045.2 719.1 1066.2 718.2 1087.2C717.8 1097.1 717.1 1107 716.6 1117C716.5 1119 716.8 1121 715.8 1122.9Z" fill="#FEFEFE"/>
<path d="M1334.9 1146.2C1336.1 1151.2 1337.3 1156.1 1338.5 1161.1C1336.4 1161 1334.7 1162.1 1333 1163.1C1325.1 1167.9 1317.1 1172.6 1309.1 1177.3C1307.3 1177.1 1307.5 1175.9 1307.8 1174.8C1312 1161.7 1320 1151.8 1332.8 1146.3C1333.6 1145.9 1334.3 1146 1334.9 1146.2Z" fill="#FDFDFD"/>
<path d="M1334.9 1146.2C1323.2 1151.4 1314.8 1159.9 1310 1171.9C1309.3 1173.6 1307.7 1175.3 1309.2 1177.3C1308 1178 1306.7 1178.6 1305.5 1179.3C1309 1162.6 1318.6 1150.9 1334.2 1144.1C1334.4 1144.7 1334.7 1145.4 1334.9 1146.2Z" fill="#6289B3"/>
<path d="M561.399 1098C556.999 1120.3 552.599 1142.6 548.199 1164.9C544.599 1175.2 542.799 1185.9 539.799 1196.3C539.499 1197.2 539.099 1198.1 538.799 1199C510.199 1198.9 481.599 1198.9 452.999 1198.8C453.299 1185.9 450.999 1173.6 443.599 1162.8C431.899 1145.8 415.499 1137.7 394.899 1137.5C387.299 1137.4 379.599 1138.3 372.099 1136.9C367.899 1124.9 363.799 1112.9 359.599 1100.9C359.299 1100 359.099 1099 358.799 1098.1C360.499 1096.4 362.799 1096.7 364.899 1096.7C428.299 1096.7 491.699 1096.7 555.199 1096.7C557.399 1096.7 559.699 1096.3 561.399 1098Z" fill="#FEFEFE"/>
<path d="M658.8 1238.1C659.5 1240.4 658.4 1241 656.3 1241C640.7 1241 625.1 1240.9 609.5 1241C607.3 1241 606.4 1240.2 606.8 1238.1C624.1 1238.2 641.4 1238.1 658.8 1238.1Z" fill="#FEFEFE"/>
<path d="M328.101 1137.9C328.101 1127.2 328.1 1116.4 328 1105.7C328 1097.9 328.001 1097.9 335.9 1097.9C341.1 1110.8 345.6 1124 349.9 1137.1C342.7 1137.4 335.4 1137.7 328.101 1137.9Z" fill="#FDFDFD"/>
<path d="M354.699 1098.2C359.199 1110.9 363.699 1123.6 368.299 1136.3C363.699 1139.1 358.799 1137.4 354.1 1137.2C349.9 1125.1 345.8 1113.1 341.6 1101C341.3 1100.1 341.1 1099.1 340.8 1098.1C345.3 1095.7 350 1096 354.699 1098.2Z" fill="#FDFDFD"/>
<path d="M403.701 412.7C417.701 412.7 430.2 425.6 429 438.6C428.7 441.7 427.8 444.5 425.9 446.9C424.9 448.1 425.1 451.7 422.1 449.9C420 448.7 417.8 447.5 419.6 443.7C423.3 435.8 420.3 427.3 413.1 422.9C406.6 419 397.7 420.3 392.6 426C387.2 432 386.8 440.9 392.4 447.4C395.1 450.6 392.9 452.2 391.6 454.2C353.2 515 314.8 575.8 276.4 636.5C261.9 659.5 247.3 682.5 232.8 705.6C231.6 707.5 230.7 708.9 227.8 708.2C217.9 706 208.9 712.3 207.9 721.8C206.8 731.9 213.7 739.8 224.1 740.3C225.9 740.4 227.4 740 228.3 742.5C230.3 748.1 230.1 748.6 224.1 748.3C204.3 747.4 193.9 728 204.3 711.5C264.6 615.7 324.9 519.9 385.2 424C389.6 417.2 395.2 412.7 403.701 412.7Z" fill="#FEFEFE"/>
<path d="M420.799 455C420.399 455.7 419.799 456.7 419.199 457.7C368.6 538.1 318.1 618.4 267.5 698.8C259.5 711.6 251.4 724.4 243.3 737.1C241.6 739.8 240 742.6 237.3 744.3C236.1 745 234.3 747.6 233.4 745.3C232.5 743.1 228.9 740.4 233 737.6C239.1 733.4 241.3 727.5 240 720.3C239.6 718.3 239.1 716.1 237.6 714.9C233.2 711.5 235.3 708.5 237.5 705.1C290.1 621.9 342.7 538.7 395.2 455.5C396.8 453 398.099 451.6 401.299 452.7C405.499 454.2 409.499 452.9 413.299 450.9C415.499 449.7 420.599 452.2 420.799 455Z" fill="#FEFEFE"/>
<path d="M326.1 1070.1C326 1086.1 325.9 1102.1 326 1118C326 1122 324.9 1123 321 1123C306.7 1122.8 292.4 1122.8 278 1123C274.4 1123 273.1 1122.2 273.1 1118.3C273.2 1088.3 273.2 1058.4 273.1 1028.4C273.1 1025.1 274 1024.2 277.3 1024.2C288.1 1024.4 298.9 1024.3 309.8 1024.3C315.6 1039.4 321.2 1054.6 326.1 1070.1Z" fill="#FEFEFE"/>
<path d="M313.8 1022.3C307.4 1006.8 302.3 990.9 296.7 975.2C270.6 901.9 244.6 828.7 218.5 755.4C218.1 754.2 217.7 753 217.1 751.4C221.6 752 225.6 752.9 229.8 751.9C232.4 751.2 232.2 753.9 232.6 755.1C241.1 778.7 249.4 802.3 257.8 825.9C279.9 888.1 302 950.3 324 1012.5C324.8 1014.7 325.4 1016.9 326 1019.1C326.7 1021.3 326.2 1023.2 323.6 1023.4C320.4 1023.7 316.9 1024.4 313.8 1022.3Z" fill="#FEFEFE"/>
<path d="M328.7 1025.3C336.9 1048.3 345 1071.3 353.2 1094.2C350.1 1097.2 344.5 1097.6 339.3 1095C335.5 1084 331.7 1073 327.9 1062.1C325.3 1050.9 326.8 1039.5 326.7 1028.2C326.7 1027 326.9 1025.6 328.7 1025.3Z" fill="#FDFDFD"/>
<path d="M561.4 1098C512.3 1098 463.3 1097.9 414.2 1097.9C395.7 1097.9 377.3 1098 358.8 1098.1C357.9 1097.3 357.8 1096.4 357.8 1095.3C412.5 1095.3 467.1 1095.4 521.8 1095.4C535.1 1095.4 548.4 1095.5 561.7 1095.5C561.7 1096.3 561.6 1097.2 561.4 1098Z" fill="#5881AE"/>
<path d="M325.1 1055.3C321.6 1045.3 318 1035.2 314.5 1025.2C316.6 1023.4 323.5 1022.5 325.5 1023.8C326.4 1024.4 326.8 1025.3 326.8 1026.3C326.9 1035.3 327 1044.2 326.8 1053.2C326.8 1054.2 326.3 1055.1 325.1 1055.3Z" fill="#FDFDFD"/>
<path d="M325.1 1055.3C326.9 1050.2 325.5 1044.8 325.9 1039.6C326.1 1037.3 325.9 1035 325.9 1032.6C325.9 1023.5 323.6 1022 314.5 1025.2C313.4 1024.4 314 1023.3 313.8 1022.3C316.8 1022.2 319.8 1022 322.8 1022.2C325.3 1022.4 326 1021.2 326.1 1019.1C327.5 1021 328 1023.2 328.6 1025.4C327.2 1033.9 328.3 1042.4 328 1050.9C327.9 1054.7 327.9 1058.4 327.8 1062.2C327 1059.9 326 1057.6 325.1 1055.3Z" fill="#5881AE"/>
<path d="M335.099 1095.2C328.099 1095.7 327.899 1095.7 328.099 1088.8C328.199 1084.9 327.099 1081 328.799 1077.2C330.899 1083.2 332.999 1089.2 335.099 1095.2Z" fill="#F3F5F7"/>
<path d="M339.299 1095.1C343.899 1095.1 348.7 1096.6 353.2 1094.3C354.4 1095.3 354.1 1096.9 354.7 1098.2C350 1098.2 345.4 1098.2 340.699 1098.2C339.599 1097.4 339.699 1096.1 339.299 1095.1Z" fill="#5881AC"/>
<path d="M1115.5 571.7C1115.4 575.7 1112.6 576.3 1109.4 576.6C1100 550 1090.7 523.3 1081.3 496.7C1086.7 491.8 1093.6 490.6 1100.3 489C1103.1 488.3 1104.1 491.3 1104.8 493.5C1107.6 502 1110.9 510.3 1113.7 518.9C1116.7 528 1119.7 537.2 1122.9 546.3C1123.9 549.1 1124.1 551.4 1121.1 553.1C1115.3 556.5 1113.5 561.5 1115.7 568C1116.1 569.2 1116.5 570.5 1115.5 571.7Z" fill="black"/>
<path d="M1115.5 571.7C1115.1 570.3 1114.7 568.8 1114.3 567.4C1112.1 560.2 1113.9 555 1120.6 551.6C1122.9 550.4 1122.8 549.5 1122.2 547.5C1115.8 529.1 1109.6 510.6 1103.3 492.1C1102.7 490.2 1102.1 488.9 1099.5 490C1093.5 492.4 1087.4 494.4 1081.4 496.6C1077.7 497.3 1075.2 499.5 1073.3 502.6C1072.3 503.5 1071.3 503.4 1070.3 502.6C1068.5 491.6 1065.6 480.8 1062.5 469.9C1067.7 472.3 1072.2 475 1077.6 475.7C1087.4 476.9 1096.4 474.1 1105.1 470.5C1108.1 469.2 1109.7 469.1 1111 472.5C1112.6 476.5 1114.7 480.3 1116.6 484.2C1113.3 486 1107.9 485.4 1106.7 488.7C1105.7 491.5 1108.4 495.5 1109.5 499C1114.8 514.5 1120.2 530 1125.4 545.5C1126.3 548.1 1126.9 549.5 1130.3 548.6C1136.6 547.1 1141.7 550.1 1144.2 556.2C1145.2 558.6 1145.9 561.2 1146.8 563.7C1143.4 565.7 1143 562.3 1141.5 560.8C1141.2 560.7 1140.9 560.5 1140.7 560.2C1135.1 552.1 1133.5 551.7 1124.1 555.9C1119.7 557.9 1118.2 560.6 1119 565.4C1119.3 567.5 1120.8 569.4 1119.7 571.6C1118.4 573.4 1117 574.2 1115.5 571.7Z" fill="#FEFEFE"/>
<path d="M1070.2 502.7C1071.2 502.7 1072.2 502.7 1073.2 502.7C1077.3 518.2 1081.5 533.8 1085.6 549.3C1085.8 550.1 1086.2 550.9 1086.3 551.7C1086.5 553 1086.9 554.6 1085.2 555C1083.5 555.4 1082.9 553.9 1082.6 552.6C1081.2 547.3 1079.8 542 1078.4 536.7C1075.5 526 1072.5 515.3 1069.5 504.6C1069.7 504.1 1070 503.4 1070.2 502.7Z" fill="#020304"/>
<path d="M1036.6 453.5C1039.6 456.9 1043.2 459.4 1047.5 460.8C1048.2 465.4 1048.7 470 1049.7 474.5C1050.2 476.8 1049.8 477.9 1047.5 478.5C1045.1 479.1 1043.3 478.8 1042.6 476C1040.6 468.5 1038.6 461 1036.6 453.5Z" fill="#FEFCFC"/>
<path d="M1078.7 416.2C1085.9 416.1 1092.1 422.3 1092.1 429.4C1092.1 436.4 1086.2 442.4 1079.2 442.6C1071.9 442.8 1065.8 436.9 1065.6 429.6C1065.4 422.5 1071.5 416.3 1078.7 416.2Z" fill="#FC9993"/>
<path d="M1041.8 434.5C1047.6 430.1 1052.7 429.5 1057.8 432.6C1062.3 435.3 1065 440.8 1064.1 445.8C1063.1 451.7 1059.6 455.3 1053.3 456.6C1050.3 454.5 1048.9 451.6 1048.8 448C1049 447.4 1049.4 446.9 1049.9 446.4C1050.7 445.6 1051.8 444.8 1050.9 443.5C1050.2 442.5 1049.2 442.7 1048.2 442.9C1047.6 443 1046.9 443.2 1046.2 443C1043.7 440.7 1043.2 437.4 1041.8 434.5Z" fill="#FC9993"/>
<path d="M1049.3 447.7C1050 451 1052.1 453.6 1053.4 456.6C1046.9 457.4 1042.3 455.3 1039.6 450.4C1036.7 445.1 1037.4 440 1041.8 434.5C1045 436.4 1044.9 440.1 1046.7 442.8C1047.8 444.3 1048.9 445.8 1049.3 447.7Z" fill="#FDFDFD"/>
<path d="M1017.6 1234.2C992.4 1234.2 971.7 1213.7 971.7 1188.6C971.6 1163.2 992.3 1142.7 1017.9 1142.8C1043.3 1142.9 1063.5 1163.3 1063.5 1188.6C1063.4 1213.9 1043 1234.1 1017.6 1234.2Z" fill="#FEFEFE"/>
<path d="M1029.3 1111C1029.3 1119.8 1029.2 1128.6 1029.4 1137.4C1029.5 1140.5 1028.5 1141.7 1025.4 1140.9C1020.3 1139.7 1015.1 1139.8 1010.1 1140.9C1006.8 1141.6 1006.2 1140.2 1006.2 1137.2C1006.3 1119.7 1006.3 1102.3 1006.2 1084.8C1006.2 1081.7 1007.2 1080.7 1010.2 1080.8C1015.3 1081 1020.5 1081 1025.7 1080.8C1029 1080.6 1029.6 1082 1029.5 1084.9C1029.2 1093.7 1029.3 1102.4 1029.3 1111Z" fill="#FEFEFE"/>
<path d="M388.7 1241.1C381.4 1241.1 374.1 1241.2 366.7 1241.1C365.3 1241.1 362.9 1242.1 362.9 1239.4C362.9 1237.1 365.1 1237.8 366.4 1237.8C381.4 1237.8 396.3 1237.8 411.3 1237.8C412.6 1237.8 414.8 1237.1 414.9 1239.3C415 1242.1 412.5 1241 411.2 1241C403.7 1241.1 396.2 1241.1 388.7 1241.1Z" fill="#F2F3F6"/>
<path d="M1100.4 696.7C1098 696.5 1096.3 695.9 1098.6 693.2C1108.5 689.9 1118.3 686.5 1128.2 683.2C1129.7 682.7 1131.6 681.3 1132.4 683.6C1133.2 685.8 1131 686.1 1129.5 686.7C1119.8 690 1110.1 693.4 1100.4 696.7Z" fill="#050303"/>
<path d="M1119.2 656.8C1119.6 652.3 1124 653.5 1126.3 651.7C1134.1 649.1 1141.9 646.4 1149.8 643.9C1151.2 643.4 1153.3 642.1 1154.2 644.3C1155.3 647 1152.5 647.1 1151 647.6C1142 650.8 1132.9 653.8 1123.8 656.9C1122.3 657.3 1120.8 658.4 1119.2 656.8Z" fill="#050303"/>
<path d="M1096.3 684.7C1095.2 684.8 1094 685.2 1093.6 683.7C1093 681.5 1095.2 681.9 1096.1 681C1105.5 677.8 1114.8 674.6 1124.2 671.4C1125.7 670.9 1127.5 669.5 1128.4 671.9C1129.2 674.2 1126.9 674.4 1125.4 674.9C1115.7 678.2 1106 681.5 1096.3 684.7Z" fill="#050303"/>
<path d="M707.601 352C707.501 347.6 708.201 343.2 706.901 338.9C706.801 336.2 706.701 333.5 706.601 330.7C706.601 329.7 706.601 328.7 706.601 327.8C710.001 311.7 717.901 304.7 734.301 302.7C752.901 300.4 771.5 297.7 790.1 295.3C791.6 295.1 793 295 794.8 294.9C794.4 296.4 794 297.4 793.7 298.5C792.8 302.1 790.7 305 795.3 308.9C801.2 313.9 799.4 320.1 792.6 324.2C782.3 320.8 771.8 317.5 761.6 313.8C758.3 312.6 756.6 313.3 754.4 315.8C741.501 330.4 726.601 342.8 710.201 353.4C708.501 354.3 707.501 354.8 707.601 352Z" fill="black"/>
<path d="M646.6 218.9C641.4 227.8 636.3 236.6 631 245.4C630.2 246.7 629.7 249.7 627.3 248.4C624.6 246.9 627 244.9 627.8 243.4C632.7 234.6 637.7 225.8 642.7 217C645 215.7 646.4 216 646.6 218.9Z" fill="#070404"/>
<path d="M653.6 267.2C649.3 274.6 645 282.1 640.5 289.4C639.7 290.8 639.2 293.6 636.8 292.3C634.3 291 636.3 289.1 637.1 287.7C641.7 279.6 646.3 271.6 651 263.5C651.9 262 652.6 260.1 654.8 259.8C657.7 262.8 653.8 264.7 653.6 267.2Z" fill="#060404"/>
<path d="M657 223.2C657.2 226.5 655 228.8 653.6 231.3C649.7 238.2 645.7 245.1 641.6 251.9C640.8 253.3 640.2 256 637.7 254.5C635.6 253.2 637.5 251.5 638.2 250.2C643.3 241.1 648.5 232 653.6 223C654.8 222.6 656 222.1 657 223.2Z" fill="#060404"/>
<path d="M796.399 347.1C794.999 348.2 793.7 349.5 791.7 348.1C790.4 347.2 790.2 345.9 790.7 344.6C791.5 342 793.599 342.4 795.599 342.8C796.399 344.1 796.999 345.5 796.399 347.1Z" fill="#0E0A09"/>
<path d="M763.3 346.8C762.8 348.5 761.9 349.9 759.9 349.7C758.1 349.5 756.9 348.2 757 346.4C757.1 344.6 758.4 343.4 760.3 343.6C762.3 343.7 763.1 345 763.3 346.8Z" fill="#190F0E"/>
<path d="M692.9 878.4C694.3 879.8 693.6 881.6 693.6 883.1C693.6 952 693.6 1020.9 693.7 1089.9C693.7 1094.2 692.7 1095.6 688.2 1095.5C675.7 1095.2 663.2 1095.4 650.7 1095.4C654.1 1078.2 657.6 1060.9 660.9 1043.7C670.5 994 680 944.3 689.6 894.6C690.8 889.2 691.8 883.8 692.9 878.4Z" fill="#FEFEFE"/>
<path d="M729.199 603C729.199 612.1 729.199 621.1 729.199 630C729.199 632.5 727.799 632.6 725.899 632.4C724.199 632.3 722.299 632.2 722.099 634.5C721.899 636.8 723.599 637.7 725.699 637.5C729.799 637.1 728.399 640.1 728.599 642.2C728.899 644.7 728.099 646 725.299 645.6C723.399 645.3 721.399 645.6 721.399 648.2C721.399 650.4 723.199 650.8 724.899 650.7C728.099 650.5 728.299 652.4 727.999 654.9C727.699 657 727.999 659.4 724.499 658.8C722.599 658.5 720.599 659 720.599 661.4C720.599 663.9 722.799 664.2 724.599 664.2C728.699 664.1 727.199 667 727.399 669C727.699 671.6 726.599 672.7 723.899 672.2C721.899 671.9 719.899 672.2 719.899 674.6C719.899 676.9 721.799 677.5 723.799 677.4C726.699 677.1 726.899 678.6 726.799 681C726.299 690.1 725.899 699.3 725.699 708.4C725.599 711.3 724.999 712.9 721.799 712.3C721.299 712.2 720.799 712.2 720.299 712.3C712.499 713.2 706.799 712.3 704.699 702.5C702.999 694.7 695.899 690.7 687.599 690.4C682.599 690.3 677.599 689.6 672.799 691.3C664.999 694.1 659.899 700.8 659.699 708.9C659.499 717.7 659.399 726.5 659.499 735.4C659.599 744.6 664.199 751.3 672.999 754.2C676.099 755.2 676.199 756.6 675.499 759.2C669.499 782 663.399 804.8 657.499 827.6C656.699 830.6 655.599 831.9 652.199 831.8C606.9 831.7 561.6 831.7 516.3 831.8C512.1 831.8 511.5 830.4 511.5 826.7C511.6 760.6 511.599 694.5 511.599 628.4C511.599 588.8 511.7 549.1 511.5 509.5C511.5 505.4 512.5 504.3 516.7 504.3C587.7 504.4 658.599 504.4 729.599 504.3C733.699 504.3 735.199 505 734.699 509.4C733.999 515 733.999 520.7 733.899 526.3C733.899 528.7 733.099 529.5 730.699 529.2C711.499 527 692.299 524.9 673.199 522.8C671.399 522.6 669.599 522.4 667.699 522.3C665.599 522.1 663.999 522.8 663.899 525.1C663.799 527.5 665.499 528.1 667.499 528.3C676.799 529.3 685.999 530.3 695.299 531.3C706.899 532.6 718.399 534 729.999 535.1C732.899 535.4 733.599 536.4 733.299 539.1C732.899 543.1 732.699 547.1 732.899 551.1C733.099 554.9 731.599 555.3 728.199 555C708.099 553.1 688.099 551.6 667.999 549.9C665.799 549.7 663.799 549.9 663.499 552.6C663.199 555.3 665.399 555.8 667.499 556C681.399 557.2 695.399 558.3 709.299 559.5C715.899 560.1 722.599 560.8 729.199 561.2C731.499 561.4 732.199 562.1 732.199 564.5C732.399 577.7 732.399 577.7 719.199 577.6C702.199 577.6 685.199 577.5 668.199 577.4C666.199 577.4 663.799 577.1 663.299 579.6C662.599 583.3 665.399 583.4 668.099 583.4C687.299 583.5 706.399 583.7 725.599 583.6C729.999 583.6 731.499 584.4 731.399 589.2C731.299 594.3 729.699 596.5 724.799 598C708.399 602.9 692.199 608.3 675.899 613.6C674.499 614.1 672.999 614.5 671.799 615.3C670.499 616.1 670.399 617.5 670.999 618.9C671.899 620.9 673.699 620.7 675.299 620.3C679.899 618.9 684.499 617.3 688.999 615.8C702.399 611.6 716.099 607.2 729.199 603Z" fill="#202B6D"/>
<path d="M920.7 668.2C920.7 721 920.6 773.8 920.8 826.6C920.8 831.1 919.6 832 915.3 832C868.8 831.8 822.4 831.8 775.9 832C771.5 832 770.4 831 770.4 826.6C770.7 804.6 770.6 782.6 770.5 760.7C770.5 757.9 770.8 756.5 774.2 755.9C784.4 754.2 790.5 746.7 790.7 736.4C790.9 727.9 790.9 719.4 790.8 710.9C790.7 699.7 783.1 691.8 771.9 691C770.2 690.9 768.6 690.8 766.9 690.8C754.8 690.4 748 695.1 744 706.6C742.2 711.9 737.4 714.1 732.301 712.3C730.701 711.7 730.9 710.7 731 709.6C731.4 700 731.901 690.3 732.301 680.7C732.401 678.7 732.901 677.6 735.3 678C737 678.2 738.8 677.9 738.9 675.6C739 673.5 737.5 672.6 735.6 672.8C732 673.1 732.701 670.8 732.701 668.7C732.701 666.4 732.7 664.3 736.1 664.8C737.8 665.1 739.601 664.8 739.701 662.4C739.701 660.2 738.2 659.6 736.3 659.7C732.201 659.9 733.7 656.9 733.5 654.9C733.2 652.3 734.3 651.3 736.9 651.7C738.8 652 740.4 651.3 740.5 649.3C740.6 647.2 739 646.5 737.1 646.5C734 646.6 733.701 644.9 733.801 642.4C733.901 639.7 734.201 637.8 737.701 638.5C739.601 638.9 741.1 637.8 741.1 635.8C741.1 634 739.7 633 738.1 633.2C734.1 633.6 734.5 631.1 734.6 628.5C735 620.9 735.4 613.2 735.5 605.5C735.5 602 736.201 601.3 739.701 602.5C757.3 608.6 775 614.4 792.6 620.3C793.7 620.7 794.8 621.1 795.9 621.4C798 622.1 799.6 621.4 800.3 619.4C801 617.4 799.7 616.3 797.9 615.7C793 614 788.2 612.4 783.3 610.7C768.8 605.8 754.4 600.9 739.9 596.1C736.6 595 734.501 587.2 736.8 584.7C737.9 583.6 739.3 584.3 740.6 584.3C760.7 584.4 780.9 584.6 801 584.7C802.3 584.7 803.7 584.7 805 584.7C807.1 584.6 808.5 583.5 808.4 581.3C808.3 579.2 806.7 578.7 804.8 578.7C798.6 578.7 792.5 578.6 786.3 578.6C771 578.5 755.7 578.2 740.4 578.3C737.3 578.3 736.5 577.5 736.6 574.4C736.9 562.3 736.8 562.2 748.5 561.3C765.1 560.1 781.7 559 798.3 557.9C800.3 557.8 802.3 557.5 804.3 557.4C806.6 557.2 808.9 556.9 808.5 553.9C808.2 551.3 806 551.2 803.9 551.4C788.8 552.5 773.7 553.6 758.6 554.7C752.6 555.1 746.601 555.5 740.701 556C738.301 556.2 737.201 555.6 737.701 553.1C737.801 552.8 737.701 552.4 737.701 552.1C738.101 547 736.7 540.5 739.3 537.1C741.7 534 748.6 535.4 753.5 534.9C770.6 533.3 787.6 531.6 804.7 530C806.8 529.8 809 529.4 808.9 526.8C808.8 523.8 806.4 523.8 804.1 524C784.2 525.9 764.3 527.7 744.5 529.7C738.5 530.3 738.5 530.5 738.9 524.3C739.2 518.8 739.5 513.3 739.6 507.8C739.6 505.7 740.2 504.7 742.5 504.9C743.3 505 744.2 504.9 745 504.9C801.8 504.9 858.6 505 915.4 504.8C919.7 504.8 920.9 505.8 920.8 510.2C920.6 562.7 920.7 615.4 920.7 668.2Z" fill="#202B6D"/>
<path d="M713.4 831.9C697.9 831.9 682.4 831.8 666.9 832C663.2 832 662.5 831.3 663.5 827.6C669.7 804.8 675.7 782 681.5 759.2C682.3 756.1 683.7 755.4 686.6 755.4C711.2 755.8 735.9 756 760.5 756.1C763.9 756.1 764.5 757.3 764.5 760.4C764.4 782.9 764.4 805.3 764.5 827.8C764.5 831.3 763.3 831.9 760.2 831.9C744.7 831.8 729.1 831.9 713.4 831.9Z" fill="#202B6D"/>
<path d="M681.9 709.4C687.1 709.4 690.9 713.3 691 718.5C691 723.7 687.2 727.6 682 727.7C676.6 727.8 672.5 723.6 672.6 718.3C672.7 713.1 676.6 709.4 681.9 709.4Z" fill="#212C6D"/>
<path d="M767.4 710C772.4 709.9 776.6 713.9 776.8 719C776.9 724.2 773.1 728.3 768.1 728.5C762.8 728.7 758.5 724.6 758.5 719.3C758.3 714.1 762.2 710.1 767.4 710Z" fill="#212C6D"/>
<path d="M1119.7 571.6C1119.1 569.7 1118.3 567.9 1117.8 566C1116.2 560.5 1118.2 556.6 1123.5 554.6C1124.9 554.1 1126.3 553.6 1127.7 553.1C1135.6 550.4 1139.2 552.4 1141.5 560.7C1140.6 564 1137.3 562.7 1135.3 563.9C1130.3 566.8 1124.9 569.1 1119.7 571.6Z" fill="#010101"/>
<path d="M1081.9 429.4C1081.7 431.5 1080.5 432.7 1078.7 432.6C1076.8 432.5 1075.6 431.1 1075.8 429.2C1075.9 427.6 1077 426.5 1078.8 426.5C1080.7 426.5 1081.7 427.6 1081.9 429.4Z" fill="#110A0A"/>
<path d="M1049.3 447.7C1047.5 446.6 1046.2 445.2 1046.6 442.8C1048.4 441.1 1050.6 439.8 1052.2 442.5C1054.1 445.5 1051.9 446.9 1049.3 447.7Z" fill="#1A1312"/>
<path d="M1017.5 1209.1C1006.2 1209.1 996.7 1199.7 996.7 1188.5C996.7 1177.3 1006.1 1167.9 1017.4 1167.9C1029.1 1167.9 1038.5 1177.2 1038.4 1188.7C1038.3 1199.9 1028.9 1209.1 1017.5 1209.1Z" fill="#5D85B1"/>
<path d="M1017.5 1170.1C1027.6 1170 1035.9 1178.3 1035.9 1188.4C1035.9 1198.5 1027.8 1206.8 1017.6 1206.9C1007.5 1207 999.3 1198.8 999.2 1188.5C999.3 1178.2 1007.2 1170.1 1017.5 1170.1Z" fill="#FEFEFE"/>
</svg>
