<svg width="1840" height="1380" viewBox="0 0 1840 1380" fill="none" xmlns="http://www.w3.org/2000/svg">
<path d="M919.5 1379.9C614.5 1379.9 309.6 1379.9 4.59998 1380C0.899976 1380 0 1379.2 0 1375.4C0.1 918.5 0.1 461.5 0 4.60001C0 0.900006 0.799976 0 4.59998 0C614.9 0.1 1225.1 0.1 1835.4 0C1839.1 0 1840 0.800006 1840 4.60001C1839.9 461.5 1839.9 918.5 1840 1375.4C1840 1379.1 1839.2 1380 1835.4 1380C1530.1 1379.9 1224.8 1379.9 919.5 1379.9Z" fill="#FCFCFC"/>
<path d="M790.2 1191.9C787.8 1202.5 785.5 1213.2 782.9 1223.8C782.4 1226 783.2 1230.3 779.7 1229.6C776.2 1228.9 778.6 1225.4 779.1 1223.1C781.3 1212.7 783.5 1202.3 785.7 1191.9C785.4 1191.5 785.3 1191 785.2 1190.5C785.2 1189.5 785.5 1188.5 785.5 1187.5C787.8 1176.4 790 1165.3 792.8 1154.2C793.2 1152.9 793.5 1151.6 793.5 1150.3C799.2 1124.2 804.5 1098.1 810.7 1072.2C811.5 1070.5 811.4 1068.5 811.7 1066.7C814.8 1053.6 817.5 1040.4 820.5 1027.2C820.8 1025.9 821.4 1024.7 821.4 1023.3C823.7 1013.5 825.7 1003.6 828.3 993.9C828.4 993.1 828.6 992.4 828.8 991.6C829.9 986.3 829.8 986.2 824 986.2C803.8 986.2 785.8 979.8 769.5 968C768.3 967 767 966.2 765.8 965.2C746.6 949.3 735.3 928.8 731.3 904.2C729.5 892.9 726.9 881.7 725.2 870.4C725 869.3 724.6 868.3 724.4 867.3C720.7 847.7 717.2 828 713.4 808.3C713.2 806.4 713.3 804.5 712.6 802.7C711 795.6 709.9 788.4 708.4 781.2C708.3 780.4 708.2 779.6 708.2 778.8C704.9 761.1 700.5 743.6 698.9 725.7C697.5 710.1 703.2 696.3 713.6 684.5C724.8 671.7 739.3 665.9 755.9 664.6C760.2 664.3 764.5 663.3 768.8 663.4C772.3 663.4 775.8 661.7 779.2 662.4C776.1 660 772.2 657.9 769.7 654.3C764.6 648.1 760.7 641.4 760.4 633.2C760.4 629.1 760.3 625 760.4 620.8C761.7 611 766.5 602.8 771.9 594.8C772.7 593.7 773.5 592.8 774.4 591.9C783.3 581.4 794.3 575.1 808.4 574.2C813.3 573.9 818.3 573.7 823.3 572.9C831.8 571.4 839.7 568.7 846.8 563.7C847.6 563.2 848.5 562.7 849.3 562.2C859.6 555.4 866.8 546 872.7 535.4C875.9 529.7 879.2 524.1 883.9 519.6C884.8 518.8 885.6 517.9 886.4 517.1C893.5 511.1 901.4 506.8 910.6 505.2C911.4 505.2 912.1 505.5 912.7 505.9C927.7 505.7 941.6 509.9 954.8 516.6C956.5 517.5 958.3 517.7 960.1 518C974 520.3 981.3 529.4 980.4 543.4C979.9 545.9 978.2 545.5 976.6 544.9C967 541.5 957.5 537.9 948.1 534.2C945.3 533.1 944.9 531.1 946.5 528.6C948.2 525.9 950.5 523.7 951.7 520.7C936.6 519.8 924.5 529.7 921.4 541.4C920 546.7 918.6 552 916.1 556.9C912 557.3 911.5 553.4 909.5 551.3C907.2 548.9 906.4 545 902.3 544.3C899.1 544.4 896 543.7 892.8 544.1C882.4 545.4 878.2 554.1 883.8 563C885.5 565.7 888.1 567.6 889.4 570.6C890.1 575.5 894.4 579 894.9 584C886.3 590.5 884.2 600.8 879.8 609.7C879 611.3 878.5 613.1 876.7 614.1C874.7 614.6 872.7 614.7 870.7 614.9C865.4 614.4 860.1 613.6 854.8 613.4C831.4 612.4 810.3 628.5 805.2 651.6C796.7 690.1 788.5 728.8 780.6 767.4C776.9 785.6 782.7 798.7 798.5 808.7C802.1 811 803.6 813.8 804.1 818C806.3 836.8 807 855.9 810.7 874.5C817.2 907.4 846.1 934 879.5 938.4C889.1 939.7 898.7 939.7 908.4 938.7C917 937.8 925.7 938.5 934.4 938.4C939 938.4 943.5 938.4 948.1 938.4C963.9 937.3 979.6 939.6 995.4 939.3C1005.5 939.1 1015.7 939.2 1025.8 939.3C1032 939.4 1033.2 940.5 1033.3 946.5C1033.5 953.1 1033.4 959.8 1033.3 966.4C1033.3 968.4 1033.2 970.4 1032.1 972.2C1023.1 981.1 1012.6 986.3 999.7 986.2C983.8 986.2 967.9 984.6 952 985.3C950.4 985.4 948.2 984.2 947.3 986.7C950.8 1002 954.4 1017.2 957.8 1032.5C964.8 1064.2 971.7 1095.9 978.7 1127.6C984.9 1155.9 991.2 1184.2 997.4 1212.5C998.4 1217 999.2 1221.5 1000.1 1226C1000.4 1227.5 1001.4 1229 999.1 1229.6C996.6 1230.3 995.9 1228 995.7 1226.5C994.8 1218.2 992.5 1210.3 990.8 1202.2C986.6 1182 982.3 1161.8 977.9 1141.7C974 1123.5 970.1 1105.4 965.8 1087.3C961.4 1068.3 957.3 1049.1 952.8 1030.1C949.7 1016.8 946.7 1003.5 943.7 990.2C943.3 988.6 942.8 987.1 942.4 985.6C932 985.4 921.5 984.5 911.1 986.1C909.5 986.3 907.8 986.2 906.1 986.2C885.5 986.2 864.8 986.2 844.2 986.2C842.2 986.2 840.2 985.9 838.3 986.6C836.5 987.4 836 989.1 835.4 990.8C835 992 834.8 993.2 834.7 994.5C832.3 1004.5 829.7 1014.4 827.7 1024.5C827.5 1025.6 827.1 1026.5 826.9 1027.6C823.9 1039.9 821.5 1052.3 818.5 1064.5C817.8 1066.3 817.8 1068.2 817.4 1070C811.4 1096.8 805.8 1123.6 799.8 1150.4C799.5 1151.7 798.9 1152.9 798.9 1154.3C796.8 1165.5 794.1 1176.6 791.8 1187.8C791.6 1188.8 791.3 1189.8 790.7 1190.6C790.8 1191.2 790.5 1191.5 790.2 1191.9Z" fill="black"/>
<path d="M1031.8 1169C1031.9 1152.3 1031.9 1135.7 1032 1119C1031.4 1118.2 1031.6 1117.3 1031.8 1116.4C1032.2 1102.4 1032 1088.5 1031.9 1074.5C1031.9 1068.7 1032.1 1068 1038.1 1067.3C1055.1 1065.1 1072.1 1063.4 1089.1 1061.5C1095.5 1060.8 1102 1059.9 1108.4 1059.4C1111.9 1059.1 1113.5 1057.4 1113.4 1053.9C1113.1 1042.8 1114.1 1031.6 1112.7 1020.5C1111.7 1012.4 1112.8 1010.5 1120.4 1007.8C1128.7 1004.8 1136.9 1001.6 1145.4 999.1C1149.2 998.9 1150 1001.6 1150.6 1004.5C1153.5 1017.4 1156.5 1030.2 1159.1 1043.2C1159.3 1044.5 1159.5 1045.8 1159.9 1047.1C1162.6 1059.2 1165.5 1071.4 1167.9 1083.6C1168.8 1088.3 1171 1091.2 1175.6 1092.9C1188.1 1097.8 1200.4 1103.2 1212.8 1108.4C1215.2 1109.4 1218 1110 1219 1113C1219.7 1127 1220.1 1141.1 1218.8 1155.1C1218.1 1157.1 1216 1155.9 1214.8 1156.8C1205.5 1158.8 1196.2 1160.8 1186.9 1162.8C1172 1166.1 1157.1 1169.5 1141.2 1173C1147.5 1177.6 1153.2 1181.7 1158.9 1185.8C1164.2 1189.6 1169.9 1193 1174.8 1197.3C1184 1205.2 1187.2 1215.9 1187.9 1227.6C1186.6 1228.7 1185 1228.2 1183.6 1228.2C1134.1 1228.2 1084.7 1228.2 1035.2 1228.2C1033.8 1228.2 1032.2 1229 1031.1 1227.4C1031.1 1225.3 1031.1 1223.2 1031.1 1221.1C1032 1213.8 1031.3 1206.5 1031.5 1199.2C1031.7 1189.2 1031.1 1179.1 1031.8 1169Z" fill="#8F3600"/>
<path d="M1217.8 1156C1217.8 1141.3 1217.8 1126.5 1217.8 1111.8C1216.9 1110 1216.4 1108.1 1216.4 1106.1C1216.5 1086.6 1216.2 1067.1 1216.5 1047.6C1216.5 1046.3 1216.5 1045 1216.5 1043.7C1216.2 1018 1216.4 992.4 1216.4 966.7C1216.4 929 1216.4 891.4 1216.4 853.7C1216.4 844.7 1214.2 836.6 1208 829.8C1201 822 1192.3 818.5 1181.8 818.5C1137.5 818.8 1093.1 818.3 1048.8 818.5C1046.3 818.5 1043.8 818.6 1041.3 818.4C1040.3 818.4 1039.4 818.4 1038.4 818.4C1011.3 818.7 984.1 818.6 957 818.5C924.6 818.7 892.1 818.6 859.7 818.5C853.6 818.5 852.5 817.3 853.3 813C855.9 810.9 859 811.5 861.9 811.5C912.4 811.5 962.8 811.4 1013.3 811.5C1018.5 811.5 1022.8 810.3 1026 806.1C1026.8 805 1028 804 1027.5 802.6C1026.9 801.1 1025.2 801.4 1024 801.5C1016.7 801.9 1009.4 800 1002.1 800.4C1001.3 800.4 1000.4 800.4 999.6 800.2C997.7 799.9 995.7 799.3 995.7 797.1C995.6 794.5 997.8 793.8 999.8 793.7C1006.9 793.2 1014.1 793.6 1021.3 793.5C1023 793.5 1024.6 793.6 1026.3 793.4C1027.9 793.2 1029.9 793.5 1030 791.1C1030.1 788.7 1028.1 788.7 1026.5 788.6C1024.5 788.4 1022.5 788.5 1020.5 788.5C1015 788.5 1009.5 788.5 1004 788.5C1002.3 788.5 1000.6 788.5 999.1 787.9C997.3 787.2 995.8 786.1 996 783.9C996.2 782 997.7 781.2 999.4 780.8C1000.9 780.5 1002.4 780.5 1003.9 780.5C1010.7 780.5 1017.6 780.4 1024.4 780.6C1025.5 780.6 1027 781.3 1027.5 779.9C1028 778.7 1026.9 777.8 1026.1 776.9C1023.6 774.1 1020.4 772.2 1016.7 771.5C1003.6 769.2 990.6 766.3 977.1 768.2C973.5 768.7 969.8 768.8 966.2 768C964.4 767.6 962.6 766.7 962.6 764.5C962.6 762 964.4 761.1 966.5 760.8C970.1 760.3 973.8 760.4 977.5 760.6C982.4 760.9 986.7 759.2 990.9 757.1C993 756 995.1 754.5 994.1 751.7C993.2 749.1 990.9 748.7 988.4 748.8C985.2 748.9 982 751.3 978.8 749C977.8 747.5 977.7 745.9 977.7 744.2C977.6 730.4 977.6 716.6 977.7 702.9C977.7 701.4 977.9 699.9 978.4 698.5C991.1 681.4 1004.3 664.8 1017.3 647.9C1020.9 643.2 1024.3 638.2 1028.3 633.7C1030.6 631.1 1030.1 629.2 1027.3 627.2C1022 623.4 1017.1 619.2 1012 615.1C1011.2 614.3 1010.4 613.5 1009.5 612.8C1008 611.7 1006.5 610.8 1004.9 609.8C1000 606 995.2 602.2 990.4 598.4C988.4 596.8 986.5 596.3 984 597C979.7 598.1 975.4 597.5 971.3 595.7C968.1 594.2 966.2 592.1 966.9 588.3C967.5 587.7 968.2 587.6 968.9 587.7C969.7 587.9 970.4 588.4 971.1 588.7C977.3 591.9 978.4 591.7 982.7 586.3C985.4 583 987.9 579.5 990.6 576.1C994.3 571.5 994.1 569.7 990.1 565.5C988 563.3 985.6 561.6 982.6 561C970 559.2 961.1 570 965.4 581.9C966 583.7 966.9 588.3 966.9 588.3C966.9 588.3 962.1 587.7 960.5 586.1C959 584 959.4 580.7 957.5 579.4C955.3 577.9 953.1 581.1 950.6 581.2C949.3 581.3 948 581.4 946.6 581.3C944.1 580.3 940.9 580.5 939.8 577.3C941.8 575.3 944.5 576.2 946.9 575.8C953 574.7 957.4 571.3 959.1 565.4C960.8 559.7 960.1 554 955.2 549.9C950.6 546.1 945.7 543.6 939.8 546C931.5 549.3 927.5 560.4 931.7 568.4C932.7 570.3 934.4 571.8 934.5 574.1C931.5 575.9 930.4 575.5 926.3 571.4C922.1 562.6 922.4 554.2 928.9 546.8C934.8 540.1 942.4 537.9 951.1 540.4C958.4 542.5 962.9 547.8 965.4 554.7C966.4 557.5 967.1 558.5 970.1 556.8C972.8 555.3 975.7 553.8 979 555L985.8 556.8C993.5 559.9 998.4 565.4 999.3 573.8C999.6 576.8 1000.8 578.5 1003 580.3C1023.8 596.5 1044.5 613 1065.5 629C1074.7 636 1079.4 644.8 1079 656.3C1078.3 659 1078.3 659 1080 659.4C1082.1 656.8 1084.2 654.2 1086.2 651.6C1087.3 650.2 1088.7 649.7 1090.1 650.7C1091.5 651.8 1091.5 653.4 1090.2 654.6C1088 656.8 1089.1 658.2 1091.2 659.6C1093.6 661.3 1096 663.2 1098.3 665.1C1100.1 666.6 1100.6 668.4 1099.2 670.4C1097.7 672.6 1095.6 672.6 1093.5 671.2C1091.9 670.1 1090.3 668.8 1088.8 667.5C1083.4 663.3 1083.4 663.3 1079.4 669C1082.5 671.4 1085.7 673.9 1088.8 676.3C1090.7 677.8 1091.8 679.6 1090.2 681.9C1088.5 684.3 1086.3 684 1084.1 682.4C1082 680.8 1079.9 679.2 1077.8 677.6C1076.2 676.4 1075 674.3 1072.7 677.3C1070.8 679.8 1070.9 681.1 1073.5 682.7C1075.8 684.1 1077.7 685.9 1079.8 687.5C1081.7 689 1082.8 690.8 1081.1 693C1079.3 695.4 1077.2 695 1075 693.5C1073.8 692.6 1072.6 691.7 1071.4 690.8C1068.4 688.6 1065.6 684.6 1062.3 690.6C1061.6 691.9 1060 691.7 1058.8 690.6C1057.7 689.5 1057.8 688.3 1058.7 687.1C1060.5 684.8 1062.3 682.4 1064.1 679.9C1062.4 678.6 1061.2 679.7 1059.9 680.1C1051.6 682.7 1043.4 682.4 1035.9 677.7C1033.6 676.3 1032.4 676.3 1030.7 678.6C1023.7 687.9 1016.7 697.2 1009.4 706.3C1007.4 708.7 1007.9 711.3 1007.9 713.9C1007.9 716.5 1010.1 715.4 1011.3 715.4C1023.1 715.5 1035 715.5 1046.8 715.5C1065.3 715.5 1083.8 715.5 1102.3 715.5C1105.1 715.5 1107.7 715.7 1108.8 718.8C1109.9 722.1 1107.5 724.7 1103.1 724.7C1090.4 724.8 1077.8 724.7 1065.1 724.7C1061.4 724.7 1057.8 724.8 1054.1 724.7C1051.5 724.6 1050.3 725.2 1050.2 728.2C1049.9 738.5 1049.8 738.6 1060 738.6C1064.1 738.6 1067.3 739.4 1067.8 744.2C1067.4 745.2 1067.8 746.4 1067 747.2C1065.8 748.5 1064.3 749.2 1062.6 749.6C1062.1 749.7 1061.6 749.8 1061.1 749.8C1051.5 750.5 1051.5 750.5 1051.5 760.3C1051.5 770.3 1051.6 780.3 1051.5 790.3C1051.5 794.4 1053 796 1057.1 795.9C1063.4 795.7 1069.8 795.7 1076.1 795.9C1084.7 796.1 1088.1 799.5 1088.3 808.1C1088.3 810.7 1089.2 811.8 1091.7 811.8C1093.4 811.8 1095 811.8 1096.7 811.8C1124.8 811.8 1153 811.8 1181.1 811.8C1206 811.9 1223.4 828.9 1223.5 853.7C1223.7 916.6 1223.6 979.6 1223.5 1042.5C1223.5 1043 1223.4 1043.5 1223.4 1044C1223.4 1045.3 1223.4 1046.5 1223.4 1047.8C1223.6 1069.9 1223.6 1092.1 1223.4 1114.2C1223.7 1125.8 1223.5 1137.5 1223.5 1149.1C1223.5 1151.3 1223.5 1153.5 1221.9 1155.2C1221.8 1178.8 1221.7 1202.4 1221.7 1226.1C1221.7 1228.7 1221.9 1231.2 1218.2 1231.1C1216.9 1230.3 1217.4 1229 1217.4 1228C1217.4 1204.6 1217.4 1181.2 1217.4 1157.8C1217.5 1156.9 1217.6 1156.5 1217.8 1156Z" fill="black"/>
<path d="M786.7 1188.8C786.5 1189.5 786.2 1190.3 786 1191C784.2 1191.8 782.4 1191.4 780.6 1191.4C621.6 1191.4 462.6 1191.4 303.6 1191.4C301.8 1191.4 299.9 1191.7 298.1 1191.1C296.5 1189.6 297.2 1187.6 297.2 1185.9C297.2 887.9 297.2 589.9 297.1 291.9C297.1 276.8 300.5 262.9 309.2 250.6C321.1 233.7 337.6 224.2 358.1 221.8C359.9 221.2 361.7 221.5 363.6 221.5C524.6 221.5 685.5 221.5 846.5 221.5C848.3 221.5 850.2 221.3 852 221.8C883.3 226.7 904.9 246 911.6 275.1C912.9 280.8 913.2 286.6 913.2 292.5C913.2 363.6 913.2 434.8 913.2 505.9C912.5 505.9 911.8 506 911.1 506C908.8 503.3 909.6 500 909.6 496.9C909.6 428.9 909.6 360.9 909.6 292.9C909.6 276.2 905 261 894 248.1C882 234.1 866.7 226.7 848.2 225.6C846.9 225.5 845.5 225.6 844.2 225.6C684.7 225.6 525.3 225.6 365.8 225.6C334.6 225.6 308 247.8 302.5 278.3C301.9 281.4 301.8 284.6 301.8 287.8C301.8 584.9 301.8 882 301.8 1179.1C301.8 1179.8 301.8 1180.4 301.8 1181.1C301.9 1186.7 302.3 1187.1 307.7 1187.3C309.5 1187.4 311.4 1187.3 313.2 1187.3C467.7 1187.3 622.1 1187.3 776.6 1187.3C779.9 1187.4 783.6 1186.5 786.7 1188.8Z" fill="#5D85B1"/>
<path d="M1063.9 747.8C1065 747.2 1066 746.5 1067.1 745.9C1068.7 745.2 1070.4 745.5 1072 745.5C1177 745.5 1281.9 745.5 1386.9 745.5C1388.6 745.5 1390.2 745.3 1391.9 745.8C1405.1 750.7 1408.9 756.2 1408.9 770.3C1408.9 834.9 1408.9 899.4 1408.9 964C1408.9 966 1409.1 968 1409.2 970C1410.9 971 1412.8 970.5 1414.5 970.5C1429.4 970.5 1444.3 970.5 1459.2 970.6C1460.8 970.6 1462.5 969.9 1463.9 971.3C1463.9 1003.6 1463.8 1035.9 1464 1068.1C1464 1072.7 1462.8 1074.1 1458.1 1074C1443.6 1073.7 1429.1 1074.1 1414.7 1073.8C1409.7 1073.7 1408.7 1075.3 1408.8 1079.9C1409.1 1095.9 1408.5 1111.9 1409 1127.8C1409.4 1140.2 1398.2 1150.7 1386.7 1150C1374.6 1149.3 1374.7 1149.9 1374.5 1162C1374.3 1172 1375.3 1181.9 1373.9 1191.9C1373.6 1192.1 1373.3 1192.4 1373 1192.4C1354.7 1192.4 1336.3 1192.8 1318 1192.2C1316.6 1190.6 1317.2 1188.7 1317.2 1186.9C1317.1 1176.1 1317 1165.3 1317.3 1154.5C1317.4 1150.7 1316.1 1149.8 1312.5 1149.8C1290.4 1149.9 1268.3 1149.8 1246.2 1149.7C1249 1145.9 1253.3 1146.8 1257.1 1146.2C1299.9 1146.5 1342.7 1146.4 1385.5 1146.2C1397.9 1146.2 1404.8 1140 1405.1 1127.7C1405.8 1102.9 1405.3 1078.1 1405.4 1053.3C1405.4 1049.9 1403.7 1048.5 1400.5 1048.6C1398.7 1048.6 1396.8 1048.6 1395 1048.6C1340.4 1048.6 1285.7 1048.6 1231.1 1048.6C1228 1048.6 1224.7 1049.3 1222 1046.9C1222 1046 1222 1045 1222 1044.1C1224.7 1041.8 1228 1042.4 1231.1 1042.4C1285.9 1042.4 1340.7 1042.4 1395.5 1042.4C1405.4 1042.4 1405.4 1042.4 1405.4 1032.7C1405.4 946.6 1405.4 860.5 1405.4 774.4C1405.4 771.4 1405.5 768.4 1405 765.4C1403.4 755.8 1396.9 750.1 1387.2 749.8C1384.9 749.7 1382.5 749.8 1380.2 749.8C1277.9 749.8 1175.7 749.8 1073.4 749.8C1070.1 749.6 1066.6 750.5 1063.9 747.8Z" fill="#5A83AF"/>
<path d="M1347 366.8C1347 424.6 1347 482.4 1347.1 540.3C1347.1 544.6 1346.5 546.2 1341.5 546.2C1258.2 546 1174.9 546 1091.5 546.2C1087.3 546.2 1085.8 545.4 1085.9 540.8C1086 424.8 1086 308.8 1085.9 192.9C1085.9 188.4 1087.1 187.3 1091.5 187.3C1174.8 187.4 1258.1 187.4 1341.5 187.3C1345.9 187.3 1347.1 188.4 1347.1 192.9C1346.9 250.8 1347 308.8 1347 366.8Z" fill="#5983AF"/>
<path d="M979.1 555C974.2 555.8 969.5 557.3 965.3 560.6C964.5 551.6 960.6 545.1 952.3 541.8C945 538.9 938.3 540.1 932.2 544.8C924.6 550.7 922.9 559.5 927.1 571C926.5 571.3 925.7 571.5 925.2 571.1C920.8 567.1 916.7 563 915.7 556.8C917.4 551.4 919 546 920.7 540.7C924.2 529.2 932.3 522.9 943.6 520.2C947.1 519.3 950.7 518.9 954.9 518.1C953 522.7 950.1 526 947.8 529.6C946.8 531.2 946 532.3 948.6 533.2C958.4 536.8 968.2 540.5 977.9 544.2C979.1 544.7 980.1 544.6 980.8 543.5C981.3 547.4 980.2 551.2 979.1 555Z" fill="#FD9993"/>
<path d="M1255.9 1147.1C1252.6 1148 1249.4 1148.8 1246.1 1149.7C1238 1151.4 1230 1153.2 1221.9 1154.9C1221.9 1141.2 1221.9 1127.5 1221.9 1113.9C1229.5 1114 1235.8 1117.7 1241.7 1122C1248.5 1126.9 1252.8 1133.8 1255.8 1141.6C1256.6 1143.3 1257.6 1145.3 1255.9 1147.1Z" fill="#8F3600"/>
<path d="M790.3 1191C790.6 1190.3 790.8 1189.6 791.1 1188.8C793.7 1186.7 796.8 1187.3 799.8 1187.3C833.3 1187.3 866.8 1187.3 900.3 1187.3C902 1187.3 903.6 1187.2 905.3 1187.3C908.2 1187.3 909.5 1185.8 909.5 1183C909.5 1181.7 909.5 1180.3 909.5 1179C909.5 1118.2 909.5 1057.4 909.5 996.6C909.5 987.7 909.5 987.7 900.8 987.7C881.8 987.7 862.8 987.7 843.8 987.7C841.2 987.7 838.4 988.1 836.3 985.9C837.1 984.3 838.7 985 839.8 985C873 985 906.2 985 939.4 985C940.6 985 942.1 984.3 943 985.8C933.4 985.9 923.7 986 914.1 986.1C913.1 988 913.6 990 913.6 992C913.6 1056.2 913.6 1120.3 913.6 1184.5C913.6 1186.3 913.9 1188.2 913.3 1189.9C913.1 1190.2 913.1 1190.5 913.1 1190.8C912.2 1191.8 910.9 1191.5 909.8 1191.5C870.8 1191.5 831.8 1191.5 792.9 1191.5C791.9 1191.4 791.1 1191.4 790.3 1191Z" fill="#5881AE"/>
<path d="M851.9 221.8C707.1 221.8 562.3 221.8 417.5 221.8C397.7 221.8 377.9 221.8 358 221.9C359.6 220.5 361.5 221.1 363.3 221.1C524.4 221.1 685.5 221.1 846.6 221.1C848.4 221.1 850.3 220.5 851.9 221.8Z" fill="#FCFCFC"/>
<path d="M298.1 1191.1C300.3 1191.1 302.4 1191 304.6 1191C465.1 1191 625.5 1191 786 1191C786.2 1191.3 786.1 1191.6 785.9 1191.9C625.4 1191.9 464.9 1191.9 304.4 1191.9C302.3 1191.9 300 1192.6 298.1 1191.1Z" fill="#FCFCFC"/>
<path d="M1391.9 745.8C1285.1 745.8 1178.4 745.8 1071.6 745.8C1070.1 745.8 1068.6 745.9 1067.1 745.9C1067.4 745.2 1067.6 744.4 1067.9 743.7C1069.7 746 1072.2 744.9 1074.4 745C1178.1 745.1 1281.9 745 1385.6 745.1C1387.7 745 1390 744.3 1391.9 745.8Z" fill="#FCFCFC"/>
<path d="M947.6 986.9C948.2 985 948.2 984.9 949.8 984.9C960.9 984.9 971.9 984.9 983 985C988.9 985 994.9 985.1 1000.8 985.2C999.5 988.3 996.7 987.4 994.4 987.5C987.6 987.8 987.5 987.8 987.5 994.7C987.5 1017.8 987.5 1040.9 987.5 1064.1C987.5 1069.9 987.9 1070.4 993.7 1070.4C1003.8 1070.5 1014 1070.4 1024.1 1070.4C1026.4 1070.4 1028.8 1070.2 1031 1071.1C1031.9 1071.6 1032.4 1072.3 1032.2 1073.4C1032 1074.1 1031.5 1074.3 1030.8 1074.1C1015.2 1074 999.7 1074 984.1 1073.9C982.6 1072.3 983.4 1070.4 983.4 1068.7C983.3 1043 983.4 1017.3 983.3 991.5C983.3 989.7 983.8 987.8 982.8 986.1C971.7 986 960.6 985.9 949.6 985.8C948.9 985.8 948.1 986.2 947.6 986.9Z" fill="#5983AF"/>
<path d="M913.2 1189.9C913.2 1160.3 913.1 1130.6 913.1 1101C913.1 1064.4 913.1 1027.7 913.1 991.1C913.1 989.4 912.1 987.4 914 986C914 1052 914 1118 914 1184.1C914 1186 914.6 1188.1 913.2 1189.9Z" fill="#FCFCFC"/>
<path d="M1031.1 1227.6C1032.4 1227.7 1033.7 1228 1035 1228C1085 1228 1134.9 1228 1184.9 1228C1185.9 1228 1186.9 1227.9 1187.9 1227.8C1186.6 1229.7 1184.5 1228.9 1182.8 1228.9C1133.8 1228.9 1084.9 1228.9 1035.9 1228.9C1034.3 1228.9 1032.2 1229.8 1031.1 1227.6Z" fill="#FCFCFC"/>
<path d="M790.3 1191C829 1191 867.8 1191 906.5 1190.9C908.7 1190.9 910.8 1190.7 913 1190.7C911.5 1192.7 909.3 1191.8 907.5 1191.8C868.4 1191.9 829.4 1191.8 790.3 1191.8C790.1 1191.6 790.1 1191.3 790.3 1191Z" fill="#FCFCFC"/>
<path d="M983 986.2C984.7 987.7 983.8 989.6 983.8 991.3C983.9 1016.7 983.8 1042.1 983.9 1067.5C983.9 1069.6 984.2 1071.8 984.3 1073.9C982.1 1072.5 983.1 1070.3 983.1 1068.4C983 1041 983 1013.6 983 986.2Z" fill="#FCFCFC"/>
<path d="M1378.1 632.2C1379.8 632.3 1380.2 633.6 1380.7 634.6C1383.8 640.8 1386.9 647.1 1389.9 653.3C1390.4 654.2 1391.4 655.4 1389.9 656.3C1388.1 657.3 1388 655.4 1387.6 654.7C1384.3 648.1 1381.1 641.4 1377.8 634.7C1377.2 633.5 1376.6 632.6 1378.1 632.2Z" fill="#688EB6"/>
<path d="M1217.8 1156C1217.8 1179 1217.9 1201.9 1218 1224.9C1218 1226.9 1218.3 1228.9 1218.4 1230.8C1216.1 1229.5 1217.1 1227.2 1217.1 1225.4C1217 1204.3 1217.1 1183.2 1217 1162.1C1217 1160.2 1218.2 1157.5 1214.9 1156.8C1215.6 1156 1216.7 1156.1 1217.8 1156Z" fill="#FCFCFC"/>
<path d="M1191.5 683.4C1190.2 682.9 1190 682.4 1190.6 680.8C1193.2 674 1195.6 667 1198.1 660.1C1198.4 659.2 1198.4 658 1199.8 658.2C1201.2 658.4 1201 659.5 1200.7 660.5C1198.2 667.6 1195.7 674.7 1193.2 681.8C1192.8 682.6 1192.3 683.1 1191.5 683.4Z" fill="#648BB4"/>
<path d="M1318 1192.1C1336.6 1192 1355.3 1191.9 1373.9 1191.8C1373.1 1193 1371.9 1192.9 1370.8 1192.9C1354.1 1192.9 1337.5 1192.9 1320.8 1192.9C1319.8 1192.9 1318.8 1192.9 1318 1192.1Z" fill="#FCFCFC"/>
<path d="M1463.9 971.2C1447.4 970.3 1430.8 971.1 1414.3 970.8C1412.6 970.8 1410.7 971.7 1409.2 970C1425.8 970 1442.4 970 1458.9 970C1460.6 970 1462.6 969.2 1463.9 971.2Z" fill="#FCFCFC"/>
<path d="M1031.8 1169C1031.8 1186.4 1032.1 1203.9 1031.1 1221.3C1031.1 1205 1031 1188.6 1031 1172.3C1031 1171.1 1030.9 1169.9 1031.8 1169Z" fill="#FCFCFC"/>
<path d="M1031 1074.1C1031.2 1074 1031.5 1073.9 1031.8 1074C1032 1074.3 1032.4 1074.5 1032.4 1074.8C1032.4 1088.9 1032.9 1103 1032.1 1117.1C1032.1 1117.7 1032 1118.4 1032 1119C1030.4 1117.5 1031.1 1115.6 1031.1 1113.8C1031 1100.5 1031 1087.3 1031 1074.1Z" fill="#FCFCFC"/>
<path d="M1079.9 659C1079.7 660.2 1078.9 660.9 1077.1 661.3C1077.8 659.3 1078.3 657.6 1078.9 655.9C1079.4 656.9 1078.7 658.2 1079.9 659Z" fill="#D2D2D2"/>
<path d="M786.7 1188.8C784.9 1188.8 783 1188.9 781.2 1188.9C622.7 1188.9 464.3 1188.9 305.8 1189C301 1189 299.7 1187.9 299.7 1183C299.8 885.4 299.8 587.8 299.8 290.2C299.8 252.8 328.6 224 365.9 224C525.5 224 685.2 224 844.8 224C881.6 224 910.7 253.2 910.8 290.1C910.8 360.1 910.8 430.1 910.8 500C910.8 502 910.9 504 910.9 506C902 508.1 894.2 512.4 887 518C885 515.9 885.6 513.3 885.6 510.9C885.5 487.9 885.6 464.9 885.6 441.9C885.6 435.5 885.6 435.5 879.3 435.5C696.5 435.5 513.7 435.5 331 435.5C324.6 435.5 324.6 435.5 324.6 441.8C324.6 490.3 324.6 538.8 324.6 587.3C324.6 593.5 324.7 593.6 331.2 593.6C359.5 593.6 387.8 593.4 416.1 593.5C453.9 593.6 491.7 593.6 529.6 593.6C607.9 593.6 686.2 593.6 764.5 593.7C767.4 593.7 770.6 592.8 773.1 595.2C768.4 603 764 611 762.1 620.1C759.7 622.2 756.7 621.5 754 621.5C681.7 621.5 609.4 621.5 537.1 621.5C470 621.5 402.8 621.5 335.7 621.5C333.9 621.5 332 621.6 330.2 621.5C326.2 621.2 324.7 622.6 324.7 626.9C324.8 676 324.8 725.2 324.8 774.3C324.8 779.4 325 779.6 330.8 779.6C360.6 779.6 390.4 779.6 420.2 779.5C474.2 779.3 528.1 779.3 582.1 779.5C622.2 779.7 662.4 779.5 702.5 779.7C705.1 779.7 707.9 779.1 710.1 781.2C711.5 788.5 713 795.9 714.4 803.2C715.2 805.8 713.9 807 711.5 807.3C709.2 807.6 706.8 807.5 704.5 807.5C580.9 807.5 457.3 807.5 333.7 807.5C323 807.5 324.7 807.7 324.7 816.3C324.7 863.8 324.7 911.2 324.7 958.7C324.7 965.6 324.7 965.6 331.6 965.6C418.5 965.5 505.5 965.6 592.4 965.6C648.7 965.6 705 965.6 761.3 965.6C764.3 965.6 767.3 965.9 770.1 967C788.6 979.9 809 986.4 831.8 985.3C831.8 987.9 831.3 990.1 830.1 992.1C827.7 994.1 824.7 993.5 821.9 993.5C777.4 993.5 732.9 993.5 688.5 993.5C570.2 993.5 451.9 993.5 333.6 993.5C322.8 993.5 324.6 993.7 324.6 1002.3C324.6 1049.8 324.6 1097.3 324.6 1144.7C324.6 1151.6 324.6 1151.6 331.5 1151.6C406.1 1151.6 480.8 1151.6 555.4 1151.6C619.4 1151.6 683.3 1151.6 747.3 1151.6C761 1151.6 774.6 1151.5 788.3 1151.7C790.5 1151.7 793.1 1151 794.3 1154C791.7 1165.5 789.2 1177.1 786.7 1188.8Z" fill="#FEFEFE"/>
<path d="M885 520.1C879.4 526.1 875.8 533.3 871.6 540.2C866 549.2 859.4 557.4 850.1 563.1C848.1 561 848.7 558.4 848.7 556C848.7 530.2 848.7 504.4 848.7 478.5C848.7 471.6 848.7 471.6 841.8 471.6C807 471.6 772.2 471.6 737.3 471.6C731.5 471.6 731.5 471.6 731.5 477.5C731.5 512.7 731.5 547.8 731.5 583C731.5 584.5 731.5 586 731.5 587.5C731.4 593.5 730.8 594.1 724.9 594.1C687.1 594.1 649.3 594.1 611.4 594.1C605.7 594.1 605.7 594 607.3 588.3C607.8 586.7 607.6 585 607.6 583.3C607.7 565.6 607.5 548 607.6 530.3C607.7 522.9 610.5 520.1 618.4 519.5C616.1 519.5 614.4 519.5 612.8 518.9C610.8 518.1 609.4 516.7 608.5 514.9C607.5 513.1 607.6 511 607.5 509C607.4 503.5 607.4 503.5 601.8 503.5C601.3 503.5 600.8 503.5 600.3 503.5C593.6 503.7 592.2 501.9 592.3 510.9C592.3 512.2 592.2 513.6 591.5 514.8C590.2 517 588.5 519 585.7 518.8C583 518.6 581.9 516.3 581.1 514.1C580.4 512.2 580.5 510.1 580.6 508.2C580.8 504.7 579.1 503.3 575.8 503.6C575.1 503.6 574.5 503.6 573.8 503.6C566.4 503.8 565.4 502.1 565.4 511.1C565.4 515.5 562.4 518.8 559.2 518.9C556 519 553.1 515.6 552.7 511.3C552 503.6 552 503.6 544.1 503.6C537.8 503.6 537.8 503.6 537.6 510C537.4 517.3 535.1 519.5 527.9 519.6C526.1 519.6 524.4 519.6 523.2 519.6C524.4 519.8 526.2 519.6 528 519.6C534.4 519.7 537.1 522.1 537.5 528.6C537.8 534.4 537.6 540.3 537.6 546.1C537.6 557.6 537.6 569.1 537.6 580.6C537.6 583.8 537.5 586.9 538.7 589.9C539.8 592.7 538.9 594 535.9 594C534.9 594 533.9 594 532.9 594C497.1 594 461.3 594 425.4 594C423.3 594 420.3 595 419.5 592.8C418.7 590.4 421.8 589.6 423.4 588.5C440.8 576.3 441 550.6 423.7 538.3C420 535.7 418.5 532.6 418.5 528.2C418.6 516.5 418.5 504.9 418.6 493.2C418.6 489.8 417.6 488.3 414.1 488.4C409.1 488.6 404.1 488.6 399.1 488.4C395.6 488.3 394.4 489.7 394.4 493.1C394.5 504.6 394.3 516.1 394.5 527.6C394.6 532.1 393.1 534.8 389.1 537.3C371.1 548.1 370 574.4 386.6 587.5C388.6 589 392.6 590.1 391.6 592.8C390.7 595.3 386.8 594 384.2 594C366.5 594.1 348.9 594.1 331.2 594C325.4 594 324.6 593.2 324.6 587.3C324.5 539.1 324.6 491 324.6 442.8C324.6 436.7 325.8 435.6 332 435.5C333.5 435.5 335 435.5 336.5 435.5C516.1 435.5 695.7 435.5 875.4 435.5C886.1 435.5 886.1 435.5 886.1 446.2C886.1 468.5 886.1 490.9 886.1 513.2C886 515.6 886.4 518 885 520.1Z" fill="#FEFEFE"/>
<path d="M770 664.8C760 666.3 749.7 665.9 739.9 669C712.4 677.8 696 705.8 701.6 734.2C704.5 749 707 764 709.7 778.8C708.2 780.3 706.3 779.9 704.5 779.9C669 779.9 633.5 779.9 598 779.9C592.5 779.9 591.6 779.1 591.5 773.6C591.4 765.1 591.4 756.6 591.5 748.1C591.6 742.9 592.8 741.8 598.1 741.5C598.8 741.5 597.9 741.5 598.6 741.5C610.5 741.2 610.5 741.2 610.5 728.9C610.5 722.9 610.4 716.9 610.5 710.9C610.6 707.4 609.2 706.3 605.7 706.3C596.4 706.5 587 706.4 577.7 706.3C570.3 706.3 569.5 705.4 569.4 697.9C569.4 691.4 569.4 684.9 569.4 678.4C569.4 671.3 569.3 671.3 562 671.3C511.5 671.3 461 671.3 410.5 671.3C405 671.3 399.5 671.3 394 671.3C388.5 671.4 388.3 671.5 388.3 676.9C388.3 684.7 388.3 692.6 388.3 700.4C388.3 706.3 388.4 706.4 394.6 706.4C403.8 706.4 412.9 706.4 422.1 706.4C427.9 706.4 429.2 707.7 429.3 713.4C429.4 721.1 429.4 728.7 429.3 736.4C429.2 742 428.1 743.1 422.5 743.3C419.8 743.4 417.2 743.4 414.5 743.3C410.7 743.1 409.1 744.5 409.2 748.5C409.4 756.7 409.3 764.8 409.3 773C409.2 779.1 408.5 779.9 402.3 779.9C378.8 779.9 355.3 779.9 331.8 779.9C325 779.9 324.3 779.3 324.3 772.5C324.3 724.5 324.3 676.5 324.3 628.5C324.3 621.4 324.9 620.9 332 620.9C463.1 620.9 594.3 620.9 725.4 620.9C735.7 620.9 746.1 621 756.4 620.8C760.1 620.7 761.5 622 761.2 625.7C761 628.3 760.8 631 761.5 633.6C762.2 641.4 766.3 647.7 770.7 653.8C772.2 657.8 774.2 661.6 770 664.8Z" fill="#FEFEFE"/>
<path d="M853.9 813.3C852.7 815.2 853.1 816.5 855.4 816.8C856.7 817 858.1 816.9 859.4 816.9C890.2 816.9 921 816.9 951.7 816.9C953.5 816.9 955.3 817 957.2 817.1C958 817.7 958.9 818.3 959.1 819.3C960.2 823.2 963.2 823.3 966.6 823.5C982 824.5 997.5 824.9 1012.8 826.4C1013.8 826.5 1014.8 826.7 1015.7 827C1018.9 828.9 1016.4 830.8 1015.5 832.4C1009.9 842 1003.9 851.5 998 860.9C983.2 884.8 968.4 908.8 953.7 932.7C952.1 935.4 951.1 939.1 947 939.4C942.6 939.6 938.2 938.9 933.9 939.8C916.1 939.5 898.3 942.1 880.5 940C842.9 935.7 811.1 902.7 807.8 864.9C806.4 848.3 804.4 831.8 802.7 815.3C802.5 813.1 801.7 811.8 799.6 810.7C782.1 800.9 775.5 786.2 779.7 766.3C787.7 728.4 795.7 690.5 803.8 652.7C809.5 626 833.7 608.9 860.6 612.6C864.4 613.1 868.3 612.6 872 614C874.8 618.8 872.4 623.8 872 628.6C870.6 643.7 869.1 658.7 867.6 673.8C867.1 678.7 865.6 681.5 860.8 683.4C852.9 686.5 849.5 695 852.3 702.3C855.3 710 863.5 714.1 871 711.4C876.7 709.3 880.3 705.1 881.4 699C881.7 697.2 881.5 695.3 882.3 693.6C882.6 693 883.1 692.8 883.8 692.9C885.2 693.9 885.4 695.4 885.4 696.9C886.6 718.7 888.6 740.4 889.9 762.2C890 763 889.8 763.8 889.5 764.6C887.6 766.8 885 766.3 882.5 766.3C870.7 766.4 858.9 766.3 847.1 766.3C840.9 766.3 841 766.3 842.8 772.4C846.4 784.2 850 795.9 853.3 807.8C853.9 809.7 854.3 811.5 853.9 813.3Z" fill="#6DB5DE"/>
<path d="M829.8 994.1C827.5 1004.1 825.2 1014.1 822.9 1024.1C821.2 1026.6 818.6 1026.3 816.1 1026.3C804.9 1026.3 793.8 1026.3 782.6 1026.3C776.7 1026.3 776.4 1026.6 776.4 1032.5C776.4 1068.7 776.4 1104.8 776.4 1141C776.4 1141.7 776.4 1142.3 776.4 1143C776.4 1151.5 772.8 1154.1 764.5 1151.7C761.8 1150.9 761.6 1148.7 761.5 1146.6C761.4 1140.9 761.3 1135.3 761.5 1129.6C761.7 1125.7 760.4 1124.2 756.4 1124.3C749.9 1124.5 743.4 1124.5 736.9 1124.3C731.9 1124.2 730.7 1123 730.6 1118C730.5 1112 730.4 1106 730.6 1100C730.7 1095 732.2 1093.7 737.4 1093.4C738.6 1093.3 739.7 1093.3 740.9 1093.3C743.3 1093.3 744.6 1092.4 744.5 1089.8C744.4 1082.3 744.4 1074.8 744.5 1067.3C744.5 1064.2 743 1063.1 740.2 1063.3C739 1063.4 737.9 1063.3 736.7 1063.3C677.4 1063.3 618.1 1063.3 558.7 1063.3C551.4 1063.3 551.4 1063.3 551.4 1070.8C551.4 1076.6 551.4 1082.5 551.4 1088.3C551.4 1092.2 549.7 1094.4 545.7 1094.2C541.5 1094 540.2 1096 540.3 1100C540.5 1106.5 540.5 1113 540.3 1119.5C540.2 1123.1 541.3 1124.5 545.1 1124.5C555.3 1124.5 555.3 1124.7 555.3 1134.9C555.3 1139.1 555.4 1143.2 555.2 1147.4C555.1 1150.4 553.7 1152 550.5 1151.9C542 1151.9 533.5 1151.9 525 1151.9C521.5 1151.9 519.8 1150.2 519.5 1146.8C519.4 1145.5 519.4 1144.1 519.4 1142.8C519.4 1110.3 519.4 1077.8 519.4 1045.3C519.4 1037.2 519.8 1036.6 527.7 1036.5C531.2 1036.4 532.4 1035.1 532.4 1031.7C532.3 1019.8 533.3 1021.4 522.4 1021.4C468.1 1021.4 413.8 1021.4 359.4 1021.4C356.9 1021.4 353.3 1020 352.1 1022.9C350.5 1026.5 350.9 1030.8 351.9 1034.7C352.5 1036.9 354.9 1036.3 356.7 1036.4C363.4 1036.7 364.3 1037.5 364.3 1044C364.4 1077.3 364.4 1110.7 364.3 1144C364.3 1150.9 363.3 1151.9 356.6 1151.9C347.9 1151.9 339.3 1152 330.6 1151.9C325.4 1151.9 324.5 1151 324.5 1145.7C324.4 1134.2 324.5 1122.7 324.5 1111.2C324.5 1075 324.5 1038.9 324.5 1002.7C324.5 1000.9 324.4 999 324.6 997.2C324.9 994.5 326.1 992.9 329.1 992.9C330.6 992.9 332.1 992.9 333.6 992.9C496.6 992.9 659.5 992.9 822.5 992.9C825 993 827.6 992.2 829.8 994.1Z" fill="#FEFEFE"/>
<path d="M715 808C719.1 827.8 722.9 847.7 725.9 867.8C723.9 869.9 721.3 869.3 718.8 869.4C700.6 869.5 682.5 869.4 664.3 869.4C658.5 869.4 658.5 869.5 658.5 875.2C658.5 902.7 658.5 930.2 658.5 957.7C658.5 965.6 658.1 965.9 650.4 965.9C633.6 965.9 616.7 965.9 599.9 965.9C593.1 965.9 592.5 965.3 592.5 958.5C592.5 922.4 592.5 886.2 592.5 850.1C592.5 843.4 592.5 843.4 585.9 843.4C538.6 843.4 491.3 843.4 444 843.4C437.6 843.4 437.5 843.5 437.5 850.3C437.5 885.1 437.5 919.9 437.5 954.7C437.5 956.7 437.5 958.7 437.4 960.7C437.1 964 435.6 965.9 432 965.9C423.8 965.9 415.7 965.9 407.5 965.9C403.6 965.9 402.5 963.6 402.8 960.4C403.7 950.1 404 939.8 405.1 929.6C405.8 923.3 406 917 406.4 910.7C407.2 898.3 408.5 885.9 408.9 873.4C409 870.2 408.1 869.2 405.2 869.2C389.2 869.2 373.2 869.2 357.2 869.2C353.8 869.2 352.5 870.6 352.5 874C352.4 881.3 353.3 888.6 353.9 895.9C354.4 902.2 354.7 908.5 355.3 914.8C356.6 929 357.1 943.3 358.4 957.5C359.1 964.8 358 965.8 350.5 965.8C344 965.8 337.5 965.8 331 965.8C325.5 965.8 324.8 964.9 324.6 959.4C324.6 958.4 324.6 957.4 324.6 956.4C324.6 909.8 324.6 863.1 324.6 816.5C324.6 815 324.6 813.5 324.6 812C324.7 808.6 326.2 806.7 329.8 806.9C331 807 332.1 806.9 333.3 806.9C458.1 806.9 582.9 806.9 707.7 806.9C710.1 807 712.7 806.3 715 808Z" fill="#FEFEFE"/>
<path d="M948.1 939.1C957.4 924.2 966.8 909.3 976.1 894.3C989.7 872.3 1003.3 850.2 1016.9 828.1C1018.2 825.9 1020.5 825.9 1022.5 825.4C1027.8 824.1 1033.2 823 1038.6 821.9C1039.4 821.7 1040.2 821.6 1041 821.5C1050.7 819 1060.5 817.7 1070.6 817.3C1090.6 816.4 1107.9 831.7 1112.3 849.6C1116 864.6 1119.4 879.8 1122.9 894.8C1130.5 927.9 1138.4 961 1146 994.1C1146.4 996 1147.4 997.9 1146.1 999.9C1137.4 1003.1 1128.8 1006.7 1119.9 1009.5C1115.2 1011 1114 1013.4 1114.2 1018.1C1114.7 1030.4 1114.5 1042.7 1114.9 1055C1115 1059 1113.9 1060.5 1109.8 1060.9C1085.5 1063.4 1061.3 1066.3 1037 1068.8C1033.8 1069.1 1032.9 1070.1 1032.9 1073.3C1033 1086.1 1032.8 1098.9 1032.7 1111.7C1032.7 1113.5 1033.1 1115.4 1032.2 1117.1C1032.1 1102.7 1032 1088.4 1031.9 1074C1031.9 1073.2 1031.9 1072.5 1031.9 1071.7C1030.3 1069.7 1030.5 1067.3 1030.5 1065C1030.5 1036.2 1030.5 1007.4 1030.5 978.6C1030.5 976.6 1030.6 974.6 1031.3 972.7C1032.9 962.8 1031.7 952.8 1032 942.9C1032.1 939.7 1029.4 941 1027.9 940.9C1012.3 940.7 996.6 940.7 981 940.5C970 940.4 959.1 940.1 948.1 939.9C947.8 939.7 947.7 939.5 947.9 939.3C947.8 939.1 948 939.1 948.1 939.1Z" fill="#FD9993"/>
<path d="M848.1 564.2C838.8 571.6 827.8 574.2 816.2 575C807.6 575.6 799 576 791.1 580C784.7 583.2 779.8 588 774.9 593C773.6 593.8 772.1 593.9 770.6 593.9C759.1 593.9 747.6 593.8 736.1 594C732.1 594.1 730.9 592.4 730.9 588.6C731 559.8 731 531 730.9 502.2C730.9 498 732.8 496.5 736.6 496.5C761.7 496.5 786.9 496.4 812 496.5C817.1 496.5 818.2 497.8 818.3 503.3C818.4 521.8 818.3 540.3 818.3 558.8C818.3 560.5 818.1 562.2 818.4 563.8C819.5 570.5 824.7 566.6 828 567.4C830.6 568 833.4 567.7 833.4 563.6C833.3 557.4 833.4 551.3 833.4 545.1C833.4 531.4 833.4 517.8 833.4 504.1C833.4 501.5 833 498.3 836.1 497.2C839.7 495.9 843.6 495.9 847.3 497.4C848.7 498 848.8 499.5 848.8 500.8C848.8 521.1 848.9 541.4 848.7 561.8C848.9 562.8 848.5 563.5 848.1 564.2Z" fill="#FEFEFE"/>
<path d="M836.1 985.8C859.2 985.8 882.4 985.9 905.5 985.7C909.5 985.7 910.9 986.5 910.9 990.8C910.8 1055.2 910.8 1119.6 910.9 1184C910.9 1188.1 909.6 1188.9 905.8 1188.9C867.5 1188.8 829.2 1188.8 791 1188.8C793.4 1177.1 795.8 1165.4 798.1 1153.7C799.9 1151 802.7 1151.5 805.4 1151.5C829.9 1151.4 854.3 1151.5 878.8 1151.5C885.6 1151.5 885.6 1151.5 885.6 1144.5C885.6 1096.4 885.6 1048.3 885.6 1000.2C885.6 993.3 885.6 993.3 878.6 993.3C866 993.3 853.3 993.4 840.7 993.2C838.6 993.2 835.8 994 834.8 990.9C835.2 989.3 835.7 987.5 836.1 985.8Z" fill="#FEFEFE"/>
<path d="M914.869 556.934C918.269 561.934 920.769 567.834 926.269 571.134C928.569 572.334 930.269 574.834 933.369 574.134C935.869 573.934 937.569 575.334 938.969 577.134C941.469 578.234 943.969 579.234 946.569 580.334C951.469 580.834 956.369 581.734 960.169 585.234C961.569 586.434 963.169 587.534 965.169 586.934C966.069 586.834 966.569 587.234 966.369 588.234C968.469 594.534 974.469 597.734 982.069 595.534C985.869 594.434 988.169 595.434 990.869 597.734C995.569 601.634 1000.37 605.434 1005.17 609.234C1009.17 615.734 1011.87 622.834 1015.37 629.034C1013.97 624.434 1009.77 620.534 1009.57 614.934C1009.97 614.234 1010.37 613.734 1011.27 614.134C1017.27 618.834 1023.27 623.534 1029.37 628.134C1030.97 629.334 1031.47 630.234 1029.97 632.034C1012.97 653.734 996.069 675.434 979.169 697.234C976.769 695.734 976.469 693.134 975.769 690.834C970.869 674.534 965.969 658.334 959.569 642.634C956.369 634.834 950.769 629.434 943.469 625.634C940.369 623.934 938.469 624.534 938.169 628.434C937.169 638.034 936.069 647.634 935.369 657.234C935.169 659.634 936.169 660.734 938.369 661.534C950.969 665.834 954.669 671.434 953.369 684.734C952.069 697.934 950.669 711.234 949.369 724.434C949.169 726.534 948.969 728.834 946.369 729.634C944.469 728.734 944.069 726.834 943.469 725.134C936.869 706.434 930.669 687.634 924.069 668.934C922.569 664.834 920.969 660.834 927.069 659.034C927.769 658.834 927.969 657.734 928.269 656.934C929.069 646.734 929.869 636.534 930.869 626.434C931.169 623.534 929.869 622.134 927.069 621.734C925.469 621.534 923.869 621.034 922.169 620.834C918.669 620.734 915.269 620.134 911.969 619.234C909.469 617.134 911.169 614.734 912.069 612.934C914.169 608.734 912.869 606.334 909.269 603.834C903.669 600.134 899.469 594.834 895.769 589.334C894.769 587.834 893.569 586.334 894.069 584.334C892.469 581.434 890.869 578.634 889.369 575.734C888.669 574.334 887.269 573.034 888.469 571.234C889.669 569.434 890.869 570.434 892.069 571.234C894.969 574.034 895.969 577.934 898.069 581.234C901.169 586.134 901.469 586.134 905.869 582.634C909.269 579.934 912.369 577.034 915.069 573.634C917.069 571.134 917.669 569.134 915.369 566.734C913.769 565.034 912.869 562.834 911.469 560.934C907.969 556.734 904.969 552.134 901.769 547.734C901.069 546.234 900.169 544.734 901.969 543.434C904.269 542.134 905.069 544.034 906.169 545.434C908.869 549.234 911.869 553.034 914.869 556.934Z" fill="#FEFEFE"/>
<path d="M827.1 1024.9C828.6 1014.4 831.4 1004.2 834.1 994C835.5 992.7 837.2 993 838.9 993C852.7 993 866.5 993 880.4 993C885.7 993 886.1 993.4 886.1 998.7C886.1 1047.6 886.1 1096.6 886.1 1145.5C886.1 1151 885.2 1151.9 879.7 1151.9C867.4 1152 855.1 1152 842.7 1151.9C837.6 1151.9 836.7 1150.9 836.6 1145.7C836.5 1135.4 836.6 1125.1 836.6 1114.7C836.6 1087.4 836.6 1060.1 836.6 1032.8C836.6 1027 836.6 1027 830.8 1026.3C829.3 1026.1 828 1025.9 827.1 1024.9Z" fill="#FEFEFE"/>
<path d="M726.6 870.1C729.5 885.2 731.8 900.5 735.4 915.4C740 934.1 750 949.7 764.7 962.3C765.6 963 766.2 964 767 964.9C765.5 966.4 763.6 966 761.8 966C729.5 966 697.2 966 665 966C659.4 966 658.6 965.2 658.6 959.7C658.5 931.6 658.5 903.5 658.6 875.4C658.6 869.9 659.4 869.1 665 869.1C683.8 869.1 702.6 869.1 721.4 869.1C723.2 869 725.1 868.7 726.6 870.1Z" fill="#FEFEFE"/>
<path d="M848.1 564.2C848 546.9 847.9 529.6 847.8 512.3C847.8 510 847.8 507.6 847.8 505.3C847.7 497 848.9 498.5 840.7 498C836 497.7 834.5 498.9 834.5 503.9C834.8 523.7 834.5 543.5 834.7 563.4C834.7 567.3 833.9 569 829.5 568.9C816.8 568.7 816.8 568.9 816.8 556.4C816.8 538.4 816.7 520.4 816.9 502.4C816.9 498.8 815.8 497.9 812.4 498C787.1 498.1 761.8 498.1 736.5 498C733.1 498 731.9 498.7 732 502.4C732.1 531.2 732.2 560 732 588.8C732 592.4 733.2 593.2 736.5 593.1C749.3 592.9 762.1 593 775 593C774.7 594 774 594.7 773 595.1C770.8 595.1 768.7 595.2 766.5 595.2C648.9 595.2 531.2 595.2 413.6 595.2C385.3 595.2 357 595.1 328.6 595.3C324.4 595.3 323.3 594 323.3 589.9C323.4 539.8 323.4 489.6 323.3 439.5C323.3 435.4 324.4 434.1 328.6 434.1C513 434.2 697.5 434.2 881.9 434.1C885.8 434.1 887 435 887 439.1C886.8 465.4 887 491.7 887 518.1C886.7 519.2 885.9 519.7 885 520.1C884.9 495.6 884.8 471.1 884.7 446.6C884.7 436.7 884.7 436.7 874.7 436.7C694.1 436.7 513.4 436.7 332.8 436.7C324.9 436.7 325.8 435.8 325.8 443.6C325.8 491.6 325.9 539.6 325.7 587.6C325.7 592.3 327.1 593.3 331.5 593.3C351.3 593.1 371.2 593.2 391 593.2C391.2 591.4 389.6 591.5 388.8 591C367.6 577.5 368 548 389.8 535.3C392.2 533.9 392.9 532.4 392.9 529.8C392.8 517 392.9 504.1 392.8 491.3C392.8 488.1 393.6 486.8 397 487C403.2 487.2 409.3 487.3 415.5 487C419.2 486.8 419.9 488.3 419.9 491.6C419.7 504.4 419.9 517.3 419.8 530.1C419.8 532.5 420.1 534.3 422.5 536C444.3 551 443 578.9 419.2 592.9C459.4 592.9 498.8 592.9 538.5 592.9C536 589 536.2 584.5 536.2 580C536.2 563.3 536.2 546.7 536.2 530C536.2 523.2 534.2 521.2 527.6 521.2C524 521.2 520.3 521 516.7 520.8C516.5 520.8 516.4 520.3 516 519.6C519.8 517.7 523.8 518.8 527.6 518.7C534.3 518.5 536.2 516.9 536.2 510.3C536.2 502.6 536.2 502.6 544.2 502.6C544.5 502.6 544.9 502.6 545.2 502.6C554 502.6 554.3 502.6 554 511.2C553.9 514.5 556.1 515.9 557.5 517.9C558.7 519.7 563.2 516.6 563.8 513.4C563.9 512.8 563.8 512.1 563.9 511.4C564.1 502.7 564.1 502.7 572.7 502.7C574.4 502.7 576 502.8 577.7 502.7C580.8 502.5 581.6 504 581.8 506.9C581.9 509.7 580.4 513 583 515.4C584.2 516.5 584.2 519.6 586.8 518.5C588.8 517.6 590.2 515.7 591 513.5C591.3 512.8 591.1 511.9 591.1 511C591.2 502.7 591.2 502.7 599.8 502.7C600.3 502.7 600.8 502.7 601.3 502.7C610.3 502.7 609 502.4 609.1 510.5C609.2 516.6 611.3 518.6 617.4 518.7C619.8 518.8 622.4 517.8 624.7 520C622.6 522.3 620 521.2 617.7 521.2C611.6 521.4 609.2 523.6 609.2 529.7C609.2 547.4 609.2 565 609.2 582.7C609.2 586.2 609.3 589.7 606.8 592.6C608.4 593.9 609.9 593.4 611.3 593.4C649.1 593.4 687 593.4 724.8 593.5C728.9 593.5 730.1 592.5 730.1 588.3C729.9 551 730.1 513.7 729.9 476.3C729.9 471.9 730.7 470.3 735.6 470.4C771.8 470.6 807.9 470.6 844.1 470.4C848.8 470.4 850.3 471.4 850.3 476.4C850.1 505.4 850.2 534.4 850.3 563.4C849.7 563.9 848.9 564.1 848.1 564.2Z" fill="#5983AF"/>
<path d="M829.8 994.1C827.8 994.1 825.8 994 823.8 994C660 994 496.2 994 332.4 994C325.1 994 326 993 326 1000.3C326 1048.6 326 1096.9 325.9 1145.3C325.9 1149.7 326.9 1151 331.4 1150.9C340.4 1150.5 349.4 1150.7 358.4 1150.8C361.7 1150.9 363.1 1150.1 363.1 1146.4C363 1111.6 363 1076.7 363.1 1041.9C363.1 1038.8 362.4 1037.1 358.9 1037.6C357.3 1037.8 355.6 1037.6 353.9 1037.6C351.6 1037.7 350.5 1036.7 350.5 1034.4C350.5 1030.9 350.6 1027.4 350.4 1023.9C350.3 1021.3 351.5 1020.3 354 1020.3C355.2 1020.3 356.3 1020.3 357.5 1020.3C414.2 1020.3 470.8 1020.3 527.5 1020.3C534 1020.3 534 1020.3 534 1026.9C534 1027.4 534 1027.9 534 1028.4C534 1037.3 534 1037.4 525.2 1037.6C522 1037.7 521.3 1038.9 521.3 1041.8C521.4 1076.8 521.4 1111.8 521.3 1146.8C521.3 1149.8 522.2 1150.9 525.3 1150.9C533.8 1150.7 542.3 1150.8 550.8 1150.9C553.4 1150.9 554.3 1150 554.2 1147.4C554.1 1141.4 554.1 1135.4 554.2 1129.4C554.3 1126.9 553.5 1125.9 550.8 1125.9C547 1125.9 542.1 1127.6 539.7 1125.1C537 1122.2 538.9 1117.2 538.8 1113C538.6 1107.8 538.9 1102.7 538.7 1097.5C538.5 1094.1 539.6 1092.9 543.2 1093C549.9 1093.2 549.9 1093 549.9 1086.5C549.9 1080 550.1 1073.5 549.8 1067C549.6 1063.2 550.9 1062.2 554.6 1062.2C571.8 1062.4 588.9 1062.3 606.1 1062.3C650.4 1062.3 694.8 1062.3 739.1 1062.3C745.8 1062.3 745.8 1062.3 745.8 1069.2C745.8 1076.4 745.6 1083.5 745.9 1090.7C746 1094.1 745 1095.3 741.4 1095.3C732.3 1095.2 732.3 1095.4 732.3 1104.6C732.3 1109.4 732.5 1114.3 732.2 1119.1C732 1122.7 733.4 1123.6 736.8 1123.5C744 1123.3 751.1 1123.6 758.3 1123.4C761.7 1123.3 763.1 1124.4 762.9 1127.9C762.7 1134.1 763 1140.2 762.8 1146.4C762.7 1149.9 763.8 1151.3 767.3 1150.8C768.1 1150.7 769 1150.7 769.8 1150.8C773.9 1151.5 775.1 1149.9 775.1 1145.7C774.9 1107.5 775 1069.4 775 1031.2C775 1024.9 775 1024.9 781.5 1024.9C793.5 1024.9 805.5 1024.9 817.5 1024.9C819.3 1024.9 821.2 1025.2 822.9 1024.2C822.6 1025.2 822.3 1026.1 822 1027.1C819.9 1028.9 817.3 1028.6 814.9 1028.6C804.7 1028.7 794.6 1028.6 784.4 1028.6C779.2 1028.6 778.7 1029.1 778.7 1034.4C778.6 1042.9 778.8 1051.4 778.6 1059.9C778.5 1063.9 780 1065.6 784.1 1065.5C791.6 1065.3 799.1 1065.4 806.6 1065.5C808.9 1065.5 811.3 1065.3 813.1 1067.3C812.9 1068.9 813.5 1070.6 812.2 1072C803.1 1071.5 793.9 1071.7 784.8 1071.7C779.2 1071.7 778.7 1072.2 778.7 1077.6C778.6 1099.5 778.6 1121.5 778.7 1143.4C778.7 1148.8 779.4 1149.3 784.7 1149.6C788.1 1149.8 791.7 1148.7 794.9 1151C794.8 1152 795.4 1153.2 794.4 1154.1C792.6 1152.3 790.3 1153.2 788.2 1153.2C635.6 1153.2 482.9 1153.2 330.3 1153.2C323.6 1153.2 323.6 1153.2 323.6 1146.4C323.6 1096.9 323.7 1047.4 323.5 997.9C323.5 993.4 324.6 992 329.3 992C494.9 992.1 660.6 992.1 826.2 992.1C827.5 992.1 828.9 992.2 830.2 992.2C830 992.7 829.9 993.4 829.8 994.1Z" fill="#5982AF"/>
<path d="M761.8 633.8C760.4 631.7 760.6 629.2 761 627C761.7 622.7 759.8 622.1 756.1 622.1C614.5 622.2 472.8 622.2 331.2 622.1C327.2 622.1 325.8 622.9 325.8 627.2C326 676.2 325.9 725.2 325.8 774.2C325.8 777.8 326.5 779 330.4 779C354.9 778.8 379.4 778.8 403.9 779C407.5 779 408.4 777.9 408.3 774.5C408.1 765.3 408.4 756.2 408.2 747C408.1 743.2 409 741.4 413.2 741.8C416.8 742.2 420.5 741.7 424.2 741.9C427.1 742.1 428.4 741.4 428.3 738.1C428.1 729.3 428.1 720.4 428.3 711.6C428.4 708.3 427.2 707.4 424 707.4C413.3 707.6 402.7 707.3 392 707.5C388.3 707.6 387.1 706.4 387.2 702.6C387.4 693.1 387.4 683.6 387.2 674.1C387.1 670.8 387.9 669.4 391.6 669.4C450.1 669.5 508.6 669.5 567.1 669.4C570.8 669.4 571.5 670.8 571.4 674.1C571.2 682.1 571.3 690.1 571.3 698.1C571.3 705.9 570.4 704.8 578.3 704.9C588.1 705 598 705 607.8 704.9C610.8 704.9 612.3 705.4 612.2 708.9C612 718.9 612 728.9 612.2 738.9C612.2 741.9 611.4 743.1 608.3 742.9C604.3 742.7 600.3 742.9 596.3 742.8C593.9 742.7 592.6 743.3 592.6 746.1C592.7 755.9 592.8 765.8 592.6 775.6C592.5 779 594.5 778.8 596.8 778.8C613 778.8 629.1 778.8 645.3 778.8C666.8 778.8 688.3 778.7 709.8 778.7C709.9 779.4 709.9 780.2 710 780.9C592.5 780.9 475.1 780.9 357.6 781C347.8 781 337.9 780.9 328.1 781.1C324.7 781.2 323.4 780.3 323.4 776.7C323.5 725.9 323.5 675.1 323.4 624.3C323.4 619.5 326 620 329.1 620C451.1 620 573 620 695 620C717.3 620 739.7 620 762 620C761.9 624.6 761.9 629.2 761.8 633.8Z" fill="#5982AF"/>
<path d="M726.6 870.1C705.5 870 684.4 870 663.2 869.9C660.3 869.9 659.5 870.9 659.6 873.7C659.7 902.8 659.7 931.9 659.6 961C659.6 965.2 661.9 964.9 664.7 964.9C698.8 964.9 732.9 964.9 767 964.9C768.4 965.1 769.2 966 770 966.9C767.8 966.9 765.7 967 763.5 967C619 967 474.6 967 330.1 967C323.4 967 323.3 967 323.3 960.3C323.3 911 323.3 861.7 323.3 812.4C323.3 806 323.3 806 329.8 806C456.1 806 582.4 806 708.7 805.9C710.7 805.9 714.1 807.5 714.1 803.2C715.5 804.7 714.7 806.5 714.8 808.1C587.2 808.1 459.6 808.1 331.9 808C326.9 808 325.6 809.1 325.6 814.2C325.8 862.7 325.8 911.2 325.6 959.6C325.6 963.7 326.6 965.1 330.8 964.9C338.1 964.5 345.5 964.7 352.8 964.9C356.1 965 357.1 964 356.9 960.7C355.3 939.6 353.8 918.5 352.3 897.4C351.7 888.8 351.3 880.1 350.6 871.5C350.4 868.7 351.3 867.7 354.2 867.7C371.9 867.8 389.5 867.8 407.2 867.7C410.3 867.7 410.6 869 410.4 871.7C408.4 898.4 406.6 925.2 404.8 951.9C404.6 955.1 404.3 958.2 404 961.3C403.7 963.8 404.4 964.9 407.2 964.9C415.4 964.8 423.5 964.7 431.7 964.9C435.3 965 435.8 963.4 435.8 960.4C435.7 943.1 435.8 925.7 435.8 908.4C435.8 888.1 435.9 867.7 435.7 847.4C435.6 842.9 437 841.9 441.3 841.9C490.1 842.1 538.9 842.1 587.8 841.9C592.8 841.9 593.8 843.5 593.8 848.1C593.6 885.1 593.8 922.1 593.6 959.1C593.6 963.7 594.7 965 599.4 964.9C616.9 964.6 634.4 964.6 651.9 964.9C656.5 965 657.3 963.5 657.3 959.3C657.1 930.3 657.2 901.3 657.1 872.3C657.1 869 657.7 867.6 661.4 867.6C682.9 867.8 704.4 867.7 725.9 867.8C726.1 868.6 726.4 869.3 726.6 870.1Z" fill="#5982AF"/>
<path d="M1031.2 972.7C1031.4 973.6 1031.9 974.6 1031.9 975.5C1031.9 1007.5 1031.8 1039.6 1031.8 1071.6C1017.8 1071.6 1003.8 1071.6 989.8 1071.7C987.1 1071.7 986 1071 986 1068.1C986.1 1041.8 986.1 1015.4 986 989.1C986 986.4 987 985.7 989.5 985.7C993.3 985.6 997.1 986.5 1000.8 985.1C1011.2 984.6 1020.3 981 1028.2 974.2C1029.1 973.5 1029.9 972.7 1031.2 972.7Z" fill="#FEFEFE"/>
<path d="M799.2 1150.7C803 1132.9 806.7 1115.1 810.6 1097.3C812.6 1088.1 814.8 1079 816.9 1069.8C822.1 1067.3 827.6 1068.4 833 1068.9C836.1 1069.2 836.4 1072.1 836.5 1074.7C836.6 1080.8 836.5 1087 836.5 1093.1C836.5 1110 836.5 1127 836.5 1143.9C836.5 1151.5 836.1 1151.9 828.8 1151.9C820.7 1151.9 812.5 1151.9 804.4 1151.9C802.6 1151.9 800.6 1152.3 799.2 1150.7Z" fill="#FEFEFE"/>
<path d="M794.8 1150.8C790.2 1150.8 785.5 1150.6 780.9 1150.8C778.1 1150.9 777.2 1149.8 777.2 1147C777.3 1122.4 777.3 1097.9 777.2 1073.3C777.2 1071.2 777.5 1069.8 780.1 1069.8C789.9 1069.9 799.7 1069.9 809.5 1069.8C811 1069.8 812.1 1070.1 812.2 1071.8C806.4 1098.1 800.6 1124.4 794.8 1150.8Z" fill="#FEFEFE"/>
<path d="M813.1 1067.2C802.4 1067.2 791.8 1067.2 781.1 1067.4C778 1067.5 777.1 1066.4 777.1 1063.4C777.2 1052.7 777.3 1042.1 777.1 1031.4C777 1027.9 778 1026.8 781.5 1026.9C795 1027.1 808.5 1027 822 1027C819 1040.4 816 1053.8 813.1 1067.2Z" fill="#FEFEFE"/>
<path d="M799.2 1150.7C809.8 1150.7 820.5 1150.6 831.1 1150.7C834.1 1150.7 835.1 1149.8 835.1 1146.8C835 1122.3 835 1097.9 835.1 1073.4C835.1 1070.5 834.2 1069.6 831.4 1069.8C826.6 1070 821.8 1069.8 816.9 1069.8C817.1 1068.2 816.3 1066.4 817.7 1065C821.5 1065.3 825.3 1065.5 829.2 1065.4C832.1 1065.3 833.5 1064.1 833.5 1061.2C833.6 1051.7 833.5 1042.2 833.5 1032.8C833.5 1030.3 832.7 1028.6 829.9 1028.4C828.6 1028.3 827.2 1028.1 826.3 1027C826.6 1026.3 826.9 1025.5 827.1 1024.8C837.7 1024.6 837.7 1024.6 837.7 1035.1C837.7 1071.6 837.8 1108 837.6 1144.5C837.6 1149.2 838.5 1150.9 843.5 1150.7C855.8 1150.3 868.1 1150.5 880.5 1150.6C883.7 1150.6 884.8 1149.6 884.8 1146.3C884.7 1096.8 884.7 1047.4 884.8 997.9C884.8 994.6 883.8 993.7 880.6 993.7C865.1 993.9 849.6 993.8 834.1 993.8C834.2 992.8 833.8 991.6 834.8 990.8C836.4 992.2 838.3 991.6 840.1 991.6C854.3 991.7 868.4 991.7 882.6 991.6C886.1 991.6 887.1 992.6 887.1 996.1C887 1046.9 887 1097.7 887.1 1148.5C887.1 1152.2 885.8 1152.9 882.5 1152.9C856.4 1152.8 830.2 1152.8 804.1 1152.9C802.1 1152.9 800.1 1152.4 798.3 1153.8C798.5 1152.8 798.9 1151.8 799.2 1150.7Z" fill="#5D86B1"/>
<path d="M894.8 583.9C899.4 592.1 905.4 599.1 913.2 604.4C915.8 606.2 916.4 607.7 914.9 610.5C913.7 612.8 912.9 615.3 911.9 617.8C911.2 619 910 619.2 908.9 619.1C898.9 618.1 888.9 617.5 879 615.6C878.5 615.4 877.9 615.1 877.5 614.8C877.3 614.6 877.1 614.3 877 614.1C879.5 608.5 882.2 603 884.4 597.3C886.5 591.6 889.4 586.8 894.8 583.9Z" fill="#FD9993"/>
<path d="M882.9 694.4C884.6 708.5 870.2 718.2 858.6 711.6C852.4 708.1 849.5 702.5 850.1 695.3C850.6 688.9 855.4 683.2 861.9 681.3C863.8 680.7 865.7 680.8 866 677.9C868 656.6 870.1 635.2 872.1 613.9C873.7 612.2 875.4 612.8 877 613.9L876.9 614C878.8 618.5 877.3 623.1 876.9 627.6C875.5 643.3 873.8 659.1 872.3 674.8C872 678.2 872.7 680.3 875.9 682.1C880.3 684.8 883.4 688.7 882.9 694.4Z" fill="#FDFEFE"/>
<path d="M826.2 1027C835 1026.8 835 1026.8 835 1035.8C835 1044.6 834.8 1053.4 835.1 1062.2C835.3 1066.5 833.8 1067.8 829.7 1067.3C826.9 1067 824.1 1067.2 821.2 1067.2C819.5 1067.2 817.8 1067.3 817.6 1064.9C820.6 1052.3 823.4 1039.7 826.2 1027Z" fill="#FEFEFE"/>
<path d="M902.7 543.1C901.9 544.4 902.9 545.5 903 546.7C900.5 555.3 897.7 563.8 891.9 570.9C891 570.1 890.1 570.5 889.1 570.8C887.7 569.2 886.2 567.7 884.8 566C881 561.4 878.7 556.3 881.3 550.5C883.9 544.7 889.2 542.8 895.1 542.6C897.8 542.6 900.2 543 902.7 543.1Z" fill="#FC9993"/>
<path d="M770 664.8C771.8 661.3 770.4 657.6 771 654.1C774.3 656.9 777.6 659.7 781 662.6C777.4 664.3 773.6 663.9 770 664.8Z" fill="#E6E9EC"/>
<path d="M948.1 939.1C948.1 939.4 948 939.7 948 939.9C943.3 940.2 938.7 940.3 934 939.8C938.6 938.2 943.4 939.2 948.1 939.1Z" fill="#B0A8BB"/>
<path d="M1146 999.9C1138 965.7 1130 931.4 1122 897.2C1118.4 881.9 1115 866.5 1111.2 851.2C1105.2 827.1 1082.9 813.5 1058.6 819C1052.8 820.3 1046.9 821.5 1041.1 822.7C1039.4 820.8 1039.5 818.9 1041.1 817C1068.4 816.9 1095.7 816.9 1123.1 816.8C1142.8 816.8 1162.4 816.8 1182.1 816.8C1203.6 816.8 1218 831.3 1218 852.9C1218 914.9 1218 976.9 1218 1038.8C1218 1040.5 1217.9 1042.1 1217.9 1043.8C1216.3 1045.4 1214.3 1045.3 1212.3 1045.3C1196 1045.3 1179.7 1045.3 1163.4 1045.3C1161.6 1045.3 1159.7 1045.4 1158.2 1044.1C1155.2 1030.5 1152.1 1016.9 1149.1 1003.3C1148.6 1001.7 1148.8 999.6 1146 999.9Z" fill="#FEFEFE"/>
<path d="M1217.8 1047C1217.8 1068.6 1217.8 1090.2 1217.8 1111.8C1202.2 1105.3 1186.7 1098.8 1171.1 1092.3C1169.5 1091.7 1168.3 1091.1 1167.9 1089.1C1165 1075 1161.9 1060.9 1158.9 1046.8C1160.5 1045.3 1162.6 1045.5 1164.5 1045.5C1180.4 1045.5 1196.3 1045.5 1212.3 1045.5C1214.2 1045.5 1216.2 1045.3 1217.8 1047Z" fill="#FEFEFE"/>
<path d="M1217.8 1047C1198.1 1047 1178.5 1046.9 1158.8 1046.9C1157.9 1046.2 1158 1045.2 1158.1 1044.3C1178 1044.2 1197.9 1044.1 1217.8 1044C1217.8 1045 1217.8 1046 1217.8 1047Z" fill="#5881AE"/>
<path d="M1114.2 1115.7C1114.2 1107.5 1114.2 1099.3 1114.2 1091.1C1114.4 1091.1 1114.5 1091.1 1114.7 1091.1C1114.7 1099.4 1114.7 1107.6 1114.7 1115.9C1114.5 1115.8 1114.4 1115.8 1114.2 1115.7Z" fill="#A84D22"/>
<path d="M1063.9 747.8C1065.9 747.9 1067.9 748 1069.9 748C1174.7 748 1279.4 748.2 1384.2 747.8C1399 747.8 1406.9 756.6 1406.9 770.4C1406.6 859.7 1406.7 949 1406.9 1038.2C1406.9 1042.9 1405.9 1044.4 1401 1044.3C1342.9 1044.1 1284.7 1044.2 1226.6 1044.2C1225.1 1044.2 1223.6 1044.1 1222.1 1044.1C1222 1031.3 1221.9 1018.4 1221.9 1005.6C1221.9 955.3 1221.9 905 1221.9 854.6C1221.9 828.7 1206.1 813.1 1180.1 813.1C1150.3 813.1 1120.4 813.1 1090.6 813.1C1088.8 813.1 1087 813.1 1085.3 813.1C1084.9 811.7 1085.9 811 1086.3 810.2C1089.3 803.5 1085.4 797.2 1077.9 797.1C1069.9 797 1061.9 796.9 1053.9 797.1C1051 797.2 1050.3 796.2 1050.3 793.4C1050.4 780.2 1050.5 767.1 1050.3 753.9C1050.2 749.5 1051.8 747.8 1056 747.9C1058.5 748 1061.2 747.8 1063.9 747.8Z" fill="#FEFEFE"/>
<path d="M1255.9 1147.1C1253.1 1134.1 1246.4 1124.2 1233.9 1118.7C1230 1117 1226 1115.4 1222 1113.8C1222 1091.5 1222 1069.1 1221.9 1046.8C1268.9 1046.8 1315.8 1046.7 1362.8 1046.7C1375.8 1046.7 1388.8 1046.8 1401.8 1046.6C1405.3 1046.6 1406.8 1047.2 1406.8 1051.2C1406.6 1076.7 1406.8 1102.2 1406.7 1127.6C1406.7 1139.8 1399.1 1147.6 1387.3 1147.6C1344.8 1147.7 1302.4 1147.6 1259.9 1147.6C1258.5 1147.7 1257.2 1147.3 1255.9 1147.1Z" fill="#FEFEFE"/>
<path d="M853.9 813.3C848.4 798.4 844.8 782.9 839.9 767.8C838.8 764.4 841 764.8 843 764.8C856.3 764.8 869.6 764.8 882.8 764.8C884.8 764.8 886.8 764.6 888.8 764.5C890.6 763.5 892.6 763.5 894.6 763.5C898.4 763.5 902.3 763.3 906.1 763.5C922.6 764.7 938.6 762.5 953.8 755.9C960.3 753.9 966.8 751.8 973.3 749.9C975.2 749.3 977.1 748.5 979.1 749.1C981.3 748.5 983.6 747.9 985.8 747.3C990.9 745.9 995.3 747.4 996.2 751.3C997.2 755.9 993.4 757.3 990.3 759.2C984 763 977.2 761.7 970.5 761.9C969 762 967.5 761.9 966 761.9C964.4 761.9 962.9 762.2 962.9 764.3C962.9 766.1 964.3 766.4 965.7 766.4C970.2 766.4 974.7 766.6 979.2 766.3C993.3 765.2 1007 767.5 1020.6 771.1C1025.9 772.5 1028.8 776.9 1031.1 782.1C1023.5 782.1 1016.3 782.1 1009.1 782.1C1006.3 782.1 1003.4 782 1000.6 782C999 782 996.9 781.6 996.7 784C996.5 786.7 998.9 786.5 1000.6 786.6C1009.6 786.8 1018.6 787.1 1027.6 787C1031 787 1032.2 787.8 1032 791.4C1031.9 794.5 1030.9 795.3 1027.9 795.2C1019.1 794.9 1010.3 794.8 1001.4 794.8C999.5 794.8 996.4 793.7 996.4 797C996.4 799.8 999.3 799.1 1001.2 799.1C1011 799.2 1020.8 799.1 1030.9 799.1C1028.2 809 1023.2 813 1014.4 813C962.9 813 911.4 813 860 813C857.9 813.1 855.9 813.2 853.9 813.3Z" fill="#FD9993"/>
<path d="M979.2 749.1C971.4 752.3 963.3 754.5 955.2 756.8C954.2 756.2 953.5 755.2 953.3 754C951.5 745.7 949 737.5 947.4 729.2C950.1 725.5 949 721.1 949.5 717.1C951 705.1 952.3 693 953.1 680.9C953.8 670.2 949 664.1 938.5 662.4C934.5 661.8 934.4 660.5 934.8 657C936.2 646.5 937.1 635.9 938 625.3C938.2 622.3 939 621.6 941.9 622.7C951.3 626.1 958 632.3 961.8 641.7C969.1 659.7 974.6 678.4 980.2 697C979.3 698.7 979.3 700.5 979.3 702.3C979.2 717.9 979.2 733.5 979.2 749.1Z" fill="#6DB5DE"/>
<path d="M939.8 577.1C937.4 577 935.9 575.4 934.2 574.1C930.9 569.3 927.5 564.6 928.7 558.2C930.2 549.6 938 543.3 946.5 544.2C955.3 545.2 961.6 552.4 961.4 561.2C961.2 569.9 954.2 576.9 945.4 577.1C943.5 577.1 941.6 577.1 939.8 577.1Z" fill="#FD9993"/>
<path d="M1038.9 823C1031.6 824.7 1024.2 826.4 1016.9 828.1C999 827 981.1 825.7 963.2 825.1C956.9 824.9 959 819.9 957.3 817.1C984.5 817.1 1011.7 817.1 1038.9 817.1C1040.4 819.1 1040.3 821 1038.9 823Z" fill="#FEFEFE"/>
<path d="M982.7 559.7C986.2 560.1 988.9 561.9 991.2 564.3C995.6 568.9 995.7 570.9 991.8 575.9C988.5 580.2 984.8 584.3 981.9 588.9C979.7 592.5 977.4 592.5 974.2 591.2C972.2 590.4 970.1 589.9 968.8 588.1C968.3 583.3 971 579.4 972.2 575C973.2 573.2 973.8 571.3 974 569.3C974.3 567.7 974.8 566.1 975.2 564.5C976.2 560.6 978.4 558.6 982.7 559.7Z" fill="#FEFEFE"/>
<path d="M982.7 559.7C979.1 559.3 977.2 560.8 976.7 564.5C976.4 566.4 975.5 568.3 974.9 570.1C973.7 570.8 971.6 569.8 971 571.6C970.3 573.5 972.6 573.8 973.2 575C972.4 579.6 970.7 583.9 968.9 588.1C968.4 588.1 967.8 588.1 967.3 588.1C966.9 587.7 966.5 587.2 966.1 586.8C966.5 584.9 964.9 583.8 964.3 582.3C961.9 576.1 962.4 570.1 966.9 565C970.9 560.4 976.2 557.9 982.7 559.7Z" fill="#FB9893"/>
<path d="M1010.8 615.1C1013.5 620.9 1016.2 626.6 1019 632.4C1018.5 632.7 1017.9 632.9 1017.4 633.2C1013.3 625.3 1008.4 617.8 1006 609.1C1007.3 610 1008.6 611 1009.9 611.9C1010.4 612.9 1010.6 614 1010.8 615.1Z" fill="#6188B1"/>
<path d="M961 585.2C956.5 583.6 951.9 581.9 947.4 580.3C951.8 580.7 955.1 578.1 958.6 576C959.4 579.2 960.2 582.2 961 585.2Z" fill="#F89893"/>
<path d="M1038.9 823C1038.9 821.1 1038.9 819.1 1038.9 817.2C1039.6 817.2 1040.4 817.2 1041.1 817.2C1041.1 819.1 1041.1 821 1041.1 822.9C1040.3 822.8 1039.6 822.9 1038.9 823Z" fill="#5882AE"/>
<path d="M1010.8 615.1C1010 614.2 1009 613.3 1009.8 611.9C1010.5 612.6 1011.3 613.2 1012 613.9C1011.7 614.3 1011.3 614.7 1010.8 615.1Z" fill="#BFCFDF"/>
<path d="M1408.9 1021.9C1408.9 1007.1 1409 992.3 1408.8 977.5C1408.8 974.2 1409.3 972.8 1413.1 972.9C1427.7 973.1 1442.4 973.1 1457 972.9C1460.1 972.9 1461.4 973.5 1461.3 977C1461.2 1007.1 1461.2 1037.2 1461.3 1067.4C1461.3 1070.5 1460.7 1071.9 1457.2 1071.8C1442.4 1071.6 1427.6 1071.6 1412.8 1071.8C1409.2 1071.8 1408.8 1070.3 1408.8 1067.4C1408.9 1052.2 1408.9 1037 1408.9 1021.9Z" fill="#FEFEFE"/>
<path d="M1345.9 1189.9C1338.6 1189.9 1331.3 1189.8 1323.9 1190C1320.8 1190.1 1319.5 1189.4 1319.6 1185.9C1319.8 1175.3 1319.8 1164.6 1319.6 1154C1319.5 1150.6 1320.8 1149.9 1323.9 1149.9C1338.5 1150 1353.2 1150 1367.8 1149.9C1370.9 1149.9 1372.2 1150.6 1372.1 1154C1371.9 1164.6 1371.9 1175.3 1372.1 1185.9C1372.2 1189.3 1370.9 1190.1 1367.8 1190C1360.6 1189.8 1353.2 1189.9 1345.9 1189.9Z" fill="#FEFEFE"/>
<path d="M1344.8 367.1C1344.8 424.2 1344.7 481.4 1344.9 538.5C1344.9 543 1343.7 544 1339.3 544C1257.3 543.9 1175.4 543.9 1093.4 544C1088.8 544 1088 542.6 1088 538.4C1088.1 424.1 1088.1 309.8 1088 195.5C1088 190.9 1089.3 189.7 1093.8 189.7C1175.6 189.8 1257.4 189.8 1339.2 189.7C1344 189.7 1344.9 191.2 1344.9 195.6C1344.8 252.8 1344.8 309.9 1344.8 367.1Z" fill="#FEFEFE"/>
<path d="M605.2 409.8C513.4 409.8 421.6 409.8 329.7 409.9C324.7 409.9 323.2 408.7 323.3 403.5C323.5 369.2 323.4 334.8 323.4 300.5C323.4 269.8 344.9 248.2 375.6 248.2C528.6 248.2 681.6 248.2 834.5 248.2C865.6 248.2 887 269.5 887 300.6C887 335.1 886.9 369.6 887.1 404.1C887.1 408.9 885.6 409.9 881.2 409.9C789.1 409.8 697.1 409.8 605.2 409.8Z" fill="#5B84B0"/>
<path d="M947.4 729.3C948.6 730.4 949.5 731.6 949.8 733.3C951.6 741.2 953.4 749.1 955.2 756.9C942.3 761.9 929.4 766 915.2 765C906.5 764.3 897.6 764.7 888.8 764.6C887.2 742.9 885.6 721.2 883.9 699.5C883.7 697.2 883.4 694.9 883.1 692.6C880.5 687.7 881 682.3 880.7 677.1C879.6 657.9 877.6 638.8 877.2 619.6C877.2 617.9 877 616 878.1 614.4C889.4 615.5 900.6 616.6 911.9 617.7C915.6 618.2 919.2 618.7 922.9 619.2C923.6 619.9 924.4 620.6 924.6 621.6C927.4 633.1 931.5 644.5 930.2 656.7C930.6 661 928.5 662.3 923.7 660.7C931.8 684 939.6 706.6 947.4 729.3Z" fill="black"/>
<path d="M878.2 614.4C879.9 639.3 881.6 664.2 883.2 689.1C883.3 690.3 883.2 691.4 883.2 692.6C883.1 693.2 882.9 693.8 882.8 694.4C881.1 688.6 878.1 683.9 872 681.8C870.5 681.3 870.1 680.2 870.3 678.7C872.1 661.6 873.9 644.5 875.7 627.4C876.2 623 876.6 618.5 877 614.1C877.4 614.2 877.8 614.3 878.2 614.4Z" fill="#6DB5DE"/>
<path d="M1111.9 949C1111.9 934.7 1111.9 920.4 1111.9 906C1111.8 882.1 1093.7 864 1069.8 863.9C1055.8 863.8 1041.8 864 1027.9 863.1C1026.7 863 1024.9 863.5 1024.6 861.8C1024.3 859.9 1026 859.8 1027.3 859.8C1044.4 860.3 1061.6 858.5 1078.7 861C1098.6 863.9 1114 880.9 1115.2 900.9C1117 932.7 1115.7 964.5 1116.1 996.3C1116.1 997.6 1116.7 999.8 1114.4 999.7C1112.1 999.7 1112.2 997.6 1112.2 995.9C1112.2 980.2 1112.2 964.6 1112.2 948.9C1112 949 1112 949 1111.9 949Z" fill="#FEFDFD"/>
<path d="M892 570.9C895.7 562.8 899.4 554.8 903.1 546.7C906.5 551.3 909.9 555.8 913.4 560.4C913.8 561.7 913.9 563 913.2 564.3C910 570.6 905.8 576.1 900.4 580.6C899.8 581.1 899 581.4 898.1 581.1C896 577.7 894 574.3 892 570.9Z" fill="#010101"/>
<path d="M898 581.1C904.5 575.2 910.3 568.9 913.3 560.4C913.9 561.2 914.4 562 914.9 562.8C920 570.8 920 570.9 913.3 577.9C911.4 579.9 909.1 581.7 907 583.5C901.3 588.2 901.2 588.2 898 581.1Z" fill="#FD9A94"/>
<path d="M930.2 656.6C930.3 644.5 925.6 633.3 923.3 621.6C923.1 620.8 923 620 922.9 619.2C934 620.5 933.9 620.5 932.8 631C932 639.6 931.1 648.1 930.2 656.6Z" fill="#6CB4DC"/>
<path d="M790 472.7C807.7 472.7 825.3 472.8 843 472.6C846.7 472.6 848.1 473.6 847.8 477.4C847.5 481.7 847.5 486.1 847.8 490.4C848.1 494.3 846.9 495.5 842.8 495.5C820.6 495.3 798.5 495.4 776.3 495.4C763 495.4 749.6 495.3 736.3 495.5C732.7 495.6 731.7 494.4 731.9 491C732.2 486.9 732.3 482.6 731.9 478.5C731.3 473.4 733.4 472.6 738 472.6C755.4 472.8 772.7 472.7 790 472.7Z" fill="#FEFEFE"/>
<path d="M405.7 562C397 562 388.4 561.8 379.8 562.1C376.1 562.2 375.6 560.7 376.2 557.7C378.1 548.5 382.9 541.4 391.2 537.1C394.5 535.4 395.2 533.5 395.2 530.1C395 517.8 395.2 505.5 395.1 493.2C395.1 490 395.8 488.7 399.2 488.9C403.8 489.2 408.5 489.2 413.2 488.9C416.9 488.7 417.6 490.2 417.5 493.5C417.3 506.1 417.5 518.8 417.4 531.4C417.4 534.2 418.2 535.8 420.8 537.3C428.7 541.8 433.5 548.8 435.2 557.8C435.8 560.9 435.3 562.2 431.7 562C423 561.8 414.4 562 405.7 562Z" fill="#FEFEFE"/>
<path d="M406 564.2C414.5 564.2 423 564.4 431.4 564.1C435 564 435.6 565.4 435.2 568.5C433.4 582.5 420 593.3 404.6 593.1C390.5 592.9 377.3 581.1 376 567.8C375.7 564.9 376.7 564 379.5 564.1C388.3 564.3 397.2 564.2 406 564.2Z" fill="#FEFEFE"/>
<path d="M819.1 531.5C819.1 521.8 819.2 512.2 819 502.5C818.9 499.1 819.8 497.9 823.4 497.9C832.2 498 832.2 497.8 832.2 506.5C832.2 524.6 832.1 542.8 832.3 560.9C832.3 564.9 831.4 566.4 827.1 566.2C819.1 565.9 819.1 566.1 819.1 558.3C819.1 549.5 819.1 540.5 819.1 531.5Z" fill="#FEFEFE"/>
<path d="M552 563.2C552 570.5 552 577.8 552 585.1C552 589.7 549.2 592.8 545.3 592.8C541.6 592.8 538.9 589.9 538.9 585.4C538.8 570.3 538.9 555.1 538.8 540C538.8 537.4 539.7 536.6 542.3 536.5C552 536 552 536 552 545.6C552 551.6 552 557.4 552 563.2Z" fill="#FEFEFE"/>
<path d="M566.1 592.9C561.2 592.9 557 592.9 552.2 592.9C554.8 588.2 554.1 583.3 554.1 578.4C554.1 562.2 554.4 546.1 553.9 529.9C553.8 526.2 556.5 524.5 557.3 521.6C557.6 520.5 559.9 520.5 560.3 521.4C561.4 524.1 564.1 525.8 564 529.5C563.7 547.2 563.9 564.8 563.9 582.5C563.9 586 563.5 589.5 566.1 592.9Z" fill="#FDFDFD"/>
<path d="M593.3 592.8C588.5 592.8 584.3 592.8 579.5 592.8C582.3 587.7 581.7 582.3 581.7 576.9C581.7 561.4 581.9 546 581.6 530.5C581.5 527 583.2 524.7 584.5 521.9C585.2 520.3 587.2 520.3 588.1 521.7C589.7 524.4 591.4 526.8 591.4 530.5C591 547.3 591.2 564.1 591.2 580.9C591 584.9 590.7 588.9 593.3 592.8Z" fill="#FDFDFD"/>
<path d="M606.4 565.9C606.4 572.4 606.4 578.8 606.4 585.3C606.4 589.6 604.6 592.4 600.2 592.8C596.4 593.2 593.3 589.9 593.2 585.4C593.1 572 593.2 558.5 593.1 545.1C593.1 542.8 593.8 542 596.2 541.8C606.4 541.1 606.4 541 606.4 551C606.4 556 606.4 561 606.4 565.9Z" fill="#FDFDFD"/>
<path d="M566 571.3C566 566.7 566.1 562 566 557.4C565.9 554.9 566.5 553.9 569.3 553.8C579.2 553.4 579.2 553.3 579.2 563.2C579.2 570.5 579.2 577.8 579.2 585.1C579.2 590 576.7 592.8 572.7 592.9C568.8 593 566.1 589.9 566.1 585.2C566 580.6 566 576 566 571.3Z" fill="#FEFEFE"/>
<path d="M579.2 536.3C579.2 539 579.2 541.6 579.2 544.3C579.1 552.4 580.3 551 572 551.5C567.2 551.8 565.6 550.4 566 545.5C566.5 538.7 566.3 531.9 566.1 525.1C566 521.8 567.1 520.9 570.4 520.9C579.3 520.9 579.3 520.8 579.3 529.8C579.2 532 579.2 534.1 579.2 536.3Z" fill="#FEFEFE"/>
<path d="M606.4 530.5C606.4 530.7 606.4 530.8 606.4 531C606 533.7 607.8 537.7 605.3 538.8C602.4 540.1 598.5 539.3 595 539.2C593.2 539.2 593.2 537.6 593.2 536.2C593.2 533.7 593.2 531.2 593.2 528.7C593.3 519.4 592.3 521.2 601.1 520.7C605.1 520.5 607 521.5 606.4 525.8C606.2 527.5 606.4 529 606.4 530.5Z" fill="#FDFDFE"/>
<path d="M552 526.8C551.9 535 552.9 533.7 545.2 534.2C540.1 534.5 538.3 533.1 538.7 527.8C539.2 519.2 538.5 521.5 546.1 520.8C552.2 520.2 552.6 523.2 552 526.8Z" fill="#FDFEFE"/>
<path d="M606.4 510.8C606.4 518.4 606.4 518.4 599.3 518.4C593.2 518.4 593.1 518.4 593.2 511.1C593.3 504 592.4 505.4 600.3 504.9C605.9 504.4 607.5 506.5 606.4 510.8Z" fill="#FBFCFD"/>
<path d="M571.8 504.9C580.1 505.1 579.1 503.9 579.1 511.7C579.1 519.2 579.8 518.3 572.4 518.3C564.9 518.3 566.4 518.9 565.8 510.9C565.5 505.3 567.7 504 571.8 504.9Z" fill="#FEFEFE"/>
<path d="M552 510.6C552 518.4 552 518.4 545.6 518.4C538 518.4 538.8 519.3 538.8 511.3C538.8 504 537.9 505.3 545.7 504.8C550.9 504.5 553.4 505.8 552 510.6Z" fill="#FCFCFD"/>
<path d="M442 1150.7C418 1150.7 394 1150.6 370 1150.8C366.1 1150.8 364.9 1149.9 365 1145.9C365.2 1111.4 365.1 1076.9 365 1042.4C365 1038.8 365.7 1037.5 369.6 1037.5C384.1 1037.7 398.6 1037.7 413.1 1037.5C417 1037.4 418 1038.7 417.8 1042.4C417.5 1047.6 417.8 1052.7 417.7 1057.9C417.6 1060.6 418.4 1061.8 421.3 1061.8C435.1 1061.7 449 1061.7 462.8 1061.8C465.9 1061.8 466.8 1060.5 466.8 1057.6C466.7 1052.1 466.9 1046.6 466.7 1041.1C466.6 1038.6 467.5 1037.6 470.1 1037.6C485.3 1037.7 500.4 1037.7 515.6 1037.6C518.2 1037.6 519.1 1038.4 519.1 1041C519 1076.5 519 1112 519.1 1147.5C519.1 1151.4 516.7 1150.7 514.5 1150.7C490.4 1150.7 466.2 1150.7 442 1150.7Z" fill="#FEFEFE"/>
<path d="M647.1 1092.9C617.1 1092.9 587.2 1092.8 557.2 1093C553 1093 551.8 1091.9 552 1087.7C552.4 1081.6 552.3 1075.4 552 1069.2C551.8 1065.3 553.2 1064.5 556.8 1064.5C594.8 1064.6 632.7 1064.6 670.7 1064.6C693.2 1064.6 715.7 1064.7 738.1 1064.5C742.4 1064.5 743.5 1065.8 743.3 1069.8C743 1075.8 742.9 1081.8 743.3 1087.8C743.6 1092.2 741.9 1092.9 738 1092.9C707.7 1092.9 677.4 1092.9 647.1 1092.9Z" fill="#FEFEFE"/>
<path d="M635.5 1123.3C606 1123.3 576.5 1123.1 547 1123.4C541.7 1123.5 540.5 1121.9 540.9 1117C541.3 1111.2 541.2 1105.3 540.9 1099.5C540.8 1096.1 541.7 1094.9 545.3 1095C554.1 1095.3 563 1095.1 571.8 1095.1C622.6 1095.1 673.4 1095.2 724.2 1095C729.2 1095 730.5 1096.4 730.1 1101.1C729.7 1106.6 729.7 1112.1 730.1 1117.6C730.4 1122.1 729.1 1123.5 724.4 1123.5C694.8 1123.2 665.2 1123.3 635.5 1123.3Z" fill="#FEFEFE"/>
<path d="M658 1150.7C625.9 1150.7 593.7 1150.6 561.6 1150.8C557.5 1150.8 556 1149.8 556.2 1145.5C556.5 1140 556.4 1134.5 556.3 1129C556.3 1126.7 557 1125.5 559.4 1125.8C560.2 1125.9 561.1 1125.8 561.9 1125.8C626.2 1125.8 690.5 1125.8 754.8 1125.7C759.1 1125.7 760.8 1126.6 760.4 1131.1C760 1135.7 760 1140.5 760.4 1145.1C760.9 1150 758.9 1150.8 754.5 1150.8C722.3 1150.6 690.2 1150.7 658 1150.7Z" fill="#FEFEFE"/>
<path d="M442 1022.8C470.1 1022.8 498.3 1023 526.4 1022.6C532.4 1022.5 531.2 1025.8 531.3 1029.2C531.5 1032.7 531.6 1035.2 526.3 1035.2C470.2 1035 414.1 1035 358 1035.2C352.5 1035.2 352.8 1032.6 352.8 1028.9C352.8 1025.1 352.6 1022.6 358 1022.6C386 1023 414 1022.8 442 1022.8Z" fill="#FEFEFE"/>
<path d="M442 1059.2C436 1059.2 430 1059 424 1059.3C420.6 1059.4 419.7 1058.2 419.9 1055C420.1 1050.3 420.1 1045.7 419.9 1041C419.8 1038.4 420.8 1037.6 423.4 1037.6C435.9 1037.7 448.4 1037.7 460.9 1037.6C463.6 1037.6 464.4 1038.6 464.3 1041.1C464.2 1045.9 464.1 1050.8 464.3 1055.6C464.4 1058.5 463.2 1059.3 460.5 1059.2C454.4 1059.1 448.2 1059.2 442 1059.2Z" fill="#FEFEFE"/>
<path d="M479.5 671.9C507.7 671.9 535.8 672 564 671.8C568.2 671.8 569.4 672.9 569.2 677C568.9 684.6 568.8 692.3 569.2 700C569.4 704.3 568 705.2 563.9 705.2C512.9 705.1 461.9 705.1 411 705.1C405.2 705.1 399.3 705 393.5 705.2C390.7 705.3 389.8 704.3 389.8 701.5C389.9 693.2 390.1 684.8 389.8 676.5C389.7 672.6 391.1 671.9 394.6 671.9C422.9 672 451.2 671.9 479.5 671.9Z" fill="#FEFEFE"/>
<path d="M501.1 744.1C529.1 744.1 557 744.2 585 744C589.2 744 590.3 745.2 590.2 749.3C589.9 756.4 590.1 763.6 590.1 770.8C590.1 778 591 777.3 583.8 777.3C534 777.3 484.2 777.3 434.4 777.3C427.9 777.3 421.4 777.1 414.9 777.4C411.6 777.5 410.6 776.3 410.7 773.1C410.9 765.3 411 757.4 410.7 749.6C410.5 745.3 411.6 744 416.2 744C444.5 744.3 472.8 744.1 501.1 744.1Z" fill="#FEFEFE"/>
<path d="M520 740.9C492 740.9 464 740.8 436 741C431.5 741 430.4 739.7 430.5 735.4C430.8 727.9 430.8 720.4 430.5 712.9C430.3 708.8 431.4 707.4 435.7 707.5C448.9 707.8 462 707.6 475.2 707.6C518.4 707.6 561.5 707.7 604.7 707.5C608.7 707.5 610.3 708.3 610 712.7C609.6 720 609.6 727.4 610 734.7C610.3 739.5 609.2 741.1 603.9 741.1C576 740.8 548 740.9 520 740.9Z" fill="#FEFEFE"/>
<path d="M514.5 903.3C490.7 903.3 466.9 903.2 443 903.4C438.8 903.4 437.7 902.2 437.8 898.1C438 881.6 438 865.1 437.8 848.6C437.8 845.1 438.8 844.1 442.3 844.1C490.4 844.2 538.6 844.2 586.7 844.1C590.2 844.1 591.2 845.2 591.1 848.6C590.9 865.3 590.9 881.9 591.1 898.6C591.1 902.3 590.1 903.4 586.3 903.4C562.5 903.2 538.5 903.3 514.5 903.3Z" fill="#FEFEFE"/>
<path d="M514.6 964.8C490.6 964.8 466.6 964.7 442.7 964.9C438.9 964.9 437.9 963.9 438 960.1C438.2 943.4 438.2 926.8 438 910.1C438 906.6 439 905.7 442.5 905.7C490.6 905.8 538.8 905.8 586.9 905.7C590.4 905.7 591.4 906.6 591.4 910.2C591.2 926.9 591.2 943.5 591.4 960.2C591.4 964 590.3 964.9 586.6 964.9C562.5 964.7 538.5 964.8 514.6 964.8Z" fill="#FEFEFE"/>
<path d="M380.8 869.9C388.6 869.9 396.5 870 404.3 869.8C407.3 869.7 408.4 870.5 408.2 873.7C407 890 405.9 906.2 404.8 922.5C403.9 935.1 402.9 947.7 402.2 960.3C402 963.7 401 964.9 397.5 964.8C386.2 964.6 374.9 964.6 363.5 964.8C360.6 964.8 359.4 963.9 359.2 960.9C357.6 935.5 355.8 910.1 354 884.7C353.7 881 353.5 877.4 353.1 873.8C352.7 870.8 353.6 869.7 356.8 869.8C364.8 870.1 372.8 869.9 380.8 869.9Z" fill="#FEFEFE"/>
<path d="M878.1 697.8C877.9 704.3 872.6 709.3 866 709C859.6 708.8 854.3 703.3 854.4 697C854.4 690.7 860.5 684.9 866.7 685.1C873.5 685.4 878.3 690.8 878.1 697.8Z" fill="#6DB5DE"/>
<path d="M948.3 560.3C948.2 562.3 947.2 563.5 945.2 563.5C943.5 563.5 942.3 562.5 942.2 560.8C942 558.8 943.2 557.5 945.1 557.4C946.8 557.2 948.1 558.2 948.3 560.3Z" fill="#100A09"/>
<path d="M973.1 575C971.2 575 969.4 574.8 968.9 572.5C968.6 571.3 969 570.2 970 569.4C971.8 568 973.4 568.9 974.9 570.1C975.4 572.2 974.8 573.8 973.1 575Z" fill="#0C0909"/>
<path d="M1323.8 366.6C1323.8 416.1 1323.7 465.5 1323.9 515C1323.9 519.6 1322.7 520.9 1318.1 520.9C1255.3 520.7 1192.5 520.8 1129.7 520.9C1125.2 520.9 1123.8 519.8 1123.8 515.1C1123.9 415.8 1123.9 316.5 1123.8 217.3C1123.8 212.8 1125 211.8 1129.3 211.8C1192.3 211.9 1255.2 212 1318.2 211.8C1322.9 211.8 1323.9 213.2 1323.9 217.7C1323.8 267.3 1323.8 316.9 1323.8 366.6Z" fill="#5D85B1"/>
<path d="M605.2 250.8C682 250.8 758.8 250.8 835.7 250.8C859.8 250.8 878.5 265.4 883.5 288.1C884.3 291.8 884.7 295.7 884.7 299.5C884.8 333.7 884.7 367.8 884.8 402C884.8 406.2 883.7 407.3 879.5 407.3C842.2 407.1 804.8 407.2 767.5 407.2C760.5 407.2 760.6 407.2 761.1 399.6C763.1 371.4 765 343.1 767.2 314.9C767.5 311.3 766.8 310 762.8 310C745.8 310.2 728.8 310.2 711.8 310C708 310 707.1 311 707.5 314.9C709.2 335.6 710.5 356.4 711.9 377.2C712.5 385.7 713 394.1 713.8 402.6C714.1 405.9 713.5 407.3 709.7 407.3C672.4 407.2 635 407.2 597.7 407.3C594.4 407.3 593.4 406.3 593.5 403C593.6 386.2 593.7 369.3 593.5 352.5C593.5 348.8 594.9 348.1 598.2 348.1C609.7 348.3 621.2 348.1 632.7 348.2C635.9 348.2 637.1 347.4 637 344C636.9 325.7 636.9 307.3 637 289C637 285.9 636.3 284.6 632.9 284.6C582.9 284.7 532.9 284.7 482.9 284.6C479.3 284.6 478.9 286.1 478.9 289.1C479 306.4 478.8 323.8 479 341.1C479.1 345.1 477.9 346.1 474 346C462.8 345.7 451.7 346.1 440.5 345.8C436.4 345.7 435.5 347.1 435.6 350.9C435.8 368.1 435.6 385.2 435.8 402.4C435.8 406.2 434.7 407.1 431 407.1C397.5 407 364 406.9 330.5 407.1C326.2 407.1 325.8 405.4 325.8 401.9C325.9 367.4 325.8 332.9 325.9 298.4C326 271.3 346.4 250.7 373.7 250.7C424.5 250.6 475.4 250.7 526.2 250.7C552.6 250.8 578.9 250.8 605.2 250.8Z" fill="#FEFEFE"/>
<path d="M558 287C581.8 287 605.6 287.1 629.5 286.9C633.5 286.9 635 287.6 634.9 292C634.6 308.3 634.7 324.7 634.9 341C634.9 344.7 634.3 346.2 630.1 346.2C582.1 346 534.1 346.1 486.2 346.2C482.7 346.2 481.2 345.6 481.3 341.6C481.5 324.9 481.5 308.3 481.3 291.6C481.2 287.7 482.5 286.9 486.1 286.9C510 287.1 534 287 558 287Z" fill="#FEFEFE"/>
<path d="M515.1 348.2C538.9 348.2 562.7 348.3 586.5 348.1C590.3 348.1 591.3 349.1 591.2 352.9C591 369.5 591 386.2 591.2 402.9C591.2 406.5 590.1 407.3 586.7 407.3C538.6 407.2 490.5 407.2 442.3 407.3C438.8 407.3 437.8 406.3 437.8 402.8C438 386.2 438 369.5 437.8 352.8C437.8 349 438.8 348.1 442.5 348.1C466.8 348.3 490.9 348.2 515.1 348.2Z" fill="#FEFEFE"/>
<path d="M737.5 312.3C745.3 312.3 753.1 312.5 761 312.2C764.4 312.1 765.2 313.3 765 316.5C763.5 336.6 762.1 356.6 760.7 376.7C760.1 385.3 759.3 393.9 758.9 402.6C758.7 405.9 757.9 407.3 754.3 407.2C743 407 731.7 407.1 720.4 407.2C717.7 407.2 716.2 406.8 716 403.5C714.1 375.1 712.2 346.8 710 318.4C709.6 313.2 711 311.8 716.1 312.1C723.2 312.6 730.4 312.3 737.5 312.3Z" fill="#FEFEFE"/>
<path d="M571.2 874.1C571.6 877.1 569.7 877.5 567.5 877.2C562.5 876.5 560 878 561 883.5C561.5 886.3 560.1 887.2 557.3 887.2C554.5 887.2 553.7 885.9 554.1 883.5C554.8 878.8 553.5 876.1 548.1 877.1C545.9 877.5 544.7 876.6 544.7 874.1C544.7 871.8 545.2 869.9 547.9 870.3C553.6 871.2 554.7 868.4 554.1 863.6C553.7 860.9 555.4 860.2 557.8 860.2C560 860.2 561.5 861 561.1 863.4C560 869.3 562.6 871 568.1 870.3C570.6 870 571.6 871.6 571.2 874.1Z" fill="#5C85B0"/>
<path d="M557.5 948.7C553.8 949.1 553.8 946.5 554.1 944.2C554.7 939.9 553.2 938 548.7 938.8C546.2 939.2 544.7 938.5 544.6 935.4C544.6 932.4 546 931.5 548.5 932C553.4 932.9 554.5 930.5 554 926.2C553.6 923.5 554.2 921.9 557.6 921.9C561.3 921.9 561.2 924.1 560.9 926.5C560.2 931.2 562.2 932.6 566.6 932.1C568.8 931.8 571.2 931.4 571.3 935.2C571.3 939.1 569.1 939.2 566.5 938.8C561.8 938.1 560.3 940.1 560.9 944.5C561.4 947 560.9 949.2 557.5 948.7Z" fill="#5D86B1"/>
<path d="M1126.1 366.3C1126.1 317.5 1126.1 268.7 1126 219.9C1126 215.7 1126.6 214 1131.5 214C1193 214.2 1254.4 214.2 1315.9 214C1320.4 214 1321.4 215.2 1321.4 219.5C1321.3 317.3 1321.3 415.1 1321.4 512.9C1321.4 517.4 1320.1 518.4 1315.8 518.4C1254.3 518.3 1192.9 518.3 1131.4 518.4C1126.8 518.4 1126 517 1126 512.8C1126.1 463.9 1126.1 415.1 1126.1 366.3Z" fill="#FEFEFE"/>
<path d="M600.8 303.1C603.9 302.5 604.6 304.4 604.2 306.9C603.4 311.9 605.2 314 610.3 313.1C612.7 312.7 614.9 312.9 614.9 316.5C615 319.9 613 320.3 610.5 320C605.6 319.3 603.3 320.9 604.3 326.1C604.8 328.6 603.9 330.1 600.8 330C597.8 330 597.5 328.2 597.8 326.1C598.7 320.9 596.5 319.2 591.6 320C589.2 320.4 588 319.5 588 316.7C588 313.8 589 312.6 591.8 313.1C597 314 598.6 311.8 597.9 306.9C597.5 304.8 597.7 302.7 600.8 303.1Z" fill="#5C85B0"/>
<path d="M557.6 364.3C561.1 363.8 561.4 366.1 561 368.7C560.3 373.3 562.1 375 566.7 374.3C569.4 373.9 571.5 374.2 571.4 378C571.3 381.9 568.7 381.3 566.6 381C561.9 380.4 560.4 382.3 561 386.7C561.3 389.1 561.3 391.2 557.6 391.2C554.1 391.2 553.6 389.4 554.1 386.9C554.9 381.9 552.8 380.3 548.1 381.1C545.5 381.5 544.6 380.2 544.7 377.7C544.7 375.1 545.7 373.9 548.2 374.3C553.1 375.1 554.8 373.2 554.1 368.4C553.7 365.9 554.4 364 557.6 364.3Z" fill="#5D86B1"/>
<path d="M569.2 874.4C568.2 874.6 567.6 874.9 567 874.9C564.6 875.2 561.6 873.9 559.8 875.5C557.8 877.2 559.3 880.2 559 882.6C558.9 883.5 559.1 884.8 557.6 884.7C556.6 884.6 556.5 883.6 556.5 882.8C556.5 882.5 556.4 882.1 556.5 881.8C557.6 875.9 555 874 549.5 874.9C548.8 875 547.8 875 547.3 873.7C548.4 872.2 550.2 872.6 551.6 872.8C555.6 873.3 557.1 871.6 556.6 867.7C556.4 866.6 556.6 865.4 556.7 864.2C556.8 863.5 557.2 862.9 558 863C558.8 863.1 559.2 863.7 559.1 864.4C557.4 872.7 562.4 873.4 568.6 873.1C568.5 873.1 568.6 873.6 569.2 874.4Z" fill="#F3F5F8"/>
<path d="M569.7 935.2C568.4 935.8 568 936.2 567.6 936.1C561.6 935.4 557.4 936.5 558.9 944C559.1 944.8 558.8 945.8 557.8 945.9C556.8 946 556.5 945 556.5 944.2C556.4 943.2 556.3 942.2 556.5 941.2C557 937.3 555.5 935.7 551.5 936.2C550.1 936.4 548.6 936.6 547.1 935.3C548.5 933.3 550.5 933.9 552 934.1C555.5 934.4 556.8 933.1 556.5 929.6C556.4 927.8 555.6 925.6 557.9 924.1C559.8 925.9 559 928.2 558.9 930.1C558.8 933.1 559.7 934.3 562.8 934.1C564.8 933.9 566.9 933.5 569.7 935.2Z" fill="#F2F5F8"/>
<path d="M1149.7 330.2C1199 330.2 1248.3 330.2 1297.5 330.2C1297.5 330.6 1297.5 330.9 1297.5 331.3C1248.2 331.3 1198.9 331.3 1149.6 331.3C1149.7 330.9 1149.7 330.6 1149.7 330.2Z" fill="#5882AE"/>
<path d="M1149.6 272.1C1198.9 272.1 1248.2 272.1 1298 272.1C1294.8 274.4 1154.4 274.8 1149.6 272.1Z" fill="#5882AE"/>
<path d="M1297.5 301.3C1292.5 303.6 1152.8 303.3 1148.6 301.3C1199 301.3 1248.2 301.3 1297.5 301.3Z" fill="#5882AE"/>
<path d="M1295 472.9C1295 483.8 1286.6 492.2 1275.8 492.3C1264.6 492.4 1255.9 483.9 1255.9 472.9C1255.9 462.2 1265.1 453 1275.7 453.2C1286.5 453.5 1295 462.2 1295 472.9Z" fill="#5C85B1"/>
<path d="M1149.6 363.1C1176.9 363.1 1204.1 363.1 1231.4 363.1C1231.4 363.5 1231.4 363.9 1231.4 364.3C1204.1 364.3 1176.8 364.3 1149.6 364.3C1149.6 363.9 1149.6 363.5 1149.6 363.1Z" fill="#5882AE"/>
<path d="M590.5 316.5C591.5 314.4 593.4 315 594.8 315.2C599.1 315.7 600.4 313.9 599.9 309.9C599.7 308.5 599.4 306.9 600.7 305.4C602.9 306.7 602 309 601.9 310.6C601.7 314 602.7 315.7 606.3 315.1C606.8 315 607.3 315 607.8 315.1C609.3 315.4 612 314.2 612 316.3C612.1 318.5 609.3 317.7 607.9 317.6C603.1 317 601.2 318.9 601.9 323.7C602.1 324.9 602.2 326.3 601 327.6C599 326 599.8 323.9 599.9 322.2C600.1 318.8 599 317.4 595.4 317.6C593.9 317.8 591.9 318.5 590.5 316.5Z" fill="#F3F6F9"/>
<path d="M569.1 378.3C568.4 378.6 567.9 378.9 567.5 378.9C564.9 379.3 561.8 377.9 559.8 379.6C557.9 381.2 559.3 384.3 559 386.7C558.9 387.5 559.1 388.5 558 388.6C556.9 388.7 556.5 387.7 556.6 387C558.2 379.2 553.7 377.8 547.4 378.9C547.4 376.3 548.9 376.6 549.8 376.8C554.8 377.5 557.4 375.9 556.4 370.4C556.3 369.8 556.3 369 556.5 368.4C556.7 367.9 557.2 367.1 557.6 367C558.3 366.8 558.9 367.6 558.8 368.2C557 376.5 562 377.4 568.2 377C568.4 377.1 568.6 377.6 569.1 378.3Z" fill="#F2F5F8"/>
<path d="M1275.8 455.8C1285.2 455.9 1293 463.8 1292.9 473C1292.7 482.5 1285 490 1275.6 490C1266.2 490 1258.3 482.3 1258.3 473C1258.2 463.5 1266 455.8 1275.8 455.8Z" fill="#FEFEFE"/>
</svg>
