<svg width="1840" height="1380" viewBox="0 0 1840 1380" fill="none" xmlns="http://www.w3.org/2000/svg">
<path d="M919.5 1379.9C614.5 1379.9 309.6 1379.9 4.59998 1380C0.899976 1380 0 1379.2 0 1375.4C0.1 918.5 0.1 461.5 0 4.60001C0 0.900006 0.799976 0 4.59998 0C614.9 0.1 1225.1 0.1 1835.4 0C1839.1 0 1840 0.800006 1840 4.60001C1839.9 461.5 1839.9 918.5 1840 1375.4C1840 1379.1 1839.2 1380 1835.4 1380C1530.1 1379.9 1224.8 1379.9 919.5 1379.9Z" fill="#FCFCFC"/>
<path d="M755.2 873.9C755.1 876.4 755 878.9 754.9 881.4C754 883.5 754.9 885.8 754.2 887.9C754.1 890.7 754 893.6 753.9 896.4C753.1 898.2 753.8 900.1 753.2 901.9C752.4 919.1 745.3 934.3 738.5 949.6C720.3 990 702.1 1030.4 684 1070.9C674.3 1092.6 664.6 1114.3 654.9 1136C653.1 1137.8 650.9 1137.4 648.8 1137.4C623.6 1137.4 598.5 1137.4 573.3 1137.4C571.2 1137.4 568.9 1137.7 567.2 1136C572.4 1124.3 577.7 1112.6 582.9 1100.9C588.4 1088.5 593.8 1076 599.3 1063.5C600.3 1061.1 601.2 1058.7 602.2 1056.4C602.6 1055.6 602.6 1054.7 602.8 1053.8C603.3 1051.8 604.4 1050 605 1048C616.5 1020.9 628.5 994 640.1 966.9C641 965 641.6 963 642.5 961.1C648.8 946.8 654.9 932.4 661.3 918.2C664 912.2 663.7 905.8 664.3 899.6C665.9 882.9 667.2 866.2 668.7 849.5C669.7 838.8 670.4 828 671.6 817.3C671.7 816.1 671.6 815 671.7 813.8C672.9 803 673.6 792.2 674.7 781.4C674.7 780.2 674.8 779 674.9 777.8C676.2 764.4 677.3 751.1 678.5 737.7C679.6 725.2 680.8 712.6 681.8 700.1C682 698 682.4 695.8 683.9 694.1C688.2 693 692.5 693.5 696.8 693.8C726.8 696 756.9 697.9 786.9 699.8C795.7 700.4 804.5 701 813.3 701.6C815.6 701.2 817 702.6 818.4 704.1C821.9 707.9 825.8 711.3 829.2 715.1C831.5 717.7 833.7 718.2 836.4 715.7C837.7 714.4 839.3 713.4 841.3 713.5C844 714.6 846.5 716 847.4 719.2C845.5 721.8 842.5 723.1 840.3 725.3C836.4 729.1 835.4 732.5 837.8 735.2C840 737.7 843.3 737.3 847.6 734.2C850.6 732 852.8 728.5 856.9 727.9C857.7 728.3 858.1 728.9 858.4 729.7C862.4 751.5 865.2 773.4 868.4 795.3C873.7 830.4 878.7 865.5 884 900.5C886.2 915.3 883.1 929.2 878.9 943.2C862.2 998.9 845.9 1054.6 829.4 1110.3C827.2 1117.6 825.2 1125 822.8 1132.3C822.1 1134.3 821.8 1136.6 819.7 1137.8C817.8 1138.6 815.8 1138.6 813.8 1138.6C787.4 1138.8 761 1138.3 734.5 1138.8C733.8 1138.8 733.2 1138.7 732.5 1138.5C732.6 1130.5 736.1 1123.4 738 1115.9C740.8 1104.6 744.2 1093.4 747.4 1082.2C751.1 1069.1 755 1056.1 758.7 1043.1C763.3 1027.2 767.8 1011.3 772.4 995.4C776 982.9 779.9 970.4 783.5 957.8C787.2 944.9 791 932.1 794.3 919.1C795.8 913.1 793.4 907 793 900.9C792.5 894 791.3 887.2 790.5 880.3C789.7 873.5 788.9 866.7 788.1 860C787.3 853.3 786.5 846.6 785.5 839.9C784.5 832.8 783.3 825.8 782.4 818.7C781.6 812.1 781.1 805.5 780.4 798.9C779.6 792.1 778.8 785.4 777.9 778.6C777.1 772.4 775.7 766.2 775.5 759.9C775.4 756.4 774.1 753.3 774.1 749.8C774.1 746.9 770.4 746.6 767.8 746.8C765.7 746.9 762.7 746.7 763.9 750.6C763 752.7 763.9 755 763.2 757.1C763.1 759.6 763 762.1 762.9 764.6C762 766.7 762.9 769 762.2 771.1C762.1 773.6 762 776.1 761.9 778.6C761 780.7 761.9 783 761.2 785.1C761.1 787.9 761 790.8 760.9 793.6C760 795.7 760.9 798 760.2 800.1C760.1 802.6 760 805.1 759.9 807.6C759 809.7 759.9 812 759.2 814.1C759.1 816.9 759 819.8 758.9 822.6C758 824.7 758.9 827 758.2 829.1C758.1 831.9 758 834.8 757.9 837.6C757 839.7 757.9 842 757.2 844.1C757.1 846.9 757 849.8 756.9 852.6C756 854.7 756.9 857 756.2 859.1C756.1 861.9 756 864.8 755.9 867.6C755 869.6 755.9 871.8 755.2 873.9Z" fill="#8F3600"/>
<path d="M994 486C997.7 476.6 1005.6 471.2 1013.7 466.2C1028 457.3 1043.8 456.4 1060 457.1C1060.6 458 1060.5 459 1060.5 460C1060.5 480.4 1060.5 500.8 1060.5 521.2C1060.5 522.2 1060.7 523.2 1060 524.1C1050.7 524.4 1046.9 528.4 1046.9 537.6C1046.9 540.3 1046.8 542.9 1047 545.6C1047.4 551 1050.4 554 1056 555.2C1060.4 556 1064.9 555.9 1069.3 555.2C1073.2 554.4 1075.1 550.9 1078.2 549C1079.8 550.6 1079.7 552.6 1079.7 554.6C1079.8 566.3 1079.8 577.9 1079.7 589.6C1079.7 592.8 1079.4 595.9 1077.8 598.8C1072.6 602.2 1066.9 600.4 1061.4 600.1C1052.5 599.7 1043.6 598.8 1034.7 599C1038.6 599.9 1042.7 599.8 1046.7 600.1C1055.6 600.7 1064.6 601.7 1073.5 601.6C1075.5 601.6 1077.5 601.6 1079.2 600.3C1089.5 599.3 1099.7 600.6 1109.8 601.9C1113.4 602.4 1112.7 605.3 1112.5 607.8C1109.8 622.9 1106.9 637.9 1104.3 653C1104 655 1103.7 657 1102.2 658.5C1096.4 660.6 1090.3 659.3 1084.4 659.5C1077.9 659.7 1077.7 659.6 1076.9 665.9C1072.1 703.1 1067.5 740.2 1062.7 777.4C1057.2 820.7 1051.7 863.9 1046.2 907.2C1041.3 945.3 1036.5 983.5 1031.7 1021.6C1031.5 1023.1 1031.3 1024.6 1031 1026C1030.4 1030.2 1028 1031.3 1024 1031C1009.6 1029.9 995.2 1028.1 980.7 1027.7C974.2 1026.3 967.6 1026.8 961.1 1025.4C956.6 1025.6 952.2 1024.5 947.8 1024.3C947 1024.3 946.1 1024.3 945.3 1024.3C944.5 1024.3 943.6 1024.3 942.8 1024.2C938.4 1023.3 933.9 1023.6 929.4 1023C924 1022.3 923.1 1021.1 924.3 1015.7C928.8 995.5 933.7 975.3 938.3 955.1C939 951.8 938.6 948.5 939.7 945.3C939.6 943.7 941.4 946.4 941.5 944.5C941.8 937.5 944.1 930.8 945.7 924C947.5 916.4 949.1 908.8 949.9 901.1C951.3 900.8 951.3 899.8 951.6 898.7C964.4 843.2 977.2 787.7 990.3 732.2C991.2 729.1 991.7 725.9 992.4 722.8C997 703.1 1001.7 683.4 1005.9 663.5C1007.2 657.2 1006.6 656.5 1000.3 656.4C998.1 656.4 996 656.4 993.8 656.4C993 656.4 992.2 656.4 991.4 656.4C984.2 656.5 977.1 656.5 970.1 654.5C960.1 651.6 951.7 646.1 945.1 638C944.2 636.8 943.4 635.4 942.5 634.2C939.6 630.1 938 625.3 936.3 620.6C932.3 604.6 937.7 590.1 943.1 575.6C946.8 565.7 952.9 557.1 958.3 548.2C969.2 532.7 977.9 515.9 986.4 499.1C987.8 496.4 989 493.7 990.4 491.1C991.2 489.2 991.8 487 994 486Z" fill="#6DB5DE"/>
<path d="M980.1 1026.7C986.4 1025.1 992.6 1027.1 998.8 1027.4C1007.8 1027.8 1016.7 1028.8 1025.6 1029.8C1028.3 1030.1 1028.9 1029.1 1029.2 1026.7C1032.3 1001.5 1035.6 976.2 1038.9 951C1043.5 915.2 1048.1 879.4 1052.6 843.6C1056.7 811.1 1060.8 778.6 1064.9 746.1C1068.5 717.6 1072.2 689 1075.8 660.5C1076.1 658.2 1076.9 657.5 1079.3 657.6C1086.8 657.9 1094.3 657.9 1101.8 658C1103.3 656.8 1105.1 656.7 1107 656.8C1123.1 657.5 1139.1 658.4 1155.2 658.5C1160.4 658.5 1165.8 658.3 1170.6 661.1C1173.8 675.3 1176.9 689.5 1180.1 703.7C1185 725.5 1190 747.4 1195 769.2C1195.3 770.5 1195.8 771.7 1196.2 773C1197.3 773.8 1198.1 774.9 1198.4 776.3C1202.6 795.2 1207.3 814 1211.3 832.9C1211.4 834 1211.6 835 1211.1 836.1C1211.6 840.6 1212.7 844.9 1214 849.2C1215.6 850.7 1215.5 852.9 1216.4 854.7C1217.3 857.2 1217.8 859.9 1217.6 862.5C1216.3 874.9 1217 887.3 1216.3 899.7C1215.4 902.8 1215.1 906 1215.6 909.2C1215.7 909.7 1215.7 910.3 1215.7 910.8C1215.3 913.3 1215.4 915.8 1215.5 918.2C1216.3 937.1 1214.5 956 1214.5 974.9C1214.4 975.8 1214.4 976.7 1214.4 977.5C1214.4 979.4 1214.4 981.4 1214 983.3C1212.9 986.3 1213.4 989.4 1213.6 992.4C1213.5 992.9 1213.3 993.4 1212.9 993.7C1211.7 999 1213.1 1004.4 1212.2 1009.8C1212.1 1016.4 1212 1023 1211.9 1029.6C1210.8 1034.3 1211.9 1039 1211.3 1043.7C1210.9 1044.2 1210.5 1044.6 1209.9 1044.8C1188.3 1047.5 1166.7 1050.4 1145.1 1053.1C1142.5 1053.4 1139.7 1053.8 1137.5 1051.7C1136.9 1050.7 1136.6 1049.6 1136.6 1048.4C1136.7 1036.4 1136.2 1024.3 1136.8 1012.3C1138.4 1005.1 1137.3 997.7 1137.6 990.5C1137.7 987.3 1137.6 984.2 1137.6 981C1137.6 980.1 1137.5 979.2 1137.6 978.3C1137.6 977.4 1137.6 976.5 1137.6 975.6C1137.6 975 1137.5 974.4 1137.5 973.8C1137 941.5 1139.2 909.2 1138.5 876.9C1138.4 872 1138 867.3 1136.9 862.6C1127.3 819 1117.3 775.5 1107.7 731.9C1107.5 731.1 1107.4 730.3 1107.2 729.5C1106.6 727.3 1105.9 725.3 1103 725.5C1100.1 725.7 1099.6 727.8 1099.6 730.1C1099.5 734.8 1099.2 739.5 1099.8 744.1C1100.6 750.1 1100.6 756.1 1100.6 762C1100.2 788.3 1101.5 814.6 1101.9 840.9C1102.2 857.9 1101.6 874.9 1102.8 891.8C1103.9 908.8 1103.2 925.7 1103.6 942.7C1103.8 953.3 1102.1 963.6 1099.4 973.8C1099 975.1 1098.5 976.4 1098.1 977.7C1097 981.5 1096 985.4 1094.1 988.9C1093.2 990.6 1092.7 992.5 1092.1 994.3C1084.3 1011 1074.3 1026.5 1065.4 1042.7C1062 1049 1058.3 1055.1 1054.8 1061.3C1053.5 1063.6 1052.5 1066.1 1049.9 1067.4C1047.4 1067.9 1045.4 1066.6 1043.3 1065.7C1022.6 1057.2 1001.8 1048.8 981.1 1040.4C978.8 1039.5 976.3 1038.8 975.4 1036C975.4 1032.3 976.8 1029 980.1 1026.7Z" fill="black"/>
<path d="M975.7 1036.4C979.3 1039.2 983.8 1040.2 987.9 1041.9C1008.5 1050.3 1029.1 1058.7 1049.7 1067C1050.7 1068.1 1049.9 1069.1 1049.5 1070.1C1048.8 1071.2 1048 1072.4 1047.4 1073.6C1037.9 1091.1 1028.1 1108.5 1018.5 1126C1016.6 1129.4 1016.9 1131.2 1020.1 1133.3C1030.8 1140.8 1040 1149.8 1046.9 1161.1C1047.8 1162.8 1048.9 1164.3 1050 1165.9C1055.8 1175.3 1060 1185.3 1062.2 1196.1C1062.3 1197.1 1062.5 1198.1 1062 1199C1062.3 1201.9 1062.3 1205 1063 1207.8C1063.6 1210.3 1063.2 1210.9 1060.6 1210.9C1024.6 1210.8 988.6 1210.8 952.6 1210.9C950.8 1210.9 949.3 1210.6 948.7 1208.7C945.2 1207.3 943.8 1204 941.8 1201.3C930.1 1187.4 919.1 1173 907.6 1158.9C905.2 1156 906.2 1153.3 907.7 1150.6C912.5 1142 917.6 1133.6 922.5 1125.1C928.9 1114 935.4 1102.9 941.9 1091.8C943 1090.3 944 1088.8 944.9 1087.2C946.8 1083.2 949.2 1079.6 951.2 1075.6C955.3 1069 959 1062.1 963.1 1055.5C966.2 1050.1 969.2 1044.6 972.5 1039.3C973.3 1038.1 973.4 1035.9 975.7 1036.4Z" fill="#8F3600"/>
<path d="M1137.8 1052C1151.3 1051.5 1164.5 1049 1177.8 1047.5C1188.5 1046.3 1199.9 1044.4 1210.7 1044V1056L1210.1 1103C1209.9 1113.5 1209.8 1124 1209.5 1134.4C1209.4 1136.9 1210.4 1138.5 1212.2 1139.8C1230.9 1153.2 1249.6 1166.5 1268.3 1179.8C1278.1 1186.8 1281.1 1197.2 1282.7 1208.3C1283 1210.3 1282.1 1211 1280.2 1210.8C1279 1210.7 1277.9 1210.8 1276.7 1210.8C1226.8 1210.8 1176.8 1210.8 1126.9 1210.9C1125.9 1209.3 1126.3 1207.6 1126.6 1205.9C1126.6 1205.5 1126.6 1205.2 1126.7 1204.8C1126 1203.4 1125.4 1201.9 1125.6 1200.3C1127.3 1181.1 1128.6 1162 1130.4 1142.8C1131.4 1132.2 1130.7 1121.6 1131.7 1111C1132.8 1102.8 1132.6 1094.5 1133.4 1086.2C1133.6 1084.2 1133.4 1082.2 1133.7 1080.2C1134.7 1077.3 1134.4 1074.3 1134.4 1071.4C1134.4 1066.4 1134.3 1061.5 1134.5 1056.5C1134.7 1054.6 1134.7 1052.2 1137.8 1052Z" fill="#8F3600"/>
<path d="M656 1136.8C664.6 1140.4 672.1 1146 680.1 1150.6C693.5 1158.4 706.9 1166.3 720 1174.5C730.3 1180.9 738.2 1189.4 741.1 1201.6C741.3 1202.4 741.7 1203.1 742.1 1203.9C742.9 1205.6 741.9 1207.5 742.9 1209.1C742.5 1211.2 740.8 1210.8 739.4 1210.8C675.5 1210.8 611.6 1210.8 547.3 1210.8C552.1 1192.6 556.7 1174.6 561.5 1156.6C563.3 1150 564.1 1143.1 567 1136.8C567.9 1136.2 568.9 1136.4 569.9 1136.4C597.6 1136.4 625.3 1136.4 653 1136.4C654.1 1136.5 655.1 1136.3 656 1136.8Z" fill="black"/>
<path d="M1111 608.2C1112.3 603.8 1110.3 602.8 1106.1 602.7C1097.1 602.5 1088.2 601.7 1079.2 601.1C1078.2 601 1077.1 601 1077.2 599.5C1077.9 582.6 1078.1 565.8 1077.9 548.9C1078.3 548.2 1076.7 547.6 1077.9 546.9C1078.9 542.5 1078.7 538 1078.2 533.6C1076.6 518.4 1077 503.2 1078 487.9C1078.5 480.3 1078.1 472.6 1078.3 465C1078.4 462.5 1078.1 460 1079.8 457.8C1082.1 456 1084.8 456.4 1087.5 456.4C1093.5 456.4 1099.4 456.3 1105.4 456.5C1108.2 456.6 1111.1 457.2 1111.1 460.7C1111.3 473.6 1112 486.5 1110.7 499.4C1109.3 501.6 1107 501.3 1104.9 501.6C1094.6 502.8 1089.6 508 1089.4 518.3C1089.2 533.8 1089.2 549.3 1089.4 564.8C1089.5 574.1 1093.8 579.5 1101.7 580.9C1092.5 577.6 1090 570.6 1090.3 561.6C1090.7 547.6 1090.3 533.6 1090.4 519.6C1090.5 507.9 1095.6 502.8 1107.1 502.7C1110.9 502.7 1114.8 502.5 1118.6 502.8C1126.4 503.3 1131.9 508.4 1132.1 516.2C1132.5 533.2 1132.5 550.2 1132.1 567.2C1131.9 574.3 1127.6 578.6 1121.1 580.9C1128.3 579.7 1132.9 575 1133.1 567.2C1133.7 550.2 1133.7 533.2 1133.1 516.2C1132.8 508 1127.9 503.4 1119.6 501.8C1112.6 500.5 1112.4 500.3 1112.3 493.1C1112.3 483.4 1112.3 473.8 1112.3 464.1C1112.3 462 1112.1 459.7 1113.5 457.8C1120.7 455.8 1127.9 456.1 1135 458.2C1136.4 458.8 1137.9 459.2 1139.3 459.8C1140.2 460.1 1141 460.6 1141.7 461.1C1142.4 461.6 1143.2 462.1 1144 462.4C1144.6 462.7 1145.2 463 1145.9 463.3C1146.3 463.5 1146.7 463.8 1147.1 464.1C1159.8 473.6 1164.9 486.3 1163.4 501.9C1162.6 509.3 1163.2 516.8 1163.1 524.2C1163.3 541.3 1163.3 558.4 1163.1 575.5C1163 576.4 1162.9 577.4 1162.6 578.3C1162.4 578.9 1162 579.4 1161.6 579.9C1161.5 581.2 1161.4 582.6 1161.3 583.9C1160.6 590 1161.1 596.1 1161 602.3C1161 604.9 1159.9 605.8 1157.7 604.9C1144.8 599.1 1132.4 602.6 1120 606.9C1117.6 608 1114.4 610 1111 608.2Z" fill="#8F3600"/>
<path d="M732.3 1138.4C733.8 1136.2 736.1 1136.9 738.2 1136.9C765.5 1136.8 792.8 1136.8 820 1136.7C822.2 1135.3 823.8 1136.7 825.5 1137.7C847.9 1150.9 870.4 1163.8 892.8 1177.1C903.7 1183.6 909.5 1193.5 911.1 1206C911.1 1207.1 910.8 1208 910.1 1208.9C909.7 1212.3 907 1210.8 905.4 1210.8C868.9 1210.9 832.4 1210.9 795.9 1210.9C781.7 1210.9 767.6 1210.9 753.4 1210.9C746 1210.9 746 1210.9 744.9 1203.8C743.3 1193.2 738.6 1184.5 729.7 1178.3C728.1 1177.2 727.3 1176 728.2 1174.4C729.3 1172.5 729.1 1170.6 728.9 1168.6C729.7 1166.8 729 1164.8 729.6 1163C730.7 1154.8 731.5 1146.6 732.3 1138.4Z" fill="black"/>
<path d="M346.2 1000C362 1000 377.9 999.9 393.7 1000C397.4 1000 398.8 999.6 397.4 995.4C393.1 982.6 389.2 969.7 385.2 956.8C379.8 939.1 374.7 921.2 368.9 903.6C364.3 889.6 355.3 879.5 340.8 874.9C338.6 874.2 336.7 872.9 334.3 872.9C332.7 872 330.8 872.9 329.1 872.2C328.1 872.2 327 872.2 326 872.2C324.3 872.9 322.4 872 320.8 872.9C315.1 872.8 310.3 875.7 305.2 877.4C294.7 880.8 284.3 884.5 273.9 888.1C272.4 888.6 271 889.6 269 888.3C271.1 884.3 275.3 882.7 278.5 880.1C292.7 869.2 306.8 858.2 321.2 847.6C339.3 834.3 362 836.5 377.8 852.5C378.6 853.3 379.4 854.2 380.2 855C382.2 854.9 381.2 853.7 381 852.8C377.1 832 373.1 811.2 369.1 790.4C366.5 777 352.1 763 339.3 762C337.6 761.9 334.1 761 334.1 761C334.1 761 330.6 761 328.9 760.3C327.3 760.2 325.7 760.1 324.1 760L318.9 759.3C317.6 759.2 316.3 759.1 315 759.1L309.9 758.4C308.3 758.3 306.6 758.2 305 758.1L299.9 757.4C299.2 757.1 298 757.3 298 756.2C298.1 754.7 299.5 754.7 300.6 754.3C316.4 749 332.1 743.5 347.9 738.3C357.9 735.1 367.8 735.4 377.4 740.1C386.9 744.7 393.5 752 397 762.1C401.6 775.5 406.2 788.9 410.8 802.3C411.1 803.2 410.9 804.4 412.9 804.6C412.9 802.8 412.9 801.1 412.9 799.4C413 760.3 412.8 721.1 413.3 682C413.5 667.9 419.4 655.3 427.7 644C438 630 448.7 616.3 459.3 602.5C460.1 601.4 461.1 599.5 462.8 600.4C464.6 601.4 463 603.2 462.6 604.3C456.1 625.6 449.5 646.8 442.9 668C442.1 670.6 441.8 675.8 441.8 675.8L441.1 681C441.1 681 441.2 709.9 441.4 720.8C441.5 733.1 442 750.8 442.1 763.1C442.6 763.8 442.3 764.6 442.6 765.4C442.8 764.9 443.1 764.4 443.6 764.1C450.2 746.7 454.9 728.4 469.9 715.4C477.7 708.7 486.9 704.7 496 700.3C499.8 698.4 503.7 696.7 507.5 694.8C508.5 694.3 509.5 693.9 510.2 694.7C511.1 695.8 509.9 696.4 509.3 697.1C500.5 707.2 491.7 717.4 482.9 727.5C477.5 733.7 475.4 741.3 473.9 749.1C467.4 781.4 460.8 813.6 454.4 845.9C453.1 852.5 451.1 859 450.8 865.9C450.5 867.1 449.7 868.6 452.1 868.3C461.7 861.1 470.5 852.5 482.1 848.4C500.1 842 516.5 845.5 531.4 857.3C537.1 861.8 542.9 866.3 548.6 870.8C549.6 871.6 551.4 872.2 550.5 873.7C549.9 874.7 548.4 874.5 547 874.3C539.1 873.1 531.2 871.6 523.3 871.2C509.5 870.6 497.5 875.8 490.4 887.7C479.6 905.8 470.1 924.7 460 943.3C459.2 944 459.5 945 459.3 945.8C459.9 945.8 460.2 945.3 460.7 945.1C465.9 939.6 470 933.2 477 929.6C493.4 921 514.2 926.3 523.3 942.2C534.2 961.1 544.7 980.2 555.3 999.2C555.7 1000 556 1000.9 556.3 1001.8C553.1 1003.1 551.4 1000.6 549.6 999.3C537.3 990.7 525.4 981.6 512.9 973.3C503.7 967.2 496.5 967.8 488 975.7C479.8 983.3 472.1 991.4 464.2 999.3C465.4 1001 467 1000.2 468.3 1000.2C487.8 1000.3 507.3 1000.4 526.8 1000.1C531.6 1000 532.6 1001.6 532.6 1006.1C532.5 1054.1 532.5 1102.1 532.5 1150.1C532.5 1152.1 532.6 1154.1 532.7 1156.1C531.6 1158.4 532.8 1160.9 531.9 1163.2C529.1 1178.5 521.4 1190.8 508.6 1199.8C502 1204.4 494.7 1207.2 486.7 1208.4C484.4 1209.3 481.9 1208.1 479.6 1209.2C452.4 1209.2 425.2 1209.2 397.9 1209.2C395.6 1208.1 393.1 1209.3 390.8 1208.4C367.8 1205.4 347.5 1186.6 345.5 1161.2C345 1159.7 345.2 1158.2 345.2 1156.7C345.2 1106.2 345.2 1055.6 345.2 1005.1C345.6 1003.2 345.1 1001.5 346.2 1000Z" fill="#5882AF"/>
<path d="M824.3 333.2C826.9 332.7 829.5 332.3 832.1 331.8C837.7 331.1 843.3 331.7 848.9 331.5C859.8 331.8 869.3 335.8 877.6 342.6C884.8 348.6 888.3 356.4 887.4 365.9C886.2 367.2 884.7 366.9 883.2 366.9C878.3 366.8 873.9 368.3 870.6 371.9C867.8 375 865.9 374.2 864 371.2C861.4 367.1 857.6 364.9 852.9 364.3C844.2 363.3 836.8 368.8 835.4 377.1C834.1 385.3 839.4 393.1 847.6 395.1C849.7 395.6 852 395.1 853.8 396.7C853.8 399.4 851.4 399 849.9 399.5C844.9 401.1 839.5 401.7 833.4 403.6C840.4 408.2 847.1 411.2 854.4 408.6C861.5 406 867.8 405.1 874.2 410.2C876.4 412 880 411.5 882.2 413.9C881.8 419 878.2 422.1 874.6 425C868.5 430 861.3 432.2 853.5 433C852.5 433.1 851.5 433.1 850.5 433.1C839.9 433.9 839.6 434.3 839.2 444.9C839.1 448.3 839.8 452 836.3 454.4C829.3 456.4 822.4 454.2 815.6 453.7C809.7 453.3 803.6 453.9 798 451.1C796.1 449.1 796.3 446.5 796.6 444.1C797.7 434.8 798 425.4 799.2 416C799.9 411.1 799.8 406.3 794.1 404C792.8 403 791.6 402 790.4 400.9C783.1 390.7 785.7 382.5 798.1 376.5C818.2 371.4 821.5 367.2 822.5 346.3C822.6 343.5 822.5 340.6 822.6 337.8C822.7 336.4 822.5 334.5 824.3 333.2Z" fill="#FD9993"/>
<path d="M1072 438.1C1062.7 434.2 1054.1 429.3 1048.2 420.8C1044 414.8 1040.9 408.4 1039.9 401.1C1039.4 396.4 1039.4 391.8 1039.9 387.1C1041.1 376.7 1046.2 368.1 1052.6 360.2C1057.9 353.7 1063.9 347.8 1072.1 344.8C1072.6 344.3 1072.9 343.6 1073.6 343.3C1074.7 342.7 1075.9 342.2 1077 341.7C1086.7 338.5 1096.6 336.9 1106.8 336.6C1115.9 336.3 1125 335 1134 337.5C1140.7 339.3 1146.9 341.7 1152.5 345.8C1158.8 350.4 1161.5 356.7 1161.3 364.4C1161.2 370.6 1158 373.8 1151.5 374.7C1148.8 372.8 1149 369.9 1148.6 367.1C1147.4 358.6 1145.1 350.9 1137.3 345.9C1133.7 343.6 1130.7 343.5 1127.3 346.2C1116.6 354.8 1107 364 1104.7 378.5C1104.3 381.3 1104.2 384.1 1104.3 387C1104.7 399.4 1099.1 408 1088 413.1C1082.9 415.5 1083.1 415.4 1086.8 419.7C1091.3 425.1 1096.6 429.7 1100.7 435.3C1103.6 439.3 1103.1 440.5 1098.2 441.6C1092.2 442.9 1086.3 442.5 1080.4 441.2C1079 440.9 1077.7 440.4 1076.3 440C1075.2 439.6 1074.1 439.3 1073.1 439C1072.7 438.6 1072.3 438.4 1072 438.1Z" fill="black"/>
<path d="M1213 978C1213 977.3 1213.1 976.5 1213.1 975.8C1215.7 973.8 1218.8 974.4 1221.8 974.4C1277.9 974.4 1334 974.4 1390.2 974.4C1400.4 974.4 1400.4 974.4 1400.4 964.4C1400.4 949.6 1400.4 934.8 1400.4 919.9C1400.4 914.1 1399.9 913.7 1394.1 913.7C1337.1 913.7 1280.2 913.7 1223.2 913.6C1219.6 913.6 1217 915.3 1214.3 916.9C1213.8 914.5 1213.9 912.3 1215 910.1C1217.7 907.7 1221 908.5 1224.1 908.5C1273.6 908.4 1323.1 908.5 1372.5 908.5C1423.8 908.5 1475.1 908.5 1526.4 908.5C1528.1 908.5 1529.7 908.5 1531.4 908.5C1536.6 908.3 1537.3 907.8 1537.3 902.8C1537.4 888.3 1537.3 873.8 1537.4 859.3C1537.4 855.1 1535.7 853.6 1531.7 853.8C1529.9 853.9 1528 853.8 1526.2 853.8C1426.6 853.8 1327 853.8 1227.3 853.8C1223.1 853.8 1219 854 1214.8 854.1C1213.4 852.7 1214.1 851 1213.9 849.4C1266.6 849.4 1319.2 849.5 1371.9 849.5C1426.4 849.5 1480.9 849.5 1535.4 849.5C1541.9 849.5 1541.9 849.5 1541.9 856.2C1541.9 873.2 1541.9 890.2 1541.9 907.2C1541.9 909 1542.5 910.9 1541 912.4C1539.2 913.1 1537.4 912.7 1535.6 912.7C1493.9 912.7 1452.2 912.7 1410.5 912.7C1408.7 912.7 1406.8 912.2 1405.1 913.2C1404.7 933.9 1404.5 954.5 1405.2 975.2C1406.9 976.2 1408.8 975.7 1410.6 975.7C1452.7 975.7 1494.7 975.7 1536.8 975.8C1538.5 975.8 1540.5 974.9 1541.9 976.6C1541.9 982 1541.9 987.5 1541.9 992.9C1538.2 994.7 1534.2 993.3 1530.4 993.7C1526 994.1 1521.6 993.1 1517.2 994.2C1517.1 996.2 1516.8 998.2 1516.8 1000.1C1516.8 1067.7 1516.8 1135.4 1516.7 1203C1516.7 1204.9 1517.7 1207.4 1515.5 1208.5C1513.6 1209.4 1512.1 1207.4 1510.5 1206.4C1498.7 1198.5 1486.8 1190.8 1475.1 1182.9C1472.4 1181 1470.5 1181.1 1467.8 1182.9C1455 1191.8 1442.1 1200.4 1429.2 1209.1C1427.5 1207.6 1428.4 1205.7 1428.4 1204C1428.3 1136 1428.4 1068.1 1428.3 1000.1C1428.3 998.1 1428.8 996.1 1427.8 994.2C1425.9 993.2 1423.9 993.7 1421.9 993.7C1354.2 993.7 1286.4 993.7 1218.7 993.7C1216.7 993.7 1214.7 994.1 1212.8 993.3C1211.5 990.3 1211.7 987.3 1212.6 984.3C1214.7 989.3 1218.8 989.7 1223.6 989.7C1325.2 989.6 1426.8 989.6 1528.5 989.6C1529.8 989.6 1531.2 989.5 1532.5 989.6C1535.9 989.7 1537.3 988.2 1537.2 984.8C1537.1 981.5 1535.8 979.9 1532.4 979.9C1530.4 979.9 1528.4 979.9 1526.4 979.9C1425.1 979.9 1323.8 979.9 1222.5 979.9C1219.4 979.6 1215.9 980.3 1213 978Z" fill="#5A83AF"/>
<path d="M1111 608.2C1115.9 606.8 1120.9 605.7 1125.7 603.9C1137.4 599.6 1148.9 598.8 1160.7 604.9C1161.7 597.7 1160.4 590.7 1161.8 584C1161.9 588.6 1162.4 593.3 1161.9 597.9C1161.2 603.7 1162.9 607.4 1168.8 608.8C1166.1 611.3 1162.9 610.5 1159.9 610C1154.1 609.2 1148.4 609.4 1141.7 609.6C1143.9 610.7 1145.4 610.5 1146.9 610.5C1153 610.6 1159.1 610.4 1165.2 611.4C1168.7 612 1172.1 611.6 1175.5 610.2C1177.4 612.7 1180.4 612.4 1183 613.2C1186.5 614.2 1190 615.2 1193.5 615.9C1200.2 617.3 1204.3 621.3 1206.1 627.8C1201.6 630.7 1196.7 629.4 1192.1 628.9C1186.6 628.3 1181.2 628.4 1175.6 628.8C1183.7 629.3 1191.8 629.6 1199.9 630.4C1202 630.6 1204.3 630.2 1206.1 631.7C1206.8 633.7 1206.6 635.8 1206.2 637.9C1206.1 638.8 1206.1 639.7 1206 640.7C1204.6 642.6 1202.7 641.8 1201 641.7C1192.3 641.2 1183.5 642.1 1174.8 641C1183 643.2 1191.4 642.5 1199.8 642.6C1202.2 642.7 1204.8 642 1206.8 644.2C1205.2 645.3 1204.9 647.2 1204.2 648.8C1200.4 656.7 1194.1 660.8 1185.3 661C1180.5 661.1 1175.6 661.1 1170.8 661.1C1154.7 660.4 1138.5 659.7 1122.4 659C1115.6 658.7 1108.8 658.3 1102 658C1104.9 641.4 1107.9 624.8 1111 608.2Z" fill="#FD9993"/>
<path d="M1075.9 343.2C1075.2 344.3 1074 343.9 1073 344.1C1072.2 343.1 1072.5 341.9 1072.5 340.7C1072.5 311 1072.5 281.2 1072.5 251.5C1072.5 250.7 1072.5 249.8 1072.8 249C1073 248.7 1073 248.4 1073 248.1C1074.5 246.9 1076.2 247.5 1077.8 247.5C1240.2 247.5 1402.6 247.5 1565 247.5C1566.6 247.5 1568.3 247 1569.9 248.1C1571.1 249.9 1570.8 251.9 1570.8 253.9C1570.8 360.3 1570.8 466.7 1570.8 573.1C1570.8 575.1 1571.1 577.1 1569.9 578.9C1568.4 579.9 1566.7 579.4 1565 579.4C1432.3 579.4 1299.6 579.4 1166.9 579.4C1165.3 579.4 1163.6 579.8 1162 579C1162 578.2 1162 577.5 1162 576.7C1164.8 574.6 1168.1 575.3 1171.2 575.3C1237.7 575.3 1304.1 575.3 1370.6 575.3C1431.7 575.3 1492.9 575.3 1554 575.3C1555.3 575.3 1556.7 575.3 1558 575.3C1566.2 575.3 1566.2 575.2 1566.2 566.8C1566.2 464.7 1566.2 362.6 1566.2 260.4C1566.2 251.6 1566.2 251.6 1557.4 251.6C1400.1 251.6 1242.9 251.6 1085.6 251.6C1084.8 251.6 1083.9 251.6 1083.1 251.6C1077.1 251.7 1076.6 252.1 1076.6 258.2C1076.6 284.2 1076.6 310.2 1076.6 336.2C1076.6 338.6 1076.8 341 1075.9 343.2Z" fill="#5F87B2"/>
<path d="M1211 836C1210.8 835.3 1210.5 834.5 1210.3 833.8C1213.3 831.6 1216.7 832.4 1220 832.4C1310.6 832.4 1401.3 832.4 1491.9 832.4C1504.9 832.4 1517.9 832.4 1530.9 832.4C1536.8 832.4 1537.3 831.9 1537.3 826.2C1537.4 812.2 1537.4 798.2 1537.3 784.2C1537.3 778.3 1536.8 777.8 1530.6 777.7C1528.8 777.7 1526.9 777.7 1525.1 777.7C1419 777.7 1312.8 777.7 1206.7 777.7C1203.4 777.7 1200 778.5 1197.1 776.1C1196.8 775.1 1196.5 774.1 1196.2 773.1C1198.5 773.1 1200.9 773.2 1203.2 773.2C1313.8 773.2 1424.5 773.2 1535.1 773.2C1541.8 773.2 1541.8 773.2 1541.8 780.1C1541.8 796.8 1541.6 813.4 1541.9 830.1C1542 834.9 1540.8 836.2 1535.9 836.2C1437 836 1338 836 1239 836C1229.7 836 1220.3 836 1211 836Z" fill="#6189B3"/>
<path d="M605.6 1049.1C604.7 1050.8 603.9 1052.4 603 1054.1C602.1 1052.4 602.6 1050.5 602.6 1048.7C602.6 821.6 602.6 594.4 602.6 367.3C602.6 365.6 601.8 363.6 603.3 362.1C668.5 362.1 733.8 362.1 799 362.1C801.1 363.8 799.8 364.6 798.1 365.1C795.8 365.8 793.5 365.5 791.1 365.5C732.2 365.5 673.2 365.5 614.3 365.5C611.9 365.5 609.2 364.8 607.3 367.1C606.2 370 606.7 373 606.7 376C606.7 591.6 606.7 807.2 606.7 1022.7C606.7 1031.5 607.2 1040.4 605.6 1049.1Z" fill="#5D85B1"/>
<path d="M371.8 361.1C372.3 340.5 380.3 322.9 395 309C412.1 292.7 433 286.1 456.7 289C483.8 292.4 503.9 306.5 515.7 330.5C529.5 358.6 526.5 386.3 507.1 411.2C491.7 431 470.7 440.5 445.6 440.1C428.4 439.8 413.3 434.1 399.7 423.2C384.4 411 376.4 395 372.3 376.5C371.7 373.8 372 370.9 371.8 368.1C371.4 365.7 371.4 363.4 371.8 361.1Z" fill="#5A83AF"/>
<path d="M1080.2 458.1C1079.7 486 1079.3 513.8 1078.7 541.7C1078.7 543.5 1079.2 545.4 1078 547C1078 544 1078.1 541 1078.1 538C1078.1 530.7 1074.3 525.4 1067.3 524.2C1064.2 523.7 1064 522.4 1064 520C1064.1 500.6 1064.1 481.1 1064 461.7C1064 458 1064.6 456.2 1068.7 458C1069.8 458.5 1071 457.9 1071.9 457.2C1072.2 456.9 1072.6 456.7 1073 456.7C1073.9 456.8 1074.7 457 1075.6 457C1077 457.1 1078.4 457 1079.6 457.7C1079.9 457.7 1080 457.9 1080.2 458.1Z" fill="#6DB5DE"/>
<path d="M605.3 365.1C607 363.5 609.1 364.4 611 364.4C672.2 364.3 733.4 364.4 794.6 364.2C796 364.2 799.3 366.3 799 362.1C800.3 356.9 800.8 351.5 803.2 346.5C807.5 337.7 814.9 334 824.2 333.3C823.9 342.4 824.1 351.4 822.1 360.4C819.9 370 813.6 375.8 803.8 377.2C801.8 377.5 799.9 377.9 798 378.2C796.2 376.4 796.4 374.2 796.8 372.1C797.6 367.9 795.6 366.7 791.9 366.8C790.1 366.9 788.2 366.8 786.4 366.8C729.1 366.8 671.8 366.8 614.4 366.8C611.4 366.6 608.1 367.4 605.3 365.1Z" fill="#ECE9E9"/>
<path d="M603.3 362.1C602.5 364 602.8 366 602.8 368C602.8 595 602.8 822.1 602.8 1049.1C602.8 1050.8 602.9 1052.4 603 1054.1C602.7 1054.8 602.4 1055.5 602.1 1056.2C602.1 1054 602 1051.9 602 1049.7C602 822.6 602 595.6 602.1 368.5C602.1 366.4 600.9 363.9 603.3 362.1Z" fill="#FCFCFC"/>
<path d="M1068.9 527.9C1074.8 531.7 1077.1 542.1 1073.2 548C1071.6 550.5 1069.2 551.9 1066.1 552C1063.9 552 1061.8 552 1059.6 552C1052.6 551.9 1050.1 549.4 1050.1 542.5C1050.1 539.5 1049.7 536.4 1050.3 533.6C1050.9 530.9 1052.7 528.5 1055.9 527.9C1060.3 527.3 1064.6 527.3 1068.9 527.9Z" fill="#6DB5DE"/>
<path d="M1569.9 248.2C1568.1 248.1 1566.2 248 1564.4 248C1402.6 248 1240.8 248 1079 248C1077 248 1075 248.2 1073 248.2C1074.3 246.3 1076.4 247.1 1078.1 247.1C1240.3 247.1 1402.6 247.1 1564.8 247.1C1566.5 247.1 1568.5 246.4 1569.9 248.2Z" fill="#FCFCFC"/>
<path d="M994 486C993 487.7 992 489.3 991.1 491C988.8 488.5 989.5 485.3 989.5 482.4C989.4 446.4 989.5 410.5 989.4 374.5C989.4 371.9 989.9 369.1 988.2 366.8C986.3 364.9 983.8 365.5 981.5 365.5C953.7 365.5 926 365.5 898.2 365.5C896.4 365.5 894.5 365.7 892.7 365.3C891.1 365 889.2 364.8 890.1 362.2C922.9 362.2 955.7 362.2 988.5 362.1C992.4 362.1 993.1 363.5 993.1 367C993 405 993 442.9 993.1 480.9C993.1 482.6 992.1 484.6 994 486Z" fill="#6188B3"/>
<path d="M1162 579.1C1296.3 579.1 1430.6 579.1 1564.9 579.1C1566.6 579.1 1568.2 579 1569.9 579C1568.1 580.9 1565.8 580 1563.8 580C1429.9 580 1296 580 1162.1 580C1161.8 579.7 1161.8 579.4 1162 579.1Z" fill="#FCFCFC"/>
<path d="M890 362.2C890.4 365.9 893.3 364.2 895 364.2C924.9 364.3 954.8 364.3 984.7 364.3C986.5 364.3 988.4 363.7 990 365C987.6 367.2 984.7 366.6 981.9 366.6C954.2 366.7 926.6 366.6 898.9 366.7C895.9 366.7 892.9 366.3 890 367.1C888.6 367.7 887.6 367.3 886.8 366C882.9 345.9 873.5 336.7 853.3 333C852.2 332.8 851.1 332.4 850 332C849.7 331.8 849.6 331.6 849.7 331.3C849.8 331.1 849.9 331 850 331C853.3 331 856.6 331 860 331C861.5 332.2 863.5 330.8 865 332C872.6 333.4 879.6 336.3 885.1 341.7C890.8 347.4 892.4 354.4 890 362.2Z" fill="#ECE9E9"/>
<path d="M1212.9 993C1217.9 993.1 1222.9 993.1 1227.9 993.2C1292.7 993.2 1357.4 993.2 1422.2 993.2C1424.1 993.2 1426.2 992.4 1427.9 993.9C1356.2 993.9 1284.5 993.9 1212.9 993.8C1212.7 993.6 1212.7 993.3 1212.9 993Z" fill="#FCFCFC"/>
<path d="M1427.9 994C1429.4 995.7 1428.6 997.8 1428.6 999.7C1428.6 1067.3 1428.6 1134.9 1428.7 1202.4C1428.7 1204.5 1428.4 1206.7 1429.3 1208.8C1426.9 1207.3 1428 1204.9 1428 1202.9C1427.9 1133.3 1427.9 1063.6 1427.9 994Z" fill="#FCFCFC"/>
<path d="M1127 1201.2C1126.9 1202.5 1126.9 1203.7 1126.8 1205C1115.4 1197.3 1103.9 1189.6 1092.5 1181.8C1090.3 1180.3 1088.7 1181.1 1086.7 1182.5C1078.6 1188.1 1070.3 1193.6 1062 1199.1C1061.8 1198.4 1061.6 1197.7 1061.3 1196.9C1061.4 1196.4 1061.5 1195.8 1061.9 1195.6C1070.3 1189.5 1078.8 1183.3 1087.7 1177.9C1089.4 1176.9 1091.3 1176.8 1092.9 1177.9C1104.2 1185.2 1115.6 1192.2 1126.2 1200.5C1126.6 1200.6 1126.8 1200.9 1127 1201.2Z" fill="#5E86B1"/>
<path d="M1206.1 632.2C1196 631.8 1185.9 631.4 1175.8 630.9C1174 630.8 1171.1 631.6 1171.2 628.7C1171.3 626.1 1174 627.1 1175.7 627.1C1185.8 627.3 1195.9 627.7 1206 628C1207.9 629 1208.7 630.2 1207 632C1206.8 632.4 1206.5 632.5 1206.1 632.2Z" fill="#050303"/>
<path d="M1175.3 610.3C1175.2 611.9 1174.7 613.1 1172.7 613C1162.3 612.5 1151.8 612.2 1141.4 611.8C1140 611.7 1138.4 611.5 1138.5 609.8C1138.6 607.7 1140.4 608 1141.9 608C1150.8 608.3 1159.8 608.6 1168.7 608.9C1170.9 609.4 1173.5 608.2 1175.3 610.3Z" fill="#070504"/>
<path d="M1206.6 644.2C1195.7 643.9 1184.8 643.5 1173.8 643.2C1172.4 643.2 1170.4 643.5 1170.6 641.2C1170.8 639.1 1172.6 639.3 1174.1 639.4C1184.7 639.8 1195.3 640.3 1205.9 640.8C1207.6 641.6 1207.8 642.7 1206.6 644.2Z" fill="#060404"/>
<path d="M1541.9 976.3C1539.8 975.4 1537.6 975.7 1535.5 975.7C1493.8 975.7 1452.1 975.7 1410.4 975.7C1408.7 975.7 1406.7 976.4 1405.2 975C1449 975 1492.7 975 1536.5 975C1538.3 975 1540.5 974 1541.9 976.3Z" fill="#FCFCFC"/>
<path d="M1405 913C1405.9 911.5 1407.4 912.1 1408.6 912.1C1452.7 912.1 1496.8 912.1 1540.9 912.1C1539.2 913.6 1537.1 912.9 1535.2 912.9C1491.8 913 1448.4 913 1405 913Z" fill="#FCFCFC"/>
<path d="M910.1 1208.9C910.1 1207.9 910 1206.9 910 1205.9C911.8 1204.3 914 1204.4 916.1 1204.4C922.4 1204.3 928.7 1204.3 935.1 1204.4C938.3 1204.5 940.9 1203.6 943 1201.1C945 1203.6 946.9 1206.1 948.9 1208.6C936 1208.7 923.1 1208.8 910.1 1208.9Z" fill="#5B82AD"/>
<path d="M1072.8 249.1C1072.8 278.5 1072.9 307.8 1072.9 337.2C1072.9 339.5 1073 341.8 1073 344.2C1072.6 344.4 1072.3 344.6 1071.9 344.9C1071.9 314.8 1071.9 284.6 1071.9 254.5C1072 252.6 1071.4 250.7 1072.8 249.1Z" fill="#FCFCFC"/>
<path d="M656 1136.8C626.3 1136.8 596.7 1136.8 567 1136.9C567.1 1136.6 567.1 1136.2 567.2 1135.9C596.4 1135.9 625.7 1135.9 654.9 1136C655.3 1136.2 655.6 1136.5 656 1136.8Z" fill="#98613F"/>
<path d="M334.8 290.4C334.2 290.9 333.8 291.6 333.3 291.7C332.5 291.9 332.3 291.1 332.1 290.5C330.3 286.5 328.4 282.4 326.7 278.4C325.4 275.4 324.3 272.3 322.5 269.6C322 268.9 322 267.9 322.7 267.4C323.1 267.1 324.3 267.2 324.4 267.5C327.8 275.1 331.3 282.7 334.8 290.4Z" fill="#638AB4"/>
<path d="M907.9 200.1C907.6 196.3 910 194.7 911.8 192.7C915.6 188.6 920.6 185.8 924.1 181.4C924.7 180.7 925.4 179.8 926.6 180.6C927.9 181.5 927.2 182.3 926.4 183C920.3 188.7 914.1 194.4 907.9 200.1Z" fill="#658BB4"/>
<path d="M726.4 260.1C727.2 260.9 728 261.5 728.6 262.2C733.2 267.4 737.7 272.7 742.3 277.9C742.9 278.6 744 279.3 742.9 280.4C741.6 281.8 740.8 280.5 740.1 279.7C735.3 274.3 730.6 268.9 725.9 263.4C725.3 262.7 724.9 262 725.3 261.1C725.5 260.8 726 260.5 726.4 260.1Z" fill="#648BB4"/>
<path d="M1461.6 710.5C1461.7 711.2 1461.4 711.8 1460.6 711.9C1459.8 712 1459.4 711.6 1459.1 711C1455.6 703.9 1452 696.9 1448.4 689.9C1448 689.2 1448 688.5 1448.7 688.3C1450 687.8 1450.9 688.4 1451.5 689.6C1453.6 694.1 1455.8 698.5 1457.9 703C1459.1 705.4 1460.3 707.9 1461.6 710.5Z" fill="#638AB4"/>
<path d="M1318 643.8C1310.3 648.8 1303.5 653.1 1296.7 657.4C1296 657.9 1295.2 658.2 1294.5 657.3C1294.1 656.7 1294 655.9 1294.6 655.5C1301.5 651.3 1307.8 646.1 1315.4 643C1315.8 643 1316.3 643.3 1318 643.8Z" fill="#638AB4"/>
<path d="M539.6 170C540.4 174.6 537.6 175.7 536.2 177.5C532.8 181.9 529.2 186.3 525.7 190.6C525 191.5 524.1 192.8 522.9 191.5C521.9 190.5 523.3 189.8 523.8 189.1C528.2 182.5 533.6 176.8 539.6 170Z" fill="#658BB5"/>
<path d="M333.3 533.9C330.8 541 328.4 548.1 325.9 555.2C325.6 556 325 556.9 324.1 556.5C322.8 556 323.4 554.9 323.7 554C326.2 547 327.8 539.7 331.1 532.9C331.4 532.2 331.2 531 332.5 531.4C333.8 531.9 333.5 532.9 333.3 533.9Z" fill="#648AB4"/>
<path d="M1060 524C1060 501.7 1060 479.3 1060 457C1061.4 458.1 1061 459.7 1061 461.2C1061 480.8 1061 500.3 1061 519.9C1061 521.3 1061.4 522.9 1060 524Z" fill="#FCFCFC"/>
<path d="M1210.2 1102.9C1210.2 1094.1 1209.6 1085.3 1210.9 1076.5C1210.6 1085.3 1211.9 1094.1 1210.2 1102.9Z" fill="#FCFCFC"/>
<path d="M1517.2 994C1521.9 992.4 1526.8 993.6 1531.7 993.3C1535.1 993 1538.6 993.8 1541.9 992.7C1540.9 994.6 1539 994 1537.5 994C1530.7 994 1523.9 994 1517.2 994Z" fill="#FCFCFC"/>
<path d="M1072.9 457L1072.4 457.1L1071.9 457C1071.9 450.7 1071.9 444.4 1071.9 438C1072.2 438 1072.5 438 1072.9 438.1C1075.3 444.4 1075.3 450.7 1072.9 457Z" fill="#FCFCFC"/>
<path d="M850 331.1C850 331.4 850 331.8 850 332.1C844 332 838.1 332 832.1 331.9C838 330 844.1 331.5 850 331.1Z" fill="#FCFCFC"/>
<path d="M1212.2 1009.9C1212.2 1004.5 1211.7 999.1 1212.9 993.8C1212.7 999.2 1213.8 1004.7 1212.2 1009.9Z" fill="#FCFCFC"/>
<path d="M1039.8 387.1C1039.8 391.8 1039.8 396.4 1039.8 401.1C1038.5 396.4 1038.5 391.7 1039.8 387.1Z" fill="#FCFCFC"/>
<path d="M1069.2 555.1C1064.8 556.4 1060.3 556.5 1055.9 555.1C1060.3 555.1 1064.7 555.1 1069.2 555.1Z" fill="#FCFCFC"/>
<path d="M1068.9 527.9C1064.6 527.9 1060.3 527.9 1056 527.9C1060.3 526.5 1064.6 526.5 1068.9 527.9Z" fill="#FCFCFC"/>
<path d="M371.8 361.1C371.8 363.4 371.8 365.7 371.8 368C370.6 365.7 370.6 363.4 371.8 361.1Z" fill="#FCFCFC"/>
<path d="M757.2 843.9C757.1 841.7 756.9 839.5 757.9 837.4C757.8 839.6 758.7 841.9 757.2 843.9Z" fill="#FEFEFE"/>
<path d="M758.2 828.9C758.1 826.7 757.9 824.5 758.9 822.4C758.8 824.6 759.7 826.9 758.2 828.9Z" fill="#FEFEFE"/>
<path d="M760.2 800C760.1 797.8 759.8 795.6 760.9 793.5C760.8 795.6 761.7 797.9 760.2 800Z" fill="#FEFEFE"/>
<path d="M761.2 785C761.1 782.8 760.9 780.6 761.9 778.5C761.7 780.6 762.7 782.9 761.2 785Z" fill="#FEFEFE"/>
<path d="M1206.1 632.2C1206.4 632.1 1206.7 632 1207 631.9C1206.8 633.9 1207.8 636.1 1206.2 637.9C1206.1 636 1206.1 634.1 1206.1 632.2Z" fill="#FEFEFE"/>
<path d="M762.2 771C762.2 768.8 761.8 766.6 762.9 764.5C762.8 766.6 763.7 768.9 762.2 771Z" fill="#FEFEFE"/>
<path d="M763.2 757C763.2 754.8 762.8 752.6 763.9 750.5C763.8 752.6 764.7 754.9 763.2 757Z" fill="#FEFEFE"/>
<path d="M754.2 887.9C754.1 885.7 753.9 883.5 754.9 881.4C754.8 883.6 755.7 885.9 754.2 887.9Z" fill="#FEFEFE"/>
<path d="M759.2 814C759.1 811.8 758.9 809.6 759.9 807.5C759.8 809.6 760.7 811.9 759.2 814Z" fill="#FEFEFE"/>
<path d="M755.2 873.9C755.2 871.7 754.8 869.5 755.9 867.4C755.8 869.6 756.7 871.9 755.2 873.9Z" fill="#FEFEFE"/>
<path d="M756.2 858.9C756.1 856.7 755.9 854.5 756.9 852.4C756.8 854.6 757.7 856.9 756.2 858.9Z" fill="#FEFEFE"/>
<path d="M329.1 872.2C330.9 872.1 332.7 871.9 334.3 872.9C332.6 872.8 330.7 873.6 329.1 872.2Z" fill="#FCFCFC"/>
<path d="M753.2 901.9C753.1 900 752.8 898.1 753.9 896.4C753.8 898.3 754.6 900.3 753.2 901.9Z" fill="#FEFEFE"/>
<path d="M865 332C863.3 331.8 861.4 332.7 860 331C861.7 331.3 863.6 330.4 865 332Z" fill="#FCFCFC"/>
<path d="M1126.8 1206C1126.9 1207.7 1127 1209.3 1127.1 1211C1125.4 1209.3 1125.6 1207.7 1126.8 1206Z" fill="#FCFCFC"/>
<path d="M320.8 872.9C322.4 871.8 324.2 872.1 326 872.2C324.4 873.6 322.5 872.8 320.8 872.9Z" fill="#FCFCFC"/>
<path d="M943 1201.2C943.4 1204.9 942.1 1206.4 938 1206.2C928.7 1205.8 919.4 1206 910 1206C908.9 1200.6 907.5 1195.3 904.6 1190.6C901.3 1185.3 897.2 1181 891.6 1177.8C869.1 1164.9 846.8 1151.7 824.5 1138.6C823.1 1137.8 821.7 1136.7 820 1136.7C825.7 1117.1 831.3 1097.5 837.1 1077.9C851.3 1030 865.5 982.1 879.7 934.2C884.1 919.3 883 904.4 880.7 889.3C875.6 856.5 870.8 823.5 866 790.7C863 770.2 860 749.6 857.1 729C861.7 729.8 864.4 733.4 867.4 736.3C875.3 743.9 883.4 751.3 891.7 758.5C901 766.6 909.9 766.8 919.6 759.2C921.1 758.1 922.7 754.7 925 758.4C927.2 773.5 928 788.8 929.4 804C931 821 932.5 838.1 933.9 855.1C935.4 872.5 937 889.8 938.5 907.2C939.4 917 940 926.7 941.1 936.5C941.4 939.5 941.7 942.5 940.1 945.2C940.7 957.3 935.9 968.5 933.6 980.1C931.2 992.3 928.1 1004.4 925.1 1016.4C924.1 1020.2 925.3 1021.4 928.9 1021.6C933.5 1021.9 938.2 1021.7 942.8 1022.9C944.6 1024.6 944.4 1026.8 944.4 1029C944.4 1047.5 944.4 1066 944.4 1084.5C944.4 1087 944 1089.5 943 1091.8C931.7 1111.5 920.4 1131.2 908.9 1150.8C907 1154 907 1156 909.4 1159C920.8 1173 931.8 1187.1 943 1201.2Z" fill="#FEFEFE"/>
<path d="M605.3 365.1C667.9 365.1 730.5 365.1 793.2 365.1C799.6 365.1 799.6 365.1 798.4 371.6C798 373.7 798.2 375.9 798.1 378.1C797.1 378.7 796.1 379.3 795.1 380C786.8 385.4 785.7 390.9 791.2 400.7C789.1 403.5 786 402.5 783.3 402.5C740 402.6 696.6 402.5 653.3 402.6C641.2 402.6 642.5 401.2 642.5 413.7C642.5 593.7 642.5 773.6 642.5 953.6C642.5 958.1 642.3 962.6 641.2 967C633.5 984.8 625.9 1002.7 618.2 1020.5C614.1 1030.1 609.9 1039.7 605.7 1049.3C604.6 1047.6 605.1 1045.7 605.1 1043.9C605 819.2 605 594.6 605 370C605 368.4 605.2 366.7 605.3 365.1Z" fill="#FEFEFE"/>
<path d="M708.1 521.9C708.2 518.2 706.6 514.8 706 511.2C700 475.8 727.8 445.6 763.8 448.1C765.4 449.3 765.7 451.2 766.2 452.9C776.2 491.6 786.7 530.2 796.3 569C799.7 582.9 804.2 595.4 815.1 605.5C825.5 615.1 834.3 626.3 844.1 636.5C844.9 637.3 845.6 638.3 846.7 638.7C847.4 638.7 847.5 638.2 847.5 637.7C847 625.9 848.8 614.1 848.6 602.3C848.2 578.5 849.5 554.7 849.9 530.9C850.2 507.8 851.1 484.7 851.7 461.5C851.7 459.5 851.5 457.5 853 455.8C856.1 454.6 858.6 456.2 860.9 457.6C871.5 464.1 876.4 473.8 876.5 486C876.6 508.7 876.5 531.3 876.5 554C876.5 555.3 876.5 556.7 876.5 558C876.6 563.8 877 564.1 882.5 562.9C902.3 558.5 922.1 553.9 942 549.8C943.1 549.7 944.2 549.3 945.3 549C948 548.5 950.8 547.8 953.5 547.2C955.4 546.8 957.4 546.3 959 548.1C958.6 551.1 956.5 553.1 955 555.5C945.4 569.8 939.4 585.5 936.3 602.4C935.2 608.6 936.3 614.7 937.1 620.8C936.1 622.7 934.2 622.9 932.5 623.4C907.6 630.1 882.8 637 857.9 643.8C852.2 645.4 852.2 645.3 855.9 649.8C863.9 659.4 873 667.9 880.9 677.6C882.3 679.3 884.5 681 882 683.5C870.1 693.1 857.8 702.3 845.5 711.5C844.2 712.5 842.8 713.5 841.1 713.7C840.5 714 839.9 714.3 839.4 714.7C832 719.5 832 719.5 825.7 713C822.1 709.4 818.6 705.7 815.1 702C812.8 701.6 811.5 699.7 810 698.2C792.1 681 775.1 663 758 645C739.9 625.9 728.4 602.9 721.8 577.5C717.8 562 713.9 546.5 709.6 531.1C708.9 528.1 708.8 525 708.1 521.9Z" fill="#C57142"/>
<path d="M708.1 521.9C712.4 533.6 714.7 545.8 718 557.8C722.5 574.3 726.1 591 733.5 606.6C742.9 626.5 756.7 642.9 772.2 658.2C786.7 672.6 800.9 687.4 815.2 702.1C813.2 704 810.7 703 808.6 702.9C776.7 700.8 744.8 698.5 712.9 696.3C703.3 695.6 693.7 695 684.2 694.3C686.4 678.3 688.4 662.4 690.7 646.4C696.2 607.2 701.7 568 707.3 528.9C707.4 526.5 707.8 524.2 708.1 521.9Z" fill="black"/>
<path d="M841.2 713.8C852.8 704.9 864.3 696 875.9 687.1C877.6 685.8 879.3 684.5 881 683.2C886.9 686.5 893 689.5 899.3 692C907.8 695.4 914.9 700.6 920.5 707.8C922.1 710.9 923.5 714.1 924.9 717.3C925.6 718.8 926.5 720.7 924.9 721.9C923 723.4 921.5 721.6 920.2 720.4C916.1 716.5 912.2 712.4 908.1 708.5C907.5 707.9 906.9 707.3 905.2 707.4C908.6 711.9 912.4 715.5 916.3 718.7C920.3 722 924.2 725.5 927.4 729.5C934.2 738.2 935.8 748.6 923.7 756.9C920.8 759.1 918.5 762.1 915.2 763.7C907.2 767.6 898.6 766.4 891.7 760.2C881 750.5 870.4 740.8 859.8 731.1C859 730.3 858 729.7 857.1 729C856.8 728.7 856.4 728.3 856.1 728C852 726 849.1 722.8 846.8 718.9C844.9 717.2 843.1 715.5 841.2 713.8Z" fill="#FD9993"/>
<path d="M793.9 402.8C780.9 402.9 767.9 402.9 754.9 402.9C720.1 402.9 685.2 402.9 650.4 402.9C643.1 402.9 643.1 402.9 643.1 409.9C643.1 547.4 643.1 684.8 643.1 822.3C643.1 866.6 643.1 910.9 643.1 955.3C643.1 957.5 643.2 959.6 643.2 961.8C642.7 963.5 642.3 965.3 641.1 966.7C641.1 965 641 963.4 641 961.7C641 776.9 641 592.2 641 407.4C641 400.7 641 400.7 647.6 400.7C693.3 400.7 738.9 400.7 784.6 400.7C786.8 400.7 788.9 400.6 791.1 400.5C792.2 401.1 793.3 401.7 793.9 402.8Z" fill="#5882AE"/>
<path d="M846.8 718.9C849.9 721.9 853.6 724.4 856.1 728C852.8 730.8 849.6 733.7 846.2 736.4C842.9 739.1 839.3 739.2 836.5 735.9C833.7 732.7 834.2 729.1 837.4 726.2C840.3 723.4 843.1 720.5 846.8 718.9Z" fill="#010100"/>
<path d="M676 780.9C675.4 791.9 674.6 803 673 813.9C671.2 814.6 670.2 813.2 669.3 812.1C661.8 803.8 663.2 788.8 672.1 781.9C673.2 781 674.3 779.8 676 780.9Z" fill="#FDFDFD"/>
<path d="M676 780.9C663.3 787.6 661.8 804.4 673 813.9C673 814.9 672.9 815.9 672.9 816.8C658.6 805.6 660.2 785.9 676.1 778C676.1 779 676 779.9 676 780.9Z" fill="#6289B3"/>
<path d="M959 548.2C954.1 547.5 949.8 550.4 945 550.2C942.9 548 943.6 545.2 943.6 542.6C943.6 499.7 943.6 456.7 943.6 413.8C943.6 412.1 943.6 410.5 943.6 408.8C943.5 402.9 943.2 402.5 937.4 402.5C922.8 402.5 908.1 402.5 893.5 402.5C891.3 402.5 889.2 402.7 887.1 402.1C886.3 401.7 885.6 401.2 885.5 400.2C885.7 398 887.8 397.5 889.3 396.6C899.8 390.2 900.9 378.7 891.8 370.3C890.7 369.3 889.3 368.6 889.1 366.9C890 364 892.4 365.2 894.2 365.2C926.2 365.1 958.2 365.1 990.1 365.1C991.6 366.7 990.8 368.6 990.9 370.3C990.9 408.4 990.9 446.5 990.9 484.6C990.9 486.8 991 488.9 991.1 491.1C982.5 510.4 972.2 528.8 960.9 546.6C960.4 547.2 959.7 547.6 959 548.2Z" fill="#FEFEFE"/>
<path d="M991 731.9C987 749.5 983.1 767.2 979 784.8C970 823.6 961 862.3 952 901.1C951.9 901.7 952.5 902.9 951.2 902.8C950.8 902.8 950.5 901.8 950.1 901.2C947.8 899.2 948.2 896.3 948 893.7C946.5 874.3 943.8 855 943.4 835.5C943.5 795.3 943.4 755.1 943.5 714.9C943.5 712.1 943.4 709.3 943.7 706.4C946.3 701.7 946.9 697.1 943.8 692.4C943.3 675.4 943.7 658.4 943.6 641.4C943.6 639.7 943.6 638 945 636.8C952.4 644 960.1 650.6 970.5 653.1C977.2 654.7 983.9 654.6 990.7 654.9C992 656 992.3 657.4 992.3 659C992.3 680.2 992.7 701.3 992 722.5C992 725.7 991.7 728.9 991 731.9Z" fill="#FEFEFE"/>
<path d="M919.8 708.2C910.9 697 897.7 692.8 885.5 687C883.7 686.1 881 686.2 881 683.2C884.3 681.3 881.6 679.9 880.4 678.7C870.9 668.2 861.3 657.8 851.8 647.4C851.2 646.8 850.7 646.2 849.4 644.8C879 636.7 908 628.8 937 620.8C939 625.2 940.9 629.6 942.9 634C944.1 635.8 943.9 637.8 943.9 639.8C943.9 655.5 943.9 671.2 943.9 686.9C943.9 689.2 944.4 691.6 941.9 693.1C935 695.9 930.3 701.8 924.4 706C923.1 706.9 922 708.8 919.8 708.2Z" fill="#FEFEFE"/>
<path d="M919.8 708.2C924.9 704 929.9 699.7 935 695.5C936.5 694.2 938 692.8 940.1 692.8C941.9 692.5 943.7 691.9 945 693.9C948.8 698.6 948.8 700.4 945 705.2C944.1 706.2 943.8 707.7 942.7 708.6C936.6 712.6 935.3 717.8 936 725.2C938.2 746.1 940.1 767.1 941.5 788.1C942 795.4 943.1 802.6 943.4 809.9C944.2 818.6 944.2 827.4 944.8 836.1C946.6 857.8 948.4 879.5 950.2 901.2C950.5 916.6 944.3 930.7 941.7 945.6C941.4 947.3 940.7 945.1 940.1 945.2C937.5 915.4 935 885.6 932.4 855.7C929.9 827.4 927.4 799 924.9 770.7C924.5 766.1 924 761.4 923.6 756.8C924.8 755.4 925.9 754 927.1 752.6C933.3 745.6 932.9 736.6 925.8 729.4C919.1 722.7 912.1 716.3 905.4 709.7C904.2 708.6 901.7 707.4 903.8 705.4C905.5 703.8 906.8 705.9 907.9 706.9C913.3 712 918.6 717.1 924.8 722.9C924.6 716.7 921 712.9 919.8 708.2Z" fill="black"/>
<path d="M964.1 1055.7C960.4 1062.7 956.7 1069.6 952.1 1076.1C950.1 1074.7 949.8 1072.5 949.7 1070.4C948.8 1055.8 947.1 1041.4 946.1 1026.8C946 1025.4 946.1 1024.2 947.2 1023.2C951.8 1023.5 956.4 1023.9 961 1024.2C962.3 1025.4 962.8 1027 962.9 1028.7C963.6 1036.8 964.5 1044.8 964.8 1052.9C964.8 1053.8 964.5 1054.8 964.1 1055.7Z" fill="#010101"/>
<path d="M993.1 655C996.9 655.1 1000.8 655.1 1004.6 655.2C1007.3 655.3 1008.6 656.5 1008 659.3C1003.4 680.5 998.9 701.8 993.2 722.8C991.7 721.5 992.1 719.7 992.1 718.1C992.1 698.6 992.1 679.2 992.1 659.7C992 658.1 991.8 656.4 993.1 655Z" fill="#FEFEFE"/>
<path d="M964.1 1055.7C963.1 1045.2 962 1034.7 961 1024.2C967.3 1025.6 974 1024.1 980.1 1026.8C978.6 1030 977.2 1033.3 975.7 1036.5C971.8 1042.8 968 1049.2 964.1 1055.7Z" fill="#FDFDFD"/>
<path d="M947.2 1023.1C948.8 1040.8 950.5 1058.4 952.1 1076.1C949.9 1080.2 947.7 1084.2 945.4 1088.3C943.7 1087.2 944 1085.4 944 1083.8C944 1064.9 944 1046.1 944 1027.2C944 1025.7 943.9 1024.2 945 1023C945.8 1023 946.5 1023.1 947.2 1023.1Z" fill="#FDFDFD"/>
<path d="M1077.3 599.5C1078 600 1078.6 600.6 1079.3 601.1C1079 603.5 1077.3 603.3 1075.6 603.2C1061.6 602.4 1047.7 601.6 1033.7 600.8C1032.3 600.7 1030.2 600.9 1030.2 598.9C1030.2 596.3 1032.4 596.9 1033.9 597C1048.4 597.8 1062.8 598.6 1077.3 599.5Z" fill="#020405"/>
<path d="M1024.1 569.1C1022.7 577.6 1021.6 586.2 1019.8 594.6C1018.8 599.4 1014.5 596.6 1011.9 596.4C1008.6 596.1 1010.6 593.7 1011.3 592.3C1015.2 583.9 1019.2 575.4 1023.2 567C1025 567.1 1024.4 568.1 1024.1 569.1Z" fill="#FB9A95"/>
<path d="M993.1 655C993.1 677.6 993.1 700.2 993.2 722.8C992.8 725.9 992.6 729.1 991.1 731.9C991 708.9 991 686 990.9 663C990.9 660.3 990.9 657.7 990.8 655C991.5 655.1 992.3 655.1 993.1 655Z" fill="#5882AE"/>
<path d="M945.1 1023C945.1 1043.6 945 1064.2 945.1 1084.8C945.1 1085.9 945.4 1087.1 945.5 1088.2C944.7 1089.4 943.9 1090.6 943.1 1091.8C943 1068.9 943 1045.9 942.9 1023C943.6 1023 944.3 1023 945.1 1023Z" fill="#5881AE"/>
<path d="M945 693.8C943.4 693.4 941.7 693.1 940.1 692.7C942.9 692.2 942.9 690.1 942.9 687.9C942.9 669.9 943 652 943 634C944.3 634.6 944.9 635.7 945 637C945 656 945 674.9 945 693.8Z" fill="#5881AE"/>
<path d="M1024.1 569.1C1023.8 568.4 1023.5 567.8 1023.2 567.1C1023.5 566.2 1023.6 565.2 1024.7 564.7C1025.3 566.3 1025.1 567.8 1024.1 569.1Z" fill="#DCA0A4"/>
<path d="M1197.1 775.9C1199.1 775.8 1201.1 775.6 1203.1 775.6C1312.9 775.6 1422.7 775.6 1532.5 775.6C1539.2 775.6 1539.2 775.6 1539.2 782.3C1539.2 797.8 1539.1 813.3 1539.3 828.8C1539.4 832.7 1538.3 833.8 1534.3 833.8C1426.7 833.7 1319 833.7 1211.4 833.7C1211.1 833.7 1210.7 833.7 1210.4 833.8C1205.9 814.5 1201.5 795.2 1197.1 775.9Z" fill="#FEFEFE"/>
<path d="M1214.8 853.8C1215 851.3 1216.9 851.7 1218.5 851.7C1222 851.7 1225.5 851.7 1229 851.7C1330.3 851.7 1431.6 851.7 1532.9 851.6C1537.9 851.6 1539.3 852.8 1539.2 857.9C1538.8 873.1 1539.1 888.2 1539.1 903.4C1539.1 909.9 1539.1 909.9 1532.8 909.9C1429 909.9 1325.2 909.9 1221.4 909.9C1219.2 909.9 1217.1 910 1214.9 910C1214.1 907 1214.4 904.1 1214.7 901.1C1215 888.6 1215.3 876.2 1215.6 863.7C1215.8 860.4 1215.7 857.1 1214.8 853.8Z" fill="#FEFEFE"/>
<path d="M1127 1201.2C1116.3 1194.2 1105.5 1187.4 1094.9 1180.2C1091.7 1178 1089.4 1177.7 1086.1 1180.1C1078 1185.9 1069.6 1191.3 1061.4 1196.9C1058.7 1186 1054.4 1175.7 1049 1165.9C1047.7 1163.5 1047.5 1160.8 1047.5 1158.2C1047.5 1131.4 1047.5 1104.7 1047.5 1077.9C1047.5 1075.1 1047.7 1072.2 1048.9 1069.6C1049.1 1068.8 1049.4 1067.9 1049.6 1067.1C1063.6 1042.9 1078 1018.8 1090.8 993.9C1092.5 992.5 1094.5 992.5 1096.5 992.5C1106.7 992.5 1116.8 992.5 1127 992.5C1133.2 992.5 1134.2 993.5 1134.2 999.9C1134.1 1030.2 1134.7 1060.5 1133.7 1090.8C1133.5 1097.6 1133.9 1104.4 1133 1111.2C1133.4 1140.2 1129.5 1168.9 1127.6 1197.8C1127.6 1198.9 1127.2 1200 1127 1201.2Z" fill="#FEFEFE"/>
<path d="M1214.2 916.8C1214.4 912.7 1216.6 911.9 1220.6 911.9C1279.2 912.1 1337.8 912.1 1396.5 911.9C1400.9 911.9 1402.5 912.8 1402.4 917.5C1402.1 935.1 1402.1 952.8 1402.4 970.5C1402.5 974.7 1401.3 975.8 1397.1 975.8C1337.8 975.7 1278.5 975.7 1219.2 975.7C1217.2 975.7 1215.2 975.7 1213.2 975.8C1213.5 956.1 1213.8 936.5 1214.2 916.8Z" fill="#FEFEFE"/>
<path d="M1097.7 974.9C1104.4 950.5 1101.9 925.7 1101.5 900.9C1101 867.3 1100.2 833.7 1099.5 800.1C1099 776.3 1098.6 752.5 1097.9 728.7C1097.8 725.1 1098.7 724 1102.4 723.6C1106 723.2 1107.5 723.5 1108.4 727.6C1118.7 774.5 1129.3 821.3 1139.8 868.2C1141.3 875.1 1140.2 882.1 1140.1 889.1C1139.7 917.7 1139.2 946.3 1138.7 975C1137.7 976.1 1136.4 976.3 1135.1 976.3C1123.1 976.2 1111.2 976.8 1099.2 976C1098.6 975.8 1098.1 975.4 1097.7 974.9Z" fill="#6DB5DE"/>
<path d="M1213 978C1303.3 978 1393.6 978 1483.9 977.9C1500.7 977.9 1517.6 978 1534.4 977.8C1537.9 977.8 1539.4 978.4 1539.3 982.4C1539.1 991 1539.3 991 1530.5 991C1427.2 991 1323.9 991 1220.7 991C1213.5 991 1213.5 991 1212.8 984C1212.8 982 1212.9 980 1213 978Z" fill="#FEFEFE"/>
<path d="M1138.8 978C1138.8 978.7 1138.8 979.4 1138.9 980.1C1138.1 982.7 1138.5 985.4 1138.6 988C1138.7 991.1 1137.2 992.3 1134.5 992.3C1121.9 992.5 1109.3 992.5 1096.7 992.3C1094.9 992.3 1092.4 992.2 1092.9 989.1C1094.3 985.3 1095.6 981.6 1097 977.8C1098.5 976.5 1100.3 976.5 1102.2 976.5C1112.7 976.5 1123.3 976.5 1133.8 976.5C1135.5 976.6 1137.4 976.5 1138.8 978Z" fill="#FCFDFD"/>
<path d="M1092.9 989.1C1093 991 1094.3 991 1095.7 991C1108.8 991 1121.9 990.9 1135 991H1137.5C1137.6 1014.8 1136.7 1047.5 1135.5 1071.8C1135.3 1074.5 1135.9 1077.3 1135.2 1080C1135 1090.4 1134.4 1100.8 1133.1 1111.2L1133.1 1110.92C1133 1101.51 1132.9 1092.21 1132.9 1082.8C1132.9 1054.9 1132.8 1027 1133 999C1133 994.5 1131.7 993.5 1127.4 993.6C1115.3 993.9 1103.1 993.8 1091 993.9C1091.6 992.2 1091.6 990.4 1092.9 989.1Z" fill="#5881AD"/>
<path d="M1138.8 978C1124.8 977.9 1110.9 977.9 1096.9 977.8C1096.9 976.8 1096.8 975.7 1097.6 974.9C1097.8 974.8 1098 974.8 1098.2 974.9C1103.9 976 1109.7 975.2 1115.4 975.4C1123.1 975.7 1130.9 974.9 1138.6 975.8C1138.8 976.6 1138.8 977.3 1138.8 978Z" fill="#5881AD"/>
<path d="M1138.7 975.9C1126.4 975.9 1114.1 976 1101.8 975.9C1100.6 975.9 1099.1 976.5 1098.3 974.9C1111.8 974.9 1125.3 974.9 1138.8 974.9C1138.9 975.3 1138.9 975.6 1138.7 975.9Z" fill="#9ABCD7"/>
<path d="M1214.8 901.1C1214.9 904.1 1214.9 907 1215 910C1213.3 907.1 1214.1 904.1 1214.8 901.1Z" fill="#5A83AF"/>
<path d="M1046.5 1162.4C1038.9 1150.7 1029.3 1140.9 1017.8 1133.1C1016 1131.8 1014.3 1131 1016 1128.1C1026.2 1110.1 1036.2 1091.9 1046.2 1073.8C1046.3 1073.5 1046.7 1073.4 1046.9 1073.1C1048.4 1074.6 1048 1076.5 1048 1078.3C1048 1104.5 1048 1130.7 1048 1156.9C1048 1158.8 1048.6 1161 1046.5 1162.4Z" fill="#FDFDFD"/>
<path d="M1046.5 1162.4C1046.7 1161.6 1047 1160.8 1047 1160C1047 1131.1 1046.9 1102.1 1046.9 1073.2C1047 1071.7 1047.9 1070.5 1049 1069.6C1049.1 1092.1 1049.2 1114.5 1049.2 1137C1049.2 1146.6 1049.1 1156.3 1049 1165.9C1048.2 1164.7 1047.4 1163.5 1046.5 1162.4Z" fill="#5881AE"/>
<path d="M1075.9 343.2C1074.4 341.9 1075.1 340.1 1075.1 338.5C1075.1 310.7 1075.2 282.9 1075 255C1075 250.9 1076.3 250.1 1080.1 250.1C1241 250.2 1402 250.2 1562.9 250.1C1567 250.1 1568.2 251.1 1568.2 255.3C1568.1 360.8 1568.1 466.2 1568.2 571.7C1568.2 576.6 1566.2 576.9 1562.4 576.9C1428.9 576.8 1295.5 576.8 1162 576.8C1162.1 559.1 1162.3 541.5 1162.4 523.8C1164.2 522.2 1166.5 522.5 1168.6 522.5C1177.6 522.5 1186.6 522.5 1195.6 522.5C1201.4 522.5 1201.5 522.4 1201.5 516.7C1201.5 496.1 1201.5 475.4 1201.5 454.8C1201.5 441.2 1201.4 427.5 1201.6 413.9C1201.7 409.8 1200.3 408.4 1196.1 408.4C1184 408.6 1171.8 408.5 1159.6 408.4C1157.3 408.4 1154.9 408.8 1152.8 407.4C1150.7 404 1150.9 400.5 1152.5 397C1154.4 395.3 1156.9 395.7 1159.1 395.7C1171.5 395.6 1184 395.7 1196.4 395.7C1198.2 395.7 1200.5 396.1 1201 393.8C1201.7 391.1 1202 388.1 1200.7 385.5C1199.9 384 1198 384.6 1196.6 384.6C1184 384.6 1171.4 384.6 1158.8 384.6C1156 384.6 1153 384.8 1151.5 381.6C1151.2 381.1 1150.9 380.6 1150.7 380C1150.1 378 1149.2 376 1151 374.1C1160.4 371.5 1163 362.1 1156.9 352.5C1152.5 345.7 1145.5 342.7 1138.2 340.1C1125 335.5 1111.6 338.1 1098.2 338.7C1090.7 339 1083.2 340.9 1075.9 343.2Z" fill="#FEFEFE"/>
<path d="M1153 408.9C1147.7 429 1131.6 433.6 1114 436.1C1112.7 443 1113.9 450.1 1113.3 457C1112.2 459 1112.4 461.2 1112.4 463.3C1112.4 473.6 1112.5 483.8 1112.3 494.1C1112.3 496.1 1113.3 499 1109.9 499.7C1109.9 487.3 1109.8 474.8 1110 462.4C1110.1 458.9 1109.4 457.4 1105.5 457.6C1097.1 458 1088.6 457.9 1080.1 457.9C1079.9 457.8 1079.8 457.6 1079.7 457.4C1077.7 451.5 1077.4 445.7 1080 439.9C1087.3 440.7 1094.5 441.5 1102.6 439.2C1095.1 430.8 1087.9 422.8 1080.5 414.6C1083.7 413.2 1086.7 412.1 1089.4 410.6C1097.9 406.1 1103.2 399 1102.7 389.4C1101.6 368.4 1112.4 354.6 1128.5 343.4C1131 341.7 1132.9 341.8 1135.3 343C1144.6 347.6 1148.4 355.7 1149.7 365.5C1150.1 368.3 1150.5 371.1 1150.9 373.9C1151.1 375.5 1151.3 377.2 1151.6 378.8C1150.7 380.1 1148 379.2 1148.1 381.5C1148.3 383.7 1150.6 382.9 1151.9 383.6C1152.8 384.1 1153.2 385 1153.4 386C1154 389 1154.2 391.9 1153.9 394.9C1153.8 395.7 1153.4 396.3 1153 397C1152.9 400.2 1152.9 403.4 1152.8 406.6C1153.6 407.5 1153.6 408.2 1153 408.9Z" fill="#FD9993"/>
<path d="M1110 499.9C1111.6 498.6 1110.9 496.8 1110.9 495.3C1111 484.4 1110.9 473.4 1111 462.5C1111 460.7 1110.1 458.3 1112.9 457.5C1113.4 457.5 1113.7 457.7 1113.9 458.1C1114 470.7 1114.2 483.4 1114.1 496C1114.1 499.2 1114.8 500.2 1118.2 500.2C1128.6 500.5 1134.8 507 1134.8 517.4C1134.9 533.7 1134.9 550 1134.8 566.4C1134.8 575 1129.4 581.6 1121.7 582.9C1120.1 583.2 1117.6 584.1 1117.2 581.5C1116.8 579.2 1119.2 579.4 1120.8 579.1C1127.1 577.8 1131 573.4 1131 566.9C1131.1 550.1 1131.1 533.3 1131 516.4C1130.9 509.1 1125.9 504.3 1118.7 504.1C1113.9 504 1109 504 1104.2 504.1C1097.5 504.3 1092.3 508.9 1092.2 515.6C1092 532.9 1092 550.2 1092.2 567.6C1092.3 573.7 1096.4 578 1102.6 579.2C1104.2 579.5 1106.5 579.3 1105.9 581.7C1105.4 583.9 1103.2 583.2 1101.6 583C1094.3 582 1088.4 575.6 1088.3 567.7C1088.1 550.4 1088 533.1 1088.3 515.7C1088.4 507 1095.3 500.6 1104.1 500.1C1106 500 1108 499.9 1110 499.9Z" fill="#FDFDFC"/>
<path d="M1153 408.9C1153 408.2 1153.1 407.4 1153.1 406.7C1168.2 406.7 1183.4 406.8 1198.5 406.7C1201.8 406.7 1203.1 407.5 1203.1 411.1C1203 447.2 1203 483.3 1203.1 519.3C1203.1 523 1201.6 523.7 1198.4 523.7C1186.4 523.6 1174.5 523.8 1162.5 523.8C1162 516.5 1162.1 509.2 1162.7 501.9C1162.7 507.1 1162.9 512.2 1162.8 517.4C1162.7 520.1 1163.5 521.2 1166.4 521.2C1176.7 521 1187.1 521 1197.4 521.2C1200.4 521.2 1201 520.1 1201 517.4C1200.9 482.6 1200.9 447.8 1201 413C1201 409.4 1199.5 409 1196.5 409C1181.9 409 1167.5 408.9 1153 408.9Z" fill="#5A84B0"/>
<path d="M1113.9 458C1113.6 457.8 1113.2 457.6 1112.9 457.4C1112.9 451.8 1112.9 446.2 1113.1 440.7C1113.1 439.2 1112.3 437.4 1114.1 436.2C1114.1 441.8 1114.3 447.5 1114.1 453.1C1114 456.2 1115.1 457.1 1118.1 457C1125.6 456.8 1133 456.9 1140.5 457C1142.1 457 1143.8 456.4 1145.3 457.7C1145.8 459.8 1146 461.8 1145.1 463.8C1144.8 463.5 1144.4 463.3 1144.1 463C1143.2 462.3 1143.1 460.8 1141.9 460.3C1140 460.1 1138.2 459.2 1136.3 459.7C1128.9 457.1 1121.3 457.8 1113.9 458Z" fill="#5882AE"/>
<path d="M1136.1 459.8C1138.3 458.2 1140.7 459.3 1143 459C1143.3 459.4 1143.3 459.8 1143.1 460.2C1142.2 461.2 1140.9 460.3 1139.9 460.9C1138.7 460.6 1137.4 460.2 1136.1 459.8Z" fill="#D5D7DC"/>
<path d="M1145 463.8C1145.1 461.8 1145.1 459.7 1145.2 457.7C1146.6 459.8 1145.8 462 1145.8 464.2C1145.4 464.2 1145.1 464.1 1145 463.8Z" fill="#6387AF"/>
<path d="M1143.1 460C1143.2 459.7 1143.2 459.4 1143 459.1C1144.4 460.2 1143.8 461.7 1143.9 463.1C1143.3 462.9 1142.8 462.6 1142.2 462.4C1142 461.4 1142.3 460.6 1143.1 460Z" fill="#6387AF"/>
<path d="M1143.1 460C1143.4 461 1143.2 461.8 1142.3 462.4C1141.5 461.9 1140.8 461.5 1140 461C1140.7 459.8 1142 460.1 1143.1 460Z" fill="#FBF9F8"/>
<path d="M439 1068.2C467.7 1068.2 496.3 1068.3 525 1068.1C529.1 1068.1 530.3 1069.1 530.3 1073.3C530.1 1100.8 530.3 1128.3 530.2 1155.8C530.1 1183.7 507.8 1205.9 480 1206.1C452.7 1206.2 425.3 1206.2 398 1206.1C371 1206 348.5 1184 348.1 1157C347.7 1128.8 348.1 1100.7 347.9 1072.5C347.9 1068.9 349.1 1068.1 352.5 1068.1C381.3 1068.2 410.2 1068.2 439 1068.2Z" fill="#EFE4BC"/>
<path d="M357.2 738.9C340.1 741.8 324.4 749.5 307.8 754.2C307.8 754.6 307.8 755.1 307.9 755.6C316.3 756.5 324.6 757.5 333 758.1C352.8 759.6 368.6 772.3 372.1 790.2C374.6 802.7 376.8 815.3 379.2 827.9C381.9 841.6 383.2 855.8 387.6 868.9C399.7 905.5 413.1 941.7 426.1 978C426.6 979.2 426.5 980.9 428.3 981.6C430 979.8 431.7 978.2 433.1 976.4C439.9 967.3 448.9 960.2 454.2 949.4C464.3 928.7 475.8 908.5 487.3 888.5C495.7 873.9 509 867.4 525.9 868.8C532.1 869.3 538.2 870.2 544.4 871C539.1 865.7 533.5 861 527.6 856.8C511.2 845 493.7 843.4 476.6 853.9C462.9 862.3 449.3 871.1 440 885C435 892.4 429 899.1 423.4 906.2C422.6 907.2 422.1 908.6 420.2 908.1C419.8 906.3 421.2 905.4 422.1 904.3C429.3 895.1 436.4 885.9 443.7 876.8C446 873.9 447.3 870.9 448 867.4C455.7 828.9 463.7 790.5 471.2 752C473.5 739.9 477.4 728.9 486.4 720.2C488.2 718.4 489.8 716.5 491.4 714.6L491.4 714.6C495.3 710.1 499.3 705.5 503.2 700.9C496.7 702.8 490.9 705.5 485.2 708.4C471.2 715.6 461 726.6 455.2 741.2C447.7 760 440.3 778.9 435.8 798.8C435.3 801.1 435.2 803.8 432.7 805.7C431.5 802.7 433.2 800.4 433.7 798C436.3 786.6 440.5 775.6 440.1 763.4C439.2 737 439.2 710.5 438.9 684C438.8 680.5 438.8 677.1 439.6 673.6C443.1 658 448.8 643 453.2 627.7C454.9 622 456.7 616.3 458.5 610.3C455.9 610.8 455.3 612.6 454.3 613.8C447.3 622.9 440.6 632.2 433.3 641.1C420.6 656.6 415 674.3 415.1 694.2C415.3 727.2 415.3 760.2 415.1 793.2C415 806.2 415.2 819.1 419 831.7C420.2 835.6 421 839.7 421.8 843.8C422 845.1 422.7 846.6 421.2 847.9C419.5 846 419.4 844 419.1 842.1C414.1 814.2 403.7 787.8 394.5 761.1C389.2 745.8 373.1 736.2 357.2 738.9Z" fill="#2DBE8A"/>
<path d="M439 1002.2C467.7 1002.2 496.3 1002.3 525 1002.1C529.2 1002.1 530.3 1003.2 530.3 1007.4C530.1 1025.4 530.1 1043.4 530.3 1061.4C530.3 1065.1 529.4 1066.2 525.6 1066.1C468 1066 410.3 1066 352.7 1066.1C349 1066.1 347.9 1065.2 348 1061.4C348.2 1043.2 348.2 1025.1 348 1006.9C347.9 1002.6 349.6 1002.1 353.2 1002.1C381.7 1002.3 410.4 1002.2 439 1002.2Z" fill="#93C8D3"/>
<path d="M279.8 882.5C287.8 876.4 295.4 870.6 303.1 864.8C309.7 859.8 316.4 854.8 323 849.8C345.3 833.1 374.7 841.5 384.2 867.7C399.6 910.2 414.6 952.9 429.8 995.5C431.2 999.4 430.5 1000.3 426.4 1000.1C419.9 999.8 413.4 999.8 406.9 1000.1C402.8 1000.3 400.9 999.1 399.7 995C390.3 964.1 380.6 933.4 371 902.6C363 876.9 337.4 863.9 311.9 872.5C303.1 875.5 294.3 878.6 285.5 881.6C283.9 882.1 282.4 883.3 279.8 882.5Z" fill="#31C752"/>
<path d="M550.3 995.9C538.9 987.8 527.5 979.8 516.1 971.7C505.5 964.2 496.1 964.9 487 974C479.3 981.7 471.6 989.3 464.1 997C462.1 999.1 460.1 1000.1 457.1 1000C450.6 999.8 444.1 999.8 437.6 1000C434.9 1000.1 433.8 999.1 432.5 996.7C428 988.3 429.8 982.3 436.6 975.6C447.7 964.6 457.7 952.5 468 940.7C484.8 921.3 510.5 923.5 523.2 945.8C532.6 962.2 541.8 978.8 551 995.3C550.8 995.4 550.5 995.7 550.3 995.9Z" fill="#3C9D45"/>
<path d="M837.2 454.1C842.4 455.7 848 454.4 853.2 456.2C851.8 518.3 850.3 580.3 848.9 642.4C846.8 643 846.3 641.1 845.4 640.2C831.6 625.3 817.9 610.3 804.1 595.4C801.7 592.9 800.5 590 799.7 586.7C788.1 541.8 776.3 497 764.6 452.1C764.3 450.8 764.2 449.5 764 448.2C775.4 449.1 786.7 450 798.1 450.9C811 452.2 824 453.7 837.2 454.1Z" fill="black"/>
<path d="M888.038 366.972C895.238 370.972 899.238 376.872 897.938 385.372C896.838 392.772 892.138 397.372 884.938 399.372C882.438 401.172 879.538 400.372 876.838 400.372C875.538 400.172 874.338 399.672 873.138 399.072C870.638 397.472 868.038 395.872 866.438 393.272C865.238 391.372 864.038 391.472 862.438 392.872C859.938 395.172 857.238 396.972 853.738 397.172C853.538 397.172 853.238 397.072 853.038 397.072C841.138 396.972 833.638 391.072 833.038 381.372C832.538 373.472 837.038 366.472 844.438 363.972C852.138 361.372 859.938 364.072 864.438 371.072C865.038 372.072 865.638 372.972 866.338 374.272C871.138 366.872 877.838 364.872 885.838 366.172C886.638 366.472 887.338 366.772 888.038 366.972Z" fill="#010101"/>
<path d="M874.2 398C875.1 398.4 876 398.7 876.8 399.1C879.4 400 882.3 400.1 884.8 401.4C885.6 401.9 886.5 402.3 886.9 403.2C890.2 406.1 894.8 406.4 899 409.1C893.6 412.9 887.8 414 881.7 414.1C876.5 413 871.3 411.7 867.2 408C865.4 406.4 864 406.8 861.9 407.8C852.2 412.8 842.7 411.7 833.6 405.9C832.6 405.3 831.2 404.7 831.4 403.5C831.6 402.1 833.2 402.4 834.2 402.1C840.7 400.3 847.5 400 853.7 397.1H853.6C854.6 396.3 855.9 396.9 856.9 396.3C863.4 392.6 868.9 394.2 874.2 398Z" fill="#ECE9E9"/>
<path d="M1076.5 399.1C1076.5 403.2 1076.4 407.4 1076.5 411.5C1076.5 413.7 1075.8 414.6 1073.6 413.7C1072.5 413.3 1071.4 412.9 1070.3 412.5C1062.2 409.4 1057.9 403.7 1058.8 397.1C1059.7 390.9 1066.6 385.1 1074.1 384C1076.5 383.7 1076.5 384.9 1076.5 386.5C1076.5 390.9 1076.5 395 1076.5 399.1Z" fill="#FB9892"/>
<path d="M1075.8 438.9C1074.1 445.2 1075.3 451.6 1075.1 457.9C1074.2 457.9 1073.4 457.8 1072.9 457C1072.9 450.7 1072.9 444.4 1072.9 438.1C1074 438.2 1075 438.1 1075.8 438.9Z" fill="#5780AC"/>
<path d="M1514 1205.1C1501 1196.5 1488.6 1188.5 1476.4 1180.1C1473.1 1177.8 1470.8 1177.9 1467.6 1180.1C1455.8 1188.4 1443.8 1196.5 1431.8 1204.7C1430.2 1203.3 1430.9 1201.7 1430.9 1200.4C1430.9 1133.3 1430.9 1066.2 1430.8 999.1C1430.8 994.7 1431.9 993.5 1436.3 993.6C1460.8 993.8 1485.3 993.8 1509.7 993.6C1513.1 993.6 1514.3 994.4 1514.3 998C1514.2 1066.1 1514.2 1134.2 1514.2 1202.3C1514.3 1202.9 1514.1 1203.6 1514 1205.1Z" fill="#FEFEFE"/>
<path d="M521.4 364.4C521.4 405 488.1 438.1 447.5 437.9C407.3 437.7 374.1 404.3 374.2 364.1C374.3 323.5 407.6 290.2 448.1 290.3C488.7 290.4 521.4 323.5 521.4 364.4Z" fill="#FEFEFE"/>
<path d="M887 403.1C886.3 402.8 885.7 402.5 885 402.2C884.4 401.2 885.1 400.9 885.9 400.7C903.9 400.7 921.8 400.8 939.8 400.6C943.9 400.6 945.1 401.6 945.1 405.8C945 454 945 502.1 945 550.2C944.4 550.9 943.7 551 942.8 550.9C942.8 503.4 942.7 455.9 942.9 408.5C942.9 404.1 941.9 402.9 937.4 403C920.7 403.2 903.8 403.1 887 403.1Z" fill="#5982AF"/>
<path d="M885.9 400.8C885.6 401.3 885.3 401.8 885 402.3C882.1 401.8 879.4 400.7 876.9 399.1C879.9 399.2 882.9 399.2 885.9 399.3C885.9 399.7 885.9 400.3 885.9 400.8Z" fill="#D58782"/>
<path d="M944.8 836.1C943.9 827.4 943.1 818.6 942.2 809.9C942.9 800.1 941.4 790.4 941.4 780.6C941.3 758.4 941.4 736.1 941.4 713.9C941.4 711.5 941.6 709.3 942.9 707.2C943.6 706.5 944.3 705.8 945 705.2C945 748 945.1 790.9 945.1 833.7C945.1 834.5 944.9 835.3 944.8 836.1Z" fill="#5881AE"/>
<path d="M942.9 707.2C942.9 739.3 942.9 771.4 942.8 803.5C942.8 805.6 943.3 807.8 942.2 809.9C939.7 781.2 937.7 752.5 934.4 723.9C933.4 715.3 936.3 710.8 942.9 707.2Z" fill="#FAFBFC"/>
<path d="M1341.2 465.5C1341.2 447.5 1341.3 429.5 1341.1 411.5C1341.1 407.8 1342.1 406.7 1345.9 406.7C1373.4 406.8 1400.9 406.8 1428.4 406.7C1432 406.7 1432.9 407.9 1432.9 411.3C1432.8 447.1 1432.8 482.9 1432.9 518.8C1432.9 522.4 1431.9 523.8 1428.1 523.8C1400.8 523.7 1373.5 523.7 1346.1 523.8C1342.1 523.8 1341.1 522.3 1341.1 518.5C1341.3 500.8 1341.2 483.1 1341.2 465.5Z" fill="#6189B3"/>
<path d="M1223.8 453.4C1223.8 431.6 1223.9 409.7 1223.7 387.9C1223.7 384.2 1224.7 383.1 1228.4 383.1C1255.7 383.3 1283.1 383.2 1310.4 383.1C1313.9 383.1 1314.9 384.1 1314.9 387.6C1314.8 431.4 1314.8 475.2 1314.9 519.1C1314.9 522.5 1314 523.8 1310.4 523.8C1283.1 523.7 1255.7 523.7 1228.4 523.8C1224.6 523.8 1223.6 522.6 1223.6 518.9C1223.9 497 1223.8 475.2 1223.8 453.4Z" fill="#5C85B0"/>
<path d="M1457.8 465C1457.8 447.2 1457.9 429.3 1457.7 411.5C1457.7 407.9 1458.5 406.6 1462.4 406.6C1489.7 406.8 1517 406.8 1544.4 406.6C1548.3 406.6 1549.1 407.9 1549.1 411.5C1549 447.3 1549 483.1 1549.1 519C1549.1 522.9 1547.7 523.7 1544.2 523.7C1517 523.6 1489.9 523.6 1462.7 523.7C1458.6 523.7 1457.7 522.2 1457.8 518.5C1457.9 500.7 1457.8 482.9 1457.8 465Z" fill="#5A83AF"/>
<path d="M1387.2 397.1C1373.6 397.1 1359.9 397 1346.3 397.2C1342.5 397.3 1341 396.3 1341.1 392.3C1341.4 381.7 1340.2 383.2 1350.1 383.2C1375.7 383.1 1401.3 383.3 1426.9 383.1C1431.5 383.1 1433 384.3 1432.8 389C1432.4 398.7 1433.8 397.1 1424.6 397.2C1412.1 397.2 1399.7 397.1 1387.2 397.1Z" fill="#6188B3"/>
<path d="M1304 319.9C1290.2 319.9 1276.4 319.8 1262.6 320C1259.1 320 1258 318.8 1258 315.4C1258 305.9 1257.9 305.9 1267.4 305.9C1292.9 305.9 1318.3 306 1343.8 305.8C1348.3 305.8 1350.4 306.8 1349.7 311.6C1349.5 312.9 1349.6 314.3 1349.7 315.6C1350 319.1 1348.4 320.1 1344.9 320.1C1331.3 319.8 1317.6 319.9 1304 319.9Z" fill="#6189B3"/>
<path d="M1503.4 383.2C1516.9 383.2 1530.4 383.3 1543.9 383.1C1547.7 383 1549.2 383.9 1549 388C1548.7 397.1 1549 397.1 1539.7 397.1C1514.2 397.1 1488.7 397 1463.3 397.2C1459.1 397.2 1457.4 396.5 1457.6 391.8C1458 383.1 1457.7 383.1 1466.4 383.1C1478.8 383.2 1491.1 383.2 1503.4 383.2Z" fill="#6188B3"/>
<path d="M1388.7 319.9C1381.2 319.9 1373.7 319.8 1366.2 320C1363 320.1 1361.8 318.9 1361.9 315.7C1362.2 303.7 1360.4 306.1 1371.5 306C1384.7 305.8 1397.8 306.1 1411 305.9C1414.3 305.9 1415.3 306.8 1415.2 310.1C1414.9 322.2 1416.6 319.8 1405.6 320C1400.1 320 1394.4 319.9 1388.7 319.9Z" fill="#6188B3"/>
<path d="M1153.3 397.1C1153.3 396.4 1153.3 395.7 1153.3 395C1155.4 393.1 1158 393.6 1160.4 393.5C1171 393.4 1181.6 393.5 1192.3 393.5C1194 393.5 1195.6 393.6 1197.2 393.1C1198.5 392.7 1199.1 391.8 1199.1 390.5C1199.1 389.2 1198.5 388.3 1197.2 388C1195.6 387.6 1193.9 387.6 1192.2 387.6C1181.4 387.6 1170.6 387.6 1159.8 387.6C1157.4 387.6 1154.7 388.2 1153 385.7C1152.7 385.1 1152.3 384.6 1152 384C1150.9 382.6 1150.9 381.3 1152.3 380.1C1153.1 382.5 1154.7 383.3 1157.3 383.2C1170.9 383 1184.6 383.2 1198.2 383C1201.7 383 1203.2 383.6 1203.1 387.6C1202.9 397.1 1203.1 397.1 1193.7 397.1C1180.2 397.1 1166.7 397.1 1153.3 397.1Z" fill="#638AB3"/>
<path d="M1152.2 380.1C1152.1 381.4 1152 382.7 1151.9 384C1150.1 384.8 1148.4 385.2 1147 383.5C1146 382.4 1146.1 381 1146.9 379.8C1148.2 377.7 1150 378.5 1151.7 379C1151.9 379.3 1152 379.7 1152.2 380.1Z" fill="#1F1514"/>
<path d="M1153 385C1167.1 385 1181.2 385.1 1195.3 385C1198.9 385 1201 385.1 1201.1 389.8C1201.1 394.5 1198.9 394.3 1195.6 394.3C1181.5 394.2 1167.4 394.3 1153.3 394.3C1153.2 391.3 1153.1 388.2 1153 385Z" fill="#FDFDFE"/>
<path d="M1119.1 383C1118.9 384.8 1117.6 385.8 1115.7 385.6C1114.1 385.4 1112.9 384.3 1112.9 382.5C1112.9 380.5 1114.3 379.4 1116.1 379.4C1118.1 379.5 1119.2 380.8 1119.1 383Z" fill="#150D0C"/>
<path d="M851 393C843.5 393 837.8 387.2 837.9 379.6C838 372.3 843.6 366.7 851 366.7C858.3 366.7 864 372.3 864.1 379.5C864.2 387.2 858.5 393 851 393Z" fill="#FD9993"/>
<path d="M886 394.9C880.1 396.6 874.5 394.8 871.3 390C868.1 385.3 868.3 379.2 871.6 374.7C875.4 369.7 880.8 368.3 887.9 370.7C888.6 375.1 889.2 379.4 887.4 383.7C885.4 385.1 885.4 382.9 884.7 382.1C884.1 381.5 883.7 380.8 882.7 381.3C882.4 381.5 882.2 381.7 882.2 382.1C882.1 383.1 882.7 383.6 883.5 383.8C884.9 384.3 886.5 384.3 887 386C887.5 389.2 888.1 392.2 886 394.9Z" fill="#FC9993"/>
<path d="M874.2 398C867.6 394 860.7 396.4 853.9 397C858.3 395.1 862.8 393.5 865.6 388.1C868.1 392.4 870.6 395.7 874.2 398Z" fill="#F39690"/>
<path d="M481.7 395.9C475.5 390.4 470 385.5 464.5 380.6C461.9 378.3 459.3 376 456.7 373.6C454.2 371.2 451.8 369 447.7 370.1C445.3 370.8 443.2 369 442.2 366.7C441.1 364.1 441.2 361 443.8 359.5C446.8 357.8 446.7 355.5 446.7 352.8C446.7 341 446.7 329.2 446.7 317.4C446.7 315.7 446 313.8 447.7 312.1C449.5 313.5 448.8 315.4 448.8 317C448.9 328.8 448.8 340.6 448.8 352.4C448.8 353.4 448.4 354.9 448.9 355.3C453.5 359.4 452.5 366.5 456.7 370.5C464.2 377.6 472 384.4 479.6 391.3C480.8 392.2 482.2 392.7 481.7 395.9Z" fill="#5A83AF"/>
<path d="M1343.8 465C1343.8 448 1343.9 431 1343.7 414.1C1343.7 410.4 1344.3 408.9 1348.5 409C1374.1 409.2 1399.8 409.2 1425.4 409C1429.1 409 1430.2 410 1430.1 413.7C1430 448 1429.9 482.3 1430.1 516.6C1430.1 520.5 1428.8 521.2 1425.3 521.2C1399.7 521.1 1374 521 1348.4 521.2C1344.7 521.2 1343.6 520.2 1343.7 516.5C1344 499.3 1343.8 482.1 1343.8 465Z" fill="#E74F4F"/>
<path d="M1226 453C1226 432.2 1226.1 411.3 1225.9 390.5C1225.9 386.5 1227.1 385.6 1231 385.6C1256.7 385.8 1282.3 385.7 1308 385.6C1311.7 385.6 1312.9 386.5 1312.9 390.3C1312.8 432.5 1312.8 474.6 1312.9 516.8C1312.9 519.9 1312.2 521.1 1308.8 521.1C1282.6 521 1256.5 520.9 1230.3 521.1C1226.5 521.1 1226 519.7 1226.1 516.5C1226 495.4 1226 474.2 1226 453Z" fill="#FEFEFE"/>
<path d="M1546.8 465C1546.8 482.2 1546.7 499.3 1546.9 516.5C1546.9 520.3 1545.9 521.2 1542.1 521.2C1516.3 521 1490.5 521 1464.7 521.2C1461 521.2 1459.9 520.4 1459.9 516.5C1460.1 482.2 1460.1 447.9 1459.9 413.6C1459.9 409.8 1460.9 408.9 1464.6 408.9C1490.4 409.1 1516.2 409.1 1542 408.9C1545.7 408.9 1546.8 409.7 1546.8 413.6C1546.7 430.7 1546.8 447.9 1546.8 465Z" fill="#FEFEFE"/>
<path d="M1386.4 394.9C1373.6 394.9 1360.8 394.8 1348 395C1344.1 395.1 1343.8 393.4 1343.8 390.3C1343.8 387 1344.4 385.6 1348.2 385.6C1374.2 385.8 1400.1 385.8 1426.1 385.6C1429.9 385.6 1430.3 387.3 1430.4 390.4C1430.5 393.7 1429.7 395.1 1426 395C1412.7 394.8 1399.6 394.9 1386.4 394.9Z" fill="#FEFEFE"/>
<path d="M1304 308.1C1316.8 308.1 1329.6 308.2 1342.5 308C1345.7 308 1347.4 308.4 1347.2 312.2C1347 315.3 1347.1 317.3 1342.8 317.3C1317 317.1 1291.2 317.1 1265.4 317.3C1261.6 317.3 1260.7 316.1 1260.6 312.5C1260.5 308.4 1262.2 308 1265.6 308C1278.3 308.2 1291.2 308.1 1304 308.1Z" fill="#FEFEFE"/>
<path d="M1503.4 394.9C1490.3 394.9 1477.1 394.8 1464 395C1460.4 395.1 1460 393.5 1460 390.6C1460.1 387.7 1459.9 385.6 1464 385.6C1490.3 385.8 1516.6 385.8 1542.8 385.6C1547 385.6 1546.7 387.8 1546.8 390.6C1546.9 393.7 1546.3 395 1542.8 395C1529.7 394.8 1516.5 394.9 1503.4 394.9Z" fill="#FDFEFE"/>
<path d="M1388.5 317.3C1381.8 317.3 1375.2 317.1 1368.5 317.4C1364.8 317.5 1364.5 315.6 1364.6 312.8C1364.7 310.3 1364.2 308 1368.3 308.1C1381.9 308.4 1395.6 308.3 1409.2 308.1C1413.1 308 1412.9 309.9 1413 312.6C1413.1 315.6 1412.9 317.6 1408.9 317.4C1402.1 317 1395.3 317.3 1388.5 317.3Z" fill="#FEFEFE"/>
<path d="M854.1 379.8C853.9 381.7 852.9 382.9 851 382.9C849.1 382.9 848 381.7 848 379.7C848.1 377.9 849.1 377 850.8 376.9C852.8 376.8 853.8 377.9 854.1 379.8Z" fill="#0C0807"/>
<path d="M886.3 384C886.1 384.2 886 384.5 885.9 384.8C884.2 385.5 882.4 386.2 880.9 384.4C880.1 383.4 879.9 382.3 880.6 381.2C881.3 380 882.4 379.1 883.9 379.4C886.5 379.8 886.4 382 886.3 384Z" fill="#1A1312"/>
<path d="M449.5 367.7C446.3 368.4 444.5 367.4 444 364.6C443.7 363.2 444 361.6 445.4 361.2C447.3 360.8 446.4 362.8 446.9 363.6C447.7 365 448.5 366.2 449.5 367.7Z" fill="#EEF2F6"/>
<path d="M449.5 360.3C451.6 361.8 452.5 363.1 451.6 365.4C449.1 364.5 448.6 362.9 449.5 360.3Z" fill="#E2E9F1"/>
<path d="M1363.2 508.7C1366.6 506.5 1370.2 506.9 1373.7 507.1C1377.1 507.3 1378.1 506 1377.8 502.8C1377.6 500.2 1377.8 497.5 1377.7 494.8C1377.7 491.1 1378.6 487.7 1373 485.8C1366.6 483.6 1366.6 474 1372.2 469.6C1373.2 468.8 1374.5 468.2 1375.6 467.5C1376.6 466.9 1377.8 466.3 1377.4 464.9C1377 463.7 1375.7 464.1 1374.8 463.9C1367.6 462.3 1362 458.7 1358.3 452.1C1356.8 449.4 1356.7 447.9 1360.6 448C1372.6 448.1 1384.6 448 1396.6 448.1C1397.3 448.1 1398 447.9 1398.6 448.2C1400.1 448.9 1400.8 452.6 1403.2 448.9C1405.6 445.4 1407.3 442.1 1405.3 437.8C1402 430.9 1394.5 427.5 1386.9 429.5C1381 431.1 1376.1 434.5 1371.4 438.4C1370.2 439.4 1369.3 441 1367.3 441.2C1367.3 440.6 1367 439.9 1367.2 439.7C1372.9 433.4 1379.6 428.6 1388.1 427C1396.4 425.5 1404.2 429.7 1407.7 437.4C1410 442.2 1408.1 446.2 1405.2 449.8C1400.8 455.4 1394.7 458.9 1388.8 462.7C1385.9 464.6 1381.2 465.3 1380.4 468.4C1379.2 472.9 1379.9 478 1379.9 482.8C1379.9 485.5 1382 485 1383.5 484.9C1388.1 484.5 1391.7 485.8 1393.4 490.5C1395.1 495.3 1393.1 498.9 1389.5 501.9C1387.9 503.3 1386.3 504.8 1384.4 506.5C1387.9 507.6 1391.5 506.1 1394.4 508.6C1384 508.7 1373.6 508.7 1363.2 508.7Z" fill="#FEFEFE"/>
<path d="M1397.2 450.2C1393.3 457.8 1387.5 461.3 1380.2 461.9C1372.8 462.5 1366.6 459.5 1362 453.5C1361.4 452.7 1360.6 451.9 1361.2 450.9C1361.8 449.9 1363 450.3 1363.9 450.3C1374.7 450.2 1385.5 450.2 1397.2 450.2Z" fill="#E74F4F"/>
<path d="M1379.9 507.3C1379.9 500.8 1379.9 495.3 1379.9 489.7C1379.9 488.5 1379.8 487.1 1381.5 487.2C1384.3 487.2 1387.2 486.3 1389.6 488.7C1392.5 491.6 1392.6 495.8 1389.5 498.9C1386.7 501.6 1383.6 504.1 1379.9 507.3Z" fill="#E74F4F"/>
<path d="M1377.7 469.8C1377.7 473.9 1377.7 477.7 1377.7 481.6C1377.7 482.7 1377.9 484.1 1376.6 484.7C1375.2 485.3 1374 484.4 1373 483.5C1369.1 480 1369.8 471.2 1377.7 469.8Z" fill="#E74F4F"/>
</svg>
