<svg width="1840" height="1380" viewBox="0 0 1840 1380" fill="none" xmlns="http://www.w3.org/2000/svg">
<path d="M920 1379.9C614.9 1379.9 309.7 1379.9 4.6001 1380C0.900098 1380 0 1379.2 0 1375.4C0.1 918.5 0.1 461.5 0 4.60001C0 0.900006 0.800098 0 4.6001 0C614.9 0.1 1225.1 0.1 1835.4 0C1839.1 0 1840 0.800006 1840 4.60001C1839.9 461.5 1839.9 918.5 1840 1375.4C1840 1379.1 1839.2 1380 1835.4 1380C1530.3 1379.9 1225.2 1379.9 920 1379.9Z" fill="#FCFCFC"/>
<path d="M840.8 443.2C842 436.6 842 436.6 847.9 437.8C864.2 441.1 880.6 444.4 896.9 447.7C898 447.9 899.2 447.8 900.3 447.9C901 448.1 901.7 447.5 902.4 448.1C907.8 452.1 914.6 453.6 919.9 457.9C921.1 458.9 922 461.2 924.3 459.9C925.4 460.3 926.1 461.1 926.8 461.9C938.4 473.3 944.3 487.2 945.7 503.2C946.2 508.4 945.1 513.5 944.2 518.6C940.1 543.1 936.3 567.6 934.1 592.3C932.9 605.7 932.6 619.2 929 632.3C926.2 642.6 922.9 652.7 917.6 662.1C916 665 916.2 667.7 917.1 670.7C925.6 699.8 934.4 728.8 943 757.8C953.1 791.6 963.1 825.4 973.3 859.2C974.7 866.4 973.1 873.5 972.4 880.5C970.5 900.8 968.5 921.2 967 941.5C966.1 954.2 969.2 966.6 974.9 978.1C979.7 987.8 984.6 997.4 989.7 1006.9C990.7 1008.8 992.5 1010.8 990.9 1013.3C989.4 1014.2 987.8 1014.3 986.2 1014C979.4 1012.9 972.5 1013.3 965.6 1013.7C938.4 1013.1 911.2 1013.6 884.1 1013.4C881.9 1013.4 879.8 1013.5 877.6 1013.3C870.6 1013.7 863.5 1012.9 856.5 1013.7C854.3 1014.3 854.7 1016.2 854.7 1017.7C854.6 1021.4 854.7 1025.2 854.6 1029C854.6 1030.8 854.7 1032.6 853.2 1034C850.6 1033.2 851 1031 850.8 1029.1C850.6 1026.1 850.7 1023.1 850.7 1020.1C850.8 1016.8 850.6 1013.9 847.1 1012.1C844.8 1010.9 844.8 1008.2 844.7 1005.9C844.6 999.1 844.7 992.3 844.6 985.4C844.6 983.5 845 981.4 843.2 979.4C841.3 981.1 841.8 983.4 841.8 985.3C841.7 999.3 841.8 1013.3 841.7 1027.2C841.7 1029.6 842.7 1032.7 839.1 1033.8C837.4 1031.8 837.9 1029.4 837.9 1027.1C837.9 1012.8 837.9 998.5 837.8 984.3C837.8 982.4 838.7 980.2 836.5 978.9C832.6 977.8 828.7 978.5 824.8 978.3C822.9 978.2 820.9 978.3 819.1 977.2C815.4 972.8 816.5 967.3 816 962.4C811.6 919.2 807.3 876 802.9 832.7C799.6 800.1 796.4 767.4 793.1 734.8C792.8 731.8 792.5 728.6 796.6 727.6C801 726.5 804.7 727.8 806.4 731.4C807.2 733.1 807.6 734.9 808.1 736.6C818.4 777.5 828.9 818.3 839.5 859.1C840.9 864.4 841.9 869.8 843.2 875.2C842.4 872.2 841.8 869.3 841.9 866.2C842.6 832.2 840.4 798.3 840.8 764.3C841.1 739 839.1 713.7 839.9 688.4C841 683.2 838.9 680 834.4 676.9C798.7 652.1 763 627.2 727.3 602.3C725.9 601.3 724.5 600.4 723.8 598.8C723.1 593.6 727.1 590 728.6 585.6C736.2 570.6 743.8 555.6 751.1 540.4C753.8 538.3 755.8 540.3 757.8 541.6C772.8 550.9 787.4 560.7 802.3 570.2C813.5 577.4 824.5 584.8 835.8 591.9C836.9 592.6 838 593.9 839.3 592.9C840.4 592.1 839.9 590.8 839.8 589.6C838.5 576.7 838.8 563.8 839.7 550.8C843.7 537.5 845.3 523.7 848.3 510.1C848.9 507.4 849.1 504.5 849.9 501.8C852.9 491.8 850.4 483.9 841.1 478.6C839.5 476.6 839.8 474.2 839.8 472C839.8 462.5 840.2 452.9 840.8 443.2Z" fill="#6DB5DE"/>
<path d="M508.7 329C512.4 303.7 516.201 278.3 519.901 253C521.201 243.9 525.5 240.6 534.5 241.9C592.6 250.4 650.7 258.8 708.7 267.3C723.7 269.5 738.6 271.8 753.6 274C760.8 275.1 764.3 279.9 763.3 287C762.9 289.9 762 292.9 762.7 295.9C762.5 305.4 760.5 314.7 759.1 324.1C758.7 330.2 757 336.2 757.2 342.4C756.2 344.5 756 346.7 756.1 349C753.6 358.7 753.1 368.8 751.1 378.6C749.8 391.8 747.2 404.7 745.6 417.9C745.4 419.7 745.1 421.5 745.2 423.3C741.7 440.8 739.7 458.5 737 476.1C735.4 487.1 733.7 498.1 732.1 509.2C731.9 510.8 731.7 512.5 730.5 513.8C727.7 515.6 725.9 513.4 724 512C717.5 507.1 710.1 504.7 702 504.7C700 504.8 698.6 503.4 697.2 502.3C695.4 500.9 693.9 501.1 692.3 502.4C686.3 498.8 679.7 496.4 673.3 493.9C668.2 491.9 663.5 492.7 659.3 496.1C657.8 496.7 656 497 656 499.2C654.6 501.5 653.1 503.7 651.1 505.5C649.5 506.5 648.8 507.9 648.8 509.8C645.8 521.5 649.9 529.8 659.8 536.5C678.9 549.5 697.9 562.5 716.8 575.7C718.9 577.2 721.6 578.3 721.6 581.6C721.3 584.7 720.601 587.7 719.901 590.8C718.801 596.2 715.6 599.5 710.1 600.4C698.2 600.6 686.7 597.9 675 596.2C636.3 590.6 597.7 584.8 559 579.3C557 579 555.1 578.6 553.1 578.2C550.9 577.4 548.601 577.5 546.401 577.3C526.401 574.4 506.4 571.6 486.4 568.4C478.2 567.1 474.9 563.2 474.4 555.2C474.4 553.5 474.4 551.7 474.6 550C478 530.9 480.3 511.6 483.3 492.4C483.7 490.1 483.9 487.8 485 485.7C486.7 483.5 488.9 484.6 491 484.7C497.8 485.1 503.6 483.8 506.7 476.8C507.9 475.4 507.6 473.6 507.6 471.9C509.9 469.1 510.401 465.6 511.401 462.2C512.401 461 513.2 459.8 513.1 458.2C514.1 448.5 508.8 440.1 498.3 434.8C496.2 433.7 493.4 433.4 492.8 430.3C494.5 413.4 497.401 396.7 499.901 379.9C501.101 371.8 501.8 363.7 503.7 355.7C504.4 353.9 504.5 352 504.5 350C505.1 344.8 505.801 339.6 506.901 334.5C507.401 332.6 507.4 330.5 508.7 329Z" fill="#202B6D"/>
<path d="M1172.5 835.2C1171.3 837.2 1172.5 839.1 1172.9 840.9C1188.6 904.6 1204.3 968.3 1220 1032.1C1218.5 1034.9 1215.8 1034.5 1213.4 1034.5C1204.9 1034.6 1196.4 1034.8 1188 1034.5C1169.7 1033.8 1151.5 1036.2 1133.2 1035.4C1128.5 1035.4 1123.9 1035.4 1119.2 1035.4C1115.2 1035.4 1112.8 1033.7 1112.3 1029.7C1111.5 1022.3 1109.5 1015.1 1110.3 1007.4C1111 1000.6 1108.8 993.9 1107.7 987.2C1097.4 920.3 1087.2 853.4 1076.8 786.4C1076.3 783.2 1076.2 779.7 1073.8 777.1C1070.9 763.8 1069.5 750.3 1067.3 736.9C1065.3 724.6 1063.5 712.3 1061.6 700C1061.2 697.6 1060.6 695.1 1062.1 692.8C1066.8 690.4 1071.9 691.7 1076.8 691.6C1084.8 691.4 1084.8 691.5 1086.3 683.5C1088.1 673 1090.1 662.6 1091.8 652.1C1092.6 647.2 1092.1 646.6 1087.1 646.5C1081.5 646.4 1075.8 646.5 1070.2 646.4C1068.1 646.4 1065.8 646.6 1064.1 644.9C1062.9 637.7 1063.9 630.4 1064.4 623.2C1065 614.6 1065.3 606 1065.8 597.4C1066.5 584.8 1067.1 572.3 1068 559.7C1068.1 558.5 1068.3 557.4 1068.9 556.4C1069.3 555.8 1069.8 555.6 1070.4 555.7C1072.7 558.2 1071.8 561.4 1071.9 564.3C1072.2 573.4 1076.1 577.3 1085.1 577.4C1098.1 577.5 1104.2 569.3 1100.3 556.7C1099.2 553 1096.8 550.2 1092.9 549.2C1088.4 548.1 1086.8 545.4 1086.9 540.9C1087 522.1 1086.9 503.3 1087 484.5C1087 478.7 1088.1 477.6 1093.6 477.5C1102.7 477.4 1111.9 476.9 1121 477.8C1127.5 478.4 1133.8 480.1 1139.5 483.4C1142.8 485.2 1144 484.3 1143.9 480.7C1143.8 475.9 1143.8 471 1143.9 466.2C1143.9 464.3 1143.7 462.1 1145.6 460.7C1145.9 460.8 1146.4 461 1146.4 461.2C1147.2 469.9 1146.6 478.6 1146.8 487.1C1146.8 480.1 1146.7 473 1146.9 465.8C1146.9 464.1 1146 462.1 1147.8 460.7C1150.2 462 1149.7 464.4 1149.7 466.5C1149.8 472.5 1149.8 478.5 1149.7 484.5C1149.6 488.1 1150.8 490.9 1153.3 493.4C1162.1 502.1 1165.6 512.4 1164.9 525C1163.8 545.4 1162.2 565.8 1161.6 586.3C1161.6 588.1 1161.2 589.9 1160.7 591.7C1160.6 592.6 1160.6 593.5 1160.6 594.3C1160.3 610.4 1158.8 626.5 1158 642.5C1157.6 650.8 1156.7 659.1 1156.7 667.4C1156.7 674.2 1155.5 680.6 1151.8 686.5C1150.1 689.1 1149.6 692 1149.6 695.1C1149.6 709.1 1149.6 723 1149.6 737C1149.6 743.9 1151.9 750.4 1153.5 757C1159.5 781.9 1166 806.7 1171.8 831.6C1172.5 832.9 1172.6 834 1172.5 835.2Z" fill="#6DB5DE"/>
<path d="M841.4 687.1C841.8 724.7 842.2 762.4 842.7 800C843.1 826.5 843.6 852.9 844.1 879.6C842.4 878.6 842.6 876.8 842.2 875.3C830.2 828.8 818.3 782.2 806.4 735.7C805.4 731.6 804.7 728.3 798.9 728.9C795.1 729.3 794.2 730 794.6 733.8C798.9 774.9 803.1 815.9 807.3 857C811.2 895.3 814.9 933.5 818.7 971.8C818.9 973.6 819.3 975.4 819.6 977.2C821.3 978.9 821.1 981.2 821.3 983.3C823 999.5 825.1 1015.7 826.1 1032C826.1 1033.2 826.6 1034.3 826.7 1035.5C827.9 1048.9 829.3 1062.3 830.7 1075.7C830.8 1076.9 830.9 1078.1 830.9 1079.3C833 1098.7 834.8 1118.2 836.8 1137.6C836.9 1138.8 836.9 1140 836.9 1141.2C838.1 1146.1 837.9 1151.1 838.6 1156.1C838.9 1158 839 1160.1 837 1161.5C832 1162.2 827.1 1161.7 822.1 1161.7C800.5 1161.8 779 1161.8 757.4 1161.7C754.7 1161.7 751.7 1162.3 749.5 1159.8C749.7 1153.4 748.9 1147.1 748.4 1140.7C747.4 1139.8 747.3 1138.6 747.1 1137.4C745.2 1118.1 744.3 1098.8 743.1 1079.5C743.1 1078.3 743 1077.1 743.1 1075.9C741.4 1062.5 741.3 1048.9 740.2 1035.4C740.2 1034.5 740.2 1033.6 740.2 1032.7C738.5 1014.5 737.9 996.2 736.2 978C734.9 952.8 732.8 927.6 731.3 902.4C730.2 884.6 729.1 866.9 727.9 849.2C726.4 826.5 725 803.8 723.3 781C722 763.3 721.1 745.5 719.9 727.8C718.7 710.2 718 692.6 716.3 675.1C716.2 673.6 716.2 672.1 716.2 670.6C716.2 669.3 716.5 668.1 717.2 667.1C719.2 665.4 721.6 665.9 723.9 666.3C761.3 672.5 798.6 678.7 836 685.1C838 685.2 840 685.5 841.4 687.1Z" fill="#8F3600"/>
<path d="M1062.3 693.1C1064.8 710 1067.3 726.9 1069.8 743.7C1071.5 754.8 1073.2 766 1075 777.1C1074.8 778 1074.1 778.5 1073.3 778.9C1068.3 779 1066.7 782 1066.2 786.6C1064 808.5 1061.3 830.3 1058.8 852.1C1056 877.1 1053.1 902.1 1050.3 927C1049.6 932.8 1049.1 938.6 1048.2 944.4C1047.8 947.1 1048.7 949.3 1050 951.5C1061.3 970.6 1072.2 989.9 1083.6 1008.8C1094.7 1028.9 1106.7 1048.4 1118 1068.3C1126.7 1083.6 1136.2 1098.4 1144.2 1114.1C1144.2 1114.3 1144.2 1114.6 1144.2 1114.8C1142.5 1117 1143.8 1118.7 1144.8 1120.7C1151.2 1132.2 1157.6 1143.8 1164 1155.3C1164.8 1156.7 1165.4 1158.3 1166.1 1159.7C1164.6 1161.3 1162.5 1161.4 1160.5 1161.4C1131 1161.4 1101.4 1161.5 1071.9 1161.4C1070.9 1161.4 1069.9 1161.3 1068.9 1161.1C1066.5 1160.6 1065.7 1158.6 1064.7 1156.7C1062 1151.6 1059.8 1146.4 1056.7 1141.5C1056.1 1140.4 1055.5 1139.3 1055 1138.2C1045.2 1118.2 1034.2 1098.8 1024.3 1078.7C1023.9 1077.8 1023.4 1077 1023 1076.1C1015.6 1062.6 1008.8 1048.9 1001.6 1035.3C1001.2 1034.4 1000.7 1033.6 1000.3 1032.7C998 1027.4 994.6 1022.7 992.2 1017.5C991.5 1015.9 990.3 1014.4 990.8 1012.4C985.9 1002.9 981.2 993.4 976.1 984C966.2 966.1 964.3 947 966.5 926.9C969 904.4 971.2 881.9 972.3 859.3C971 845.1 973.9 831.2 974.9 817.1C976.3 797.7 978.2 778.4 980.1 759C981.2 751.3 981.5 743.5 982.2 735.7C983.3 726.4 984.1 717 984.8 707.7C985.1 702.8 985.1 697.8 987 693.1C988.9 691.1 991.5 691.1 993.9 691.1C1014.6 691 1035.3 691 1056 691.1C1058.4 691.4 1060.6 691.3 1062.3 693.1Z" fill="#E74F4F"/>
<path d="M1067.6 1159.8C1100.5 1159.8 1133.4 1159.8 1166.3 1159.8C1165.3 1170.4 1162 1180.5 1159.8 1190.9C1157.1 1203.6 1154 1216.2 1151.4 1228.9C1150.7 1232.3 1149.4 1233.3 1145.9 1233.3C1096.6 1233.1 1047.3 1233 998.1 1233C887.4 1233 776.6 1233.1 665.9 1233.2C659.5 1233.2 659.4 1233.2 660.6 1226.7C662.8 1215.4 668.3 1206.5 678.6 1200.5C700.6 1187.8 722.4 1174.8 744.3 1161.9C746 1160.9 747.6 1159.6 749.7 1159.6C777.1 1159.6 804.6 1159.7 832 1159.7C833.8 1159.7 835.7 1159.4 837.3 1160.4C839 1161.4 838.7 1163.3 838.9 1164.9C840.3 1174.4 840.8 1184.1 841.8 1193.6C842.3 1198.8 842.8 1199.2 847.4 1196.4C866.7 1184.9 885.9 1173.3 905.1 1161.8C907.5 1160.3 909.9 1158.8 912.8 1158.5C920 1156.9 927.4 1157.2 934.7 1157.2C956.3 1157.3 978 1156.9 999.6 1157.4C1003 1157.8 1004.2 1160.1 1005 1163.1C1008.2 1174.7 1011 1186.3 1014.1 1197.9C1015.4 1202.8 1015.5 1202.9 1019.3 1199.7C1033.6 1187.5 1047.7 1175.1 1062 1162.8C1063.8 1161.5 1065.2 1159.8 1067.6 1159.8Z" fill="black"/>
<path d="M1062.3 693.1C1039 693.1 1015.7 693 992.401 693C990.701 693 989 692.8 987.7 694.2C986.2 694.4 984.6 694.4 983.1 694.4C982.3 694.4 981.5 694.4 980.6 694.5C971 694.5 961.4 694.9 951.8 693.4C942.1 691.9 935.5 683.9 937 675.2C941.1 672.2 946 674.7 950.8 673.2C946.1 671.4 941 674.1 937 671C935.8 668.5 935.801 666 936.901 663.5C938.901 661.1 941.7 661.9 944.2 661.7C946.3 661.5 948.501 662 950.901 661.1C946.401 659.6 941.7 661.6 937.7 659.5C936.5 654.7 939.7 651.8 943 649.9C946.9 647.6 947.1 645.3 945.6 641.4C943.4 635.7 943.701 629.6 944.901 623.7C950.301 597.8 955.9 572 960.6 545.9C962.6 535.1 964.6 524.3 966.5 513.5C967 510.9 966.8 508.6 965.6 506.3C956 487.3 947.6 467.7 937.8 448.8C936.1 445.5 934.1 442.5 932.7 439.1C932.4 437.1 932.6 435.2 933.5 433.4C935.7 428 939.501 425.1 945.401 425.1C949.501 428 950.9 432.8 953.1 436.9C956.1 442.5 959.2 448.1 963 453.2C960 446.7 956.7 440.3 953.3 433.9C951.6 430.8 948.8 428.1 949.5 424C953.1 423 956.701 422 960.401 421C962.801 422.3 963.7 424.7 964.8 426.9C967.8 433.2 971.6 439.1 974.7 445.4C975.5 446.9 976.2 448.7 978.5 450C974.5 441.3 969.8 433.7 965.8 425.7C964.9 424 963.201 422.5 964.401 420.3C970.601 419.9 976 422.3 981.2 425.3C982.1 425.5 982.7 426.1 983 426.9C986.1 436.4 991.3 444.6 997.8 452.1C998 454.6 999.6 456.5 1000.5 458.7C1000.9 459.5 1001.3 460.3 1001.6 461.1C1002.4 463.5 1003.6 465.7 1004.8 468.1C1006.4 465.8 1006 463 1006.9 460.7C1007.4 459.8 1007.9 458.8 1009.1 458.6C1014.3 459.6 1019.7 458.8 1024.7 460.9C1025.9 463.5 1024.9 466.1 1024.5 468.7C1023.4 474.7 1022.3 480.8 1021.5 486.8C1019 498.1 1017.6 509.7 1014.9 521C1014.8 522.7 1014.2 524.2 1014 525.9C1010.8 545.1 1007.5 564.4 1004.5 583.7C1003.5 587.7 1003.1 591.8 1002.4 595.9C1000.4 607.1 998.501 618.4 996.401 629.6C995.701 633.2 996.9 635.3 1000.3 636.4C1003.3 637.4 1006.3 638.4 1009.3 639.3C1015.6 642.1 1022.3 642.7 1029.2 642.7C1039.4 642.7 1049.7 644 1059.9 643.6C1061.6 643.5 1063.2 643.9 1064.6 644.8C1073.1 644.9 1081.5 645.2 1090 645.2C1093.4 645.2 1094.6 645.9 1093.8 649.8C1091.1 663.1 1088.8 676.5 1086.5 689.9C1086.1 692.5 1085.1 693.2 1082.6 693.2C1075.9 693 1069.1 693.1 1062.3 693.1Z" fill="#FD9993"/>
<path d="M729.6 514.3C731.8 506.1 732.4 497.7 733.6 489.4C736.8 468.5 739.7 447.5 742.7 426.5C742.9 425 743.8 424.2 744.5 423.1C747.7 418.3 752.6 418.4 757.4 419C763.4 419.7 769.2 420.9 775.1 422.2C780.4 423.4 780.8 424 779.8 429.4C776.9 445.3 773.7 461.1 770.5 476.9C769.8 480.2 769.2 483.4 768.7 486.7C768.1 489.8 766.7 491.6 763.1 491.8C756.4 492.2 753 495.5 751.5 502.2C750.8 505.3 750 508.4 750.6 511.6C751.8 517.8 757.7 521.5 767.5 522.1C773 522.4 777.4 519.1 779.1 513.1C779.7 510.9 780.1 508.6 780.4 506.2C781 500.6 779.1 496.3 773.8 494.1C770 492.5 769.1 489.9 769.9 486.1C773.9 466.9 777.3 447.5 781.2 428.3C781.6 426.3 782 424.3 784.6 424.1C796.4 425.8 807.9 428.7 819.6 430.8C821.1 431.1 822.4 431.7 823.5 432.8C826.7 433.5 830 434.5 833.2 434.8C837.2 435.2 838.4 436.5 837.4 440.7C834.9 451.6 832.8 462.5 830.8 473.5C830.3 476.5 829.4 476.6 826.7 476.1C813.7 473.8 807 478.8 804.6 491.8C801.8 506.7 798.8 521.5 795.9 536.3C794.1 545.7 797.8 553.4 805.8 556.3C807.4 556.9 809.3 557.8 810.2 555.8C811.2 553.4 808.8 553.5 807.3 552.8C801.2 550.3 798.3 545.6 799.5 538.9C802.6 522.2 805.8 505.6 809.2 489C810.8 481.5 816.7 478 824.2 479.6C829.7 480.7 835.2 482 840.7 483.2C842.1 485.6 842.1 488.3 842.1 490.9C842.2 503.8 842.1 516.8 840.8 529.7C839.7 535.1 838.7 540.4 837.6 545.8C836.1 552.9 832.1 556.2 824.7 556.3C823.3 556.3 821.4 555.7 821.1 557.8C820.9 560.2 822.9 560.1 824.6 560.2C831.6 560.4 836.7 557.4 839.8 551.1C840.9 551.9 840.8 553.1 840.8 554.3C840.9 567.4 841 580.6 841 593.7C841 594.5 841.2 595.4 839.9 596.3C830 589.9 819.9 583.3 809.7 576.8C791.9 565.3 774 553.7 756.2 542.2C754.9 541.3 753.5 539.3 751.6 541.6C749.2 541.8 747.5 540.3 746.1 538.7C740.4 531.6 735.2 524.1 729.9 516.7C729.7 516 729.4 515.2 729.6 514.3Z" fill="black"/>
<path d="M1132.1 1034C1159.1 1033.6 1186.1 1033.2 1213.1 1032.7C1215.4 1032.7 1217.8 1033 1220 1032C1223.8 1046.7 1227.6 1061.4 1231.4 1076.1C1232.5 1077 1233.2 1078.1 1233.5 1079.4C1238.4 1098.7 1243.2 1118.1 1248 1137.4C1248.2 1138.5 1248.2 1139.6 1247.5 1140.5C1248.8 1145.8 1249.7 1151.2 1251.4 1156.4C1252.8 1160.7 1251.2 1161 1247.7 1160.9C1241.9 1160.7 1236.1 1160.9 1230.3 1161C1229.1 1161.6 1227.7 1161.6 1226.4 1161.6C1210.2 1161.4 1193.9 1161.6 1177.7 1161.5C1175.3 1161.5 1172.7 1161.9 1170.6 1159.9C1162.9 1145.8 1155.2 1131.7 1147.5 1117.6C1146.8 1116.3 1145.9 1115.1 1144.2 1114.8L1144.3 1114.9C1140.7 1104.8 1140.1 1094 1138.3 1083.6C1135.8 1069.3 1133.6 1055 1131.4 1040.7C1131.2 1038.5 1130.6 1036.1 1132.1 1034Z" fill="#E74F4F"/>
<path d="M717.6 670C719.3 694.9 721 719.8 722.7 744.6C725 778.1 727.201 811.6 729.401 845.1C731.201 872.5 733 899.9 734.7 927.2C735.8 944 736.7 960.7 737.7 977.5C736.2 979.5 733.9 979.4 731.8 979.4C719.7 979.5 707.501 979.5 695.401 979.4C688.701 979.3 687.5 977.9 688 971.3C688.7 963 689.301 954.7 690.401 946.5C690.601 945.5 691 944.7 691.7 943.9C692.6 935.5 693.7 927.1 694.5 918.7C696.3 899.7 698 880.8 699.7 861.8C699.8 860.2 699.8 858.5 699.8 856.8C697.5 855.2 695 855.9 692.5 855.9C589.3 855.9 486 855.9 382.8 855.8C380.5 855.8 377.4 857.3 375.9 853.9C378.6 851.6 381.9 852.3 385 852.3C441.4 852.3 497.8 852.3 554.2 852.3C599.1 852.3 644.1 852.3 689 852.3C691 852.3 693 852.3 695 852.2C697.6 852.1 698.9 850.9 699.2 848.3C699.6 844.2 700.2 840 700.5 835.9C700.6 834.6 701.1 833.5 701.3 832.2C701.9 814.7 704.3 797.4 705.8 780.1C707.6 759.6 709.401 739.1 711.401 718.6C712.901 703.7 714.1 688.8 715.5 673.9C715.4 672.3 715.3 670.4 717.6 670Z" fill="#6DB5DE"/>
<path d="M823.5 432.9C810.5 430.6 797.5 428.3 784.7 425.1C782.9 421.3 784.7 417.6 785.1 413.9C786.2 403.4 787.9 404.6 777.5 401.7C770.9 399.9 764.6 397.1 759.3 392.7C754.6 388.8 750.9 384.1 750 377.8C751.2 369.5 752.5 361.3 753.6 353C753.9 351.2 753.8 349.4 755.5 348.2C756.3 346.5 756.3 344.7 756.4 342.8C754.3 338.4 757.1 334.2 757 329.8C757 327.9 757.5 325.9 757.8 324C758.8 322.5 760.4 322.1 762.1 321.7C770.8 319.4 779.6 317.5 788.2 314.9C792.2 313.7 794.8 314.6 797.2 317.9C808 332.2 820.7 344.6 834.6 355.8C836.4 357.2 838.1 358.3 840.4 358.2C840.6 359.9 841.7 361.2 842.8 362.4C850.6 370.9 847.7 381.8 836.4 384.5C831.3 385.7 829.6 388 829 392.9C827.4 406.4 825.4 419.6 823.5 432.9Z" fill="#FD9993"/>
<path d="M1170.8 1159.9C1189.2 1159.9 1207.5 1159.9 1225.9 1159.8C1227.5 1159.8 1229.2 1159.5 1230.5 1161C1238.3 1180.5 1246.2 1200 1254 1219.5C1255.7 1223.8 1257.5 1228.1 1259.2 1232.4C1257.8 1233.7 1256.3 1233.1 1254.9 1233.1C1223 1233.1 1191.1 1233.1 1159.1 1233.2C1154.9 1233.2 1154.4 1232.3 1155.3 1228.3C1160.6 1205.6 1165.6 1182.8 1170.8 1159.9Z" fill="black"/>
<path d="M981.7 410.6C981.3 401.9 980.2 393.2 981.4 384.5C982.2 383 982.2 381.3 982.8 379.7C984.8 376.7 986.4 373.2 990.4 372.2C999.9 371.3 1009.4 370.9 1017.9 376.4C1024.1 380.4 1029.1 385.8 1033.7 391.5C1045.1 405.6 1053.5 421.4 1059.8 438.4C1061.7 443.4 1062.2 448.8 1063.4 454C1064 456.8 1065 459.4 1067.1 461.5C1068.8 465.6 1069.3 470.1 1070.3 474.4C1070.7 476.3 1070.9 478.3 1069 479.8C1058.4 481.5 1047.9 480.9 1037.3 480.2C1035 479.3 1034.4 477.2 1033.9 475.1C1032.9 470.9 1032 466.7 1031.1 462.5C1030.2 459.1 1026.6 460.8 1024.7 459.1C1023.6 458.7 1022.4 458.4 1021.3 458.5C1003.8 458.8 993.9 448.7 987.2 434C985.5 430.2 984.5 426.1 982.7 422.4C982.3 420.2 981.1 418.1 982.6 415.9C983.5 414.9 985.7 415 985.5 413.1C985.3 410.8 982.7 411.8 981.7 410.6Z" fill="#FD9993"/>
<path d="M902.4 448.1C901.7 448.4 900.9 449 900.3 447.9C911.9 413.9 923.4 379.9 935 345.9C942.4 324.2 949.8 302.5 957.2 280.7C957.9 278.7 958.4 276.6 959.2 274C949.5 274 940.2 274 931 274C920.8 274 915.7 268.9 915.7 258.6C915.7 250.1 915.6 241.6 915.7 233.1C915.8 223.5 921 218.3 930.6 218.2C944.8 218.1 958.9 218 973.1 218.3C977.3 218.4 978.8 217.5 978.7 212.9C978.4 197.9 978.7 182.9 978.5 167.9C978.5 164.1 979.7 163 983.4 163.1C989.6 163.4 995.7 163.4 1001.9 163.1C1005.6 162.9 1006.8 164.1 1006.7 167.9C1006.5 183.1 1006.8 198.2 1006.5 213.4C1006.4 217.5 1007.7 218.3 1011.5 218.3C1105.1 218.2 1198.7 218.2 1292.3 218.3C1296.5 218.3 1297.6 217.2 1297.5 213C1297.2 198 1297.5 183 1297.3 168C1297.3 164.4 1298.1 162.9 1302 163.1C1308.3 163.4 1314.7 163.4 1321 163.1C1324.6 162.9 1325.5 164.3 1325.4 167.7C1325.2 182.7 1325.5 197.7 1325.2 212.7C1325.1 216.9 1325.9 218.5 1330.6 218.3C1342.2 217.9 1353.9 218.2 1365.6 218.2C1376.6 218.2 1381.3 222.9 1381.3 234.1C1381.3 242.3 1381.3 250.4 1381.3 258.6C1381.3 269.3 1376.5 274 1365.6 274C1358.8 274 1351.9 274.3 1345.1 273.9C1340.3 273.6 1340.6 275.3 1341.9 278.9C1350.2 302.8 1358.3 326.7 1366.4 350.6C1408.3 473.2 1450.1 595.8 1491.9 718.4C1492.6 720.4 1494 722.4 1493 725.4C1490.3 723.2 1490.1 720.4 1489.3 718.1C1466.9 652.6 1444.6 587.2 1422.3 521.7C1394.8 441 1367.2 360.3 1339.8 279.5C1338.3 275.2 1336.5 273.8 1331.8 273.8C1210.7 274 1089.7 274 968.6 273.8C963.3 273.8 961 275.2 959.2 280.4C941.4 333.2 923.4 385.9 905.4 438.6C904.6 441.8 903.5 444.9 902.4 448.1Z" fill="#5982AF"/>
<path d="M691.7 944C691.7 944.7 691.7 945.4 691.7 946.2C689.4 948 686.6 947.6 684 947.6C668.5 947.6 653.1 947.6 637.6 947.6C630.6 947.6 630.4 947.8 630.4 955C630.4 978 630.4 1000.9 630.4 1023.9C630.4 1031.1 630.6 1031.4 638.1 1031.4C669.9 1031.4 701.7 1031.4 733.4 1031.4C736.2 1031.4 739.1 1030.8 741.5 1032.9C741.5 1033.6 741.5 1034.4 741.6 1035.1C739.3 1037.1 736.6 1036.6 734 1036.6C715.2 1036.7 696.4 1036.6 677.6 1036.6C670.6 1036.6 670.4 1036.8 670.4 1043.9C670.4 1052.1 670.3 1060.2 670.4 1068.4C670.5 1073.8 670.9 1074.3 676.5 1074.4C696.6 1074.5 716.8 1074.4 736.9 1074.5C739.5 1074.5 742.3 1074 744.5 1076.1C744.6 1077 744.6 1077.9 744.7 1078.8C743.1 1080.8 740.9 1080.6 738.7 1080.7C735 1080.8 731.4 1080.7 727.7 1080.7C612.7 1080.7 497.6 1080.7 382.6 1080.7C372.7 1080.7 372.7 1080.7 372.7 1090.5C372.7 1103 372.7 1115.5 372.7 1128C372.7 1136.5 372.7 1136.5 381.4 1136.5C436.2 1136.5 491 1136.5 545.7 1136.5C610.3 1136.5 674.9 1136.5 739.5 1136.5C742.6 1136.5 745.9 1135.7 748.6 1138.1C748.6 1139 748.7 1139.9 748.7 1140.7C624.6 1140.7 500.6 1140.7 376.5 1140.6C372.3 1140.6 370.8 1141.4 370.9 1146C371.2 1163.7 371.2 1181.3 370.9 1199C370.8 1203.6 372.3 1204.7 376.5 1204.4C380.3 1204.1 384.2 1204.4 388 1204.3C390.8 1204.2 391.7 1205.3 391.8 1208.1C392.1 1216.2 392.2 1216.2 384.3 1216.2C373.1 1216.2 362 1215.9 350.8 1216.3C345.6 1216.5 346.2 1213.5 346.2 1210.3C346.1 1207 345.8 1203.9 350.9 1204.3C355.2 1204.7 359.6 1204.1 363.9 1204.5C368 1204.8 368.9 1203.3 368.9 1199.4C368.8 1170.4 368.8 1141.4 368.8 1112.4C368.8 1102.1 369 1091.7 368.7 1081.4C368.6 1077.1 370 1076.1 374.1 1076.2C393.4 1076.4 412.7 1076.1 432 1076.4C437.3 1076.5 438.3 1074.8 438.1 1070C437.7 1059.7 437.9 1049.3 438.1 1039C438.2 1035.9 437.1 1035 434.1 1035.1C423.8 1035.3 413.4 1035 403.1 1035.2C399.5 1035.3 398.1 1034.5 398.1 1030.5C398.2 1003.2 398.2 975.9 398.1 948.5C398.1 945.1 399.1 943.9 402.6 943.9C470.9 944 539.2 944 607.4 943.9C610.9 943.9 611.9 944.8 611.9 948.4C611.8 975.9 611.8 1003.4 611.9 1030.9C611.9 1034.1 611 1035.2 607.7 1035.2C597.9 1035 588 1035.2 578.2 1035.1C574.9 1035 573.5 1035.6 573.5 1039.4C573.8 1050.4 573.7 1061.4 573.5 1072.4C573.5 1075.5 574.4 1076.4 577.4 1076.4C605.5 1076.3 633.7 1076.3 661.8 1076.4C664.8 1076.4 665.8 1075.6 665.8 1072.5C665.6 1061.5 665.6 1050.5 665.8 1039.5C665.9 1036.3 665 1035.2 661.6 1035.2C651.3 1035.4 640.9 1035.1 630.6 1035.3C627 1035.4 626.1 1034.2 626.2 1030.8C626.3 1003.5 626.3 976.2 626.2 948.8C626.2 945 627.4 944.1 631 944.1C651.4 944.1 671.5 944 691.7 944Z" fill="#5983AF"/>
<path d="M1066.3 461.3C1062.1 461.3 1063 457.6 1062.7 455.5C1058.7 431.8 1047.5 411.5 1033.1 392.7C1026.5 384.1 1019.2 376.2 1007.9 373.6C1002 372.2 996.2 373.4 990.3 373.3C989.9 370.6 992.1 369.6 993.8 368.4C998.4 365.3 1003.8 363.9 1009.1 362.7C1017.7 360.8 1026.4 359.2 1035.1 358.1C1038.4 357.7 1039.4 356.2 1038.5 353.1C1038.5 352.3 1038.8 351.5 1039.2 350.8C1039.3 338.8 1043.5 328.9 1054.3 322.9C1066.2 316.2 1077.8 323.2 1078.5 336.8C1078.7 341.4 1077.6 345.7 1076.2 350C1076.2 351.5 1075.9 352.9 1075.1 354.2C1073.1 357.7 1070.5 360.7 1067.2 363C1065.4 364.3 1064.8 365.6 1066.3 367.5C1073.7 376.6 1076.5 387.9 1080.5 398.6C1083 405.3 1085 412.1 1087.5 418.8C1090.1 426 1090.9 433.3 1088.5 440.7C1087.8 442.3 1087.2 443.9 1085.7 444.9C1082.8 451 1077.9 455.1 1072.5 458.8C1071.4 460.6 1069.5 460.9 1067.7 461.4C1067.2 461.6 1066.7 461.5 1066.3 461.3Z" fill="black"/>
<path d="M375.9 854.1C377.8 855.7 380.1 854.9 382.1 854.9C486.4 854.9 590.7 854.9 695 855.1C696.4 855.1 699.5 852.9 699.6 856.9C594 856.9 488.4 856.9 382.8 856.9C381 856.9 379.1 857 377.3 856.8C371.2 856 367.7 851.6 367.7 844.9C367.7 838.2 371.3 833.3 377.4 833.2C381.9 833.1 382 831.1 382 827.8C381.9 768.5 382 709.2 382 649.8C382 552.8 382 455.8 382 358.9C382 355.4 382.3 352.8 377.1 352.8C371.1 352.7 367.7 347.6 367.8 340.8C367.9 334.5 371.5 330.1 377.3 329.3C378.9 329.1 380.6 329.2 382.3 329.2C424.4 329.2 466.6 329.1 508.7 329.1C508.5 330.8 509.5 332.7 508 334.2C505 333 501.9 332.7 498.7 332.7C461.1 332.7 423.5 332.7 386 332.7C383 332.7 380 332.7 377.1 333.7C373.5 335 371.7 337.5 371.8 341.2C371.9 345.1 373.8 347.8 377.7 348.9C380 349.5 382.3 349.5 384.6 349.5C423 349.5 461.4 349.5 499.8 349.5C501.8 349.5 503.8 349.1 505.7 350.1C505.5 351.8 506.3 353.6 504.9 355.1C467.4 354.2 430 354.9 392.5 354.8C387.2 354.8 386.7 355.4 386.5 361C386.5 362.5 386.5 364 386.5 365.5C386.5 517.5 386.5 669.4 386.5 821.4C386.5 831.5 386.5 831.5 396.6 831.5C495.4 831.5 594.1 831.5 692.9 831.5C696.2 831.5 699.6 830.7 702.6 832.9C702.3 833.7 702 834.6 701.7 835.4C698.8 837.3 695.6 836.7 692.5 836.7C591 836.7 489.4 836.7 387.9 836.7C385.2 836.7 382.6 836.6 379.9 836.9C372.5 837.9 369.6 844.2 373.7 850.4C374.4 851.6 375.7 852.5 375.9 854.1Z" fill="#5D85B1"/>
<path d="M1232.2 1078.5C1231.9 1077.7 1231.7 1076.9 1231.4 1076.1C1241.9 1076.1 1252.4 1076 1262.9 1076.1C1266.1 1076.1 1267.3 1075.4 1267.2 1072C1267 1061 1267 1050 1267.2 1039C1267.3 1035.5 1265.9 1034.9 1262.8 1034.9C1252.5 1035.1 1242.1 1034.9 1231.8 1035C1228.5 1035.1 1227.1 1034.4 1227.2 1030.7C1227.3 1003.2 1227.3 975.7 1227.2 948.2C1227.2 945 1227.9 943.8 1231.4 943.8C1300 943.9 1368.6 943.9 1437.2 943.8C1440.4 943.8 1441.1 944.9 1441.1 947.9C1441 975.6 1441 1003.2 1441.1 1030.9C1441.1 1034.4 1439.8 1035.1 1436.7 1035C1426.9 1034.8 1417 1035.1 1407.2 1034.9C1403.6 1034.8 1402.7 1036.1 1402.8 1039.5C1403 1050.3 1403 1061.2 1402.8 1072C1402.7 1075.3 1403.9 1076.2 1407.1 1076.2C1426.9 1076.1 1446.7 1076.3 1466.6 1076C1471 1075.9 1472.2 1077.2 1472.2 1081.6C1472 1120.6 1472.2 1159.6 1472 1198.6C1472 1203.3 1473.4 1204.7 1477.8 1204.3C1481.4 1203.9 1485.1 1204.4 1488.8 1204.2C1491.7 1204.1 1492.9 1205 1493 1208.2C1493.2 1216.1 1493.3 1216.1 1485.3 1216.1C1474.1 1216.1 1463 1215.9 1451.8 1216.2C1447 1216.3 1447.3 1213.6 1447.4 1210.5C1447.5 1207.5 1446.3 1203.9 1451.7 1204.2C1456.7 1204.5 1461.7 1204.2 1466.7 1204.3C1469.1 1204.3 1469.9 1203.5 1469.9 1201.1C1469.8 1182.1 1469.8 1163.1 1469.9 1144.1C1469.9 1141.5 1469 1140.4 1466.4 1140.7C1466.1 1140.7 1465.7 1140.7 1465.4 1140.7C1392.8 1140.7 1320.2 1140.7 1247.6 1140.7C1247.5 1139.8 1247.3 1139 1247.2 1138.1C1249.7 1135.7 1252.8 1136.4 1255.7 1136.4C1322.6 1136.4 1389.6 1136.4 1456.5 1136.4C1469.8 1136.4 1468.4 1137.5 1468.4 1124.7C1468.5 1112.4 1468.4 1100 1468.4 1087.7C1468.4 1081.1 1468 1080.7 1461.3 1080.7C1427.2 1080.7 1393 1080.7 1358.9 1080.7C1319.4 1080.7 1280 1080.7 1240.5 1080.7C1237.7 1080.5 1234.5 1081.4 1232.2 1078.5Z" fill="#5983AF"/>
<path d="M840.4 358.3C839.7 360.7 838.7 360.6 836.8 359.1C822.9 348.4 809.9 336.7 799.5 322.6C794.8 316.2 790.5 314.7 783.2 317.4C775 320.3 766.3 321.9 757.8 324.1C759.1 315.6 760.4 307 761.6 298.5C761.7 297.5 761.9 296.5 762.7 295.8C782.8 300 803.1 303.8 823.1 308.5C835.3 311.4 843.2 323.1 842.5 335.9C842.2 343.5 841.1 350.9 840.4 358.3Z" fill="black"/>
<path d="M1067.4 461C1068.9 459.9 1070.6 459.2 1072.4 458.9C1150.2 458.9 1227.9 458.9 1305.7 459C1312.4 459 1312.4 459 1312.4 465.6C1312.4 586.7 1312.4 707.8 1312.5 828.9C1312.5 833.8 1311.5 835.3 1306.3 835.3C1261.7 835.1 1217.1 835.1 1172.4 835.1C1171.6 834.6 1171.3 833.9 1171.3 833C1173.8 830.7 1176.9 831.4 1179.9 831.3C1219.9 831.2 1259.8 831.3 1299.8 831.3C1308.6 831.3 1308.6 831.3 1308.6 822.5C1308.6 749.9 1308.6 677.2 1308.6 604.6C1308.6 603.9 1308.6 603.3 1308.6 602.6C1308.5 595.9 1308.3 595.6 1301.5 595.6C1259.5 595.6 1217.6 595.6 1175.6 595.6C1172.1 595.6 1168.6 595.6 1165.1 595.6C1163.1 595.6 1161.1 595.6 1159.4 594.1C1159.4 593.3 1159.4 592.5 1159.4 591.7C1162.1 589.8 1165.2 590.3 1168.1 590.3C1212 590.3 1255.9 590.3 1299.9 590.3C1308.6 590.3 1308.6 590.3 1308.6 581.4C1308.6 544.3 1308.6 507.2 1308.6 470C1308.6 462.7 1308.5 462.5 1301 462.5C1253.1 462.5 1205.2 462.5 1157.3 462.5C1154.4 462.5 1151.3 463.1 1148.6 461.2C1146.4 462.4 1147.5 464.5 1147.4 466.1C1147.3 473.4 1147.3 480.6 1146.3 487.9C1146.3 480.6 1146.4 473.4 1146.2 466.1C1146.2 464.4 1147.2 462.4 1145 461.2C1143 462.8 1140.6 462.5 1138.3 462.5C1117 462.5 1095.7 462.5 1074.4 462.5C1072.1 462.6 1069.5 463 1067.4 461Z" fill="#5882AE"/>
<path d="M1074.6 353C1075.1 352 1075.7 351 1076.2 350C1078.2 351.4 1080.4 350.8 1082.5 350.8C1157.1 350.8 1231.6 350.9 1306.2 350.7C1311 350.7 1312.7 351.5 1312.6 356.9C1312.3 384.2 1312.3 411.5 1312.6 438.8C1312.6 443.7 1311.6 445.2 1306.4 445.2C1232.8 445 1159.3 445.1 1085.7 445.1C1086.2 443.8 1086.8 442.5 1087.3 441.2C1158.7 441.8 1230.1 441.3 1301.5 441.4C1308.5 441.4 1308.7 441.1 1308.7 434C1308.7 410.4 1308.7 386.7 1308.7 363.1C1308.7 354.8 1308.6 354.7 1300.4 354.7C1228.2 354.7 1155.9 354.7 1083.7 354.7C1080.6 354.6 1077.3 355.4 1074.6 353Z" fill="#5983AF"/>
<path d="M1366.3 433.7C1394.6 521.4 1422.9 609.2 1447.1 698.1C1420.7 609.8 1392.4 522.1 1366.3 433.7Z" fill="#5A83AF"/>
<path d="M983.4 422C985.4 422.7 985.3 424.5 985.8 426C987.8 432.5 990.5 438.8 994.7 444.2C1001.3 452.7 1009.9 457.3 1020.8 457.3C1022.5 457.3 1024.5 456.6 1025.8 458.5C1026.2 459.4 1026.3 460.3 1025.6 461.2C1025.2 461.5 1024.7 461.5 1024.3 461.3C1019 461.1 1013.6 461.1 1008.5 459.3C1007.6 459.7 1006.6 459.4 1005.7 459.2C1002.4 457.8 999.1 456.5 997.4 453C989 445.5 984.7 435.7 981.2 425.4C981.3 424.7 981.4 424 981.5 423.2C982 422.5 982.3 421.5 983.4 422Z" fill="#040202"/>
<path d="M840.9 529.7C840.9 514.2 840.8 498.7 840.8 483.2C846.7 487 848.5 492 846.9 499C844.5 509.2 842.8 519.5 840.9 529.7Z" fill="#6AAFD6"/>
<path d="M1039.3 350.8C1039.4 351.5 1039.4 352.2 1039.5 352.9C1037.3 355 1034.5 354.5 1031.9 354.5C1018.5 354.6 1005.1 354.5 991.6 354.5C985.5 354.5 985.2 355 985 361C984.8 367.2 986 373.6 983.6 379.7C983.1 381.4 982.6 383 981.4 384.4C981.3 374.4 981.4 364.4 981.1 354.5C981 351.2 982.5 350.7 985.3 350.7C1003.4 350.8 1021.3 350.8 1039.3 350.8Z" fill="#5F87B2"/>
<path d="M840.8 443.2C842.2 451.3 840.9 459.4 841.2 467.5C841.3 471.3 841.3 475.1 841.4 478.9C833.8 478.1 833.9 478.1 835.3 470.9C837.2 461.6 839 452.4 840.8 443.2Z" fill="#080C0E"/>
<path d="M964.4 420.3C969.2 429.3 974 438.4 978.8 447.5C979.5 448.9 981.7 450.6 979.1 452.1C976.9 453.3 976.3 450.9 975.6 449.6C970.5 440.1 965.5 430.6 960.4 421.2C961.4 419.1 962.8 419.2 964.4 420.3Z" fill="#070404"/>
<path d="M949.6 424C954.3 432.8 958.9 441.6 963.5 450.4C964.3 451.9 966.3 453.9 964.1 455.2C961.5 456.7 961 453.6 960.1 452.1C955.1 443.1 950.2 434 945.3 425C946.1 421.4 947.8 422.6 949.6 424Z" fill="#060404"/>
<path d="M430.5 233C431.1 233.4 431.7 233.8 432.1 234.2C437.3 239.3 442.4 244.5 447.5 249.6C448.2 250.3 449.2 251 448.3 252.1C447.3 253.2 446.5 252.1 445.9 251.5C440.6 246.3 435.4 241 430.1 235.7C429.7 235.3 429.4 234.6 429.4 234C429.4 233.7 430.1 233.3 430.5 233Z" fill="#6E92B9"/>
<path d="M933.5 433.2C933.5 435 933.5 436.9 933.6 438.7C933.3 446.9 929.6 454 927 461.5C926.8 462 926.2 462 925.7 462.1C924.7 461.7 924.6 460.8 924.4 459.9C926.9 451.8 929.3 443.6 931.9 435.5C932.1 434.6 932.4 433.6 933.5 433.2Z" fill="#638AB4"/>
<path d="M1444.5 339.3C1448 347.3 1451.4 355.3 1454.9 363.3C1454.3 363.6 1453.7 363.8 1453 364.1C1449.1 356.2 1445.5 348.3 1442.7 340C1443.3 339.8 1443.9 339.5 1444.5 339.3Z" fill="#648AB4"/>
<path d="M1402.2 857.3C1401.8 853.1 1404 849.4 1405 845.5C1406 841.5 1407.3 837.6 1408.5 833.6C1408.7 832.9 1409.1 831.9 1410.2 832.2C1411 832.4 1411.1 833.1 1410.9 833.8C1408.5 841.7 1406.1 849.7 1403.6 857.6C1403.2 857.6 1402.7 857.5 1402.2 857.3Z" fill="#668CB5"/>
<path d="M642.6 223.7C645.1 215.5 647.6 207.3 650.4 198C651.9 202.6 646.6 220.7 642.6 223.7Z" fill="#6188B3"/>
<path d="M981.7 410.6C983.6 410.1 985.5 409.1 987.1 411.2C987.8 412.2 987.9 413.4 987.3 414.5C986.4 416.3 984.8 416.4 983.1 415.9C982.3 415.6 982 414.8 981.4 414.2C981.6 412.9 981.7 411.7 981.7 410.6Z" fill="#060505"/>
<path d="M981.5 414C982.1 414.6 982.6 415.2 983.2 415.7C981.9 417.8 983.2 419.9 983.4 421.9C982.8 422.3 982.1 422.6 981.5 423C981.5 420.1 981.5 417 981.5 414Z" fill="#547297"/>
<path d="M1001.8 1158.8C971.9 1159.6 941.9 1158.3 912 1159.6C913.2 1153.2 910.1 1147.4 909.1 1141.4C908.8 1140.2 908.3 1139 908.1 1137.8C902.9 1118.5 898.1 1099 893.2 1079.6C892.8 1077.3 892.3 1075 891.5 1072.8C888.1 1060.3 885.1 1047.8 881.7 1035.3C881.5 1034.5 881.3 1033.8 881.2 1033C879.9 1027.9 878.6 1022.8 877.4 1017.8C876.9 1015.9 876.1 1014 877.5 1012.1C906 1012.1 934.4 1012.1 962.9 1012.2C964 1012.2 965.2 1012.7 966.3 1012.9C969.1 1015.5 968.8 1019.3 969.8 1022.5C970.8 1025.8 971.5 1029.3 972.4 1032.6C972.6 1033.4 972.8 1034.2 972.9 1035C976.2 1048.5 979.8 1061.8 982.8 1075.3C982.9 1076.6 983.4 1077.9 983.7 1079.2C988.5 1098.7 993.4 1118.2 998.3 1137.6C998.6 1138.6 998.8 1139.7 999 1140.8C1000.2 1145 1001.3 1149.3 1002.1 1153.7C1002.4 1155.3 1003 1157.1 1001.8 1158.8Z" fill="#8F3600"/>
<path d="M925.701 462.1C928.301 454.3 931.001 446.5 933.601 438.7C944.401 455.6 951.501 474.3 960.401 492.1C962.001 495.2 963.001 498.7 965.001 501.5C969.001 506.9 968.301 512.5 967.201 518.5C960.701 553.9 953.701 589.2 946.201 624.4C944.701 631.4 945.001 638.3 948.401 644.8C949.301 646.6 949.501 647.7 947.301 648.6C942.601 650.5 939.501 654.1 937.601 658.7C937.201 660.1 937.801 661.5 937.501 662.9C937.501 665.6 937.401 668.3 937.401 671C937.301 672.4 937.401 673.8 937.401 675.2C938.701 686.4 943.901 691.1 954.901 692.3C963.701 693.2 972.401 692.6 981.201 693.1C982.801 694.4 982.801 696.3 982.901 698.1C983.201 718.2 982.701 738.3 981.901 758.4C981.901 758.7 981.601 759 981.501 759.3C979.001 788.4 976.701 817.6 974.101 846.7C973.701 851 974.301 855.4 972.601 859.5C967.201 845 963.401 830 958.901 815.3C944.201 766.6 929.901 717.8 915.301 669.1C914.501 666.4 914.801 664.4 916.101 662.1C924.601 646.6 930.101 629.9 931.301 612.4C933.401 581.2 937.401 550.2 942.801 519.4C946.601 498 941.701 479.6 926.701 463.8C926.301 463.3 926.001 462.7 925.701 462.1Z" fill="#FEFEFE"/>
<path d="M729.6 514.3C734.7 521.2 739.9 528.1 745 535.1C746.9 537.7 749 540 751.8 541.5C745.2 556.7 737.5 571.2 730.1 586C727.8 586 725.8 584.6 723.6 584.1C722.7 582.9 721.5 582.1 721.2 580.5C716.6 575.9 710.8 572.9 705.6 569.2C689.8 558.2 673.9 547.4 658.1 536.3C647 528.5 644.7 522.2 648 509C650.3 507.7 651.7 509.6 653.3 510.6C659.6 514.6 665.5 519.3 671.9 523.3C673.3 524.2 674.5 525.3 676.4 525.2C669.4 520 662.3 515 655.2 510.1C653.4 508.8 650.8 508.2 650.7 505.3C652.4 503.1 653.4 500.5 655.8 498.8C658 498.4 659.5 499.9 661.2 500.9C667.2 504.7 672.8 509.2 678.8 512.9C680.2 513.8 681.3 515 683.4 514.8C677 510 670.5 505.4 663.9 500.9C661.9 499.5 659.4 498.7 658.5 496C659.9 492.5 663.4 491.6 666.2 491.7C676.1 492.1 684.7 496.1 692.7 501.9C695.5 502.2 697.4 504.2 699.6 505.7C706.5 510.6 713.5 515.1 720.9 519.3C716.8 515.3 711.9 512.5 707.3 509.2C705.2 507.7 702.4 506.9 701.6 504C708.7 502.5 715 505.2 721 508.3C723.9 509.7 726.6 512.2 729.6 514.3Z" fill="#FD9993"/>
<path d="M841.4 687.1C824.1 684.2 806.7 681.3 789.4 678.5C765.5 674.6 741.6 670.7 717.8 666.8C716 665.3 716.1 663.2 716.3 661.3C717.6 647.4 718.5 633.5 719.7 619.7C720.2 613.8 719.9 607.7 721.6 601.9C722.2 600.5 722.6 598.9 724.6 599C749.3 616.1 774 633.3 798.7 650.4C811.3 659.1 823.7 668.1 836.4 676.5C840.5 679.3 842.6 682.2 841.4 687.1Z" fill="black"/>
<path d="M882.8 1034.9C886.7 1047.6 889.7 1060.6 892.8 1073.5C893.4 1077.5 890.4 1077.3 888 1077.4C881.5 1077.6 875 1077.5 868.6 1077.5C857.6 1077.5 846.7 1077.5 835.7 1077.5C833.6 1077.5 831.3 1077.7 829.5 1076.2C827.7 1062.6 826.2 1048.9 825.5 1035.1C830.1 1032.4 834.9 1033.8 839.7 1034.1C840.8 1032.4 840.3 1030.5 840.3 1028.8C840.3 1013 840.3 997.2 840.3 981.4C840.3 979.5 839.7 977.3 842.9 977.2C846.1 977.1 846.3 979.1 846.3 981.4C846.4 990.1 846.5 998.7 846.6 1007.4C846.6 1009.9 846.7 1012.1 850.2 1012C853.1 1011.9 852.5 1014.2 852.6 1015.9C853 1022 851.8 1028.2 853.3 1034.2C862 1033.1 870.8 1033.8 879.5 1033.8C880.8 1033.7 881.8 1034.3 882.8 1034.9Z" fill="#FEFEFE"/>
<path d="M825.1 1032.9C823.1 1014.3 820.8 995.8 819.7 977.1C825.7 977.5 831.8 976 837.8 977.9C838.9 979.5 838.6 981.4 838.6 983.2C838.6 997.9 838.6 1012.7 838.6 1027.4C838.6 1033.8 838.5 1034 831.8 1033.9C829.5 1033.9 827.1 1034.5 825.1 1032.9Z" fill="#FDFDFD"/>
<path d="M971.4 1033C969.1 1026.5 967.8 1019.6 966.3 1012.9C972.6 1011.4 979 1012.3 985.3 1012.4C987.3 1012.4 989.2 1012.5 991.2 1012.6C994.7 1019.3 998.7 1025.8 1001.5 1032.8C1001.4 1032.9 1001.3 1033.1 1001.2 1033.1C991.1 1035 981.3 1035.3 971.4 1033Z" fill="#FDFEFE"/>
<path d="M877.5 1012C879.2 1018.9 880.8 1025.8 882.5 1032.8C880.4 1034.7 877.7 1033.9 875.3 1033.9C869.8 1034 864.3 1034 858.8 1033.9C856.9 1033.9 854.8 1033.6 854.8 1031.2C854.9 1024.8 853.5 1018.3 855.6 1012C862.9 1012 870.2 1012 877.5 1012Z" fill="#FEFEFE"/>
<path d="M825.1 1032.9C837.7 1033 837.699 1033 837.699 1020.3C837.699 1006.2 837.8 992.1 837.8 977.9C841.3 977.3 839.5 980.1 839.5 981.1C839.6 996.8 839.6 1012.4 839.6 1028.1C839.6 1030.1 839.7 1032.1 839.8 1034.1C835.2 1036.2 830.3 1034.5 825.6 1035.1C825.4 1034.3 825.2 1033.6 825.1 1032.9Z" fill="#5882AE"/>
<path d="M855.6 1012C855.6 1017.8 855.7 1023.5 855.5 1029.3C855.4 1032.1 856.4 1033 859.2 1032.9C866.9 1032.7 874.7 1032.8 882.4 1032.8C882.5 1033.5 882.7 1034.2 882.8 1034.9C874 1034.9 865.3 1035 856.5 1035C855.4 1035 854.1 1035.3 853.4 1034C853.5 1028.1 853.5 1022.1 853.6 1016.2C853.7 1014.6 852.7 1012.4 855.6 1012Z" fill="#638AB3"/>
<path d="M724.6 599C724 599.7 723.4 600.3 722.9 601C720.3 595.1 721.6 589.4 723.9 583.8C727 581.8 728 585.4 730 586.1C728.8 590.6 725.1 594.2 724.6 599Z" fill="#050505"/>
<path d="M723.9 583.8C723.6 589.5 723.2 595.3 722.9 601C721.2 622.9 719.5 644.9 717.8 666.8C717.7 667.9 717.6 668.9 717.5 670C716.5 679.2 715.5 688.5 714.6 697.7C712.3 721.4 710.1 745 708 768.7C706.1 790.1 704.3 811.4 702.5 832.8C700.7 832.9 698.8 833 697 833C594.9 833 492.8 833 390.8 833.1C385.9 833.1 384.5 832.1 384.5 826.9C384.7 671 384.7 515 384.5 359.1C384.5 353.9 385.9 352.9 390.8 352.9C427.1 353.1 463.4 353 499.7 353.1C501.5 353.1 504.3 351.6 504.9 355.1C501.2 380.5 497.5 405.8 493.7 431.2C492.5 432.4 491 432.4 489.5 432.4C483.4 432.3 479.5 435.5 477 440.7C473.4 447.9 470.5 455.3 468.7 463.1C466.5 472.6 470 478.8 479.2 482.3C481.5 483.2 484.2 483.1 485.9 485.3C482.9 505.7 479.9 526 476.8 546.4C476.6 547.7 476.2 549 475.8 550.2C472 560.2 466.5 569.3 461.8 578.8C452.1 598.5 444.2 618.7 441.5 640.6C439.5 656.8 439.4 673.1 440.8 689.4C441.6 698.3 442.9 707.2 444 716.1C446.3 735.2 465.4 740.2 478 734.5C491 728.7 502.2 720.9 511.1 709.6C518.1 700.7 527.7 694.2 535.4 686C537.1 684.2 539 682.5 540.6 680.6C546.1 674.4 548.6 667.4 548.4 658.8C547.9 634.5 548.2 610.2 548.2 585.9C548.2 583.6 547.7 581.2 549.3 579.2C551.8 578.8 552.3 581 553.1 582.4C560.1 594.5 566.6 606.8 573.4 619C575.2 622.1 575.9 625.4 575.8 629C575.7 639.5 575.8 649.9 575.8 660.4C575.8 662.6 575.6 664.7 576.3 666.8C576.9 672.5 580.5 676.5 584.1 680.4C594.3 691.6 606.4 701 616 712.7C624.6 723.2 635.9 729.1 647.6 734.7C660.4 740.9 678 733.2 680.2 718C681.9 706.3 683.2 694.6 684.2 682.9C685.4 669.2 684.5 655.7 683.1 642.1C683 641.3 683.1 640.4 683.3 639.6C683.6 637.9 684.7 636.6 685.7 635.3C693.5 625.7 699.4 614.9 705.4 604.2C706.6 602.1 707.8 600.2 710.1 599.3C715.1 598 717.8 594.8 718.5 589.7C719 586.7 718.9 583.4 720.7 580.7C723 580.8 723.7 582.1 723.9 583.8Z" fill="#FEFEFE"/>
<path d="M552.7 460.9C550.4 460.3 549.1 459.6 550.4 456.5C553.5 449.3 557.1 442.4 561.7 436C563.4 433.6 564.2 431.8 561.3 430C556.6 427 556.8 423.5 559.1 418.8C564.2 408.2 568.7 397.3 573.4 386.5C586.4 357 617.7 342.3 648.8 350.3C668.4 355.3 684.4 364.7 694.8 382.4C704.6 399.1 706.5 416.8 701.2 435.3C699 443.1 697.1 451.1 692.8 458.2C683.3 473.9 664.5 481.4 646.1 476.7C641.1 475.4 636.2 474 631.2 472.6C623 470.3 622.9 470.2 617.7 477.3C610.4 487.3 601.7 495.4 590.2 500.5C579.9 505 569.1 506.4 558 505.9C550.4 505.5 545 499.6 544.5 491.8C543.9 482.4 545 473.2 547.6 464.2C549.4 462.5 551.4 462.8 553 464.2C555.7 466.7 552.9 469.5 553.1 472.4C554.8 471.5 554.8 469.8 555.3 468.4C556.5 465 558.6 463.7 562.2 464.8C566.2 466 565.1 468.5 564.2 471.1C563.9 472 563.2 472.9 563.9 473.9C568.5 466.4 571 464.7 575.1 466.2C577.5 467.1 577.7 468 576.8 474.1C579.3 472.2 578.3 467.5 582.4 467.2C585.3 466.9 588.2 468.5 591.3 467.3C581.7 464.7 581.7 464.7 582.9 456.3C580.4 458.8 581.3 463.5 577.4 464.7C575.5 465.3 573.3 464.8 571.5 464.1C566.2 462.2 571.3 458.4 570 455.3C567.9 459.2 567.3 465 560.8 462.9C558.5 462.2 558.4 461.5 559.9 453.6C558.1 455.7 558 457.7 557.1 459.3C556.3 461.1 555.1 462.7 552.7 460.9Z" fill="#FEFEFE"/>
<path d="M475.6 555.2C476.1 562.9 479 565.9 486.4 567C505.3 569.7 524.2 572.5 543.1 575.2C544.2 575.4 545.3 575.8 546.5 576.1C548.6 578 548.7 580.5 548.7 583C548.7 610 548.7 636.9 548.7 663.9C548.7 671.9 543.6 677.4 538.7 682.8C534.4 687.6 529.6 692 524.7 696.3C518.8 701.5 513 706.8 508.3 713C499.6 724.3 487.6 730.7 474.8 735.5C460.8 740.9 446.4 731.6 443.9 716.2C441 698.1 439.4 680 439.8 661.6C440.3 637.7 445.5 614.9 455 593C459.6 582.3 465 572 470.3 561.6C471.5 559.3 472.1 556 475.6 555.2Z" fill="#FEFEFE"/>
<path d="M575.6 667.1C574.5 665.4 574.9 663.6 574.8 661.8C574.8 654 574.3 646.1 574.9 638.3C575.7 628.3 573.4 619.5 567.9 611C561.3 600.7 556.4 589.3 549.6 579C547.6 578.3 548.1 577.3 549.6 576.7C550.6 576.3 551.8 576.4 552.8 576.9C572.7 579.8 592.5 582.6 612.4 585.5C641 589.7 669.5 593.9 698.1 598C702.2 598.6 706.3 599.5 710.5 599.2C707 603.5 704.7 608.4 702 613.2C696.9 622.4 691 631 684.5 639.1C683.7 640.4 683.7 642 682.7 643.2C676.7 649.7 670.1 655.6 662.9 660.7C638 678.4 601.9 671.1 585.6 645.3C583.1 641.4 580.7 637.5 579.1 633C579.2 642.4 579.2 651.7 579.1 661C579.1 662.8 580 665.4 576.7 665.7C575.9 653.3 576.6 640.9 576.3 629.7C576.3 639.3 576.3 650.2 576.3 661.1C576.2 663.2 576.9 665.3 575.6 667.1Z" fill="#6DB5DE"/>
<path d="M505.8 350C504.3 351 502.6 350.7 500.9 350.7C460.9 350.7 421 350.7 381 350.7C374.2 350.7 370.9 348.3 370 343C368.9 336.4 372.4 331.9 379 331.3C380.3 331.2 381.7 331.3 383 331.3C423 331.3 462.9 331.3 502.9 331.3C505 331.3 507.9 330.2 508 334.1C507.3 339.4 506.5 344.7 505.8 350Z" fill="#FEFEFE"/>
<path d="M486 485.2C484.1 484.8 482.1 484.4 480.2 483.9C469.4 480.8 465.1 473.1 467.7 462.1C469.2 455.8 471.6 449.7 474.1 443.8C478.8 432.6 481.8 430.8 493.8 431.2C503.2 435 511 440.5 514.2 450.7C515.1 453.5 515.4 456.2 513.8 458.8C511.7 460.1 510 458.7 508.2 458.1C502.9 456.3 497.7 454.1 492.2 452.9C494.9 454.8 498 455.7 501 456.9C504.8 458.4 509 458.9 512.1 462.1C511.8 465.9 511.6 469.7 508.2 472.3C503.3 473 499.4 469.8 495 468.8C492.6 468.2 490.5 466.7 487.8 467C491.2 468.7 494.8 470 498.3 471.4C501.6 472.8 505.4 473.2 508 476.1C506.3 482.4 502.5 485.6 495.5 485.9C492.2 486 489.1 485.4 486 485.2Z" fill="#FD9993"/>
<path d="M749.999 377.9C756.399 393.1 769.299 399.1 784.199 402.1C787.599 402.8 787.999 404.5 787.499 407.4C786.499 413.3 785.7 419.2 784.8 425.1C783.8 425.2 783.2 425.4 782.9 426.8C779 447.2 775.099 467.5 770.999 487.9C770.399 490.8 771.199 491.8 773.999 492.6C779.999 494.5 782.9 499.5 782.1 505.8C781.8 508.6 781.3 511.4 780.6 514.1C779 520.8 773.2 524.4 766.3 523.3C764 522.9 761.7 522.5 759.4 522.1C751.8 520.5 748.099 514.7 749.499 507C749.899 504.9 750.299 502.8 750.699 500.6C752.199 493.7 757 490 763.9 490.6C766.1 490.8 766.7 490.4 767.1 488.3C771 467.8 775.1 447.2 779.1 426.7C779.4 425 779.2 424.3 777.4 424C770.2 422.8 763.1 421.3 755.8 420.2C751.8 419.6 747.899 420.7 744.499 423.1C742.399 419.2 744.6 415.4 745.1 411.7C746.4 400.4 748.299 389.1 749.999 377.9Z" fill="#FEFEFE"/>
<path d="M552.9 576.9C551.9 577.7 549 575.6 549.7 579C549.7 607.5 549.8 636 549.8 664.4C549.8 668.9 548.1 672.8 545.5 676.4C541.5 681.9 536.6 686.8 531.6 691.4C522.5 699.9 513.4 708.5 505.2 718C496.8 727.9 485.4 733.2 473.5 737.1C460.2 741.5 445.9 733 443.4 719.3C437.5 687 435.6 654.5 443.8 622.2C450.3 596.4 462 572.7 475.8 550.1C475.7 551.8 475.6 553.5 475.5 555.3C458.2 584.9 444.1 615.7 441.5 650.6C439.8 672.5 441.6 694.1 444.9 715.7C447.5 732.8 462.8 740.2 478.5 733C490.5 727.5 500.7 720.3 509.4 710.1C518.1 700.1 528.2 691.3 537.7 682C544.6 675.3 547.9 667.5 547.6 657.5C547 634.9 547.4 612.2 547.4 589.6C547.4 585.1 547.4 580.6 546.3 576.2C548.7 576.1 550.9 575.5 552.9 576.9Z" fill="#5983AF"/>
<path d="M646.7 286.1C630.9 283.8 615.2 281.5 599.4 279.1C582.1 276.6 564.9 274.1 547.7 271.4C545.9 271.1 542.4 272.1 543 268.7C543.5 265.9 546.3 267.5 548.1 267.8C580.8 272.5 613.5 277.3 646.2 282.1C647.9 282.4 650.4 282.2 650.4 284.6C650.2 286.6 648.1 286.1 646.7 286.1Z" fill="#FCFCFC"/>
<path d="M552.7 460.9C554.6 461.2 555.8 460.7 556.3 458.6C556.7 457 557.2 455.4 557.8 453.9C558.3 452.6 558.8 450.7 560.8 451.5C562.4 452.1 561.8 453.7 561.5 455C561.3 456 560.8 456.9 560.6 457.8C560.4 459.2 558.2 461.1 561.1 461.7C563.2 462.1 566.2 463.6 567 459.5C567.3 457.7 568.2 456.1 568.8 454.3C569.2 453.1 570.001 452.3 571.401 452.7C572.801 453.2 572.801 454.4 572.401 455.6C571.601 457.9 570.801 460.2 569.901 462.7C571.101 462.8 572 462.8 572.7 463.1C577.5 464.9 579.6 462.8 580.6 458.2C581 456.2 581.1 452.4 584.1 453.3C587.5 454.3 584.8 457.4 584.1 459.1C582 463.8 583.5 465 588.1 465.1C590.4 465.2 594.801 464.3 594.401 467.7C594.001 471.2 589.7 469.3 587.7 468.7C582.1 467 579.901 469.3 578.901 474.3C578.601 475.9 578 477.9 575.7 476.9C573.7 476 575.3 474.4 575.3 473C575.4 471.1 578.7 468.7 575.2 467.2C571 465.3 568.7 466.7 566.8 470.8C565.9 472.9 566.501 477.6 562.901 476.2C559.601 474.9 563.501 471.7 563.401 469.3C563.401 468.1 566.1 466.4 563.2 465.9C561.2 465.6 558.3 463.2 557 467.3C556.3 469.5 555.5 471.7 554.7 473.9C554.3 474.9 553.6 475.7 552.5 475.3C551.2 474.9 550.7 473.9 551.3 472.6C551.6 471.8 551.8 471 552.1 470.2C554.1 464.3 554.1 464.3 547.8 464C546.2 461.9 545.8 460.4 549.3 460.7C550.5 460.8 551.6 460.8 552.7 460.9Z" fill="#020202"/>
<path d="M540.4 289.4C557.4 292 573.6 294.4 589.8 296.8C591.2 297 593.2 296.9 592.9 299.1C592.6 301.1 590.9 300.8 589.4 300.6C573.7 298.3 557.899 295.9 542.199 293.6C541.699 293.5 541.199 293.4 540.699 293.3C539.199 293 537.4 292.9 537.9 290.8C538.2 289.1 539.8 289.3 540.4 289.4Z" fill="#FAFAFB"/>
<path d="M650.5 505.1C658.5 511.6 667.4 516.7 675.7 522.8C677 523.8 679.7 524.5 678.2 526.8C676.6 529.1 675 526.8 673.6 526C664.9 520.5 657 513.9 647.9 509.1C647.5 506.9 647.8 505.2 650.5 505.1Z" fill="#060404"/>
<path d="M658.3 495.8C666.5 501.3 674.7 506.9 682.9 512.5C684.3 513.4 686.9 514.4 685.3 516.5C683.8 518.5 682 516.5 680.6 515.6C672.2 510 663.9 504.3 655.6 498.6C655.1 497.6 654.099 496.6 655.199 495.5C656.299 494.4 657.3 495.5 658.3 495.8Z" fill="#060303"/>
<path d="M701.4 503.8C708 508.2 714.6 512.7 721.2 517.2C722.3 518 724.2 518.8 722.9 520.6C721.9 522.1 720.6 521.3 719.4 520.5C710.4 514.2 701 508.6 692.5 501.7C692.7 499.4 693.5 498.2 695.9 499.8C697.7 501.1 699.5 502.5 701.4 503.8Z" fill="#060404"/>
<path d="M512.1 462.1C505.4 459.7 498.7 457.3 492 454.9C490.6 454.4 488.9 453.8 489.8 451.8C490.5 450.2 492.1 450.8 493.3 451.3C500.1 453.8 507 456.3 513.8 458.8C514.8 460.7 514.3 461.9 512.1 462.1Z" fill="#060404"/>
<path d="M507.901 476.1C501.001 473.6 494.1 471.2 487.3 468.7C486 468.2 484 467.9 484.8 465.8C485.5 463.7 487.301 464.7 488.601 465.1C495.201 467.5 501.7 469.9 508.2 472.4C509.8 473.7 510.001 475 507.901 476.1Z" fill="#060404"/>
<path d="M756.4 342.9C758.8 345.1 758.8 346.9 755.5 348.3C754.3 346.2 753.7 344.3 756.4 342.9Z" fill="#0B080A"/>
<path d="M1159.5 594.2C1208.5 594.2 1257.4 594.2 1306.4 594C1310.5 594 1310.4 596 1310.4 598.9C1310.4 653.4 1310.4 707.9 1310.4 762.4C1310.4 784.1 1310.3 805.7 1310.5 827.4C1310.5 831.8 1309.6 833.2 1304.9 833.2C1260.4 833 1216 833.1 1171.5 833.1C1167.3 820.7 1165 807.7 1161.7 795.1C1157.3 778.2 1153.4 761.2 1149.2 744.3C1148.6 742 1148.3 739.8 1148.3 737.4C1148.4 722.7 1148.4 708.1 1148.3 693.4C1148.3 691 1148.6 688.8 1150.2 686.9C1153.6 682.7 1154.9 677.8 1155.2 672.5C1156.3 652.2 1157.4 632 1158.5 611.7C1158.8 605.8 1159.1 600 1159.5 594.2Z" fill="#FEFEFE"/>
<path d="M1148.6 461.3C1201 461.3 1253.5 461.3 1305.9 461.2C1309.5 461.2 1310.3 462.3 1310.3 465.7C1310.2 506.3 1310.2 547 1310.3 587.6C1310.3 590.6 1309.8 592 1306.3 592C1258 591.9 1209.7 591.9 1161.5 591.9C1160.8 591.9 1160.2 591.8 1159.5 591.7C1160.1 584.3 1160.7 576.8 1161.2 569.4C1162.2 553 1163.4 536.6 1163.9 520.2C1164.2 510.3 1160.1 501.6 1152.8 495C1149.2 491.7 1148 488.3 1148.3 483.7C1148.6 476.3 1148.5 468.8 1148.6 461.3Z" fill="#FEFEFE"/>
<path d="M1036.3 479C1047.4 479.7 1058.5 479.2 1069.6 479C1071.1 477.9 1072.6 477.9 1073.9 479.3C1075.6 483 1075 486.8 1074.8 490.6C1073.6 508.2 1072.6 525.8 1072 543.4C1071.9 547.7 1071.6 552 1069.7 556C1068 585.6 1066.3 615.2 1064.7 644.8C1049.7 644.5 1034.6 644.4 1019.6 643.9C1015.7 643.8 1012 642 1008.5 640.2C1007.3 638.7 1007.1 636.9 1007.3 635C1008.2 626.9 1008.7 618.9 1009.2 610.8C1009.4 608.5 1009.8 606.2 1011.1 604.2C1011.9 603.1 1013.4 603.2 1014.8 602.2C1013.4 600.6 1010.4 600.6 1010.5 597.8C1011.9 575.2 1014.5 552.8 1016.1 530.2C1016.2 528.2 1016.6 526.2 1018.1 524.7C1023.6 522.6 1029.3 522.8 1034.7 524.6C1040.5 526.5 1043.6 531.3 1043.7 537.2C1044.1 554.2 1044.2 571.2 1043.7 588.2C1043.5 595.1 1039.5 599.5 1032.8 601.6C1039.5 600.8 1043.8 595.9 1044.7 588.3C1045.1 584.5 1044.9 580.6 1044.9 576.8C1044.9 564.8 1045 552.8 1044.9 540.8C1044.8 529.2 1040.3 524 1028.9 522.5C1024 521.8 1023.1 521 1023 515.7C1022.8 505.9 1022.9 496 1023 486.2C1023 478.3 1025.3 476.5 1033.1 477.7C1034.3 477.9 1035.3 478.3 1036.3 479Z" fill="black"/>
<path d="M1132.1 1034C1136 1058.9 1140 1083.7 1143.9 1108.6C1144.2 1110.7 1144.3 1112.9 1144.4 1115C1136.9 1104.3 1130.9 1092.6 1124.3 1081.4C1110.4 1057.7 1096.7 1033.8 1082.8 1010C1086.4 1007.3 1090.5 1008.6 1094.4 1008.6C1108.6 1008.4 1107.3 1009.9 1105.2 996C1094.4 925.9 1083.6 855.8 1072.8 785.8C1072.4 783.2 1071.3 780.6 1073.2 778.1C1073.8 777.8 1074.3 777.5 1074.9 777.2C1077.2 777.5 1077.1 779.2 1077.4 780.9C1084 823.6 1090.6 866.2 1097.2 908.8C1102.2 941.1 1107.7 973.4 1111.6 1005.9C1112.5 1013.3 1112.8 1021.1 1113.4 1028.7C1113.7 1032.5 1114.9 1034.7 1119.5 1034.2C1123.7 1033.6 1127.9 1034 1132.1 1034Z" fill="#FEFEFE"/>
<path d="M1073.4 479.3C1072.1 479.2 1070.9 479.1 1069.6 478.9C1068.5 473 1067.4 467.1 1066.2 461.2C1066.6 461.1 1067 461 1067.3 460.9C1088.6 461 1109.8 461.1 1131.1 461.2C1135.8 461.2 1140.4 461.2 1145.1 461.3C1145.1 470 1145.1 478.8 1145.1 488.2C1137.8 483.7 1130.5 480.5 1122.5 479.6C1111.9 478.4 1101.3 479.4 1090.6 479.1C1088.4 479.1 1088.3 480.5 1088.3 482.1C1088.3 502.7 1088.3 523.4 1088.3 544C1088.3 546 1089 546.7 1091 547.2C1102.4 550.1 1106.8 566.6 1098.7 575.2C1095.2 579 1083.7 580.8 1078 578.2C1072.2 575.6 1069.7 570.8 1070.2 564.5C1070.4 561.7 1070.3 558.8 1070.4 556C1070.3 550.7 1073.8 548.1 1078 546.6C1081.9 545.2 1082.9 543 1082.9 539.1C1082.8 521.8 1082.8 504.5 1082.8 487.2C1082.8 481.2 1082.2 480.1 1076.5 480.3C1075.5 480.5 1074.4 480 1073.4 479.3Z" fill="#FEFEFE"/>
<path d="M1073.4 479.3C1084.5 478.7 1084.5 478.7 1084.5 489.8C1084.5 507.3 1084.4 524.8 1084.6 542.2C1084.6 545.2 1084.4 547 1080.6 547.3C1075.5 547.7 1072.6 551.5 1070.5 555.9C1070.2 555.9 1069.9 555.9 1069.6 555.9C1070.7 534.8 1071.8 513.7 1072.9 492.6C1073.2 488.3 1073.3 483.8 1073.4 479.3Z" fill="#6DB5DE"/>
<path d="M1145.4 691.4C1145.4 703.8 1145.4 714.9 1145.4 726C1145.2 726 1145 726.1 1144.7 726.1C1142.3 716.8 1139.6 707.5 1137.8 698.1C1137 693.7 1142.5 694.7 1145.4 691.4Z" fill="#F1F5F8"/>
<path d="M1147.2 691.3C1147.2 705.5 1147.2 719.7 1147.2 733.9C1147 733.9 1146.7 733.9 1146.5 733.9C1146.5 719.7 1146.5 705.4 1146.5 691.2C1146.8 691.2 1147 691.2 1147.2 691.3Z" fill="#5883B0"/>
<path d="M748.4 1138C624 1138 499.7 1138 375.3 1138.1C371.9 1138.1 370.7 1137.4 370.8 1133.8C371 1116.8 371 1099.8 370.8 1082.8C370.8 1079.6 371.7 1078.6 375 1078.6C440.6 1078.7 506.2 1078.8 571.7 1078.8C573.2 1078.8 574.7 1078.7 576.2 1078.7C632.3 1078.7 688.4 1078.7 744.5 1078.7C745.8 1098.4 747.1 1118.2 748.4 1138Z" fill="#FEFEFE"/>
<path d="M741.5 1032.8C705.4 1032.8 669.299 1032.8 633.199 1032.9C629.299 1032.9 628.6 1031.7 628.6 1028.1C628.7 1002.3 628.8 976.5 628.6 950.7C628.6 947 629.5 945.9 633.3 945.9C652.8 946.1 672.199 946 691.699 946C690.999 954.9 690.6 963.9 689.4 972.7C688.9 976.6 689.6 977.7 693.5 977.7C708.3 977.5 723 977.5 737.8 977.5C739 996 740.2 1014.4 741.5 1032.8Z" fill="#FEFEFE"/>
<path d="M894.3 1078.9C899.3 1098.6 904.3 1118.3 909.4 1137.9C907.7 1139.7 905.4 1139.4 903.3 1139.4C882.8 1139.4 862.4 1139.4 841.9 1139.4C839.8 1139.4 837.5 1139.7 835.8 1138C833.8 1118.2 831.8 1098.4 829.8 1078.7C831.5 1077.3 833.5 1077.5 835.5 1077.5C853.1 1077.5 870.7 1077.5 888.3 1077.5C890.3 1077.5 892.6 1077.2 894.3 1078.9Z" fill="#FEFEFE"/>
<path d="M744.4 1076C720.4 1076 696.4 1076 672.5 1076.2C669.5 1076.2 668.4 1075.4 668.5 1072.3C668.7 1061.5 668.7 1050.6 668.5 1039.8C668.4 1036.1 669.4 1035 673.2 1035C696 1035.2 718.8 1035.1 741.7 1035.1C742.5 1048.7 743.4 1062.3 744.4 1076Z" fill="#FEFEFE"/>
<path d="M910.2 1140.6C911.5 1145.7 912.7 1150.9 914.3 1155.9C915.1 1158.4 913.9 1159 912.1 1159.6C892.6 1171.2 873 1182.8 853.5 1194.5C849.7 1196.8 845.8 1199.1 841.4 1201.7C840 1187.5 838.7 1174 837.4 1160.5C837.8 1153.8 836.1 1147.3 835.9 1140.7C837.4 1139.4 839.3 1139.5 841.1 1139.5C862.2 1139.5 883.3 1139.5 904.4 1139.5C906.4 1139.4 908.4 1139.6 910.2 1140.6Z" fill="#FEFEFE"/>
<path d="M910.2 1140.6C885.4 1140.6 860.7 1140.6 835.9 1140.6C835.9 1139.7 835.8 1138.8 835.8 1137.9C860.4 1137.9 884.9 1137.9 909.5 1137.8C909.6 1138.8 909.9 1139.7 910.2 1140.6Z" fill="#5881AE"/>
<path d="M894.3 1078.9C872.8 1078.8 851.199 1078.7 829.699 1078.7C829.699 1077.9 829.6 1077 829.6 1076.2C849.1 1076.2 868.699 1076.2 888.199 1076.2C890.199 1076.2 892.8 1077 892.9 1073.6C893.3 1075.3 893.8 1077.1 894.3 1078.9Z" fill="#5981AD"/>
<path d="M1073.3 778C1075.8 794.4 1078.2 810.8 1080.7 827.2C1084.6 852.4 1088.5 877.7 1092.4 902.9C1096.9 932.1 1101.4 961.3 1106 990.4C1106.8 995.3 1107.5 1000.3 1108.3 1005.2C1108.9 1008.5 1108.2 1010.1 1104.3 1009.9C1097.2 1009.7 1090 1009.9 1082.9 1010C1071.1 989.9 1059.3 969.9 1047.6 949.8C1045.2 945.6 1047.5 941 1047.9 936.6C1050.9 908.3 1054.2 880.1 1057.5 851.9C1060.2 828.5 1062.8 805 1065.5 781.6C1066.1 776.5 1070.4 778.5 1073.3 778Z" fill="#6DB5DE"/>
<path d="M997.3 1138.1C991.8 1118.4 987.1 1098.6 982.6 1078.7C983.8 1077.6 985.3 1077.5 986.8 1077.5C998.5 1077.5 1010.2 1077.5 1022 1077.5C1023.2 1077.5 1024.3 1077.8 1025.3 1078.3C1035.7 1098.2 1046 1118 1056.4 1137.9C1054.7 1139.7 1052.5 1139.4 1050.3 1139.4C1034.7 1139.4 1019.1 1139.4 1003.6 1139.4C1001.3 1139.4 999.2 1139.5 997.3 1138.1Z" fill="#FEFEFE"/>
<path d="M1001.8 1158.8C1000.4 1152.8 999 1146.7 997.7 1140.7C999.2 1139.3 1001.1 1139.4 1002.9 1139.4C1019.5 1139.4 1036.1 1139.4 1052.6 1139.4C1054.3 1139.4 1055.9 1139.6 1057.5 1140.3C1061.3 1146.6 1064.7 1153.1 1067.6 1159.8C1050.2 1174.9 1032.8 1190 1014.9 1205.5C1011.1 1191 1007.4 1177.1 1003.8 1163.2C1003.4 1161.6 1003.6 1159.7 1001.8 1158.8Z" fill="#FEFEFE"/>
<path d="M981.8 1076.1C978.5 1062.4 975.1 1048.7 971.8 1035C972.5 1034.2 973.5 1033.9 974.5 1033.9C983.1 1033.8 991.7 1033.8 1000.3 1033.9C1001.2 1033.9 1001.9 1034.3 1002.6 1034.8C1010.3 1048.2 1017.2 1062 1024.1 1075.8C1022.7 1077.3 1020.9 1077.3 1019.1 1077.3C1008.2 1077.3 997.4 1077.3 986.5 1077.3C984.7 1077.4 983.1 1077.3 981.8 1076.1Z" fill="#FEFEFE"/>
<path d="M1057.5 1140.3C1040.7 1140.4 1024 1140.5 1007.2 1140.6C1004 1140.6 1000.9 1140.7 997.7 1140.7C997.6 1139.8 997.4 1139 997.3 1138.1C1017 1138 1036.6 1138 1056.3 1137.9C1056.7 1138.7 1057.1 1139.5 1057.5 1140.3Z" fill="#5881AE"/>
<path d="M981.8 1076.1C995.9 1076 1010 1075.9 1024.1 1075.8C1024.5 1076.6 1024.9 1077.4 1025.3 1078.2C1011.1 1078.3 996.8 1078.5 982.6 1078.6C982.3 1077.8 982 1077 981.8 1076.1Z" fill="#5981AE"/>
<path d="M981.5 759.3C981.4 737.2 981.3 715.1 981.2 693C981.9 693 982.6 693 983.3 693C984.6 694.2 985 695.8 985 697.5C985.1 710.4 984.4 723.4 983.5 736.3C983.6 744.1 982.9 751.7 981.5 759.3Z" fill="#5981AD"/>
<path d="M983.5 736.4C983.4 722 983.4 707.5 983.3 693.1C984.9 693 986.6 692.4 987.7 694.2C986.6 707.3 985.5 720.5 984.3 733.6C984.3 734.5 983.8 735.4 983.5 736.4Z" fill="#DAE1EA"/>
<path d="M1002.5 1034.9C992.2 1035 982 1035 971.7 1035.1C971.6 1034.4 971.5 1033.7 971.4 1033C981.4 1032.9 991.4 1032.9 1001.4 1032.8C1001.8 1033.5 1002.1 1034.2 1002.5 1034.9Z" fill="#5881AE"/>
<path d="M1036.3 479C1035.1 479.1 1034 479.2 1032.8 479.2C1024.2 479.3 1024.2 479.3 1024.2 488.2C1024.2 498 1024.3 507.8 1024.1 517.6C1024.1 520.3 1024.7 521.2 1027.6 521.3C1040.5 521.5 1046.2 527.5 1046.2 540.4C1046.2 555.9 1046.2 571.3 1046.2 586.8C1046.2 595.8 1041 602.6 1033.2 603.9C1031.5 604.2 1029 605.1 1028.5 602.7C1028 600 1030.8 600.5 1032.4 600.2C1038.1 599 1042.2 594.7 1042.2 588.7C1042.4 571.4 1042.4 554.1 1042.2 536.8C1042.1 530.1 1037 525.4 1030.2 525.2C1026.2 525.1 1022.2 525.2 1018.2 525.3C1016.4 526.6 1014.5 526.8 1012.7 525.3C1013 524 1013.2 522.6 1013.5 521.3C1014.5 520 1016.1 520 1017.6 519.5C1020.3 516.2 1018.4 512.3 1019 508.8C1019 507.1 1019 505.4 1018.9 503.7C1018.9 498.2 1019.7 492.8 1020.1 487.3C1020.8 478.5 1022.8 470 1024.3 461.4C1024.6 461.3 1025 461.2 1025.3 461.1C1027.7 459.8 1030 459.6 1032.3 461.3C1033.7 467.1 1035 473 1036.3 479Z" fill="#FCFCFC"/>
<path d="M1012.9 525.1C1014.7 525.1 1016.6 525.1 1018.4 525.1C1016.8 543 1015.1 560.9 1013.5 578.8C1012.9 585.6 1012.2 592.4 1011.5 599.2C1007 599.4 1003.1 595.8 1002.9 590.9C1002.8 588.7 1002.6 586.3 1003.3 584.1C1005.5 566 1008.9 548.1 1011.9 530.1C1012.2 528.4 1012.6 526.8 1012.9 525.1Z" fill="#6DB5DE"/>
<path d="M1012.1 603.8C1009.8 610.3 1010.7 617.2 1009.7 623.8C1008.9 629.2 1008.8 634.7 1008.4 640.1C993.8 636.7 993.8 636.7 996.4 622.2C998 613.4 999.7 604.7 1001.4 595.9C1005.3 598.1 1008.8 600.9 1012.1 603.8Z" fill="#6DB5DE"/>
<path d="M968.4 644.9C963.6 644.9 958.8 644.9 954 644.9C952.5 644.9 950.7 644.9 950.7 642.8C950.8 640.7 952.7 641 954.1 641C964 641 974 641 983.9 641C985.3 641 987.3 640.6 987.4 642.7C987.5 645.2 985.3 644.8 983.8 644.8C978.7 644.9 973.5 644.9 968.4 644.9Z" fill="#0A0606"/>
<path d="M1020.2 487.2C1020.2 492.9 1020.3 498.5 1020.3 504.2C1019.7 506 1020.1 507.9 1020 509.7C1019.6 513.5 1020.2 517.4 1018.5 521C1016.9 521 1015.3 521.1 1013.7 521.1C1015.8 509.8 1018 498.5 1020.2 487.2Z" fill="#73B5DB"/>
<path d="M980.699 493.2C978.899 493.3 977.7 493.4 977.4 491.9C977.1 490.4 978.2 489.8 979.4 489.6C985.7 488.4 991.999 487.2 998.299 486C999.599 485.8 1000.8 486.1 1001 487.4C1001.3 488.8 1000.2 489.5 998.999 489.7C992.799 491 986.399 492.1 980.699 493.2Z" fill="#0A0606"/>
<path d="M1012.1 603.8C1007.5 602.6 1004.1 599.8 1001.4 596C1001.4 591.9 1002.2 588 1003.3 584.1C1003.5 590.5 1003.7 596.9 1011.4 599.2C1011.8 599.5 1012.2 599.8 1012.6 600C1014.3 600.7 1017.8 599.5 1017.1 602.8C1016.7 605.2 1014 603.8 1012.1 603.8Z" fill="#F8F9FA"/>
<path d="M937.5 675.2C934.6 673.8 935.3 672.4 937.5 671C942 671.1 946.4 671.1 950.9 671.2C952.4 671.2 954.3 671.2 954.3 673.1C954.3 675.1 952.5 675 951 675C946.4 675.1 942 675.1 937.5 675.2Z" fill="#0C0808"/>
<path d="M937.5 662.8C935.2 661.4 934.4 660 937.6 658.6C942.2 658.6 946.8 658.7 951.4 658.7C952.8 658.7 954.3 658.8 954.2 660.6C954.2 662.3 952.7 662.5 951.3 662.6C946.7 662.7 942.1 662.8 937.5 662.8Z" fill="#180F0F"/>
<path d="M1007.5 461.3C1007.5 464.6 1007.1 467.7 1004.9 471.1C1003.3 467.5 1001.9 464.4 1000.5 461.3C1002.9 459.2 1005.2 459.1 1007.5 461.3Z" fill="#F6F4F6"/>
<path d="M997.501 452.9C1000.4 454.9 1003.2 457 1006.5 458.3C1004.6 461.4 1002.1 459.9 999.701 459.2C999.001 457.1 996.501 455.6 997.501 452.9Z" fill="#F7F4F3"/>
<path d="M999.6 459.2C1001.8 458.7 1004.3 459.9 1006.4 458.3C1007.1 458.6 1007.8 458.9 1008.5 459.3C1008.2 460 1007.9 460.7 1007.5 461.4C1005.2 461.4 1002.9 461.4 1000.5 461.4C1000.3 460.6 999.9 459.9 999.6 459.2Z" fill="#5E81AA"/>
<path d="M1232.2 1078.5C1269.5 1078.5 1306.8 1078.6 1344.1 1078.6C1384.2 1078.6 1424.4 1078.7 1464.5 1078.5C1468.9 1078.5 1470.1 1079.7 1470 1084.1C1469.7 1100.3 1469.7 1116.4 1470 1132.6C1470.1 1136.9 1469 1138.2 1464.5 1138.2C1394.2 1138 1323.9 1138.1 1253.7 1138.1C1251.5 1138.1 1249.4 1138.1 1247.2 1138.2C1241.7 1118.4 1236.6 1098.5 1232.2 1078.5Z" fill="#FEFEFE"/>
<path d="M375.9 854.1C370.4 852.7 369.3 846.2 370.1 842.2C371 837.7 374.5 835.2 380.2 835.2C487.3 835.2 594.4 835.2 701.6 835.2C702.2 840.6 700.5 845.8 700.6 851.1C700.7 853.2 699.7 854.2 697.6 854C696.9 854 696.3 854 695.6 854C589.1 854.1 482.5 854.1 375.9 854.1Z" fill="#FEFEFE"/>
<path d="M788.6 352.1C786.3 352.1 785.1 351 784.9 349.2C784.8 347.3 785.9 346.1 787.9 346C789.7 345.9 790.8 346.9 790.9 348.6C791.2 350.5 790.2 351.7 788.6 352.1Z" fill="#130B0B"/>
<path d="M983.6 379.8C983.5 372.5 983.7 365.2 983.3 357.9C983.1 354.1 984.1 352.8 988.2 352.9C1005.3 353.1 1022.4 353 1039.4 353C1040.1 355 1040.8 357 1041.6 359.2C1028.7 359.6 1016.6 362.3 1004.5 365.2C999 366.5 993.6 368.3 990.2 373.3C986.9 374.3 986 377.7 983.6 379.8Z" fill="#FEFEFE"/>
<path d="M1020.6 406.6C1020.6 408.6 1019.5 409.8 1017.6 409.9C1015.6 410 1014.5 408.8 1014.5 406.9C1014.4 405.1 1015.4 404.1 1017.2 403.9C1019.1 403.7 1020.2 404.8 1020.6 406.6Z" fill="#0C0807"/>
<path d="M1032.3 461.2C1030 461.1 1027.6 461.1 1025.3 461C1025.5 460.2 1025.6 459.4 1025.8 458.5C1027.7 460.2 1031.5 457 1032.3 461.2Z" fill="#617DA3"/>
<path d="M1148.9 220.8C1221 220.8 1293.1 220.8 1365.3 220.8C1375.8 220.8 1379.1 224.1 1379.1 234.5C1379.1 242.8 1379.2 251.2 1379.1 259.5C1379 267.4 1375.1 271.6 1367.2 271.8C1359.4 272 1351.5 271.7 1343.7 271.9C1340.8 272 1340 270.9 1340 268.1C1340.1 261.8 1339.9 255.4 1340.1 249.1C1340.2 246.1 1339.2 244.7 1336.1 245.1C1335.3 245.2 1334.4 245.1 1333.6 245.1C1211.3 245.1 1089.1 245.1 966.8 245.1C959.7 245.1 960.6 244.3 960.5 251.6C960.5 257.1 960.4 262.6 960.5 268.1C960.6 270.8 959.9 272 956.9 271.9C947.9 271.7 938.9 272 929.9 271.8C922 271.6 918.2 267.5 918.2 259.4C918.2 250.6 918.2 241.7 918.2 232.9C918.2 224.4 921.8 220.8 930.4 220.8C1003.3 220.8 1076.1 220.8 1148.9 220.8Z" fill="#FEFEFE"/>
<path d="M1150.4 271.8C1089.8 271.8 1029.2 271.7 968.6 271.9C963.8 271.9 962.2 270.6 962.6 265.8C963 261 962.9 256.1 962.6 251.3C962.4 247.9 963.7 246.7 966.9 247.2C967.6 247.3 968.2 247.2 968.9 247.2C1089.6 247.2 1210.3 247.2 1331.1 247.2C1337.5 247.2 1337.5 247.2 1337.5 253.6C1337.5 258.6 1337.4 263.6 1337.5 268.6C1337.6 271 1336.7 272 1334.3 271.8C1333 271.7 1331.6 271.8 1330.3 271.8C1270.3 271.8 1210.4 271.8 1150.4 271.8Z" fill="#FEFEFE"/>
<path d="M1323.2 192.6C1323.2 199.9 1323.1 207.3 1323.3 214.6C1323.4 217.4 1322.4 218.4 1319.6 218.3C1314.1 218.1 1308.6 218.1 1303.1 218.3C1300.1 218.4 1299.5 217.1 1299.5 214.5C1299.6 199.5 1299.6 184.5 1299.5 169.5C1299.5 166.7 1300.4 165.7 1303.2 165.7C1308.4 165.9 1313.5 165.9 1318.7 165.7C1322.1 165.5 1323.4 166.5 1323.3 170.1C1323 177.6 1323.2 185.1 1323.2 192.6Z" fill="#FEFEFE"/>
<path d="M980.8 192.1C980.8 184.8 980.9 177.4 980.8 170.1C980.7 167.1 981.3 165.5 984.9 165.7C990.2 166 995.6 165.9 1000.9 165.7C1003.8 165.6 1004.6 166.7 1004.6 169.5C1004.5 184.5 1004.5 199.5 1004.6 214.5C1004.6 217.2 1004.1 218.5 1001.1 218.3C995.6 218.1 990.1 218.1 984.6 218.3C981.8 218.4 980.8 217.5 980.9 214.6C980.9 207.1 980.8 199.6 980.8 192.1Z" fill="#FEFEFE"/>
<path d="M505.3 1032.9C472.3 1032.9 439.4 1032.8 406.4 1033C402.1 1033 400.4 1032.3 400.5 1027.4C400.8 1002.1 400.7 976.8 400.5 951.5C400.5 947.6 401.2 946.1 405.6 946.1C472 946.2 538.4 946.2 604.9 946.1C609.1 946.1 609.7 947.5 609.7 951.2C609.6 976.8 609.5 1002.5 609.7 1028.1C609.7 1032.2 608.4 1033 604.6 1033C571.6 1032.8 538.5 1032.9 505.3 1032.9Z" fill="#FEFEFE"/>
<path d="M505.8 1035C525.9 1035 546.099 1035.1 566.199 1034.9C570.199 1034.9 571.7 1035.7 571.6 1040C571.3 1050.5 571.4 1061 571.6 1071.5C571.7 1074.8 571 1076.2 567.3 1076.1C526.3 1076 485.4 1076 444.4 1076.1C441.3 1076.1 439.999 1075.4 439.999 1072C440.199 1061 440.199 1050 439.999 1039C439.899 1035.6 441.2 1034.9 444.3 1034.9C464.9 1035.1 485.3 1035 505.8 1035Z" fill="#FEFEFE"/>
<path d="M368.4 1213.8C362.9 1213.8 357.4 1213.7 352 1213.8C349.2 1213.9 348.7 1212.6 348.7 1210.2C348.7 1207.8 349.3 1206.6 352 1206.6C363.3 1206.7 374.6 1206.7 385.9 1206.6C388.6 1206.6 389.2 1207.7 389.2 1210.2C389.2 1212.6 388.6 1213.9 385.9 1213.8C380 1213.7 374.2 1213.8 368.4 1213.8Z" fill="#FCFCFD"/>
<path d="M1074.6 353C1151.7 353 1228.7 353 1305.8 352.9C1309.7 352.9 1310.4 354.2 1310.4 357.7C1310.3 384.5 1310.2 411.3 1310.4 438.1C1310.4 441.9 1309.4 442.8 1305.7 442.8C1234.5 442.7 1163.2 442.7 1092 442.7C1090.4 442.7 1088.2 443.7 1087.4 441.1C1089.5 434 1089.3 427.1 1086.7 420.1C1081.7 406.6 1077.6 392.8 1072 379.5C1070 374.9 1067.7 370.5 1064.1 367C1062.6 365.6 1062 364.7 1064.4 363.5C1068.8 361.2 1071.9 357.2 1074.6 353Z" fill="#FEFEFE"/>
<path d="M1063 430.2C1060.9 420.4 1059.1 411.5 1057.1 402.6C1056.5 400.2 1057.1 399.6 1059.4 399.9C1061.7 400.2 1064 400 1066.3 400.7C1071.8 402.4 1076 405.4 1077.2 411.1C1078.4 416.7 1075.5 421.1 1071.4 424.6C1068.9 426.6 1066.1 428.1 1063 430.2Z" fill="#FC9993"/>
<path d="M1334.1 1032.9C1301 1032.9 1267.9 1032.8 1234.7 1033C1230.5 1033 1229.4 1031.9 1229.5 1027.7C1229.7 1002.2 1229.7 976.7 1229.5 951.3C1229.5 947.1 1230.8 946 1234.9 946C1301.1 946.1 1367.4 946.1 1433.6 946C1437.5 946 1439.1 946.7 1439.1 951.1C1438.9 976.7 1438.9 1002.4 1439.1 1028C1439.1 1032.1 1437.7 1032.9 1434 1032.9C1400.7 1032.8 1367.4 1032.9 1334.1 1032.9Z" fill="#FEFEFE"/>
<path d="M1334.3 1076.1C1314.3 1076.1 1294.3 1076 1274.3 1076.2C1270.6 1076.2 1269.1 1075.6 1269.2 1071.4C1269.5 1060.6 1269.4 1049.7 1269.2 1038.9C1269.1 1035.8 1270.2 1035 1273.2 1035C1314.3 1035.1 1355.5 1035.1 1396.6 1035C1399.8 1035 1400.5 1036.1 1400.5 1039.1C1400.4 1050.1 1400.3 1061.1 1400.5 1072.1C1400.6 1075.5 1399.4 1076.3 1396.2 1076.2C1375.6 1076 1354.9 1076.1 1334.3 1076.1Z" fill="#FEFEFE"/>
<path d="M1469.8 1213.8C1464.5 1213.8 1459.2 1213.7 1453.8 1213.8C1451.3 1213.9 1449.7 1213.5 1449.8 1210.4C1449.8 1207.6 1450.7 1206.6 1453.5 1206.7C1464.6 1206.8 1475.8 1206.8 1486.9 1206.7C1489.5 1206.7 1490.4 1207.5 1490.4 1210.1C1490.4 1212.9 1489.6 1214 1486.7 1213.9C1481.1 1213.7 1475.5 1213.8 1469.8 1213.8Z" fill="#FCFCFD"/>
<path d="M575.6 667.1C575.6 653.7 575.6 640.4 575.6 627C576 627 576.4 627 576.8 627C576.8 638.1 576.8 649.1 576.8 660.2C576.8 662.1 576.2 664.2 577.5 666C582.5 675.8 589.8 683.7 598 690.7C607.7 699.1 616.1 708.8 625 717.9C632.7 725.8 642.4 730.2 652.5 733.5C664 737.4 676.099 729.3 678.199 717.3C682.299 693.9 683.5 670.4 681.6 646.8C681.5 645.1 681.7 643.5 682.6 642C682.7 640.7 683.2 639.6 684.5 639.1C688.2 665.4 686.4 691.5 681.9 717.6C679.2 733.1 663.799 742.3 649.199 736.5C637.399 731.7 626.3 725.8 617.4 715.7C606.7 703.5 594.5 692.5 583.1 680.9C579.4 677 576 672.8 575.6 667.1Z" fill="#5C84B0"/>
<path d="M597.499 409.2C597.099 414.3 595.699 418.4 591.999 421.2C587.299 424.7 581.9 427 576.4 428.8C570.9 430.6 566.2 425 568.4 419.5C572.7 408.7 577.199 398 581.799 387.4C583.299 384 587.499 383.2 588.799 386.1C592.499 393.7 595.699 401.5 597.499 409.2Z" fill="#202B6D"/>
<path d="M625.4 432.8C625.7 434.4 624.6 435.1 623.5 435.9C618.5 439.5 613.6 443.1 608.6 446.8C607.5 447.6 606.3 448.7 605.2 447.2C603.9 445.5 605.2 444.5 606.5 443.6C610.5 440.7 614.5 437.7 618.6 434.8C620.7 433.4 621.6 432.1 621.1 429.2C619.2 418.2 617.7 407.2 616 396.2C615.9 395.4 615.8 394.5 615.7 393.7C615.7 392.6 615.4 391.2 617 390.9C618.8 390.6 619.3 391.9 619.5 393.3C620.1 397.2 620.7 401.2 621.3 405.1C622.7 414.4 624.1 423.6 625.4 432.8Z" fill="#030303"/>
<path d="M682.6 642.1C685.2 667.1 683.9 691.9 679.8 716.6C677.3 731.5 662.699 739.9 648.699 733.9C636.499 728.7 625.4 722.1 616.8 711.5C607.8 700.4 596.2 691.7 586.5 681.2C582.4 676.8 578.4 672.3 577.6 666C577.6 654.4 577.6 642.7 577.6 630.2C580.4 632.5 581.3 635.1 582.5 637.4C590.8 653.8 603.6 664.6 621.9 668C639.8 671.4 655.4 666.3 668.9 654.2C673.4 650.2 678 646.2 682.6 642.1Z" fill="#FEFEFE"/>
<path d="M762.7 494.1C772.2 494.1 778.6 498.1 778.5 504.2C778.4 513.8 774.7 519.7 768.7 519.8C759.2 520.1 752.8 516.1 752.7 510C752.6 500.4 756.5 494.2 762.7 494.1Z" fill="#010101"/>
<path d="M1074.3 563.3C1074.3 553 1076.3 551.1 1086.4 551.1C1096.3 551.1 1098.4 553.2 1098.4 563.6C1098.4 573.2 1096.2 575.3 1086.2 575.3C1076.3 575.2 1074.3 573.2 1074.3 563.3Z" fill="#6DB5DE"/>
<path d="M1018.5 521C1018.1 517 1019.3 513 1019.6 509.1C1019.8 508.6 1020.1 508.6 1020.4 509.1C1020.4 512.3 1020.5 515.6 1020.5 518.8C1020.5 520.1 1020.6 521.5 1018.5 521Z" fill="#3D4245"/>
<path d="M1020.3 509H1019.9H1019.5C1019.4 507.3 1019 505.6 1020.2 504.1C1020.3 505.8 1020.3 507.4 1020.3 509Z" fill="#576770"/>
</svg>
