<svg width="1840" height="1380" viewBox="0 0 1840 1380" fill="none" xmlns="http://www.w3.org/2000/svg">
<path d="M919.5 1379.9C614.5 1379.9 309.6 1379.9 4.59998 1380C0.899976 1380 0 1379.2 0 1375.4C0.1 918.5 0.1 461.5 0 4.59999C0 0.899991 0.799976 0 4.59998 0C614.9 0.1 1225.1 0.1 1835.4 0C1839.1 0 1840 0.799991 1840 4.59999C1839.9 461.5 1839.9 918.5 1840 1375.4C1840 1379.1 1839.2 1380 1835.4 1380C1530.1 1379.9 1224.8 1379.9 919.5 1379.9Z" fill="#FCFCFC"/>
<path d="M698.7 1052C698.7 1083.7 698.7 1115.4 698.7 1147.2C698.7 1149.2 698.6 1151.2 698.5 1153.2C696 1155.3 693 1154.4 690.2 1154.6C675.7 1154.6 661.2 1154.5 646.8 1154.7C636.8 1154.5 626.8 1155.3 616.9 1155.7C614.4 1155.8 611.9 1156 609.7 1154.4C608.9 1153 609.1 1151.5 609.1 1150C608.6 1127.8 610.2 1105.5 610.4 1083.3C610.5 1073.2 610.9 1063.1 611.3 1053C611.4 1051.8 611.2 1050.6 611.3 1049.3C611.3 1046.4 611.2 1043.4 611.7 1040.5C612.3 1038.5 612.4 1036.5 612.3 1034.4C611.5 1016.2 613.3 998.1 613.3 980C613.3 978.8 613.2 977.5 613.3 976.3C613.3 974.4 613.3 972.5 614.7 971C616.5 969.8 618.5 970 620.5 970.3C630.1 971.4 639.7 972.4 649.3 973.4C654.2 973.9 655.2 973.3 655.8 968.3C656.8 959.4 657.4 950.4 658.2 941.5C660.5 916 662.7 890.5 664.9 864.9C666.7 844 668.5 823.1 670.3 802.3C672.1 780.9 674.1 759.6 675.9 738.2C677.7 717.7 679.5 697.1 681.2 676.6C681.9 668.3 682.6 660 683.3 651.7C683.4 650 683.6 648.3 685.3 647.4C695.6 647.5 705.8 648.9 716 649.7C734.5 651.1 753 652.8 771.5 654.3C776.8 654.7 782.1 654.8 787.3 656.2C788.7 657.2 789.1 658.7 789.6 660.2C791.7 679 793.4 697.9 795.2 716.7C796.7 732.2 798.3 747.8 799.6 763.3C800.4 772.9 801.7 782.4 802 792C802 794.3 801.8 796.6 802.6 798.9C803.3 804.9 803.7 811 804.7 817C807 844.3 809.8 871.5 812.2 898.8C812.9 906.7 814.2 914.6 814.1 922.6C814.1 924.4 814.7 926 814.9 927.7C814.9 932.9 816.4 937.9 816 943.1C815.9 945.1 816.1 947.1 816.7 949.1C819.3 971.2 821 993.4 823.1 1015.6C825 1035.1 826.8 1054.6 828.6 1074.1C828.8 1076.6 828.9 1079.1 829 1081.6C828.7 1084 829.5 1086.1 830.4 1088.3C829.5 1102.2 827.9 1116.1 826.8 1130C826.3 1136.3 825.6 1142.6 825.1 1148.9C824.6 1155.2 823 1156.8 816.7 1156.8C796.7 1156.9 776.8 1156.8 756.8 1156.9C749.5 1156.9 749.3 1157.1 749.3 1164.5C749.3 1169 749.4 1173.5 749.2 1178C749.1 1179.8 749.7 1182.1 747 1182.8C746.9 1179.8 746.7 1176.8 746.8 1173.9C747.7 1148.4 744.1 1123.2 742.3 1097.9C741.2 1082.7 739.7 1067.5 738.3 1052.3C737.2 1050.6 737.2 1048.5 736.6 1046.6C734.6 1024.6 732.3 1002.7 731.2 980.6C731.2 979.1 730.5 977.7 730.5 976.2C730.5 971.7 729.6 967.4 729.4 962.9C727.1 936.2 724.7 909.5 722.6 882.9C720.5 857.4 718.2 831.9 716.2 806.3C714.5 784.7 712.7 763.2 710.6 741.7C710.2 737.9 710.5 734 709.6 730.3C709.1 728.2 708.4 726.5 705.8 726.6C703.1 726.7 702.6 728.5 702.5 730.7C702.4 732.5 702.4 734.4 702.4 736.2C702.4 781.3 702.8 826.4 702.2 871.5C701.8 900.6 701.5 929.7 701.2 958.8C701.1 960 701.1 961.2 700.8 962.4C699.4 970.6 700.6 978.9 700.3 987.1C700.3 1007.6 700.6 1028.1 700.2 1048.6C699.9 1049.7 699.8 1051 698.7 1052Z" fill="#8F3600"/>
<path d="M685.4 647.8C684.2 661 682.9 674.3 681.7 687.5C678.8 720.6 675.9 753.8 673 786.9C670.8 811.8 668.8 836.6 666.6 861.5C664.1 890.2 661.6 918.8 659 947.5C658.3 955.6 657.4 963.7 656.9 971.9C656.7 975.1 655.5 975.7 652.6 975.4C640 974 627.5 972.8 614.9 971.5C611.2 973.5 607.3 972 603.7 971.6C588.7 970 573.6 968.5 558.6 966.8C554.8 966.4 553.2 964.7 554 960.9C555 955.9 555.8 950.7 557.2 945.8C557.4 945 557.5 944.1 557.7 943.3C560.7 928.8 563.4 914.3 565.9 899.8C566.1 898.7 566.4 897.7 566.5 896.6C568.1 886 571 875.7 571.6 865C567.6 862.5 563.3 864.3 559.1 863.8C555.8 863.4 555.8 863.6 555 860.9C558.8 859 562.9 860 566.8 859.9C572.5 859.7 573.3 859.1 573.9 853.3C574.1 851.3 574.1 849.3 574.1 847.3C574.1 773.6 574 699.8 574.2 626.1C574.2 620.1 572.5 616.4 566.8 614.3C562.6 612.8 558.7 610.4 555.3 607.4C554 606.4 553.5 605 552.8 603.7C546.9 596.7 541.5 589.4 538.8 580.4C535.6 569.4 535.9 558.6 539.2 547.6C542.6 536.4 547.9 526.2 552.8 515.6C553.7 514.1 553.7 512.2 554.9 510.8C558.9 504.1 563.7 497.9 568.8 491.9C572.7 487.3 574.2 482.4 574.2 476.4C574.1 375.9 574.1 275.3 574.1 174.8C574.1 172.1 573.8 169.4 574.6 166.9C574.9 165.9 575.2 164.4 576.9 165.2C577.6 167.7 577.1 170.2 577.1 172.6C577.1 273.5 577.1 374.4 577.1 475.3C577.1 476.9 577.4 478.6 576.9 480.2C576.9 480.3 576.7 480.4 576.6 480.6C576.7 480.6 576.9 480.6 577.2 480.6C577.2 378 577.2 275.5 577.2 172.9C577.2 170.9 576.6 168.9 577.7 167C579.5 166.6 579.5 168.1 579.8 169.1C580.3 170.9 580.2 172.7 580.2 174.6C580.2 275.2 580.2 375.7 580.2 476.4C591.2 461.2 601 445.4 610.3 429.3C621.6 410 638.4 399.2 660.3 395.8C663.8 395.3 667.3 395.2 670.8 395.4C676.6 395.6 677.8 397 677.3 402.8C675.7 418.5 673.5 434.2 671.6 449.9C671.4 451.6 671.2 453.2 671.1 454.9C670.5 462.2 670.1 462.7 663.2 464.9C659.1 466.2 656.3 468.8 655.3 473.1C654.7 475.7 654.2 478.3 654.2 481C654.1 488.2 657.4 492.2 664.5 493.3C666.6 493.6 668.8 494.1 670.9 494.2C676.7 494.4 680.8 491.3 682.3 485.8C683.3 482.2 683.4 478.5 683.1 474.9C682.7 470.5 680.2 467.5 676 466.1C672.2 464.8 671 462.1 671.5 458.3C673.7 439.6 676.1 421 678.3 402.3C678.6 399.6 679.5 397 682.7 397.3C690.8 398.1 699 398.3 706.7 401.5C707.1 401.9 707.4 402.5 707.6 403C707.3 415 705.9 426.8 704.8 438.8C703.3 456.5 701.8 474.2 700.2 491.9C698.3 513.1 696.5 534.3 694.7 555.5C694.2 561.6 694.3 562 700.3 563C711.8 564.9 723.4 566.3 734.8 568.2C737.4 568.6 740.2 568.7 741.3 571.9C741.6 573.8 740.9 575.5 740.4 577.2C736.6 591.9 732.6 606.6 728.7 621.3C728.1 623.9 727.4 626.5 726.7 629C725.7 633 723.6 634.8 719.2 634.4C710.9 633.5 702.7 632.6 694.4 631.7C688.8 631.1 688.4 631.5 687.3 637.1C686.6 640.6 688.5 644.7 685.4 647.8Z" fill="#6DB5DE"/>
<path d="M746.899 1182.6C747.999 1175.4 747.4 1168.1 747.3 1160.8C747.3 1156.5 748 1154.8 753 1154.9C774.1 1155.3 795.199 1155.2 816.399 1155.2C823.199 1155.2 822.999 1155.2 823.599 1148.4C825.399 1128.1 827.4 1107.8 829.3 1087.5C828.5 1085.8 828.7 1083.9 828.7 1082.1C828.8 1064.8 831.2 1047.6 832.7 1030.4C834.4 1010.2 836.3 990 838.2 969.8C838.9 961.9 839.4 953.9 840.3 946C840.3 945.1 840.4 944.2 840.5 943.4C841.6 938.1 841.2 932.7 842.3 927.4C842.2 926.2 842.3 925.1 842.3 923.9C844.1 903.7 846 883.6 847.8 863.4C849.4 845.7 851.1 828 852.5 810.4C853.6 806.1 853.599 801.6 855.099 797.4C859.999 780.4 870.799 768.2 885.899 759.5C899.599 751.6 914.5 748.2 930.3 749.3C931.1 749.3 931.9 749.3 932.7 749.3C933.3 749.3 933.799 749.3 934.399 749.2C938.099 749.1 941.8 749.2 945.5 749.2C956.7 750.2 967.199 746.3 977.899 744C982.499 743 987 741.9 991.5 741C993.5 740.6 995.699 740.6 996.399 743.1C997.199 745.8 994.999 746.6 993.099 747.1C986.699 749.1 980.2 750.5 973.5 750.7C992 751.6 1010.3 748.6 1028.8 749.2C1038.2 748.8 1047.6 750 1057 750.2C1059.6 750.2 1062.2 750 1064.8 750.8C1064.9 750.9 1065.1 750.9 1065.2 751C1069.7 756.3 1069.7 756.3 1076.6 754C1083.2 751.8 1089.8 749.5 1096.5 747.5C1098.5 746.9 1101.1 745.7 1102 748.7C1102.8 751.3 1100.5 752.6 1098.5 753.4C1091.5 756.1 1084.4 758.4 1077.3 760.6C1074.1 761.6 1071.6 763.1 1070.3 766.2C1064.7 767.9 1059.1 766.9 1052.6 766C1061.6 773.2 1068.7 781.1 1073.3 790.9C1075.5 795.6 1077.2 800.4 1078 805.6C1081.9 833.8 1085.3 862 1089 890.2C1090.4 901.1 1092 911.9 1093.1 922.9C1093 924.6 1093.8 926.1 1093.9 927.7C1094.4 932.9 1095.1 938.1 1095.9 943.3C1096 944.1 1096 945 1096.1 945.8C1098.6 963.7 1100.8 981.7 1103 999.7C1103 1000.5 1103 1001.4 1103.1 1002.2C1103.1 1004.4 1103.8 1006.5 1104.4 1008.5C1105.5 1011.1 1107.8 1010.9 1109.9 1010.9C1130.9 1011 1151.8 1011 1172.8 1010.9C1177.7 1010.9 1178.1 1010.3 1177.5 1005.2C1173.5 971.9 1169 938.6 1164.8 905.3C1161 875.1 1156.9 845 1153.3 814.8C1151 795.8 1141.2 782.5 1124.3 774.1C1123.1 773.5 1121.9 772.9 1120.8 772.3C1117.3 770.2 1112.9 770.5 1109.6 767.8C1109.5 766.3 1110.6 765.7 1111.7 765.4C1117.8 763.3 1123.8 760.7 1130.2 759.6C1140.3 761.9 1147.4 768.8 1154.1 775.9C1164.1 786.7 1168.3 800 1170.1 814.4C1178.2 880.4 1187 946.3 1195.3 1012.3C1195.9 1017.4 1196.7 1022.5 1197.2 1027.6C1199.3 1043.9 1201.5 1060.1 1203.4 1076.4C1206.6 1098.6 1209 1120.9 1212.1 1143.1C1213 1149.4 1213.3 1149.9 1220 1149.9C1233.1 1149.9 1246.3 1149.9 1259.4 1149.9C1261.8 1149.9 1264.4 1149.5 1266.6 1151.2C1264.7 1174.7 1262.7 1198.3 1260.8 1221.8C1260.6 1223.7 1260 1224.5 1258.1 1224.3C1257.3 1224.2 1256.4 1224.3 1255.6 1224.3C1185.3 1224.3 1115.1 1224.2 1044.8 1224.4C1040 1224.4 1039.3 1223 1040.1 1218.9C1042.3 1207.4 1048 1198.3 1057.7 1191.6C1073.4 1180.7 1088.9 1169.5 1104.6 1158.6C1107.4 1156.7 1108 1154.8 1107.6 1151.6C1102.3 1111.2 1097 1070.8 1092 1030.4C1091.5 1026.4 1089.9 1026.1 1086.7 1026.1C1046.4 1026.2 1006.1 1026.1 965.8 1026.2C961.1 1026.2 956.5 1026.4 951.8 1026.5C947.6 1026.8 943.4 1025 939.2 1026.5C937.1 1048.8 934.899 1071.2 932.899 1093.5C929.599 1128.9 926.4 1164.3 923.2 1199.8C922.6 1206.8 921.899 1213.7 921.399 1220.7C921.199 1223.5 920.4 1225.1 917.2 1224.5C916.1 1224.3 914.8 1224.3 913.7 1224.5C908.8 1225.4 906.599 1223.6 907.599 1218.5C905.099 1214.2 907.1 1209.6 907.5 1205.3C908.9 1190.3 909.8 1175.2 911.7 1160.2C912.4 1158.2 912.399 1156.2 912.399 1154.2C912.799 1140.4 914.6 1126.7 915.8 1113C917.6 1092.6 919.5 1072.3 921.3 1051.9C921.9 1045.9 922.3 1040 923 1034C923.5 1029.2 922.799 1028.2 918.099 1028.2C897.099 1028.1 876.2 1028.2 855.2 1028.1C851.3 1028.1 849.7 1029.6 849.3 1033.6C846.5 1065.7 843.599 1097.8 840.599 1129.9C839.899 1137.7 839.099 1145.5 838.899 1153.3C838.799 1155.8 839.399 1157.6 841.599 1159.2C851.199 1166 860.7 1173.1 870.3 1179.9C871.4 1180.7 872.3 1181.6 873.5 1182.3C881.7 1188.7 891.099 1193.4 898.099 1201.4C902.799 1206.8 906.899 1212.6 906.099 1220.3C906.799 1227.4 906.799 1227.4 899.399 1227.4C854.199 1227.4 809.099 1227.4 763.899 1227.5C761.799 1228.1 759.699 1228.7 757.399 1228.8C745.399 1228.8 745.299 1228.8 745.399 1216.8C745.499 1206.9 745.099 1197 745.599 1187C745.699 1185.7 746.1 1184.4 747 1183.4C746.7 1182.9 746.799 1182.7 746.899 1182.6Z" fill="black"/>
<path d="M1195.4 1027.1C1190.7 990.1 1185.9 953.1 1181.2 916.1C1176.6 879.9 1171.9 843.7 1167.3 807.6C1164.7 787.6 1146.9 765.1 1129.6 760.3C1129.6 758.1 1131.5 758.2 1132.7 757.8C1151.7 751.6 1170.7 745.1 1189.6 738.5C1191.3 737.9 1193 737.3 1194.9 737.7C1196.1 738.1 1196.9 738.9 1197.6 739.8C1201.3 744.5 1201.3 744.5 1206.9 741.7C1225.2 732.6 1242.6 721.7 1261 712.5C1270.5 707.8 1274.7 699.4 1276.1 689.2C1276.3 687.3 1275.2 684.5 1278.7 684.2C1288.2 690.5 1293.1 700.1 1297.1 710.3C1300.8 719.8 1301.9 729.8 1300.7 739.8C1299.4 750.8 1299.8 761.7 1299.2 772.7C1298.5 785.1 1298.2 797.6 1297.7 810.1C1296.8 829.2 1296.6 848.3 1295.1 867.4C1294.4 876 1294.5 884.7 1294.1 893.3C1293.7 903.4 1293 913.6 1292.8 923.7C1292.8 924.9 1292.9 926.1 1292.8 927.3C1293.2 932.6 1292 937.7 1291.6 943C1291.5 943.9 1291 944.7 1290.5 945.4C1289.4 970.6 1288.2 995.8 1287.4 1021C1287.2 1025.7 1286.2 1027.7 1281.3 1027C1279 1026.7 1276.7 1027.1 1274.4 1027.3C1272.8 1028.7 1270.8 1028.9 1268.8 1028.9C1247.5 1028.9 1226.2 1029.1 1204.9 1028.8C1201.6 1028.5 1198.2 1029.6 1195.4 1027.1Z" fill="#8F3600"/>
<path d="M1204.5 1027.1C1227.8 1027.1 1251.1 1027.2 1274.4 1027.2C1273.1 1045.7 1271.8 1064.3 1270.6 1082.8C1269.9 1092.4 1269.2 1102 1268.6 1111.6C1267.8 1124.7 1267.1 1137.8 1266.3 1150.9C1249.5 1150.9 1232.7 1150.7 1215.9 1150.9C1212.3 1150.9 1211 1149.9 1210.6 1146.4C1207.8 1123 1204.7 1099.6 1201.8 1076.3C1201.6 1062.4 1202.4 1048.6 1202.9 1034.7C1202.9 1032 1202.4 1029.3 1204.5 1027.1Z" fill="#FD9993"/>
<path d="M610 1153.8C622.3 1153.7 634.6 1153.5 646.8 1153.4C661.3 1154.1 675.8 1153.5 690.3 1153.7C693.1 1153.9 695.9 1153.2 698.6 1154.2C699.9 1168.4 701.3 1182.6 702.5 1196.9C703.3 1206 703.9 1215.1 704.8 1224.2C705 1226.7 704.3 1227.2 701.9 1227.2C667.8 1227.1 633.7 1227.1 599.6 1227.2C597 1227.2 596.7 1226.5 597.2 1224C598.9 1215 600.3 1206 601.7 1197C601.2 1195.4 601.3 1193.8 601.3 1192.2C603.1 1181 605.1 1169.9 607.2 1158.8C607.7 1156.9 607.9 1154.8 610 1153.8Z" fill="black"/>
<path d="M1290.4 945.4C1290.4 944.7 1290.4 943.9 1290.5 943.2C1293.4 940.8 1296.9 941.6 1300.1 941.6C1379.5 941.6 1459 941.6 1538.4 941.5C1553 941.5 1551.4 943.3 1551.4 928.4C1551.4 672.2 1551.4 415.9 1551.4 159.7C1551.4 148.8 1552.2 149.5 1541 149.5C1216.4 149.5 891.8 149.5 567.3 149.5C555.8 149.5 556.3 148.7 556.3 160.3C556.3 274 556.3 387.7 556.3 501.5C556.3 505.2 556.5 508.8 554.9 512.3C554.7 513.7 554.2 514.9 552.8 515.6C552.8 513.8 552.7 511.9 552.7 510.1C552.7 390.9 552.7 271.7 552.7 152.4C552.7 146 552.7 146 559.1 146C889 146 1218.9 146 1548.9 146C1555.9 146 1556 146 1556 153C1556 414.9 1556 676.8 1556 938.7C1556 945.4 1556 945.4 1549.3 945.4C1463 945.4 1376.7 945.4 1290.4 945.4Z" fill="#5D85B1"/>
<path d="M602.5 1192.8C602.5 1194.2 602.9 1195.7 601.8 1197C592.9 1204.2 584.1 1211.5 574.1 1217.2C503.4 1257.1 410.9 1214.1 395.9 1134.2C383.7 1069 423.4 1007.3 487.5 991.8C494.8 990 502.2 989 509.7 988.8C512.9 988.7 514.2 987.6 514.2 984.1C514.1 905.7 514.1 827.2 514.2 748.8C514.2 745.3 513.3 744.3 509.8 744.3C481.3 744.4 452.8 744.4 424.4 744.3C421.8 744.3 420.4 744.7 419.6 747.7C418.1 753.6 413.8 756.8 407.8 757.6C406.5 757.8 405.2 757.9 403.8 757.9C370 757.9 336.2 757.9 302.4 757.9C300.6 757.9 298.7 757.7 297 757.3C291 756.1 286.7 751.2 286.1 745.2C285.5 739 288.5 733.7 294.2 731C296.8 729.8 299.6 729.5 302.5 729.5C336.5 729.5 370.5 729.6 404.4 729.5C411.9 729.5 417.4 732.4 419.8 739.7C420.8 742.9 422.9 742.1 424.9 742.1C453.4 742.1 481.9 742.1 510.3 742.1C516.9 742.1 516.9 742.1 516.9 748.9C516.9 784.7 517 820.5 516.8 856.3C516.8 860.4 517.7 861.8 522 861.6C530.5 861.3 539 861.3 547.5 861.6C551.8 861.8 553.3 860.8 553.1 856.2C552.7 845.9 553 835.6 553 825.2C553 753.3 553 681.3 553 609.4C553 607.4 553.1 605.4 553.1 603.4C554.1 603.8 554.7 604.6 555.1 605.5C556.5 607.7 556.6 610.2 556.6 612.7C556.6 693.2 556.6 773.8 556.6 854.3C556.6 856.6 556.8 859 555.2 861C559.9 863.5 564.9 861.5 569.7 862.2C571.3 862.4 573.6 861.3 574 864.2C571.7 866.1 569 865.7 566.4 865.7C552.6 865.8 538.8 865.7 525 865.7C519.1 865.7 518.7 866.2 518.7 871.9C518.6 877.7 518.6 883.5 518.7 889.3C518.8 895 519.1 895.4 525.1 895.4C537.1 895.5 549 895.4 561 895.4C563.5 895.4 566 895.1 568.1 897C568.1 897.9 567.8 898.6 567.1 899.1C565.3 900.8 563.1 900.5 560.9 900.5C558 900.5 556.7 901.8 556.7 904.7C556.7 915.5 556.7 926.3 556.7 937.1C556.7 939.5 558 941.2 559.2 942.9C559.2 943.6 559.1 944.4 559.1 945.1C553.8 946.7 551.9 945.6 551.7 940.2C551.4 929.6 551.6 918.9 551.6 908.3C551.6 900.7 551.4 900.5 543.8 900.5C537.3 900.5 530.8 900.6 524.3 900.5C520.6 900.4 518.8 901.8 518.8 905.7C518.8 926.8 518.8 948 518.8 969.1C518.8 974 521.7 974.3 525.4 974.3C544.9 974.3 564.3 974.3 583.8 974.3C592.1 974.3 600.4 974.2 608.8 974.3C611.1 974.3 613.5 974 615.2 976.2C615.2 977.1 615.1 977.9 615.1 978.8C612.9 980.8 610.1 980.3 607.5 980.3C580.9 980.3 554.3 980.3 527.7 980.3C526.2 980.3 524.7 980.3 523.2 980.3C521.1 980.4 519 980.6 519 983.4C519 986 520.9 986.8 523 987C527.5 987.5 531.9 987.7 536.4 988.5C557.9 992.2 577 1000.9 593.8 1014.6C595.5 1015.9 597.4 1017.1 597.7 1019.6C597.6 1020.6 597 1021.2 596 1021.4C593.4 1021.4 591.7 1019.8 589.9 1018.3C571.6 1003.6 550.9 995.1 527.6 992.6C526.3 992.5 524.9 992.4 523.6 992.3C520.3 992.1 518.7 993.5 518.7 996.9C518.7 1012 518.8 1027.2 518.7 1042.3C518.7 1047 521.4 1047.2 524.9 1047.2C543.7 1047.2 562.5 1047.2 581.3 1047.2C589.8 1047.2 598.3 1047.2 606.8 1047.2C609.1 1047.2 611.5 1046.8 613.3 1048.9C613.3 1049.7 613.3 1050.6 613.3 1051.4C611.3 1053.6 608.7 1053 606.3 1053C579.7 1053 553 1053 526.4 1053C518.9 1053 518.9 1053 518.9 1060.4C518.9 1067.7 519.1 1075.1 518.8 1082.4C518.6 1086.6 520 1088.9 524.1 1090.6C534.2 1094.8 538.6 1103.9 536.5 1114.6C534.9 1122.9 526.6 1130.1 517.8 1130.8C507.6 1131.7 498.4 1125 495.8 1114.9C493.4 1105.6 498.4 1094.5 507.5 1090.9C512.2 1089.1 513.2 1086.4 513.2 1081.9C513.1 1054.3 513.1 1026.6 513.1 999C513.1 992.1 512.4 991.4 505.7 992.1C475.7 995.3 450.2 1007.5 429.6 1029.8C408.3 1052.8 397.8 1080 398.1 1111.1C398.4 1142.5 409.8 1169.8 432 1192.4C455.7 1216.6 484.8 1228.1 518.2 1227.8C546.1 1227.5 571 1218.1 592.5 1200C595.1 1197.8 597.8 1193.9 602.5 1192.8Z" fill="#5982AF"/>
<path d="M905.7 1220C903.1 1208.3 896.8 1199.3 886.6 1192.9C881.7 1189.8 877.2 1186.2 872.5 1182.9C872.2 1180.8 873.9 1180 875.2 1179.2C886.1 1172.3 896.7 1165 907.6 1158C909.1 1157 911.9 1154.1 912.7 1159C910.9 1178.7 909.1 1198.4 907.3 1218.1C906.8 1218.7 906.2 1219.4 905.7 1220Z" fill="#FEFEFE"/>
<path d="M746.6 1183.1C746.6 1184.1 746.6 1185 746.6 1186C745.3 1187.6 743.3 1187.5 741.7 1188.1C731.4 1192 725.7 1202.6 728.3 1212.9C730.9 1223.1 741.2 1229.9 751.9 1228.4C753.8 1228.1 755.9 1228.3 757.7 1227.2C759.6 1227.2 761.6 1227.2 763.5 1227.2C746.4 1238.3 727 1229.8 724.1 1210C722.5 1199.1 730.7 1187.1 741.7 1184.2C743.3 1183.7 745 1183.5 746.6 1183.1Z" fill="#5E86B1"/>
<path d="M737.9 1047.7C738.6 1049.1 738.4 1050.6 738.2 1052C725 1052 711.9 1052 698.7 1052C698.7 1051.1 698.7 1050.3 698.7 1049.4C700.2 1047.7 702.2 1047.7 704.2 1047.7C715.5 1047.7 726.7 1047.5 737.9 1047.7Z" fill="#5881AE"/>
<path d="M1305.2 1108.8C1309.1 1115.6 1312.9 1122.4 1316.8 1129.2C1316.2 1129.6 1315.5 1129.9 1314.9 1130.3C1311 1123.5 1307.2 1116.8 1303.3 1110C1303.9 1109.6 1304.6 1109.2 1305.2 1108.8Z" fill="#658BB4"/>
<path d="M447.7 253C445.7 260.6 442.7 267.8 438.5 274.5C439.8 266.6 443.3 259.6 447.7 253Z" fill="#648BB4"/>
<path d="M1067.4 1118.2C1071.2 1125 1075 1131.7 1078.9 1138.5C1078.3 1138.8 1077.8 1139.1 1077.2 1139.4C1072.6 1133.1 1069.3 1126 1065.4 1119.3C1066.1 1118.9 1066.7 1118.5 1067.4 1118.2Z" fill="#658BB4"/>
<path d="M351.1 408.5C354.9 409 355.2 411.2 356.1 412.8C358.8 417.4 361.4 422 364 426.6C364.5 427.5 365.1 428.4 363.9 429.2C363.2 429.7 362.6 429 362.3 428.5C358.8 422.1 355.2 415.7 351.1 408.5Z" fill="#658BB4"/>
<path d="M435.6 587.2C432.5 594.3 429.5 601.5 426.4 608.6C425.8 608.4 425.2 608.1 424.6 607.9C426.9 600.4 430.6 593.6 433.6 586.4C434.2 586.6 434.9 586.9 435.6 587.2Z" fill="#6289B3"/>
<path d="M400.3 892.1C395.5 885.9 391.5 879.4 389 872C394.2 877.9 397.8 884.7 400.3 892.1Z" fill="#648AB4"/>
<path d="M938.8 1026.2C943 1024.8 947.2 1025.4 951.4 1026.2C948.9 1032 946.4 1037.8 943.9 1043.6C943.4 1043.4 942.9 1043.2 942.4 1043C943.2 1037.3 947.1 1032.5 948.4 1026.3C945 1026.2 941.9 1026.2 938.8 1026.2Z" fill="#638AB4"/>
<path d="M1437.8 1033.1C1439.5 1025.4 1442.9 1018.4 1447 1011.7C1445.3 1019.4 1442.2 1026.5 1437.8 1033.1Z" fill="#648BB4"/>
<path d="M698.6 1154.1C695.9 1154.1 693.3 1154 690.6 1154C690.2 1153.8 690.1 1153.7 690.2 1153.5C690.3 1153.3 690.4 1153.2 690.5 1153.2C693.1 1153.2 695.8 1153.1 698.4 1153.1C698.6 1153.4 698.6 1153.8 698.6 1154.1Z" fill="#606060"/>
<path d="M602.501 1192.8C591.801 1202.9 580.401 1211.9 567.001 1218.3C494.301 1252.9 408.501 1207.1 397.101 1127.4C387.901 1063.3 431.801 1003.3 496.001 992.5C500.701 991.7 505.6 991.7 510.4 991.2C513.1 990.9 514.2 991.8 514.2 994.7C514.1 1025.7 514.1 1056.6 514.2 1087.6C514.2 1090.7 512.5 1090.9 510.3 1091.5C501.6 1093.9 495.9 1101.5 495.8 1110.2C495.7 1118.9 501.1 1126.4 509.3 1129.1C517.5 1131.8 526.201 1128.9 531.501 1121.8C539.501 1111 533.801 1094.8 520.601 1091.4C517.501 1090.6 516.6 1089.6 516.7 1086.6C516.9 1076.4 516.9 1066.3 516.7 1056.1C516.6 1052.4 518 1051.8 521.3 1051.8C551.8 1051.9 582.301 1051.9 612.701 1051.9C612.1 1078.2 611.501 1104.6 610.801 1130.9C610.601 1138.5 611.001 1146.1 610.001 1153.7C607.901 1164.8 605.901 1175.9 603.801 1187C603.401 1189 602.901 1190.9 602.501 1192.8Z" fill="#FEFEFE"/>
<path d="M853.7 809.6C852.3 835.4 849.3 861.1 847.1 886.9C846 899.4 844.8 912 843.6 924.5C842.3 925.7 840.6 925.8 839 925.8C832.1 925.8 825.1 925.8 818.2 925.8C816.4 925.8 814.6 925.5 813.2 924.1C810.1 888.3 806 852.6 803.7 816.7C803 808.8 802.5 800.8 802.4 792.9C802.3 740.9 802.3 688.9 802.4 636.8C802.4 634.8 802.3 632.8 802.7 630.9C803.6 628.3 805.9 628.4 808 628.3C810.7 628.2 813.3 628.9 815.9 629.2C826.8 630.4 834.5 626 839.2 616.2C841 614.7 840.4 612.8 839.9 611C840.1 608.7 840.4 606.5 840.9 604.2C841.7 602.6 842.3 601 841 599.3C839.1 593.1 835 589.3 828.9 587.2C823.3 585.2 817.2 584.4 812.3 580.7C810.6 579.1 808.4 579.1 806.3 578.4C804.8 577.7 803.5 576.8 802.8 575.2C802.1 571.3 801.9 567.4 802.9 563.5C805 561.4 806.3 563.3 807.2 564.6C816.7 577.4 830.5 582.6 845.1 586.6C848.8 587.6 853.3 587.6 854.8 592.4C855.1 594.9 855 597.4 855 599.9C855 663.9 855 727.9 855 791.9C855 797.7 854 803.6 853.7 809.6Z" fill="#FEFEFE"/>
<path d="M699.7 959.3C699.8 938.5 699.8 917.7 699.9 896.9C700.1 874.3 700.5 851.7 700.6 829C700.7 795.4 700.5 761.8 700.4 728.2C700.4 725.5 700.6 723.4 704 724C706.6 724.5 710.5 721.8 710.9 727.5C713 754 715.4 780.5 717.6 807C720.2 837 722.8 867 725.2 896.9C727 918.9 728.7 941 730.5 963C729.6 964 728.5 964.1 727.3 964C719.4 963.3 711.5 962.1 703.6 961.1C702.2 961 700.8 960.4 699.7 959.3Z" fill="#6DB5DE"/>
<path d="M612.7 1049.5C582.4 1049.5 552.1 1049.4 521.8 1049.6C517.6 1049.6 516.5 1048.5 516.6 1044.3C516.8 1028.2 516.8 1012 516.6 995.9C516.5 991.7 517.9 991 521.7 991.2C547.8 992.7 570.9 1001.7 591.1 1018.1C592.5 1019.2 594 1020.3 595.5 1021.4C603.1 1026.1 608.6 1032.8 612.7 1040.6C613.5 1043.5 613.1 1046.5 612.7 1049.5Z" fill="#FEFEFE"/>
<path d="M614.7 976.6C583.8 976.6 552.8 976.5 521.9 976.7C517.8 976.7 516.6 975.7 516.6 971.5C516.8 949.1 516.8 926.6 516.6 904.2C516.6 900.6 517.4 899.3 521.3 899.4C530.3 899.7 539.3 899.7 548.2 899.4C552.1 899.3 552.9 900.6 552.8 904.2C552.6 916 553 927.8 552.6 939.6C552.4 944.6 554.1 946.1 558.7 945.6C557.6 951 556.8 956.4 555.5 961.7C554.8 964.5 555.6 965.1 558.2 965.3C577.2 967.3 596.099 969.4 615.099 971.4C614.899 973.1 614.8 974.9 614.7 976.6Z" fill="#FEFEFE"/>
<path d="M685.4 647.8C685.8 642.8 686.4 637.9 686.5 632.9C686.5 629.5 688.101 629.2 690.801 629.6C700.501 630.8 710.3 631.6 719.9 633C723.4 633.5 724.6 632.5 725.2 629.3C725.8 626.2 726.901 623.3 727.801 620.2C731.701 617.9 735.6 619.6 739.5 620C753.2 621.5 766.9 623.1 780.5 624.9C782 625.1 783.501 625.2 784.801 626C787.801 628.5 786.8 632 787.4 635.2C788.4 640.2 787.8 645.4 788.9 650.4C789.3 652.4 789.4 654.7 787.6 656.4C776.3 657 765.101 654.9 753.801 654.3C739.201 653.4 724.7 652 710.1 650.6C701.8 649.7 693.5 649.9 685.4 647.8Z" fill="black"/>
<path d="M737.9 1047.7C737.2 1050.3 735 1049.4 733.4 1049.4C721.9 1049.4 710.3 1049.4 698.8 1049.4C698.9 1028.1 699 1006.7 699.1 985.4C699.3 977.8 699.3 977.8 707 977.8C713.3 977.8 719.6 977.8 725.9 977.8C728.1 977.8 730.2 977.7 732 979.3C733.5 996.8 735.1 1014.3 736.6 1031.9C737.1 1037.1 737.5 1042.4 737.9 1047.7Z" fill="#FEFEFE"/>
<path d="M596.8 1020.1C579.3 1003.7 558.5 994.2 535 990.2C530.4 989.4 525.8 988.8 521.1 988.9C516 989 516.9 985.9 516.6 982.7C516.2 978.6 518.8 979.1 521.3 979.1C552.4 979.1 583.499 979.1 614.599 979.1C614.199 998 613.799 1016.9 613.399 1035.8C612.499 1036.5 611.3 1036.6 610.7 1035.7C606.4 1030.2 600.5 1026.2 596.8 1020.1Z" fill="#FEFEFE"/>
<path d="M841.4 945.4C840.3 958.9 839.3 972.5 838.1 986C835.6 1013.6 833.1 1041.2 830.6 1068.7C830.2 1073.2 829.8 1077.6 829.5 1082.1C828.9 1082.7 828.3 1082.7 827.8 1082C825.6 1058.5 823.5 1034.9 821.3 1011.4C819.3 990 817.3 968.7 815.3 947.3C815 945.5 815.9 944.2 817.6 944.1C825.2 943.7 832.8 943.2 840.4 944.4C840.7 944.6 841.1 945.1 841.4 945.4Z" fill="#FEFEFE"/>
<path d="M800.7 792.3C797.4 757.9 794.2 723.5 790.9 689C789.9 678.9 789.1 668.8 788.2 658.7C788.4 650 786.8 641.3 787.9 632.6C788.1 630.8 788.1 629 789.2 627.4C793.7 625.4 797.9 626.5 802 628.7C802.7 630.3 802.5 632 802.5 633.6C802.5 684.7 802.5 735.9 802.5 787C802.5 788.5 802.6 790 802.2 791.5C802 792.3 801.5 792.5 800.7 792.3Z" fill="#FEFEFE"/>
<path d="M699.7 959.3C710 960.6 720.3 961.8 730.5 963.1C731.3 967.6 731.7 972.1 731.7 976.6C730.1 977.7 728.3 977.7 726.4 977.7C718.9 977.7 711.5 977.7 704 977.7C700.5 977.7 698.8 976.4 699.1 972.6C699.4 969.5 699 966.3 699.3 963.1C699.4 961.9 699.5 960.6 699.7 959.3Z" fill="#FDFDFD"/>
<path d="M843.301 927.3C842.701 932.6 842.9 938 841.6 943.3C835 945.3 828.3 943.9 821.6 944.2C819.4 944.3 817 944.9 814.9 943.3C814.5 937.9 813.3 932.6 813.6 927.2C814.8 926.1 816.201 925.9 817.801 925.9C825.001 925.9 832.101 925.8 839.301 925.9C840.801 925.9 842.201 926.1 843.301 927.3Z" fill="#FDFDFD"/>
<path d="M801.4 792.4C801.4 760.3 801.5 728.3 801.5 696.2C801.5 673.8 801.5 651.3 801.5 628.9C802.6 628 803.1 628.8 803.7 629.6C803.7 690.3 803.7 751.1 803.6 811.8C803.6 813.5 803.4 815.1 803.4 816.8C802.1 810.7 801.6 804.5 801.4 798.3C800.9 796.3 800.9 794.3 801.4 792.4Z" fill="#5881AE"/>
<path d="M699.301 963.2C699.401 965.7 699.801 968.2 699.501 970.6C698.901 975.2 700.301 977 705.301 976.7C714.101 976.2 722.9 976.6 731.7 976.6C731.8 977.5 731.901 978.4 732.001 979.2C723.401 979.2 714.8 979.5 706.2 979C701 978.7 698.601 980 699.001 985.3C698.801 978 698.701 970.6 699.301 963.2Z" fill="#5881AE"/>
<path d="M843.3 927.3C833.4 927.3 823.5 927.2 813.6 927.1C813.4 926.1 813.2 925 813 924C823.2 925.2 833.3 924.5 843.5 924.4C843.4 925.4 843.4 926.4 843.3 927.3Z" fill="#5881AE"/>
<path d="M789.5 627.7C789.1 638.1 788.6 648.4 788.2 658.8C788 658 787.7 657.2 787.5 656.4C787.4 646.5 786.1 636.8 785.1 627C786.9 625.3 788.2 626.4 789.5 627.7Z" fill="#70B3D8"/>
<path d="M596.8 1020.1C601.6 1024 605.7 1028.5 609.7 1033.2C610.7 1034.4 611.1 1036.4 613.4 1035.9C613.8 1037.5 613.7 1039.1 612.8 1040.5C607.1 1034.1 601.3 1027.7 595.6 1021.3C595.9 1020.9 596.3 1020.5 596.8 1020.1Z" fill="#6388B1"/>
<path d="M814.9 943.3C823.8 943.3 832.7 943.3 841.6 943.3C841.6 944 841.5 944.7 841.5 945.4C834.2 945.4 826.9 945.4 819.6 945.4C817.9 945.4 815.8 944.7 815.3 947.4C814.4 946.1 814.9 944.7 814.9 943.3Z" fill="#5881AD"/>
<path d="M690.7 1153.2C690.7 1153.4 690.7 1153.7 690.7 1153.9C676.8 1153.9 663 1153.9 649.1 1153.9C648.3 1153.9 647.6 1153.5 646.8 1153.2C661.4 1153.3 676.1 1153.3 690.7 1153.2Z" fill="#51463F"/>
<path d="M827.7 1082.1C828.3 1082.1 828.9 1082.2 829.4 1082.2C829.3 1084 829.2 1085.7 829.2 1087.5C826.8 1086.2 827.5 1084.1 827.7 1082.1Z" fill="#A68572"/>
<path d="M801.4 792.4C801.4 794.4 801.4 796.3 801.4 798.3C800.2 796.4 800.5 794.4 800.7 792.4C801 792.4 801.2 792.4 801.4 792.4Z" fill="#D2AF9A"/>
<path d="M555 512.3C555 480.2 554.9 448 554.9 415.9C554.9 328.7 554.9 241.4 554.8 154.2C554.8 149.4 556 148.1 560.8 148.1C889.7 148.2 1218.6 148.2 1547.5 148.1C1551.9 148.1 1553.4 149 1553.4 153.8C1553.3 415.2 1553.3 676.6 1553.4 938C1553.4 942 1552.7 943.4 1548.3 943.4C1462.4 943.3 1376.4 943.3 1290.5 943.3C1290.8 937.9 1291.1 932.6 1291.3 927.2C1293.6 925.2 1296.4 925.9 1299 925.9C1373.8 925.9 1448.5 925.9 1523.3 925.9C1532.3 925.9 1531.6 926.5 1531.6 917.5C1531.6 669.9 1531.6 422.4 1531.6 174.8C1531.6 166.5 1531.6 166.5 1523.1 166.5C1283 166.5 1042.9 166.5 802.7 166.5C730.3 166.5 657.8 166.5 585.4 166.5C582.4 166.5 579.4 166.9 576.7 165.2C574.9 166.8 575.8 169 575.8 170.8C575.7 273.9 575.7 377 575.8 480C575.8 483.7 574.9 486.7 572.6 489.6C566.6 497 560.8 504.7 555 512.3Z" fill="#FEFEFE"/>
<path d="M706.6 401.7C698.9 400.6 691.1 399.7 683.4 398.5C681 398.1 680.1 398.7 679.8 401C677.8 418.2 675.7 435.3 673.7 452.4C673.5 453.7 673.6 455.1 673.2 456.4C672.2 460.6 671.7 464.3 677.7 464.9C678.9 465 680.1 466 681.1 466.9C685.5 470.7 686.3 481.9 682.8 489C680.3 494.2 674.8 496.4 667.9 495.3C666.3 495 664.6 494.9 663 494.7C657 493.9 652.8 489.2 652.5 483.2C652.3 479.3 653 475.5 653.8 471.8C654.9 466.9 659.2 463.1 664.6 463C668 462.9 668.8 461.5 669.1 458.7C670.5 446.5 672.1 434.3 673.6 422.1C674.4 415.3 674.8 408.5 676 401.8C676.8 397.6 675.3 396.9 671.8 396.8C645 396.4 624.6 407.5 611.1 430.7C601.3 447.5 591 464 579.5 479.7C577.9 479.2 578.6 478 578.6 477.2C578.6 374.5 578.6 271.7 578.6 169C578.6 168.3 578.7 167.7 578.7 167C580.2 165.5 582.1 165.9 583.9 165.9C645.8 165.9 707.7 165.9 769.7 165.9C775.2 165.9 776 166.6 776 172.3C776 206.2 776.2 240.2 775.9 274.1C775.7 275.7 775.1 277 773.7 277.8C769.2 280.4 765.1 283.4 761.3 287C759.2 289 756.7 288.2 754.2 287.5C748.6 285.8 743 284.7 737 286C724.3 288.7 717 296.5 714.1 308.9C712.5 315.9 712.6 323.1 710.1 329.9C709 331.7 707.2 332.6 705.6 333.7C698.9 338.4 698.2 345.8 704.1 351.6C704.8 352.3 705.5 353.1 706.4 353.5C713.2 356.3 713.6 361.5 712.5 367.8C710.9 377.3 710.3 386.9 708.9 396.5C708.7 398.6 709 400.8 706.6 401.7Z" fill="#FEFEFE"/>
<path d="M740.6 572.5C740.7 569.3 738 569.9 736.3 569.7C723 567.6 709.7 565.6 696.3 563.8C693.3 563.4 692.4 562.6 692.6 559.5C695.1 531.5 697.5 503.5 700 475.5C701.9 454.1 703.7 432.7 705.6 411.4C705.9 408.4 706.3 405.5 706.7 402.5C708.2 401.3 710.1 401.2 711.9 401.4C722.7 402.9 733.5 404.2 744.3 405.6C745.5 405.7 746.5 406.2 747.6 406.7C749.9 408.1 749.6 410.3 749.3 412.5C748.2 421.9 747.1 431.3 745.9 440.7C745.3 445.7 744 447.4 738.8 446.9C728 445.9 721.6 453.5 720.7 464.2C719.4 479.1 717.1 493.9 715.3 508.8C714.3 516.9 717.8 522.6 725.8 525.3C716.2 521 715.6 513.4 716.9 504.3C718.9 490 720.5 475.6 722.2 461.2C723.3 452 728.9 447.4 738.2 448C742.7 448.3 747.2 448.8 751.6 449.6C760.2 451.2 764.7 457.5 763.6 466.2C761.7 481.1 760 495.9 758.1 510.8C756.8 521.1 754.2 524.5 744.9 527.6C752.9 527 757.9 522.2 758.8 513.6C760.1 501.9 761.7 490.2 763.1 478.4C763.6 474.1 764.1 469.8 764.5 465.5C765.3 457.5 761 451.2 753.2 448.9C746.3 446.9 746.2 446.9 747 439.7C748 431.4 748.9 423.2 750 414.9C750.8 408.2 752.9 406.6 759.6 407.6C761.9 407.9 764.3 408 766.1 409.9C768.9 414.8 768.1 420.3 768.6 425.5C770.5 445.7 772.3 465.9 774.1 486.1C775.9 506.5 777.8 526.8 779.5 547.2C780 553.6 782.3 560 780 566.4C779.3 567.2 778.4 567.6 777.4 567.8C768 569.2 758.9 571.9 749.6 573.5C746.6 574.1 743.4 574.9 740.6 572.5Z" fill="black"/>
<path d="M774.6 275.9C774.5 255 774.4 234 774.4 213.1C774.4 199.1 774.3 185.2 774.5 171.2C774.5 168.1 773.9 166.9 770.4 166.9C706.5 167 642.7 167 578.8 167.1C576.9 168.9 577.8 171.2 577.8 173.2C577.7 274.2 577.8 375.2 577.8 476.3C577.8 478.1 577.8 479.9 577.8 481.7C577.5 481.7 577.1 481.7 576.8 481.7C576.8 376.2 576.8 270.6 576.8 165.1C578.8 165 580.8 164.8 582.8 164.8C897.2 164.8 1211.7 164.8 1526.1 164.8C1532.9 164.8 1532.9 164.8 1532.9 171.5C1532.9 421.3 1532.9 671 1532.9 920.8C1532.9 927.2 1532.9 927.3 1526.3 927.3C1448 927.3 1369.8 927.3 1291.5 927.3C1291.5 926.4 1291.5 925.6 1291.5 924.7C1294.4 921.8 1298.1 923 1301.5 922.8C1307.2 922.5 1307.6 922.2 1307.8 916.4C1307.8 914.4 1307.8 912.4 1307.8 910.4C1307.8 762.2 1307.8 614 1307.8 465.8C1307.8 453.2 1307.8 453.2 1320.6 453.2C1348.2 453.2 1375.9 453.2 1403.5 453.2C1415 453.2 1415.9 454.1 1415.9 465.8C1415.9 614.3 1415.9 762.9 1415.9 911.4C1415.9 913.7 1415.9 916.1 1416 918.4C1416.1 921.3 1417.4 922.7 1420.3 922.7C1421.6 922.7 1423 922.8 1424.3 922.8C1456.4 922.8 1488.6 922.8 1520.7 922.8C1528.4 922.8 1528.5 922.7 1528.5 915.1C1528.5 669 1528.5 422.9 1528.5 176.7C1528.5 168.8 1528.4 168.7 1520.3 168.7C1284.8 168.7 1049.3 168.7 813.8 168.7C812.3 168.7 810.8 168.8 809.3 168.8C806.6 168.9 805.4 170.3 805.3 172.9C805.2 174.7 805.2 176.6 805.2 178.4C805.2 209.2 805.2 240 805.2 270.8C805.2 273.6 805.5 276.5 804.4 279.2C802.1 281.3 801 280 800.1 277.8C799.9 244.4 800.1 210.9 800 177.5C800 168.7 800 168.6 791.2 168.7C776.6 168.8 778.3 166.8 778.2 181.8C778.1 212.7 778.2 243.7 778.2 274.6C777.6 276.6 776.4 276.9 774.6 275.9Z" fill="#5A83AF"/>
<path d="M554.9 861.2C554.9 776 554.9 690.9 554.9 605.7C561 609.4 566.901 613.4 573.801 615.6C575.401 616.1 575.7 617.2 575.7 618.7C575.7 620 575.7 621.4 575.7 622.7C575.7 698.6 575.701 774.5 575.801 850.4C575.801 850.6 575.801 850.7 575.801 850.9C575.701 861.1 575.4 861.5 565.4 861.4C561.9 861.5 558.4 861.3 554.9 861.2Z" fill="#FEFEFE"/>
<path d="M740.6 572.5C749.6 573.5 757.8 569.8 766.4 568.3C770.8 567.5 775.2 566.6 779.6 566.5C784.2 564.5 788.2 566.9 792.3 568.1C795.5 569.6 798.6 571.5 801.6 573.4C802.4 573.9 802.8 574.8 803.5 575.4C804.4 576 805.3 576.6 806.2 577.2C804.9 578.9 803.2 578.2 801.6 578C794.2 577.4 786.8 576 779.3 575.9C790.4 577.4 801.3 580 812.6 579.7C818.2 583 824.7 584 830.6 586.4C836.5 588.8 840.8 592.4 841.4 599.2C839.9 600.9 838 600.1 836.3 600C827.7 599.4 819.2 597.9 810.6 597.4C818.5 599.3 826.6 599.9 834.6 601C837 601.3 839.6 601.2 841.4 603.5C841.4 606.3 841.1 609.1 840.2 611.7C834.9 614 829.8 611.5 824.6 611.3C819.5 611.1 814.4 610 809.3 609.9C816 611.5 823 611.9 829.8 613C833.3 613.6 837.1 612.9 840.1 615.6C834.8 628.9 824.9 631.8 812.4 629.9C809.5 629.4 806.5 629.5 803.5 629.3C802.8 629.1 802.1 628.9 801.3 628.6C797.3 628.2 793.3 627.8 789.2 627.5C787.7 627.2 786.2 627 784.7 626.7C765.6 624.5 746.5 622.2 727.3 620C731.7 604.3 735.8 588.3 740.6 572.5Z" fill="#FD9993"/>
<path d="M747.3 407.5C733.8 405.8 720.3 404.2 706.8 402.5C706.7 402.2 706.7 401.9 706.6 401.6C708.6 395.7 708.3 389.6 709.3 383.5C710.5 376.3 710.8 369 711.8 361.8C712.2 359.2 711.6 357.8 709.2 356.8C707.5 356.1 706 355 704.6 353.9C696.2 347.4 696.8 337.2 706 331.8C707.1 331.1 708.3 330.5 709.4 329.8C719.7 320.3 731.3 313.1 745.6 311.9C751.6 311.4 757.8 311.6 763.5 314.4C763.9 317.2 761.2 316.6 760 317.5C753.2 319.6 748.2 323.6 747 331C745.9 338 749.1 343.3 754.8 347C760 350.4 766.5 349.8 772 345.6C777.1 341.7 777.2 341.6 781.4 346.9C785.4 352 791.1 352.6 796.8 353.6C797.7 365.4 789.2 379.6 777.1 383.9C776.1 384.2 775.1 384.7 774.1 385C768 386.8 761.8 387.4 755.5 387C751.2 386.7 749.5 388.7 749.2 392.7C748.8 397.8 748.6 402.7 747.3 407.5Z" fill="#FD9993"/>
<path d="M578.6 831.3C578.6 829.7 578.6 828 578.6 826.4C578.6 758.7 578.6 691 578.6 623.3C578.6 617.1 578.7 617.1 584.6 617.8C593 618.9 601.4 619.9 609.8 620.6C613.5 620.9 614.9 622 614.8 626.1C614.3 644.5 609.6 662.2 606.3 680.1C599.4 716.6 592.9 753.2 586.7 789.8C584.4 803.7 581.9 817.5 579.5 831.4C579.2 831.3 578.9 831.3 578.6 831.3Z" fill="#FEFEFE"/>
<path d="M567.7 897.3C552.1 897.3 536.5 897.2 520.8 897.4C517.6 897.4 516.5 896.6 516.6 893.3C516.8 885 516.8 876.7 516.6 868.4C516.6 865.6 516.9 864.2 520.3 864.3C538.1 864.5 555.9 864.5 573.6 864.5C571.7 875.4 569.7 886.4 567.7 897.3Z" fill="#FEFEFE"/>
<path d="M558.7 943.3C555.7 943.7 554.7 942.5 554.8 939.4C555 927.4 554.9 915.4 554.8 903.4C554.8 900.5 555.4 899.1 558.7 899.3C561.3 899.5 564 899.3 566.7 899.3C567.3 906 564.9 912.2 563.8 918.6C562.3 927 561.3 935.3 558.7 943.3Z" fill="#FCFCFD"/>
<path d="M577.3 890C577.576 890 577.8 818.545 577.8 730.4C577.8 642.255 577.576 570.8 577.3 570.8C577.024 570.8 576.8 642.255 576.8 730.4C576.8 818.545 577.024 890 577.3 890Z" fill="#5881AE"/>
<path d="M1277.2 684.6C1277.7 699.3 1271.1 709.2 1257.9 715.9C1240 724.9 1222.5 734.7 1204.9 744.5C1200.8 746.8 1198.8 746.5 1197.3 742.1C1196.8 740.7 1195.8 739.5 1195 738.3C1193 737.4 1192.2 735.5 1191.3 733.7C1185.8 722.7 1179.5 712.1 1174.5 700.9C1172.9 697.3 1170.8 696.2 1167.1 697.7C1156.6 702.2 1145.4 702.1 1134.3 701.8C1132.1 701.7 1129.5 702.1 1128.4 699.2C1125.4 673.5 1122.4 647.8 1118.5 622.2C1117.3 626.3 1118.5 630.3 1119 634.3C1121.6 655.1 1123.8 675.9 1126.6 696.7C1126.7 697.7 1126.8 698.7 1126.7 699.7C1126.3 701.3 1124.9 701.5 1123.6 701.7C1113 703 1104.7 708.4 1097.7 716.2C1096.8 717.6 1095.4 718.6 1093.7 718.9C1091.3 719.3 1090 720.9 1089.2 722.9C1083.4 726 1077.7 729.4 1072 732.8C1067.4 735.6 1064.9 739.6 1065.7 745.2C1065.5 746.7 1063.6 748.2 1065.6 749.8C1065.7 750.5 1065.7 751.2 1064.9 751.4C1062.3 751.3 1059.7 751.3 1057.2 751.2C1055.6 749.3 1055.4 746.9 1054.8 744.6C1050.8 729.6 1047.4 714.5 1043.4 699.6C1041.9 693.5 1042.5 692.4 1048.3 690.6C1051.1 689.7 1054 689.1 1056.9 688.4C1058.2 688.2 1059.6 687.8 1060.8 687.3C1064.9 685.8 1069.1 684.8 1073.2 683.5C1076.1 682.6 1077.6 680.7 1077.8 677.7C1079.3 658.3 1081.2 639 1083 619.7C1084.5 603.3 1085.8 587 1087.6 570.6C1087.9 567.8 1087.9 565 1088 562.1C1088.1 535.5 1108.1 512.8 1134.5 509.2C1145.6 507.8 1156.8 506.6 1167.9 505.3C1179.2 504.6 1190.2 502 1201.6 502.2C1217.8 502.5 1233.4 513.8 1237.8 529.4C1244 551.5 1249.8 573.7 1255.5 595.9C1255.7 596.5 1255.7 597.2 1255.7 597.9C1256.2 601 1257.7 603.9 1258.3 606.9C1264.5 630.8 1270.6 654.8 1276.9 678.7C1277.4 680.7 1278.3 682.6 1277.2 684.6Z" fill="#202B6D"/>
<path d="M792.5 569.4C788.3 568 784.1 567 779.7 566.5C777.6 541.9 775.4 517.2 773.3 492.6C771.1 467.6 768.8 442.7 766.6 417.7C766.4 415.1 766 412.4 765.7 409.8C768.2 407.5 771.1 408.4 773.9 408.6C775 408.8 776 409.2 777.1 409.3C785.6 410.2 794.1 410.7 801.5 415.7C802.6 416.4 803.7 417.3 804.7 418.1C814.8 428.6 821.4 441.7 829.4 453.7C837.6 466 845.5 478.5 853.6 491C855.4 493.8 857.8 494.4 860.8 494.4C872.6 494.4 884.4 494.3 896.3 494.5C898.1 494.5 901.1 493.2 901.4 496.9C887.5 497.6 873.5 497 859.6 497.2C858.9 497.1 859.9 498.1 859.6 497.5C859.5 497.3 859.6 497.2 860 497.2C863.2 497.3 866.3 497.1 869.5 497.2C887.6 497.9 905.7 496 923.9 496.3C926.2 496.3 928.6 495.8 930.5 497.7C929.5 501.1 926.5 500 924.3 500.1C905.8 500.2 887.3 500.1 868.9 500.2C866.4 500.2 862.8 498.8 861.5 501.3C860.4 503.4 863.6 505.4 864.6 507.7C868.3 516.1 875.1 520.3 883.5 523.3C896.8 528.1 909.8 533.7 922.9 539.1C929.1 541.7 929.1 541.6 929.1 535.1C929.1 524.9 929 514.8 929.2 504.6C929.2 502.5 928.4 499.8 931.4 498.6C932.6 500.1 932 501.8 932 503.4C932.1 515.2 932 527 932 538.9C932 540.3 932.4 541.8 932.1 542.3C932 527.9 932.2 512.8 931.9 497.6C932.4 496.3 933.2 496.2 934 497.3C935.2 499.1 934.9 501.1 935 503.1C935 513.9 935 524.7 935 535.5C935 543.8 935 543.9 942.9 547C954.6 551.6 966.3 556.6 978 561.3C979 561.7 979.9 562.2 981 562.5C983.3 563.4 985.6 564.3 987.9 565.3C993.7 567.7 994 568.4 992.2 574.2C991.6 576.1 991.1 578 990.6 579.9C985.9 594.1 981.6 608.4 977.1 622.7C976.5 624.7 976.1 626.9 974.3 628.4C971.8 629.8 969.4 628.5 967.1 627.8C958.4 625.1 949.7 622.3 941 619.6C935.5 617.8 935.2 618.1 935.2 624.1C935.2 663.5 935.2 702.8 935.2 742.2C935.2 744.9 935.9 747.9 933.6 750.2L933.2 750.4L932.8 750.2C931.9 749 932.3 747.6 932.3 746.3C932.3 704.5 932.3 662.7 932.3 621C932.3 619.9 931.8 618.6 932.2 618.1C932.2 618.6 932.2 619.8 932.2 620.9C932.2 662 932.2 703.1 932.2 744.2C932.2 746 932.9 747.9 931.5 749.5C928.3 748 929.3 745 929.3 742.5C929.2 725 929.2 707.6 929.2 690.1C929.2 667.6 929.2 645.2 929.2 622.7C929.2 615.8 928.8 615.4 922.1 613.4C900.2 606.6 878.3 599.7 856.4 592.7C855.2 592.3 854.5 591.3 853.6 590.5C847.3 588.5 841 586.3 834.7 584.4C823.1 580.8 813.5 574.4 806.1 564.7C805.5 563.9 804.7 563.3 803.9 562.7C802.2 561.9 801.7 560.1 800.7 558.8C798.9 555.9 797.2 552.9 795 549.2C795.4 555.3 793.7 560.4 794 565.7C793.8 567.2 793.7 568.5 792.5 569.4Z" fill="#6DB5DE"/>
<path d="M1120.1 770.6C1140.4 778.8 1152 793.2 1154.5 815.4C1157.5 842.8 1161.5 870 1165 897.3C1167.8 919.5 1170.5 941.8 1173.3 964C1175.1 978.3 1177 992.6 1179 1006.9C1179.5 1010.4 1179.4 1012.3 1174.8 1012.3C1152.3 1012.1 1129.9 1012.2 1107.4 1012.2C1104.4 1012.2 1101.9 1012.1 1102.5 1008.1C1103.4 1006.3 1102.2 1004.5 1102.3 1002.7C1102.3 1001.6 1102.3 1000.5 1102.3 999.3C1101.8 986.1 1103.5 972.9 1104.3 959.8C1104.6 955.2 1104.6 950.6 1104.9 945.9C1105 945 1105 944.1 1105.2 943.3C1106.3 939.4 1105.4 935.3 1106.3 931.4C1107.2 928.9 1106.8 926.3 1106.8 923.7C1106.9 911.4 1108.3 899.2 1109.1 887C1110.2 871.5 1111.3 855.9 1112.6 840.4C1114.1 821.6 1115.6 802.7 1117.2 783.9C1117.4 781.4 1117.6 778.9 1117.7 776.5C1118 774.3 1118.1 772.1 1120.1 770.6Z" fill="#8F3600"/>
<path d="M855.6 591.6C865.4 593.5 874.7 597.3 884.2 600.1C898 604.2 911.7 608.9 925.6 613C929.4 614.1 930.7 615.8 930.7 619.9C930.5 661 930.6 702.1 930.6 743.2C930.6 745.2 930.7 747.2 930.7 749.2C931 749.5 931.1 749.7 930.9 749.9C930.8 750 930.6 750.1 930.5 750.1C911 749.4 893.1 754 877.6 766.4C867.4 774.5 859.9 784.7 856.4 797.4C853.6 796.2 854.7 793.7 854.7 791.7C854.6 773.6 854.6 755.5 854.6 737.3C854.6 690.9 854.6 644.6 854.6 598.2C854.6 596.1 853.9 593.6 855.6 591.6Z" fill="#FEFEFE"/>
<path d="M870.4 1181.2C861 1175 851.6 1168.8 843 1161.4C842.9 1161.3 842.8 1161.1 842.6 1161.1C834.5 1159.1 836.7 1152.8 837.2 1147.5C840.6 1108.6 844.1 1069.6 847.5 1030.7C847.8 1027.4 848.5 1025.8 852.4 1025.9C875 1026.1 897.7 1026.1 920.3 1025.9C923.9 1025.9 924.7 1026.9 924.4 1030.3C921.5 1061.3 918.8 1092.3 915.9 1123.2C915 1133.5 914 1143.7 913 1154C902.3 1161.8 891.1 1168.7 880 1175.9C877.1 1177.9 874.5 1180.9 870.4 1181.2Z" fill="#FEFEFE"/>
<path d="M1080.3 945.4C1082.3 960.2 1084.3 975 1086.3 989.8C1087.3 997 1088.1 1004.3 1089.1 1011.6C1087.7 1012.7 1086 1012.2 1084.4 1012.2C1037.8 1012.2 991.2 1012.2 944.7 1012.3C940.3 1012.3 939.8 1011.1 940.2 1007.1C942.2 987.3 943.8 967.4 945.6 947.5C945.7 946.7 946.1 945.9 946.3 945.2C948.1 943.7 950.3 943.8 952.5 943.8C993.1 943.8 1033.6 943.8 1074.2 943.8C1076.4 943.9 1078.6 943.7 1080.3 945.4Z" fill="#FEFEFE"/>
<path d="M1197 1150.3C1192 1151.7 1186.9 1150.7 1181.8 1150.8C1163 1150.9 1144.3 1150.7 1125.5 1150.9C1121.8 1150.9 1120.4 1150.1 1120 1146.1C1118.8 1134.1 1117.1 1122.1 1115.5 1110.1C1116.4 1106.9 1114.9 1103.7 1115.3 1100.5C1114.4 1080.3 1115.7 1060.2 1116.6 1040C1116.7 1038.5 1116.7 1037 1116.7 1035.5C1116.7 1029.3 1116.5 1029.1 1110.5 1028.7C1108.7 1028.6 1106.8 1028.5 1105.4 1027.1C1106.5 1025.4 1108.1 1026.3 1109.5 1026.3C1132.1 1026.3 1154.6 1026.4 1177.2 1026.3C1180.2 1026.3 1181.6 1027 1182 1030.2C1184.2 1048.8 1186.6 1067.3 1189 1085.9C1188.4 1097.8 1189 1109.8 1187.9 1121.7C1187.3 1128.5 1187.4 1135.3 1186.9 1142.1C1186.5 1147.6 1187 1147.9 1192.5 1148.5C1194.1 1148.8 1195.9 1148.8 1197 1150.3Z" fill="#FD9993"/>
<path d="M857.6 924.4C859.4 903.7 861.2 883 863 862.4C864.4 847.2 865.9 832 867.2 816.8C867.4 814.4 867.9 813.4 870.6 813.5C890.5 813.7 910.5 813.7 930.4 813.7C932.2 815.4 931.9 817.7 931.9 819.8C931.9 852.6 931.9 885.4 931.9 918.2C931.9 925 930.9 926 924.1 926C904 926 883.8 926 863.7 926C861.6 925.8 859.3 926 857.6 924.4Z" fill="#FEFEFE"/>
<path d="M1004.4 813.5C1023.1 813.5 1041.7 813.5 1060.4 813.3C1062.8 813.3 1064 813.7 1064.3 816.4C1068.7 851.7 1073.2 887 1077.6 922.3C1077.7 925.9 1074.9 925.6 1072.8 925.6C1066.6 925.8 1060.5 925.7 1054.3 925.7C1039.6 925.7 1025 925.7 1010.3 925.7C1004.1 925.7 1002.9 924.6 1002.9 918.5C1002.9 885.4 1002.9 852.2 1002.9 819.1C1003 817.1 1002.8 815.1 1004.4 813.5Z" fill="#FEFEFE"/>
<path d="M1096.5 715.5C1104.6 706.8 1114 700.8 1126.4 700.3C1127.2 699.5 1128.1 699.1 1129.1 699.8C1142.2 701.4 1155.2 701.4 1167.6 696.1C1171.6 694.4 1173.5 695.3 1175.4 699.2C1181.8 712.3 1188.6 725.2 1195.2 738.2C1173.4 745.5 1151.5 752.9 1129.7 760.2C1123 762.4 1116 764.2 1109.6 767.2C1100.6 771.8 1091.2 775.6 1080.9 772.9C1076.7 771.8 1072.4 770.1 1070.7 765.2C1068.9 762.2 1070.4 761.2 1073.2 760.3C1081.7 757.6 1090.1 754.6 1098.5 751.7C1100 751.2 1102.3 751 1101.6 748.7C1100.9 746.3 1099 747.6 1097.5 748.1C1090 750.6 1082.5 753.1 1075 755.7C1068 758.1 1068 758.1 1065.3 751.3C1065.4 750.7 1065.5 750.2 1065.6 749.6C1066.8 747.4 1069.1 747.3 1071.1 746.6C1079.1 744 1087 740.9 1094.8 737.7C1087.4 739.5 1080.2 742.1 1072.9 744.3C1070.4 745.1 1068.1 746.7 1065.3 745.9C1063.1 740.8 1065.4 736.6 1069 733.7C1075.2 728.9 1082 724.8 1089.4 721.9C1097.8 718.2 1106.7 716 1115.3 712.9C1117.1 712.2 1119 711.9 1120.5 710.5C1114.8 711.5 1109.4 713.8 1103.9 715.4C1101.2 716.3 1098.8 717.5 1096.5 715.5Z" fill="#FD9993"/>
<path d="M1070.5 765.3C1078.7 773.3 1088.1 774.3 1098.5 770.3C1102 768.9 1105.8 768.2 1109.5 767.2C1113.1 768.2 1116.8 768.7 1120.2 770.6C1118.3 793.4 1116.3 816.3 1114.5 839.1C1112.3 867.6 1110.2 896.1 1108.1 924.5C1102.5 926 1096.8 927.4 1091.6 923.4C1087.7 892.9 1083.8 862.4 1080 831.9C1079 824.3 1078.1 816.7 1077.1 809.1C1074.8 791.5 1066 777.7 1052 767.1C1051.3 766.5 1050.1 766.3 1050 765.3C1056.8 765.3 1063.6 765.3 1070.5 765.3Z" fill="#FEFEFE"/>
<path d="M931.7 949.1C929.9 969.1 928.1 989.2 926.5 1009.2C926.3 1012.2 924.8 1012.2 922.6 1012.2C899.3 1012.2 876 1012.1 852.7 1012.2C850.1 1012.2 849.3 1011.6 849.6 1008.9C851.2 993.2 852.5 977.4 854 961.7C854.5 956.2 855.1 950.8 855.7 945.3C857.1 943.8 858.9 943.8 860.8 943.8C882.7 943.8 904.5 943.8 926.4 943.8C929.9 943.9 933 944.3 931.7 949.1Z" fill="#FEFEFE"/>
<path d="M933.4 750.2C933.4 705.6 933.4 660.9 933.4 615.7C945.7 619.5 957.3 623.2 969 626.8C970.7 627.3 972.3 628.5 974.2 627.7C976.7 627.3 978.5 628.1 979.5 630.6C980.2 633.7 979.9 636.9 979.9 640C979.8 664.3 980.101 688.7 979.801 713C979.501 715.6 977.6 716.5 975.5 717.1C970.9 718.5 966.301 719.9 961.801 721.4C952.501 724.5 947.1 731 945.2 740.6C944.5 743.9 946.9 747.1 945.5 750.3C941.4 750.3 937.4 750.3 933.4 750.2Z" fill="#FEFEFE"/>
<path d="M945.4 750.3C941.2 736.9 947.3 724.7 960.7 720.3C966.7 718.3 972.7 716.5 978.7 714.6C979.2 714 979.8 713.5 980.6 713.3C987.4 711.5 994.3 710.2 1001 708.4C1002.3 708.1 1003.5 707.6 1004.8 707.4C1013.3 706 1021.7 703.7 1030.1 701.7C1031.1 701.4 1032.1 701.2 1033.2 701.1C1037 700.7 1040.6 698.5 1044.6 699.6C1049.2 714.4 1052.4 729.6 1056.1 744.6C1054.9 746.5 1052.9 746.7 1051 747.1C1043.7 748.9 1036.2 749.7 1028.7 750.3C1009.8 749.3 991 753.9 971.4 750.9C978.8 749.1 985.7 747.5 992.6 745.8C994.1 745.4 996.5 745.8 995.9 743.2C995.3 740.8 993.4 741.8 991.8 742.2C982 744.5 972.1 746.7 962.2 749.1C956.6 750.5 951 751.2 945.4 750.3Z" fill="#FD9993"/>
<path d="M948.3 920.4C951.2 887.6 954.1 854.9 957.2 822.1C958 813.3 958.2 813.3 967 813.3C970.8 813.3 974.6 813.4 978.5 813.4C980.2 815.1 979.9 817.4 979.9 819.5C979.9 852.3 979.9 885.1 979.9 917.8C979.9 924.7 979 925.6 972.1 925.6C965.6 925.6 959.1 925.7 952.6 925.6C949.1 925.7 947.1 924.3 948.3 920.4Z" fill="#FEFEFE"/>
<path d="M980.7 813.6C987.6 813.6 994.6 813.5 1001.5 813.5C1003.2 815.2 1003 817.5 1003 819.6C1003 852.4 1003 885.2 1003 918C1003 924.8 1002 925.7 995.2 925.8C992.2 925.8 989.2 925.8 986.2 925.8C980.3 925.7 979.6 925 979.6 919.2C979.6 889.1 979.6 858.9 979.6 828.8C979.6 825.3 979.6 821.8 979.6 818.3C979.5 816.6 979.2 814.9 980.7 813.6Z" fill="#FEFEFE"/>
<path d="M1078.2 927.3C1078.9 932.6 1079.5 937.9 1080.2 943.2C1078.5 944.7 1076.4 944.3 1074.5 944.3C1033.7 944.3 993 944.3 952.2 944.3C950.2 944.3 948.2 944.7 946.4 943.3C946 937.9 947.2 932.7 947.6 927.3C949.3 925.5 951.6 925.8 953.7 925.8C993.2 925.7 1032.6 925.8 1072.1 925.8C1074.3 925.8 1076.5 925.6 1078.2 927.3Z" fill="#FEFEFE"/>
<path d="M930.5 799.4C911.4 799.5 892.3 799.5 873.3 799.6C870.3 799.6 870 798.8 871.2 796.2C879 779.2 892.8 769.9 910.3 765.5C912.7 764.9 915.2 764.7 917.6 764.3C921 763.6 924.5 764.2 928 764C930.3 763.8 931.6 765 931.7 767.1C932 777.3 932.4 787.6 931.5 797.8C931.5 798.3 931 798.9 930.5 799.4Z" fill="#FEFEFE"/>
<path d="M1009.3 766.2C1033 767.4 1053.9 780.9 1060.1 799.4C1041.5 799.4 1022.9 799.4 1004.3 799.4C1003 797.9 1002.9 796.1 1002.9 794.3C1002.9 786.7 1002.8 779.1 1002.9 771.5C1003.1 766.2 1003.7 765.8 1009.3 766.2Z" fill="#FEFEFE"/>
<path d="M855.8 943.2C856.4 937.9 856.2 932.5 857.5 927.2C859.3 925.7 861.5 925.8 863.7 925.8C885 925.8 906.2 925.8 927.5 925.8C929.7 925.8 931.9 925.6 933.6 927.3C933.9 932.7 932.8 937.9 932.4 943.2C930.9 944.6 929 944.2 927.2 944.2C905.2 944.2 883.1 944.2 861.1 944.2C859.2 944.3 857.3 944.7 855.8 943.2Z" fill="#FEFEFE"/>
<path d="M1078.2 927.3C1034.7 927.3 991.1 927.3 947.6 927.3C947.6 925 946.9 922.6 948.3 920.4C948.1 923.4 949.1 924.8 952.5 924.7C959.8 924.4 967.1 924.4 974.5 924.7C977.9 924.8 978.6 923.5 978.6 920.4C978.5 884.8 978.5 849.2 978.5 813.6C979.3 813.6 980 813.6 980.8 813.7C980.8 848.8 980.9 884 980.8 919.1C980.8 923.8 982.2 925.2 986.7 924.8C991.5 924.3 997.7 926.8 1000.7 923.9C1004 920.8 1001.8 914.4 1001.8 909.5C1001.8 877.5 1001.7 845.6 1001.7 813.6C1002.7 813.6 1003.7 813.6 1004.7 813.6C1004.6 849.5 1004.6 885.3 1004.5 921.2C1004.5 923.7 1005.3 924.7 1007.9 924.7C1030.2 924.6 1052.4 924.6 1074.7 924.7C1076.4 924.7 1077.6 924.3 1077.9 922.5C1078.8 923.9 1078.1 925.7 1078.2 927.3Z" fill="#638AB3"/>
<path d="M939.3 764.2C948.9 764.2 958.5 764.2 969.2 764.2C965.4 768.1 962.7 770.8 960.1 773.6C954 780.1 949.5 787.6 947 796.1C946.3 798.5 945.5 799.8 942.7 799.5C939.6 799.2 936.4 799.4 933.3 799.3C932.7 798.5 932.1 797.6 932.1 796.6C931.8 786.9 931.7 777.1 932.1 767.4C932.4 762.6 936.3 764 939.3 764.2Z" fill="#FDFEFE"/>
<path d="M757.6 1227.2C750.9 1231.9 740.9 1230.6 733.5 1224C727 1218.2 724.7 1208.7 727.6 1200.3C730.5 1191.9 737.8 1186.4 746.6 1185.9C746.7 1197.9 747 1209.9 746.6 1221.8C746.5 1226.4 747.9 1227.7 752.1 1227.1C754 1226.9 755.8 1227.2 757.6 1227.2Z" fill="#FEFEFE"/>
<path d="M980.5 774.4C985.9 770.2 992 767.7 998.5 766C1001 765.5 1002.6 766.6 1002.7 768.9C1003 778.5 1003.3 788 1002.5 797.6C1002.4 798.2 1001.9 798.8 1001.5 799.3C994.5 799.3 987.5 799.2 980.6 799.2C980 798.6 979.4 798 979.4 797.1C979.4 789.6 977.6 781.9 980.5 774.4Z" fill="#FDFDFD"/>
<path d="M933.5 813.5C944.4 813.1 944.3 813.1 943.3 824.1C940.3 856.8 937.3 889.6 934.3 922.3C931.7 921.5 932 919.3 932 917.4C931.9 884.3 931.9 851.2 932 818.1C932 816.4 932.2 814.8 933.5 813.5Z" fill="#FEFEFE"/>
<path d="M933.5 813.5C933.4 835.9 933.3 858.3 933.3 880.8C933.3 892.9 933.3 905.1 933.3 917.2C933.3 919 932.8 920.9 934.3 922.4C934.9 924.2 933.9 925.7 933.5 927.3C908.2 927.3 882.8 927.3 857.5 927.2C857.5 926.2 857.6 925.3 857.6 924.3C880.7 924.4 903.8 924.4 927 924.5C929.9 924.5 930.7 923.5 930.7 920.7C930.6 884.9 930.6 849.2 930.6 813.4C931.5 813.5 932.5 813.5 933.5 813.5Z" fill="#6E92B9"/>
<path d="M1105.5 1027.2C1105.8 1027.2 1106.2 1027.3 1106.5 1027.3C1118.7 1027.6 1118.7 1027.6 1118.3 1039.6C1117.6 1060.1 1117 1080.6 1116.3 1101.1C1115.7 1101.7 1115.2 1101.7 1114.6 1101.1C1111.6 1078.1 1108.6 1055.1 1105.6 1032C1105.3 1030.5 1105.5 1028.8 1105.5 1027.2Z" fill="#FEFDFD"/>
<path d="M855.6 591.6C855.6 658.6 855.6 725.6 855.6 792.6C855.6 794.2 855.201 796 856.301 797.4C855.401 801.4 854.5 805.5 853.7 809.5C853.6 806.7 853.4 803.9 853.4 801.1C853.4 730.9 853.4 660.8 853.4 590.6C854.3 590.6 855.1 590.8 855.6 591.6Z" fill="#5881AE"/>
<path d="M1197 1150.3C1196 1150.2 1195 1150.1 1194 1150.1C1185.2 1150 1185.1 1150 1185.5 1141.5C1186.3 1123.9 1187.3 1106.4 1188.2 1088.8C1188.3 1087.9 1188.8 1086.9 1189 1086C1191.6 1106.5 1194.3 1126.9 1196.9 1147.4C1197.1 1148.4 1197 1149.4 1197 1150.3Z" fill="#FDFDFD"/>
<path d="M1106.4 945.4C1105.3 963.7 1104.3 981.9 1103.2 1000.2C1102.6 1000.8 1102.1 1000.8 1101.5 1000.2C1099.2 982 1096.9 963.7 1094.6 945.5C1098.5 943 1102.4 943.2 1106.4 945.4Z" fill="#FDFDFD"/>
<path d="M946.5 943.3C991.1 943.3 1035.7 943.2 1080.3 943.2C1080.3 943.9 1080.4 944.6 1080.4 945.4C1035.7 945.4 991.1 945.3 946.4 945.3C946.4 944.6 946.4 943.9 946.5 943.3Z" fill="#5881AE"/>
<path d="M978.5 799.4C972.7 799.4 966.9 799.4 960.4 799.4C963.8 789.7 969.7 782.2 977.6 776.2C978.3 776.3 979.1 776.7 979.1 777.3C979.3 784.7 980.4 792.1 978.5 799.4Z" fill="#FAFBFC"/>
<path d="M1204.5 1027.1C1204.4 1042.6 1203.4 1058 1202.4 1073.4C1202.3 1074.4 1201.9 1075.3 1201.7 1076.3C1199.6 1059.9 1197.6 1043.5 1195.5 1027.1C1198.4 1027.1 1201.4 1027.1 1204.5 1027.1Z" fill="#FDFCFC"/>
<path d="M1107.8 930.5C1107.1 934.7 1108 939.2 1106.6 943.3C1102.6 944.8 1098.5 944.8 1094.5 943.3C1093.4 938 1092.7 932.7 1092.5 927.3C1096.8 924.8 1101.3 925.8 1105.8 926.3C1108 926.6 1108 928.6 1107.8 930.5Z" fill="#FBFCFC"/>
<path d="M855.8 943.2C881.3 943.2 906.8 943.2 932.3 943.2C932.2 945.2 933.2 947.3 931.7 949.1C932.1 945.4 929.8 945.3 927.1 945.3C903.3 945.4 879.5 945.3 855.7 945.3C855.7 944.7 855.8 943.9 855.8 943.2Z" fill="#5881AE"/>
<path d="M930.4 750.2C930.3 749.9 930.3 749.6 930.6 749.3C932.2 747.6 931.4 745.5 931.4 743.6C931.5 703 931.4 662.4 931.4 621.8C931.4 620.1 931.4 618.3 931.4 616.6C931.8 616.6 932.1 616.6 932.5 616.6C932.5 661.1 932.5 705.7 932.5 750.2C931.8 750.2 931.1 750.2 930.4 750.2Z" fill="#5881AE"/>
<path d="M939.3 764.2C933.8 763.5 932.7 766.2 933 771.3C933.5 780.7 933.3 790 933.3 799.4C932.4 799.4 931.4 799.4 930.5 799.4C930.5 789.1 930.4 778.8 930.7 768.5C930.8 764.8 929.4 763.9 926.1 764.2C923.3 764.4 920.5 764.3 917.7 764.3C924.9 762.5 932.1 763.7 939.3 764.2Z" fill="#5881AE"/>
<path d="M870.4 1181.2C883.7 1172.4 897.1 1163.6 910.4 1154.9C911.2 1154.4 912.2 1154.3 913.2 1154C913.2 1155.7 913.9 1157.4 912.7 1159C912.3 1157.5 911.9 1156.6 910.1 1157.8C897.7 1166.3 884.6 1173.9 872.5 1182.9C871.8 1182.3 871.1 1181.8 870.4 1181.2Z" fill="#6087B1"/>
<path d="M1001.5 799.4C1001.5 789.5 1001.5 779.7 1001.7 769.8C1001.7 767.4 1001 766.1 998.5 766.1C1002.1 765.4 1005.7 765.3 1009.3 766.3C1005 765.9 1003.9 767.9 1004.1 772.1C1004.5 781.2 1004.3 790.4 1004.3 799.5C1003.4 799.4 1002.5 799.4 1001.5 799.4Z" fill="#5881AE"/>
<path d="M1028.5 750.3C1037.7 748.4 1046.8 746.5 1056 744.5C1056.6 746.7 1057.8 748.8 1057.3 751.3C1047.7 750.9 1038.1 750.6 1028.5 750.3Z" fill="#FAF9F9"/>
<path d="M1107.8 930.5C1107.8 928.2 1107 926.9 1104.3 927.1C1100.4 927.4 1096.4 927.2 1092.4 927.3C1092.1 926 1091.2 924.9 1091.6 923.5C1097 926.2 1102.6 924.1 1108.1 924.6C1108.2 926.6 1108.6 928.6 1107.8 930.5Z" fill="#5B80AA"/>
<path d="M978.5 799.4C978.5 793 978.6 786.7 978.5 780.3C978.5 778.9 979 777.3 977.6 776.2C978.3 775.1 979.5 774.9 980.5 774.4C980.5 782.7 980.6 791 980.6 799.3C979.9 799.3 979.2 799.4 978.5 799.4Z" fill="#5881AE"/>
<path d="M1094.4 943.3C1098.4 943.3 1102.5 943.3 1106.5 943.3C1106.5 944 1106.4 944.7 1106.4 945.4C1102.5 945.4 1098.6 945.5 1094.6 945.5C1094.6 944.8 1094.5 944 1094.4 943.3Z" fill="#5881AE"/>
<path d="M1114.5 1101.1C1115.1 1101.1 1115.7 1101.1 1116.2 1101.1C1116.2 1104.1 1117 1107.2 1115.6 1110.1C1115.2 1107.1 1114.9 1104.1 1114.5 1101.1Z" fill="#EEDCDB"/>
<path d="M1103.3 1003.2C1103.4 1004.9 1103.8 1006.6 1102.6 1008.1C1102.3 1006.2 1102 1004.3 1101.7 1002.3C1102.5 1002 1102.9 1002.5 1103.3 1003.2Z" fill="#CBA28A"/>
<path d="M1103.3 1003.2C1102.8 1002.9 1102.2 1002.6 1101.7 1002.4C1101.7 1001.7 1101.6 1001 1101.6 1000.3C1102.2 1000.3 1102.7 1000.3 1103.3 1000.3C1103.2 1001.2 1103.2 1002.2 1103.3 1003.2Z" fill="#CFC5BF"/>
<path d="M901.3 495.4C886.7 495.5 872 495.6 857.4 495.8C854.9 495.8 854 494.2 852.9 492.5C839.6 471.8 826.2 451.2 812.8 430.5C810.1 426.3 807.2 422.3 803.6 418.8C802.4 416.9 802.2 414.8 802.2 412.6C802.3 392.9 802.1 373.2 802.3 353.4C802.5 351.1 803.9 349.5 805.2 347.8C810.6 341.1 810.7 334.3 805.6 327.4C804.4 325.8 803 324.4 802.5 322.4C802.1 319.4 802.2 316.3 802.4 313.3C804.2 308 807.5 303.2 807.3 297.2C807.1 292.5 806.8 287.9 804.3 283.7C803.6 282.6 803 281.3 803.5 279.9C803.6 258.3 803.7 236.6 803.7 215C803.7 200.3 803.8 185.7 803.6 171C803.6 167.7 804.6 166.4 807.8 166.9C808.5 167 809.1 166.9 809.8 166.9C1047.8 166.9 1285.8 166.9 1523.8 166.8C1529.1 166.8 1530.2 168.3 1530.2 173.3C1530.1 421.6 1530.1 669.8 1530.1 918.1C1530.1 924.6 1530.1 924.6 1523.8 924.6C1489.7 924.6 1455.5 924.6 1421.4 924.6C1412.9 924.6 1413.9 925.6 1413.8 917.3C1413.8 765.9 1413.8 614.6 1413.8 463.2C1413.8 461.7 1413.8 460.2 1413.8 458.7C1413.9 456 1412.8 454.9 1409.9 454.9C1377.4 455 1344.9 455 1312.5 454.9C1310 454.9 1308.7 455.7 1308.9 458.3C1309 459.6 1308.9 461 1308.9 462.3C1308.9 614.2 1308.9 766 1308.9 917.9C1308.9 924.6 1308.9 924.6 1302.2 924.6C1298.5 924.6 1294.9 924.6 1291.2 924.5C1292.3 896.6 1293.4 868.7 1294.5 840.8C1296 805.1 1297.8 769.4 1298.9 733.6C1299.5 714 1292.3 697.3 1277.1 684.4C1270.6 659.6 1264 634.7 1257.6 609.9C1257.3 608.8 1257.3 607.6 1257.2 606.4C1256.1 601.7 1255.8 596.9 1255.8 592.1C1255.9 549.8 1255.8 507.6 1255.8 465.3C1255.8 463.6 1255.7 462 1255.8 460.3C1256 457.1 1254.6 455.9 1251.4 456C1243.4 456.2 1235.4 456.1 1227.4 456C1219.7 456 1218.8 455.1 1218.8 447.4C1218.8 404.6 1218.8 361.9 1218.8 319.1C1218.8 311.1 1218.8 311 1210.5 311C1205.8 311 1201.2 311.2 1196.5 311C1192.7 310.8 1191.3 312.4 1191.7 316C1191.8 317.5 1191.7 319 1191.7 320.5C1191.7 351.5 1191.7 382.4 1191.7 413.4C1191.7 415.9 1191.9 418.4 1191.4 420.9C1190.8 423.4 1188.9 423.3 1187.1 422.7C1179 419.9 1171.4 421.6 1164 425.2C1161.8 426.3 1159.4 427.1 1157.9 424.3C1153.9 416.8 1147.5 411.5 1141.5 405.8C1139.9 404.6 1138.1 405.1 1136.4 405C1131.5 404.9 1126.6 405.2 1121.6 405.3C1104.6 404.6 1087.6 405.1 1070.7 405C1057.3 404.9 1057.9 405.8 1058 392.2C1058 367.4 1058 342.6 1058 317.8C1058 311.1 1058 311.1 1051.3 311.1C1046.8 311.1 1042.3 311.1 1037.8 311.1C1032.1 311.2 1031.9 311.3 1031.9 317C1031.9 341.1 1031.9 365.3 1031.9 389.4C1031.9 408.9 1031.9 428.4 1031.9 447.8C1031.9 455 1030.9 455.9 1023.9 456C1019.1 456 1014.2 456 1009.4 456C1002.9 456 1002.9 456 1002.9 462.8C1002.9 483.3 1002.9 503.8 1002.9 524.2C1002.9 540.3 1002.9 556.5 1002.9 572.6C1002.9 574.9 1003.2 577.3 1001.8 579.4C997.7 581.6 993.6 581.8 989.4 579.3C989.2 575.4 993.7 571.4 991.1 568.3C988.8 565.6 984.2 564.9 980.6 563.3C978.3 561 979 558 979 555.3C979 508.4 979 461.5 979 414.6C979 412.9 978.9 411.3 979 409.6C979.2 406.2 977.6 404.9 974.2 404.9C952.1 404.9 929.9 405 907.8 404.9C904.1 404.9 902.8 406.3 902.8 409.9C902.9 418 902.8 426.2 902.8 434.3C902.8 452.3 902.8 470.2 902.8 488.2C902.9 490.8 903.6 493.5 901.3 495.4Z" fill="#FEFEFE"/>
<path d="M352.8 732.2C370.6 732.2 388.4 732.1 406.2 732.2C412.3 732.2 416.8 736.3 417.7 741.9C418.6 747.6 415.4 753 409.9 754.8C408.2 755.3 406.3 755.5 404.5 755.5C370.1 755.5 335.6 755.5 301.2 755.5C293.4 755.5 287.9 750.5 288 743.7C288.1 736.6 293.2 732.2 301.4 732.2C318.6 732.2 335.7 732.2 352.8 732.2Z" fill="#FEFEFE"/>
<path d="M532.8 1110.5C532.8 1119.6 526.3 1126.7 516.9 1127.9C508.5 1128.9 500.5 1122.8 498.5 1113.9C496.6 1105.6 501.6 1097.1 509.7 1094.1C513.4 1092.7 514.5 1093.7 514.2 1097.4C514 1100.5 514.1 1103.7 514.2 1106.9C514.3 1108.4 513.4 1110.9 515.7 1110.9C517.6 1110.9 516.7 1108.5 516.7 1107.1C516.8 1103.6 516.9 1100.1 516.7 1096.6C516.6 1093.7 517.2 1092.8 520.4 1093.8C527.7 1096 532.8 1102.7 532.8 1110.5Z" fill="#FEFEFE"/>
<path d="M841.6 603.7C831.4 602.4 821.3 601 811.1 599.7C809.4 599.5 806.8 599.8 807 597.3C807.3 594.8 809.8 595.7 811.5 595.9C821.5 597 831.5 598.3 841.5 599.5C844.6 600.8 844.4 602.2 841.6 603.7Z" fill="#060404"/>
<path d="M840.4 615.8C830 614.5 819.6 613.3 809.2 611.9C807.8 611.7 805.3 612.2 805.7 609.6C806.1 607.1 808.2 608.1 809.8 608.3C820 609.5 830.3 610.7 840.5 611.9C842.3 613.3 843.2 614.6 840.4 615.8Z" fill="#060404"/>
<path d="M812.8 579.9C812.2 582.2 810.4 581.8 808.8 581.6C798.9 580.4 789.1 579.1 779.2 577.9C777.8 577.7 775.8 577.8 776.1 575.7C776.4 573.7 778.1 574.1 779.7 574.3C788.6 575.4 797.4 576.4 806.3 577.5C808.5 578.1 811.5 576.8 812.8 579.9Z" fill="#070404"/>
<path d="M801.8 558.7C802.9 559.8 803.4 561.3 803.8 562.8C803.8 567 803.7 571.3 803.7 575.5C803 575.1 802.3 574.7 801.5 574.4C799.6 569.1 798.8 563.9 801.8 558.7Z" fill="#5882AF"/>
<path d="M803.5 279.9C810.8 290.8 810.5 301.8 803.5 312.7C802.8 313.7 802.5 314.9 801.6 315.8C800.3 317.1 799.1 318.5 797.1 318.7C786.9 318.1 776.7 318 766.7 316.2C765.6 316 764.4 315.8 763.6 314.9C744 309.9 727.3 315.7 712.6 328.7C711.8 329.4 711.2 331.2 709.5 329.9C710.5 323.7 711.6 317.5 712.6 311.2C715.9 290.1 734.4 279.1 754.7 286.3C757.9 287.4 760 287.6 762.2 284.7C765.4 280.6 770.3 278.5 774.6 275.8C775.6 275.7 776.8 276.1 777.6 275.1C784.1 270.3 795.8 271.7 800.8 277.8C801.6 278.6 802.6 279.3 803.5 279.9Z" fill="black"/>
<path d="M670.7 491.7C660.8 491.4 655.9 488.1 656.2 481.9C656.8 470.4 659.6 466.5 666.9 466.7C676.6 467 681.801 470.5 681.501 476.5C681.101 487.6 678.1 491.9 670.7 491.7Z" fill="#6DB5DE"/>
<path d="M774.4 409.6C771.5 409.7 768.5 409.8 765.6 409.8C762.3 409.4 759 409.2 755.7 408.6C752.9 408 752.2 409.4 751.9 411.6C750.6 422.5 749.3 433.4 747.9 444.3C747.6 446.5 748.8 446.6 750.4 446.9C763.4 449.6 767.3 455 765.8 468.3C764.1 483.3 762.3 498.4 760.4 513.4C759.2 523 753.2 529.3 745.1 529.6C743.4 529.7 740.9 530.2 740.9 527.5C740.9 525 743.3 525.9 744.8 525.7C751.1 525.2 755.6 521.2 756.5 514.7C758.7 498 760.7 481.4 762.6 464.7C763.4 457.4 758.7 451.8 751.4 450.8C746.8 450.2 742.2 449.7 737.5 449.2C730.7 448.5 724.8 452.8 724 459.6C721.8 476.3 719.8 492.9 717.9 509.6C717.1 516.9 720 521.1 727 523.6C728.5 524.1 730.2 524.3 729.7 526.3C729.2 528.3 727.3 527.7 725.9 527.3C718.5 525.6 713 518 713.9 510C715.8 493.3 717.8 476.6 720 460C721.3 450.1 728.3 444.6 738.6 445.7C743.1 446.2 744.5 445 744.9 440.5C745.7 430.9 747.2 421.4 748.3 411.8C748.5 410.4 749.9 408.5 747.5 407.6C746 400.6 748.1 393.9 749 387.1C749.3 385 751.4 385.9 752.8 385.9C760.1 386.1 767.3 385.7 774.4 384C775 384.4 775.6 384.8 775.7 385.5C776.4 393.2 776.7 400.9 775.5 408.7C775.2 409 774.7 409.3 774.4 409.6Z" fill="#FEFEFE"/>
<path d="M1411.2 691.2C1411.2 767.1 1411.2 843.1 1411.3 919C1411.3 923.6 1410.1 924.8 1405.5 924.8C1375.7 924.6 1345.9 924.6 1316.1 924.8C1312.3 924.8 1311.1 923.9 1311.1 919.9C1311.2 767.4 1311.2 614.9 1311.1 462.3C1311.1 458.2 1312.5 457.4 1316.2 457.5C1329 457.7 1341.9 457.8 1354.7 457.4C1359.6 457.2 1360.3 459.1 1360.3 463.4C1360.2 521.5 1360.2 579.6 1360.2 637.7C1360.2 643.9 1363.5 646.1 1369.6 644.1C1371 643.7 1371.4 642.8 1371.4 641.6C1371.4 640.3 1371.4 638.9 1371.4 637.6C1371.4 579.5 1371.4 521.4 1371.3 463.3C1371.3 458.8 1372.3 457.3 1377 457.4C1386.8 457.8 1396.7 457.8 1406.5 457.4C1411.2 457.2 1411.4 459.4 1411.4 463C1411.3 533.8 1411.3 604.5 1411.3 675.3C1411.2 680.6 1411.2 685.9 1411.2 691.2Z" fill="#FEFEFE"/>
<path d="M800.7 277.9C793.4 273 785.6 273.1 777.5 275.2C775.9 273.9 776.5 272.1 776.5 270.6C776.5 237.7 776.5 204.7 776.4 171.8C776.4 167.8 777.5 166.7 781.4 166.9C786.9 167.2 792.4 167.1 797.9 166.9C800.6 166.8 801.6 167.5 801.6 170.5C801.5 205.4 801.5 240.4 801.5 275.3C801.6 276.2 801.8 277.3 800.7 277.9Z" fill="#FEFEFE"/>
<path d="M1362.3 549.1C1362.3 520.2 1362.3 491.2 1362.3 462.3C1362.3 459.8 1361.7 457.4 1365.8 457.4C1370 457.4 1369.2 459.9 1369.2 462.3C1369.2 520.5 1369.2 578.7 1369.2 636.9C1369.2 639.3 1369.9 641.8 1365.8 641.8C1361.7 641.8 1362.3 639.3 1362.3 636.9C1362.3 607.6 1362.3 578.4 1362.3 549.1Z" fill="#FDFEFE"/>
<path d="M801.8 558.7C801.7 563.9 801.6 569.1 801.5 574.4C798.5 572.7 795.5 571.1 792.5 569.4C792.9 561.7 793.3 554.1 793.8 544.8C796.9 550.3 799.3 554.5 801.8 558.7Z" fill="#FDFDFE"/>
<path d="M801.5 416.7C793.7 412.6 785.2 411.2 776.5 410.7C774.9 408.3 775.5 405.6 775.6 403C775.9 396.3 774.6 389.6 776.4 382.9C787.4 378.6 793.1 370 795.5 358.9C795.9 357.3 796.2 355.7 796.5 354.1C798.1 352 799.9 351.2 802.2 353.2C803.1 359.8 802.5 366.5 802.6 373.1C802.7 385.7 802.7 398.3 802.6 411C802.5 413 803.1 415.1 801.5 416.7Z" fill="#FEFEFE"/>
<path d="M801.5 352.7C799.8 353.2 798.1 353.7 796.5 354.2C787.5 355 781.099 351.3 777.199 342.7C772.899 347.8 767.799 351.2 761.099 350.6C753.399 349.9 746.999 344 745.699 336.6C744.399 328.8 748.499 321.3 755.899 318C757.099 317.5 758.399 317.1 759.599 316.7C770.399 315.5 775.799 318.5 779.399 327.7C781.399 321.5 786.899 319.1 797.899 319.8C799.199 320 800.299 320.5 801.399 321.1C802.299 321.6 802.899 322.3 803.399 323.2C813.199 333.5 813.199 341.3 803.399 351.8C803.099 352.4 802.4 352.8 801.5 352.7Z" fill="#010101"/>
<path d="M798.6 320.8C790.7 319.6 783.9 321.2 779 328.5C775.2 319.7 768.7 316 759.6 316.6C760.9 316.1 762.2 315.5 763.5 315C775.1 315.9 786.8 316.7 798.4 317.6C799.5 318.6 799.5 319.7 798.6 320.8Z" fill="#F99791"/>
<path d="M776.4 383C776.4 392.2 776.5 401.5 776.5 410.7C775.6 410.7 774.8 410.4 774.3 409.6C774.3 401 774.2 392.5 774.2 383.9C775 383.6 775.7 383.3 776.4 383Z" fill="#5882AF"/>
<path d="M1134.4 510.5C1113.2 514.6 1098.7 526.4 1091.6 547C1088.4 556.1 1089.5 565.8 1088.6 575.1C1085.3 609.8 1082.3 644.6 1079.2 679.3C1078.9 682.4 1078 684 1074.7 684.7C1069.8 685.7 1065.1 687.3 1060.3 688.6C1058 688.3 1058.1 686.4 1058 684.8C1057.8 682.8 1057.9 680.8 1057.9 678.8C1057.9 608.3 1057.9 537.7 1057.9 467.2C1057.9 466.7 1057.9 466.2 1057.9 465.7C1057.9 456.4 1058.5 455.9 1068 456.4C1072.9 457.9 1072.4 462.7 1074.1 466.2C1074.6 468 1074.7 469.8 1075.4 471.6C1077.6 477.5 1079.5 483.5 1082.4 489.1C1089.3 502.5 1100.7 508.2 1115.7 505.9C1119.6 505.3 1123.5 504.6 1127.4 503.8C1132.7 502.7 1134.8 504.8 1134.4 510.5Z" fill="#FEFEFE"/>
<path d="M1044.5 699.5C1040.8 700.4 1037.1 701.3 1033.3 702.2C1032.3 701.2 1031.9 699.9 1031.9 698.6C1032 680.7 1031.5 662.9 1032.2 645C1032.8 642.6 1035 641.9 1036.9 640.9C1045 636.6 1052 620.9 1049.8 612C1049.3 609.8 1047.8 608.2 1046.3 606.7C1045 605.4 1043.6 604.2 1043 602.4C1043.3 597.7 1038.4 598.1 1036.4 595.7C1034.4 593.7 1032.3 591.8 1032.1 588.7C1031.7 555.6 1032 522.4 1031.9 489.3C1031.9 480.6 1031.8 472 1031.9 463.3C1032 457.2 1033.1 456.1 1039.3 456C1044 456 1048.6 455.9 1053.3 456C1056.7 456.1 1058.6 457.5 1058.4 461.2C1058.3 462.4 1058.4 463.5 1058.4 464.7C1058.4 537.1 1058.4 609.5 1058.4 682C1058.4 684.4 1059.1 687 1057.4 689.2C1054.9 689.9 1052.4 691 1049.8 691.3C1044.8 692.3 1042.3 694.3 1044.5 699.5Z" fill="#FEFEFE"/>
<path d="M1073.5 467C1071.2 464.2 1071.5 460.3 1069.4 457.4C1068.5 456.8 1068.2 455.9 1067.9 454.9C1067.4 453.5 1067.1 452 1067.2 450.5C1069.5 443.5 1074.7 438.5 1079.2 433C1080.3 431.7 1082.1 431.4 1083.8 431.6C1090.9 432.5 1098 432.8 1105.1 433.6C1107.6 433.9 1109.3 435.5 1110.9 437.1C1124.7 450.5 1139 463.3 1153 476.6C1158.4 481.8 1161.5 488.8 1165 495.4C1166 499.1 1170 502 1168.3 506.5C1156.9 507.8 1145.6 509.2 1134.2 510.5C1133.2 505.5 1131.2 503.5 1125.5 505.3C1118.9 507.4 1111.9 508.4 1104.9 507.5C1093 506 1085 499 1080.3 488.2C1078 482.9 1076.3 477.4 1074.3 471.9C1075 470.7 1077.4 471 1077.2 469.1C1077.1 467 1074.7 467.9 1073.5 467Z" fill="#FD9993"/>
<path d="M1168.5 506.5C1167.1 502.9 1165.7 499.3 1164.3 495.7C1163.5 493.7 1163.3 491.6 1163.7 489.4C1165.2 481.1 1167 481.6 1172.6 482.1C1187 483.4 1200.6 474.8 1206.2 461.3C1207.1 459.1 1207.9 456.9 1210.6 456.4C1224.1 455.9 1237.5 456.3 1251 456.2C1254.6 456.2 1256.3 457.8 1256.3 461.7C1256.2 505.9 1256.3 550.1 1256.2 594.4C1256.2 595.9 1256.9 597.9 1254.4 598.4C1248.1 574.5 1242.1 550.5 1235.3 526.8C1231.8 514.5 1216.6 504.2 1202.6 503.6C1192.9 503.2 1183.4 505.4 1173.8 506.2C1172.1 506.3 1170.3 506.4 1168.5 506.5Z" fill="#FEFEFE"/>
<path d="M1069.2 454.9C1069.3 455.7 1069.4 456.6 1069.5 457.4C1059.6 457.7 1059.6 457.7 1059.6 467.9C1059.6 539.6 1059.6 611.3 1059.6 683C1059.6 684.9 1058.8 687 1060.4 688.7C1059.6 689.7 1058.4 689.4 1057.3 689.5C1057.3 613.7 1057.3 537.8 1057.4 462C1057.4 458.6 1056.6 457.3 1053 457.5C1048 457.8 1043 457.9 1038 457.5C1033.9 457.2 1033.1 458.7 1033.1 462.5C1033.2 496.3 1033.2 530 1033.2 563.8C1033.2 572.8 1033.1 581.8 1033.1 590.7C1030.4 591.4 1030 589.3 1029.3 587.5C1028.7 584.7 1028.8 581.9 1028.8 579C1028.8 542.4 1028.8 505.7 1028.8 469.1C1028.8 467.4 1028.7 465.8 1028.8 464.1C1028.9 460.8 1027.5 459.2 1024 459.3C1019.5 459.4 1015 459.3 1010.5 459.3C1007.3 459.3 1006 460.9 1006 463.9C1006 465.6 1006 467.2 1006 468.9C1006 502.9 1006 536.8 1006 570.8C1006 573.6 1006.4 576.5 1005 579.1C1004 580.4 1002.8 580.4 1001.6 579.3C1001.6 539.7 1001.7 500.1 1001.5 460.5C1001.5 455.7 1003.1 454.5 1007.5 454.8C1013.5 455.1 1019.5 454.6 1025.5 455C1029.6 455.2 1030.8 454 1030.8 449.8C1030.6 416.4 1030.7 382.9 1030.7 349.5C1030.7 338 1030.9 326.5 1030.6 315.1C1030.5 310.9 1031.9 309.6 1036 309.8C1042 310.1 1048 310.2 1054 309.8C1058.3 309.5 1059.6 310.7 1059.6 315.3C1059.4 342.6 1059.5 369.9 1059.5 397.2C1059.5 404.8 1058.6 403.9 1066 403.9C1083 403.9 1100 403.9 1116.9 404C1118.6 404 1120.6 403.1 1122 404.8C1119.1 407.7 1115.3 407.4 1111.7 407.4C1096.9 407.2 1082.2 407.4 1067.4 407.3C1061.3 407.3 1060.7 407.8 1060.7 413.7C1060.7 424.8 1060.7 435.9 1060.7 447.1C1060.7 448.9 1060.4 450.8 1061.7 452.3C1063.9 454.1 1067.3 452.6 1069.2 454.9Z" fill="#5A84B0"/>
<path d="M1254.5 598.4C1255.8 596.8 1255.3 594.9 1255.3 593.1C1255.3 549.7 1255.3 506.3 1255.4 462.8C1255.4 458.4 1254.3 457.2 1249.9 457.3C1236.4 457.6 1223 457.5 1209.5 457.5C1206.6 455.4 1208.8 454.6 1210.5 453.6C1214.6 453.2 1215.9 450.8 1215.9 446.9C1215.8 404.4 1215.9 361.9 1215.8 319.3C1215.8 313.9 1215.2 313.3 1209.7 313.4C1204.8 313.6 1199.7 312.1 1195.1 314.7C1193.4 316.7 1193.9 319.1 1193.9 321.4C1193.9 352.9 1193.9 384.3 1193.9 415.8C1193.9 418 1194.2 420.2 1193.4 422.2C1192.8 423.8 1191.8 424.3 1190.6 422.6C1190.6 387 1190.7 351.4 1190.5 315.8C1190.5 310.5 1192.1 309.3 1196.9 309.6C1202.9 310 1208.9 310 1214.9 309.6C1219.3 309.3 1220.5 310.7 1220.5 315.1C1220.3 357.7 1220.4 400.3 1220.4 442.9C1220.4 445.6 1220.6 448.2 1220.4 450.9C1220.1 454 1221.4 454.9 1224.4 454.8C1234.2 454.6 1244 454.8 1253.9 454.7C1256.9 454.7 1257.9 455.6 1257.9 458.7C1257.8 507.6 1257.8 556.5 1257.8 605.5C1257.8 605.8 1257.6 606.1 1257.6 606.5C1256.3 603.9 1255.4 601.1 1254.5 598.4Z" fill="#5C85B0"/>
<path d="M1220.9 666.9C1221.1 667.9 1220.2 668.8 1219 669.5C1210.8 674.6 1202.7 679.6 1194.5 684.7C1193.1 685.5 1191.7 686.2 1190.7 684.4C1189.8 682.7 1190.8 681.7 1192.2 680.8C1199 676.6 1205.7 672.3 1212.6 668.3C1215.5 666.7 1216 664.9 1215.1 661.9C1211 646.7 1207.1 631.5 1203 616.3C1202.5 614.5 1202.1 612.8 1204.1 612.1C1206.2 611.4 1206.9 613.2 1207.3 614.9C1211.7 631.6 1216 648.2 1220.4 664.9C1220.5 665.4 1220.6 665.8 1220.9 666.9Z" fill="#FCFCFD"/>
<path d="M1129.1 699.8C1128.2 700 1127.3 700.1 1126.3 700.3C1123.8 692 1123.8 683.3 1122.6 674.7C1120.4 658.2 1118.4 641.7 1116.6 625.2C1116.4 623 1114.3 619 1118.1 618.6C1121.9 618.2 1120.8 622.5 1121.1 624.8C1124 648.2 1126.8 671.7 1129.5 695.1C1129.8 696.7 1130.5 698.4 1129.1 699.8Z" fill="#FCFCFD"/>
<path d="M1065 746.1C1074.4 742.9 1083.7 739.6 1093.1 736.5C1094.4 736.1 1096.4 734.4 1097.3 736.9C1098.2 739.3 1095.9 739.5 1094.5 740C1084.8 743.3 1075.1 746.5 1065.4 749.8C1064.1 749.9 1062.8 750.1 1062.6 748.3C1062.3 746.4 1064.2 746.8 1065 746.1Z" fill="#060404"/>
<path d="M1096.5 715.5C1102.8 715.7 1108.2 712.2 1114 710.6C1116.2 710 1118.4 709.1 1120.6 708.5C1121.7 708.2 1123 708 1123.4 709.6C1123.7 710.8 1123 711.6 1122 711.9C1111.3 715.3 1100.9 719.6 1090 722.4C1089.7 722.5 1089.4 722.2 1089.1 722.1C1087.8 719.6 1089.5 719.2 1091.3 718.2C1093 717.4 1096 718.6 1096.5 715.5Z" fill="#050303"/>
<path d="M978.4 562.6C963.9 557.7 950.101 551.2 935.801 545.8C933.001 544.8 933.301 542.7 933.301 540.5C933.301 527.7 933.301 514.9 933.301 502C933.301 500.3 934 498.3 932.5 496.8C924.2 496.6 915.8 496.6 907.5 496.8C903.4 496.9 902.4 495.1 902.4 491.4C902.5 464.3 902.5 437.1 902.4 410C902.4 406 904.001 404.8 907.801 404.8C929.801 404.9 951.801 404.8 973.801 404.9C979.101 404.9 979.5 405.3 979.5 410.6C979.5 429.4 979.5 448.2 979.5 467C979.5 496.8 979.5 526.6 979.5 556.4C979.4 558.5 980 560.7 978.4 562.6Z" fill="#FEFEFE"/>
<path d="M1001.7 579.4C1002.5 579.4 1003.4 579.4 1004.2 579.4C1006.8 577.8 1009.6 578.1 1012.4 578.7C1019.3 580.4 1026.2 582.2 1030.7 588.5C1031.5 589.3 1032 590.4 1033.2 590.6C1034.7 592.3 1036.1 593.9 1037.6 595.6C1035.3 597.3 1033.1 595.9 1031 595.1C1025.1 592.9 1019.1 591 1013 589.6C1021 592.9 1029.2 595.6 1037.2 598.6C1039.3 599.4 1041.8 599.5 1043.2 601.7C1049.1 606.6 1053.5 612.3 1051.2 620.5C1048.3 630.6 1045.5 640.9 1033.2 643.8C1032.3 644.8 1031.2 645.4 1029.9 645.6C1020.9 645.2 1012.8 641.6 1004.4 639.1C1003.4 639 1002.4 638.7 1001.4 638.4C994.7 635.9 987.7 634.1 981 631.6C980 631.3 979.4 630.5 978.7 629.8C977.2 629.1 975.8 628.5 974.3 627.8C979.1 611.7 983.9 595.5 989.6 579.7C993.5 579.5 997.6 579.5 1001.7 579.4Z" fill="#FD9993"/>
<path d="M930.5 498.8C930.5 512.3 930.4 525.7 930.5 539.2C930.5 542.5 930 543.6 926.5 542.2C909 535 891.4 527.9 873.9 520.9C871.3 519.9 869.4 518.3 867.9 515.9C864.5 510.4 861 505.1 856.9 498.7C882 498.7 906.2 498.7 930.4 498.7L930.5 498.8Z" fill="#FEFEFE"/>
<path d="M978.4 562.6C978.4 511.8 978.4 461.1 978.5 410.3C978.5 406.7 977.4 405.9 974 405.9C951.9 406 929.7 406 907.6 405.9C904.4 405.9 903.301 406.7 903.301 410.1C903.401 437.4 903.401 464.7 903.301 492C903.301 495.1 904.2 496 907.2 496C914 495.8 920.8 495.9 927.7 496C929.3 496 931.1 495.4 932.4 496.8C932.4 512.4 932.4 528 932.4 543.6C932 543.6 931.701 543.6 931.301 543.6C931.301 537.4 931.301 531.2 931.301 524.9C931.301 517.7 931.301 510.6 931.301 503.4C931.301 501.8 931.9 500 930.4 498.7L930.301 498.6C928.801 497 926.9 497.7 925.1 497.7C903.8 497.6 882.5 497.7 861.2 497.6C859.6 497.6 857.9 498.1 855.4 496.6C869.6 496.6 882.8 496.6 896.1 496.6C897.8 496.6 899.8 497.6 901 495.4C901 466.6 901.1 437.8 900.9 409C900.9 404.9 901.9 403.6 906.1 403.7C929.2 403.9 952.4 403.9 975.5 403.7C979.5 403.7 980.5 404.9 980.5 408.8C980.4 460.4 980.4 512 980.4 563.6C979.8 563.6 979 563.4 978.4 562.6Z" fill="#5D85B1"/>
<path d="M801.5 352.7C801.9 351.8 802.7 351.8 803.4 351.6C803.4 374 803.5 396.3 803.5 418.7C802.8 418 802.1 417.4 801.5 416.7C801.5 395.4 801.5 374.1 801.5 352.7Z" fill="#5881AE"/>
<path d="M978.6 629.7C979.3 630 980.1 630.3 980.8 630.6C982.3 632.6 982.1 635 982.1 637.3C982.1 660.7 982.1 684.2 982.1 707.6C982.1 709.9 982.3 712.3 980.8 714.3C980.1 714.4 979.3 714.5 978.6 714.5C978.6 686.3 978.6 658 978.6 629.7Z" fill="#5882AE"/>
<path d="M1004.3 637.8C1013.1 640 1021.5 644.2 1030.8 644.5C1031.9 645.9 1031.9 647.6 1031.9 649.3C1031.9 665.4 1031.9 681.6 1031.9 697.7C1031.9 699.4 1031.9 701 1030.9 702.5C1022.2 705.4 1013.3 707.4 1004.2 708.7C1002.7 707 1003 705 1003 703C1003 683.2 1003 663.3 1003 643.5C1003 641.5 1002.8 639.4 1004.3 637.8Z" fill="#FEFEFE"/>
<path d="M980.8 714.4C980.8 686.5 980.8 658.6 980.8 630.6C988 632.3 995 634.6 1001.8 637.4C1003.1 639.3 1002.9 641.5 1002.9 643.7C1002.9 663.5 1002.9 683.3 1002.9 703.1C1002.9 705.3 1003.1 707.5 1001.7 709.4C994.8 711.1 987.8 712.7 980.8 714.4Z" fill="#FDFEFE"/>
<path d="M1001.8 709.4C1001.8 685.4 1001.8 661.4 1001.8 637.5C1002.6 637.6 1003.5 637.7 1004.3 637.9C1004.3 661.5 1004.2 685.1 1004.2 708.7C1003.4 708.9 1002.6 709.2 1001.8 709.4Z" fill="#5881AE"/>
<path d="M1030.9 702.4C1030.9 683.1 1030.9 663.8 1030.8 644.5C1031.6 644.3 1032.3 644 1033.1 643.8C1033.2 663.3 1033.2 682.8 1033.3 702.3C1032.5 702.3 1031.7 702.4 1030.9 702.4Z" fill="#5881AE"/>
<path d="M1190.4 422.7C1191.1 422.8 1192.1 423.9 1192.3 422.5C1192.6 421.1 1192.5 419.5 1192.5 418C1192.5 384.8 1192.5 351.6 1192.5 318.4C1192.5 316.5 1191.8 314.4 1193.2 312.6C1195.5 314.9 1194.8 317.9 1194.8 320.6C1194.9 352 1194.9 383.3 1194.8 414.7C1194.8 419.9 1196.1 423.8 1199.7 428C1206.2 435.4 1210.9 444.1 1209.5 454.7C1208.6 455.6 1208.4 456.5 1209.5 457.4C1206.4 462.8 1205.3 469.3 1200 473.4C1191.1 480.3 1181.4 485.1 1169.8 483C1167.3 482.6 1166.4 483.2 1166 485.3C1165.3 488.7 1164.3 492 1164.3 495.5C1163.1 493.5 1161.8 491.6 1160.8 489.5C1155.6 478.5 1145.7 471.5 1137.4 463.3C1130.1 456.1 1121.7 449.8 1114.9 442.1C1109.2 435.7 1102.7 433.7 1094.8 433.5C1091.5 433.4 1088.2 433.5 1084.9 432.6C1082.3 432 1080.1 432.6 1078.5 435.2C1075.4 440.4 1070.4 444.4 1068.2 450.4C1066.7 450.4 1066.4 449.1 1066.1 448C1063.9 439.8 1064.4 432 1071.3 426.1C1081.3 417.6 1093.1 412.4 1103.1 407.7C1096.5 408.4 1087.9 407.8 1079.4 407.9C1075.6 408 1071.8 407.9 1067.9 407.9C1062.4 408 1061.9 408.4 1061.8 413.8C1061.7 425.1 1061.8 436.4 1061.8 447.7C1061.8 450 1062.1 452.4 1060.4 454.3C1058.9 453.4 1059.5 451.9 1059.5 450.7C1059.5 437.1 1059.6 423.5 1059.4 409.9C1059.3 406.3 1060.6 405.5 1064 405.5C1078.4 405.7 1092.9 405.5 1107.3 405.6C1112.3 405.7 1117.2 405 1122.1 404.3C1127.2 402.5 1132.4 403.6 1137.5 403.4C1139.1 404 1140.8 404.2 1142.6 404.3C1146.5 409.4 1152.3 412.7 1155.9 418.2C1157.4 420.5 1157.7 424.4 1160.6 424.7C1162.9 425 1165.5 423.1 1167.9 422C1175.5 418.7 1182.9 419.6 1190.4 422.7Z" fill="#ECE9E9"/>
<path d="M803.399 323.1C802.599 323 801.8 322.9 801.5 322C799.7 319.6 800.1 317.3 801.5 314.9C801.8 313.9 802.5 313.2 803.5 312.8C803.5 316.2 803.499 319.6 803.399 323.1Z" fill="#567FAB"/>
<path d="M1142.6 404.7C1140.5 406.7 1139.1 404.6 1137.5 403.8C1139.3 404 1141.2 403 1142.6 404.7Z" fill="#7295BA"/>
<path d="M801.5 314.9C801.5 317.3 801.5 319.6 801.5 322C800.5 321.6 799.6 321.2 798.6 320.8C798.5 319.7 798.5 318.7 798.4 317.6C799.5 316.7 800.5 315.8 801.5 314.9Z" fill="#F5F1F1"/>
<path d="M749.4 333.8C749.3 326.4 755.1 320.5 762.4 320.4C769.5 320.4 775.4 326.1 775.6 333.2C775.8 340.7 770.2 346.6 762.8 346.8C755.5 347 749.5 341.2 749.4 333.8Z" fill="#FC9993"/>
<path d="M796.7 349.8C791 351.4 785.8 349.4 782.6 344.5C779.6 339.9 779.9 333.4 783.3 329.1C787.2 324.2 792.8 323 799.4 325.7C800.1 328.8 800.5 331.9 798.5 334.7C797.9 335.3 797.1 335.5 796.3 335.6C795.2 335.7 793.8 335.7 793.8 337.3C793.8 338.8 795.2 338.9 796.3 339.1C797.3 339.3 798.2 339.7 798.6 340.7C799.2 344 799.4 347.2 796.7 349.8Z" fill="#FC9993"/>
<path d="M796.7 349.8C797.5 346.4 797.8 343 797.5 339.5C796.3 338 796.4 336.5 797.6 335C799.4 332.1 797.5 328.5 799.4 325.7C800.5 325.9 801.3 326.5 801.8 327.5C803.6 334.2 803.9 341 801.6 347.7C800.1 348.9 798.7 350 796.7 349.8Z" fill="#FCFBFB"/>
<path d="M801.5 347.7C801.6 341 801.7 334.3 801.7 327.5C802.8 328.1 803.9 328.6 804.3 329.9C804.9 334.8 805.3 339.8 804.3 344.7C804 346.2 802.7 346.9 801.5 347.7Z" fill="#7394B7"/>
<path d="M804.3 344.7C803.4 339.8 803.3 334.8 804.3 329.9C807.3 334.8 808 339.8 804.3 344.7Z" fill="#F5F5F5"/>
<path d="M1073.5 467C1075.2 466.4 1076.9 465.6 1078.5 467.3C1079.4 468.3 1079.6 469.4 1079 470.5C1078 472.4 1076.4 472.9 1074.4 472C1072.8 470.6 1073.1 468.8 1073.5 467Z" fill="#110B0B"/>
<path d="M1043.2 601.8C1032.8 598.4 1022.4 594.9 1012.1 591.4C1010.9 591 1009.2 590.5 1009.7 588.8C1010.3 586.8 1012 587.3 1013.5 587.8C1021.5 590.4 1029.6 593 1037.6 595.7C1039.3 596.4 1040.9 597 1042.6 597.7C1045 598.6 1045.8 599.9 1043.2 601.8Z" fill="#050303"/>
<path d="M1060.4 454.7C1060.4 440.2 1060.5 425.8 1060.4 411.3C1060.4 408.3 1060.8 406.7 1064.4 406.8C1078.2 407 1092 406.9 1105.8 406.9C1106.6 406.9 1107.4 406.9 1109.8 406.9C1097.6 411.7 1087.4 417 1077.7 423.3C1066.2 430.7 1064.1 437.3 1068.2 450.8C1068.5 452.2 1068.9 453.6 1069.2 455C1066.3 454.8 1063.3 454.7 1060.4 454.7Z" fill="#FDFDFE"/>
<path d="M1106.8 452.9C1108.7 453.1 1109.9 454.3 1109.9 456.1C1109.9 458 1108.7 459.2 1106.8 459.2C1104.9 459.2 1103.6 458 1103.7 456.1C1103.7 454.2 1105 453.2 1106.8 452.9Z" fill="#190F0F"/>
<path d="M1057.4 383.4C1057.4 405.7 1057.3 428 1057.5 450.3C1057.5 454.1 1056.5 455.2 1052.8 455C1048 454.7 1043.1 454.7 1038.3 455C1034.5 455.2 1033.2 454.2 1033.2 450.1C1033.4 432.1 1033.3 414.2 1033.3 396.2C1033.3 369.7 1033.4 343.3 1033.2 316.8C1033.2 312.8 1034.4 311.6 1038.3 311.9C1043.1 312.2 1048 312.2 1052.8 311.9C1056.5 311.7 1057.6 312.7 1057.6 316.6C1057.3 338.9 1057.4 361.2 1057.4 383.4Z" fill="#FEFEFE"/>
<path d="M1030.6 588.5C1022.8 582.6 1014.1 579.1 1004.2 579.4C1004.2 540.7 1004.3 501.9 1004.1 463.2C1004.1 458.7 1005.1 457 1009.8 457.4C1015.1 457.8 1020.4 457.7 1025.8 457.4C1029.7 457.2 1030.9 458.3 1030.9 462.4C1030.7 482.2 1030.8 502 1030.8 521.8C1030.7 544 1030.7 566.3 1030.6 588.5Z" fill="#FEFEFE"/>
<path d="M1209.5 454.9C1207.2 452.7 1208.9 449.8 1208.1 447.3C1205.4 439.3 1202.8 431.2 1195.3 426.1C1193 424.5 1193.4 422.1 1193.4 419.8C1193.4 386.3 1193.4 352.7 1193.4 319.2C1193.4 317 1193.3 314.9 1193.3 312.7C1200.7 311.2 1208.2 312.4 1215.6 312.1C1217.1 312 1217.6 313.1 1217.6 314.4C1217.6 315.7 1217.6 317.1 1217.6 318.4C1217.6 361.3 1217.6 404.3 1217.6 447.2C1217.5 455.6 1219.4 455 1209.5 454.9Z" fill="#FEFEFE"/>
<path d="M1143.5 441.3C1148.2 439.9 1152.4 439.1 1156.7 440.4C1167 443.5 1170.1 453.3 1163.4 462C1157.1 470.2 1156.5 470.1 1152.3 460.9C1149.4 454.4 1146.5 447.9 1143.5 441.3Z" fill="#FD9A94"/>
<path d="M762.4 336.7C760.4 336.3 759.4 335.1 759.5 333.2C759.6 331.5 760.7 330.5 762.5 330.5C764.4 330.5 765.6 331.6 765.6 333.6C765.5 335.6 764.2 336.6 762.4 336.7Z" fill="#0D0807"/>
<path d="M797.6 335C798 336.5 798 338 797.5 339.5C795.6 340.2 793.7 341 792.3 338.7C791.6 337.6 791.7 336.6 792.4 335.5C793.9 333.3 795.7 334.1 797.6 335Z" fill="#120B0A"/>
</svg>
